%
M48
M71
T01C0.300
T02C0.600
T03C1.000
T04C1.016
T05C1.100
T06C1.300
T07C2.200
%
T01
X31874Y81301
X29175Y87334
X27429Y95271
X31239Y95271
X35049Y95271
X38859Y95271
X42510Y90509
X47352Y90191
X51876Y84159
X53623Y84159
X54575Y84159
X58861Y90191
X64894Y58124
X63148Y54949
X23619Y95271
X19809Y95271
X18221Y86064
T02
X49813Y85349
X50448Y86381
X49178Y86381
X57750Y86381
X59020Y86381
X59020Y85111
X59020Y83841
X61243Y83841
X61243Y85111
X65688Y84794
X67275Y84794
X66481Y78444
X65529Y53044
X64894Y51774
T03
X28381Y46440
X28381Y48980
X28381Y51520
X28381Y54060
X28381Y56600
X28381Y59140
X28381Y61680
X28381Y64220
X28381Y66760
X28381Y69300
X28381Y73364
X28381Y75904
X28381Y78444
X28381Y80984
X28381Y83524
X28381Y86064
X28381Y88604
X28381Y91144
X50924Y61299
X52829Y61299
X54734Y61299
X54734Y59394
X52829Y59394
X50924Y59394
X50924Y57489
X52829Y57489
X54734Y57489
X76641Y58124
X76641Y55584
X76641Y60664
X76641Y63204
X76641Y65744
X76641Y68284
X76641Y70824
X76641Y73364
X76641Y78444
X76641Y80984
X76641Y83524
X76641Y86064
X76641Y88604
X76641Y91144
X53385Y81222
X51638Y81222
X51638Y79476
X53385Y79476
T04
X11871Y46694
X14411Y46694
X16951Y46694
X16951Y49234
X14411Y49234
X11871Y49234
X11871Y51774
X14411Y51774
X16951Y51774
X16951Y54314
X14411Y54314
X11871Y54314
X11871Y56854
X14411Y56854
X16951Y56854
X16951Y59394
X14411Y59394
X11871Y59394
X11871Y61934
X14411Y61934
X16951Y61934
X16951Y64474
X14411Y64474
X11871Y64474
X11871Y67014
X14411Y67014
X16951Y67014
X16951Y69554
X14411Y69554
X11871Y69554
X11871Y72094
X14411Y72094
X16951Y72094
X16951Y74634
X14411Y74634
X11871Y74634
X11871Y77174
X14411Y77174
X16951Y77174
X16951Y79714
X14411Y79714
X11871Y79714
X11871Y82254
X14411Y82254
X16951Y82254
X16951Y84794
X14411Y84794
X11871Y84794
X11871Y87334
X14411Y87334
X16951Y87334
X16951Y89874
X14411Y89874
X11871Y89874
X19491Y89874
X22031Y89874
X24571Y89874
X24571Y87334
X22031Y87334
X19491Y87334
X19491Y84794
X22031Y84794
X24571Y84794
X24571Y82254
X22031Y82254
X19491Y82254
X19491Y79714
X22031Y79714
X24571Y79714
X24571Y77174
X22031Y77174
X19491Y77174
X19491Y74634
X22031Y74634
X24571Y74634
X24571Y72094
X22031Y72094
X19491Y72094
X19491Y69554
X22031Y69554
X24571Y69554
X24571Y67014
X22031Y67014
X19491Y67014
X19491Y64474
X22031Y64474
X24571Y64474
X24571Y61934
X22031Y61934
X19491Y61934
X19491Y59394
X22031Y59394
X24571Y59394
X24571Y56854
X22031Y56854
X19491Y56854
X19491Y54314
X22031Y54314
X24571Y54314
X24571Y51774
X22031Y51774
X19491Y51774
X19491Y49234
X22031Y49234
X24571Y49234
X24571Y46694
X22031Y46694
X19491Y46694
X36001Y46694
X36001Y49234
X36001Y51774
X36001Y54314
X36001Y56854
X36001Y59394
X36001Y61934
X36001Y64474
X36001Y67014
X36001Y69554
X36001Y72094
X36001Y74634
X36001Y77174
X36001Y79714
X34731Y83524
X37271Y83524
X37271Y86064
X34731Y86064
X32191Y86064
X32191Y83524
X39811Y83524
X39811Y80984
X42351Y80984
X42351Y83524
X44891Y83524
X44891Y80984
X44891Y78444
X42351Y78444
X42351Y75904
X44891Y75904
X44891Y73364
X42351Y73364
X47431Y73364
X49971Y73364
X52511Y73364
X52511Y75904
X49971Y75904
X47431Y75904
X47431Y78444
X47431Y80984
X47431Y83524
X47431Y86064
X47431Y88604
X49971Y88604
X52511Y88604
X55051Y88604
X57591Y88604
X62671Y91144
X65211Y91144
X66481Y87334
X66481Y82254
X62671Y78444
X62671Y75904
X60131Y75904
X57591Y75904
X55051Y75904
X57591Y78444
X60131Y78444
X60131Y80984
X57591Y80984
X57591Y73364
X55051Y73364
X60131Y73364
X69021Y74634
X69021Y77174
X69021Y72094
X69021Y69554
X69021Y67014
X69021Y64474
X69021Y61934
X69021Y59394
X69021Y56854
X69021Y54314
X69021Y51774
X69021Y49234
X80451Y46694
X80451Y49234
X80451Y51774
X80451Y54314
X80451Y56854
X80451Y59394
X80451Y61934
X80451Y64474
X80451Y67014
X80451Y69554
X80451Y72094
X80451Y74634
X80451Y77174
X82991Y77174
X82991Y74634
X85531Y74634
X85531Y77174
X88071Y77174
X88071Y74634
X88071Y72094
X85531Y72094
X82991Y72094
X82991Y69554
X85531Y69554
X88071Y69554
X88071Y67014
X85531Y67014
X82991Y67014
X82991Y64474
X85531Y64474
X88071Y64474
X88071Y61934
X85531Y61934
X82991Y61934
X82991Y59394
X85531Y59394
X88071Y59394
X88071Y56854
X85531Y56854
X82991Y56854
X82991Y54314
X85531Y54314
X88071Y54314
X88071Y51774
X85531Y51774
X82991Y51774
X82991Y49234
X85531Y49234
X88071Y49234
X90611Y49234
X90611Y51774
X93151Y51774
X93151Y49234
X93151Y54314
X90611Y54314
X90611Y56854
X93151Y56854
X93151Y59394
X90611Y59394
X90611Y61934
X93151Y61934
X93151Y64474
X90611Y64474
X90611Y67014
X93151Y67014
X93151Y69554
X90611Y69554
X90611Y72094
X93151Y72094
X93151Y74634
X90611Y74634
X90611Y77174
X93151Y77174
X82991Y82254
X82991Y84794
X82991Y87334
X83944Y91937
X86484Y91937
X86484Y94477
X83944Y94477
X81404Y94477
X81404Y91937
X72831Y84794
X72831Y82254
X44891Y86064
X42351Y86064
X39811Y86064
X82991Y46694
T05
X66425Y45920
X72860Y45920
X86772Y45880
X93207Y45880
T06
X90586Y82233
X90586Y87313
T07
X12601Y94154
X76601Y46154
X92601Y94154
M30
