G75*
%MOMM*%
%OFA0B0*%
%FSLAX33Y33*%
%IPPOS*%
%LPD*%
%AMOC8*
5,1,8,0,0,1.08239X$1,22.5*
%
%ADD10C,0.406*%
%ADD11C,0.000*%
%ADD12C,0.105*%
%ADD13C,0.300*%
%ADD14C,0.104*%
%ADD15C,0.100*%
%ADD16C,0.600*%
%ADD17C,0.140*%
D10*
X10601Y44154D02*
X10601Y96214D01*
X94421Y96224D01*
X94421Y44154D01*
X10601Y44154D01*
D11*
X11501Y94154D02*
X11503Y94220D01*
X11509Y94285D01*
X11519Y94350D01*
X11532Y94415D01*
X11550Y94478D01*
X11571Y94541D01*
X11596Y94601D01*
X11625Y94661D01*
X11657Y94718D01*
X11692Y94774D01*
X11731Y94827D01*
X11773Y94878D01*
X11817Y94926D01*
X11865Y94971D01*
X11915Y95014D01*
X11968Y95053D01*
X12023Y95090D01*
X12080Y95123D01*
X12139Y95152D01*
X12199Y95178D01*
X12261Y95200D01*
X12324Y95219D01*
X12388Y95233D01*
X12453Y95244D01*
X12519Y95251D01*
X12585Y95254D01*
X12650Y95253D01*
X12716Y95248D01*
X12781Y95239D01*
X12846Y95226D01*
X12909Y95210D01*
X12972Y95190D01*
X13033Y95165D01*
X13093Y95138D01*
X13151Y95107D01*
X13207Y95072D01*
X13261Y95034D01*
X13312Y94993D01*
X13361Y94949D01*
X13407Y94902D01*
X13451Y94853D01*
X13491Y94801D01*
X13528Y94746D01*
X13562Y94690D01*
X13592Y94631D01*
X13619Y94571D01*
X13642Y94510D01*
X13661Y94447D01*
X13677Y94383D01*
X13689Y94318D01*
X13697Y94253D01*
X13701Y94187D01*
X13701Y94121D01*
X13697Y94055D01*
X13689Y93990D01*
X13677Y93925D01*
X13661Y93861D01*
X13642Y93798D01*
X13619Y93737D01*
X13592Y93677D01*
X13562Y93618D01*
X13528Y93562D01*
X13491Y93507D01*
X13451Y93455D01*
X13407Y93406D01*
X13361Y93359D01*
X13312Y93315D01*
X13261Y93274D01*
X13207Y93236D01*
X13151Y93201D01*
X13093Y93170D01*
X13033Y93143D01*
X12972Y93118D01*
X12909Y93098D01*
X12846Y93082D01*
X12781Y93069D01*
X12716Y93060D01*
X12650Y93055D01*
X12585Y93054D01*
X12519Y93057D01*
X12453Y93064D01*
X12388Y93075D01*
X12324Y93089D01*
X12261Y93108D01*
X12199Y93130D01*
X12139Y93156D01*
X12080Y93185D01*
X12023Y93218D01*
X11968Y93255D01*
X11915Y93294D01*
X11865Y93337D01*
X11817Y93382D01*
X11773Y93430D01*
X11731Y93481D01*
X11692Y93534D01*
X11657Y93590D01*
X11625Y93647D01*
X11596Y93707D01*
X11571Y93767D01*
X11550Y93830D01*
X11532Y93893D01*
X11519Y93958D01*
X11509Y94023D01*
X11503Y94088D01*
X11501Y94154D01*
X75501Y46154D02*
X75503Y46220D01*
X75509Y46285D01*
X75519Y46350D01*
X75532Y46415D01*
X75550Y46478D01*
X75571Y46541D01*
X75596Y46601D01*
X75625Y46661D01*
X75657Y46718D01*
X75692Y46774D01*
X75731Y46827D01*
X75773Y46878D01*
X75817Y46926D01*
X75865Y46971D01*
X75915Y47014D01*
X75968Y47053D01*
X76023Y47090D01*
X76080Y47123D01*
X76139Y47152D01*
X76199Y47178D01*
X76261Y47200D01*
X76324Y47219D01*
X76388Y47233D01*
X76453Y47244D01*
X76519Y47251D01*
X76585Y47254D01*
X76650Y47253D01*
X76716Y47248D01*
X76781Y47239D01*
X76846Y47226D01*
X76909Y47210D01*
X76972Y47190D01*
X77033Y47165D01*
X77093Y47138D01*
X77151Y47107D01*
X77207Y47072D01*
X77261Y47034D01*
X77312Y46993D01*
X77361Y46949D01*
X77407Y46902D01*
X77451Y46853D01*
X77491Y46801D01*
X77528Y46746D01*
X77562Y46690D01*
X77592Y46631D01*
X77619Y46571D01*
X77642Y46510D01*
X77661Y46447D01*
X77677Y46383D01*
X77689Y46318D01*
X77697Y46253D01*
X77701Y46187D01*
X77701Y46121D01*
X77697Y46055D01*
X77689Y45990D01*
X77677Y45925D01*
X77661Y45861D01*
X77642Y45798D01*
X77619Y45737D01*
X77592Y45677D01*
X77562Y45618D01*
X77528Y45562D01*
X77491Y45507D01*
X77451Y45455D01*
X77407Y45406D01*
X77361Y45359D01*
X77312Y45315D01*
X77261Y45274D01*
X77207Y45236D01*
X77151Y45201D01*
X77093Y45170D01*
X77033Y45143D01*
X76972Y45118D01*
X76909Y45098D01*
X76846Y45082D01*
X76781Y45069D01*
X76716Y45060D01*
X76650Y45055D01*
X76585Y45054D01*
X76519Y45057D01*
X76453Y45064D01*
X76388Y45075D01*
X76324Y45089D01*
X76261Y45108D01*
X76199Y45130D01*
X76139Y45156D01*
X76080Y45185D01*
X76023Y45218D01*
X75968Y45255D01*
X75915Y45294D01*
X75865Y45337D01*
X75817Y45382D01*
X75773Y45430D01*
X75731Y45481D01*
X75692Y45534D01*
X75657Y45590D01*
X75625Y45647D01*
X75596Y45707D01*
X75571Y45767D01*
X75550Y45830D01*
X75532Y45893D01*
X75519Y45958D01*
X75509Y46023D01*
X75503Y46088D01*
X75501Y46154D01*
X91501Y94154D02*
X91503Y94220D01*
X91509Y94285D01*
X91519Y94350D01*
X91532Y94415D01*
X91550Y94478D01*
X91571Y94541D01*
X91596Y94601D01*
X91625Y94661D01*
X91657Y94718D01*
X91692Y94774D01*
X91731Y94827D01*
X91773Y94878D01*
X91817Y94926D01*
X91865Y94971D01*
X91915Y95014D01*
X91968Y95053D01*
X92023Y95090D01*
X92080Y95123D01*
X92139Y95152D01*
X92199Y95178D01*
X92261Y95200D01*
X92324Y95219D01*
X92388Y95233D01*
X92453Y95244D01*
X92519Y95251D01*
X92585Y95254D01*
X92650Y95253D01*
X92716Y95248D01*
X92781Y95239D01*
X92846Y95226D01*
X92909Y95210D01*
X92972Y95190D01*
X93033Y95165D01*
X93093Y95138D01*
X93151Y95107D01*
X93207Y95072D01*
X93261Y95034D01*
X93312Y94993D01*
X93361Y94949D01*
X93407Y94902D01*
X93451Y94853D01*
X93491Y94801D01*
X93528Y94746D01*
X93562Y94690D01*
X93592Y94631D01*
X93619Y94571D01*
X93642Y94510D01*
X93661Y94447D01*
X93677Y94383D01*
X93689Y94318D01*
X93697Y94253D01*
X93701Y94187D01*
X93701Y94121D01*
X93697Y94055D01*
X93689Y93990D01*
X93677Y93925D01*
X93661Y93861D01*
X93642Y93798D01*
X93619Y93737D01*
X93592Y93677D01*
X93562Y93618D01*
X93528Y93562D01*
X93491Y93507D01*
X93451Y93455D01*
X93407Y93406D01*
X93361Y93359D01*
X93312Y93315D01*
X93261Y93274D01*
X93207Y93236D01*
X93151Y93201D01*
X93093Y93170D01*
X93033Y93143D01*
X92972Y93118D01*
X92909Y93098D01*
X92846Y93082D01*
X92781Y93069D01*
X92716Y93060D01*
X92650Y93055D01*
X92585Y93054D01*
X92519Y93057D01*
X92453Y93064D01*
X92388Y93075D01*
X92324Y93089D01*
X92261Y93108D01*
X92199Y93130D01*
X92139Y93156D01*
X92080Y93185D01*
X92023Y93218D01*
X91968Y93255D01*
X91915Y93294D01*
X91865Y93337D01*
X91817Y93382D01*
X91773Y93430D01*
X91731Y93481D01*
X91692Y93534D01*
X91657Y93590D01*
X91625Y93647D01*
X91596Y93707D01*
X91571Y93767D01*
X91550Y93830D01*
X91532Y93893D01*
X91519Y93958D01*
X91509Y94023D01*
X91503Y94088D01*
X91501Y94154D01*
D12*
X56158Y84713D02*
X55562Y84713D01*
X55562Y85509D01*
X56158Y85509D01*
X56158Y84713D01*
X56158Y84817D02*
X55562Y84817D01*
X55562Y84921D02*
X56158Y84921D01*
X56158Y85025D02*
X55562Y85025D01*
X55562Y85129D02*
X56158Y85129D01*
X56158Y85233D02*
X55562Y85233D01*
X55562Y85337D02*
X56158Y85337D01*
X56158Y85441D02*
X55562Y85441D01*
X54858Y84713D02*
X54262Y84713D01*
X54262Y85509D01*
X54858Y85509D01*
X54858Y84713D01*
X54858Y84817D02*
X54262Y84817D01*
X54262Y84921D02*
X54858Y84921D01*
X54858Y85025D02*
X54262Y85025D01*
X54262Y85129D02*
X54858Y85129D01*
X54858Y85233D02*
X54262Y85233D01*
X54262Y85337D02*
X54858Y85337D01*
X54858Y85441D02*
X54262Y85441D01*
X53777Y85509D02*
X53181Y85509D01*
X53777Y85509D02*
X53777Y84713D01*
X53181Y84713D01*
X53181Y85509D01*
X53181Y84817D02*
X53777Y84817D01*
X53777Y84921D02*
X53181Y84921D01*
X53181Y85025D02*
X53777Y85025D01*
X53777Y85129D02*
X53181Y85129D01*
X53181Y85233D02*
X53777Y85233D01*
X53777Y85337D02*
X53181Y85337D01*
X53181Y85441D02*
X53777Y85441D01*
X52477Y85509D02*
X51881Y85509D01*
X52477Y85509D02*
X52477Y84713D01*
X51881Y84713D01*
X51881Y85509D01*
X51881Y84817D02*
X52477Y84817D01*
X52477Y84921D02*
X51881Y84921D01*
X51881Y85025D02*
X52477Y85025D01*
X52477Y85129D02*
X51881Y85129D01*
X51881Y85233D02*
X52477Y85233D01*
X52477Y85337D02*
X51881Y85337D01*
X51881Y85441D02*
X52477Y85441D01*
D13*
X52011Y86731D02*
X51311Y86731D01*
X52011Y86731D02*
X52011Y86031D01*
X51311Y86031D01*
X51311Y86731D01*
X51311Y86330D02*
X52011Y86330D01*
X52011Y86629D02*
X51311Y86629D01*
X53011Y86731D02*
X53711Y86731D01*
X53711Y86031D01*
X53011Y86031D01*
X53011Y86731D01*
X53011Y86330D02*
X53711Y86330D01*
X53711Y86629D02*
X53011Y86629D01*
X54328Y86031D02*
X55028Y86031D01*
X54328Y86031D02*
X54328Y86731D01*
X55028Y86731D01*
X55028Y86031D01*
X55028Y86330D02*
X54328Y86330D01*
X54328Y86629D02*
X55028Y86629D01*
X56028Y86031D02*
X56728Y86031D01*
X56028Y86031D02*
X56028Y86731D01*
X56728Y86731D01*
X56728Y86031D01*
X56728Y86330D02*
X56028Y86330D01*
X56028Y86629D02*
X56728Y86629D01*
X60481Y89944D02*
X60481Y90644D01*
X60481Y89944D02*
X59781Y89944D01*
X59781Y90644D01*
X60481Y90644D01*
X60481Y90243D02*
X59781Y90243D01*
X59781Y90542D02*
X60481Y90542D01*
X60481Y91644D02*
X60481Y92344D01*
X60481Y91644D02*
X59781Y91644D01*
X59781Y92344D01*
X60481Y92344D01*
X60481Y91943D02*
X59781Y91943D01*
X59781Y92242D02*
X60481Y92242D01*
X64011Y95304D02*
X64711Y95304D01*
X64711Y94604D01*
X64011Y94604D01*
X64011Y95304D01*
X64011Y94903D02*
X64711Y94903D01*
X64711Y95202D02*
X64011Y95202D01*
X65711Y95304D02*
X66411Y95304D01*
X66411Y94604D01*
X65711Y94604D01*
X65711Y95304D01*
X65711Y94903D02*
X66411Y94903D01*
X66411Y95202D02*
X65711Y95202D01*
X79214Y95519D02*
X79214Y94819D01*
X78514Y94819D01*
X78514Y95519D01*
X79214Y95519D01*
X79214Y95118D02*
X78514Y95118D01*
X78514Y95417D02*
X79214Y95417D01*
X79214Y93819D02*
X79214Y93119D01*
X78514Y93119D01*
X78514Y93819D01*
X79214Y93819D01*
X79214Y93418D02*
X78514Y93418D01*
X78514Y93717D02*
X79214Y93717D01*
X45176Y92661D02*
X45176Y91961D01*
X45176Y92661D02*
X45876Y92661D01*
X45876Y91961D01*
X45176Y91961D01*
X45176Y92260D02*
X45876Y92260D01*
X45876Y92559D02*
X45176Y92559D01*
X43271Y92661D02*
X43271Y91961D01*
X43271Y92661D02*
X43971Y92661D01*
X43971Y91961D01*
X43271Y91961D01*
X43271Y92260D02*
X43971Y92260D01*
X43971Y92559D02*
X43271Y92559D01*
X43271Y90961D02*
X43271Y90261D01*
X43271Y90961D02*
X43971Y90961D01*
X43971Y90261D01*
X43271Y90261D01*
X43271Y90560D02*
X43971Y90560D01*
X43971Y90859D02*
X43271Y90859D01*
X45176Y90961D02*
X45176Y90261D01*
X45176Y90961D02*
X45876Y90961D01*
X45876Y90261D01*
X45176Y90261D01*
X45176Y90560D02*
X45876Y90560D01*
X45876Y90859D02*
X45176Y90859D01*
X41114Y91074D02*
X41114Y90374D01*
X40414Y90374D01*
X40414Y91074D01*
X41114Y91074D01*
X41114Y90673D02*
X40414Y90673D01*
X40414Y90972D02*
X41114Y90972D01*
X39844Y91074D02*
X39844Y90374D01*
X39144Y90374D01*
X39144Y91074D01*
X39844Y91074D01*
X39844Y90673D02*
X39144Y90673D01*
X39144Y90972D02*
X39844Y90972D01*
X38415Y91074D02*
X38415Y90374D01*
X37715Y90374D01*
X37715Y91074D01*
X38415Y91074D01*
X38415Y90673D02*
X37715Y90673D01*
X37715Y90972D02*
X38415Y90972D01*
X37145Y91074D02*
X37145Y90374D01*
X36445Y90374D01*
X36445Y91074D01*
X37145Y91074D01*
X37145Y90673D02*
X36445Y90673D01*
X36445Y90972D02*
X37145Y90972D01*
X35716Y91074D02*
X35716Y90374D01*
X35016Y90374D01*
X35016Y91074D01*
X35716Y91074D01*
X35716Y90673D02*
X35016Y90673D01*
X35016Y90972D02*
X35716Y90972D01*
X34446Y91074D02*
X34446Y90374D01*
X33746Y90374D01*
X33746Y91074D01*
X34446Y91074D01*
X34446Y90673D02*
X33746Y90673D01*
X33746Y90972D02*
X34446Y90972D01*
X33018Y91074D02*
X33018Y90374D01*
X32318Y90374D01*
X32318Y91074D01*
X33018Y91074D01*
X33018Y90673D02*
X32318Y90673D01*
X32318Y90972D02*
X33018Y90972D01*
X31748Y91074D02*
X31748Y90374D01*
X31048Y90374D01*
X31048Y91074D01*
X31748Y91074D01*
X31748Y90673D02*
X31048Y90673D01*
X31048Y90972D02*
X31748Y90972D01*
X31748Y89374D02*
X31748Y88674D01*
X31048Y88674D01*
X31048Y89374D01*
X31748Y89374D01*
X31748Y88973D02*
X31048Y88973D01*
X31048Y89272D02*
X31748Y89272D01*
X33018Y89374D02*
X33018Y88674D01*
X32318Y88674D01*
X32318Y89374D01*
X33018Y89374D01*
X33018Y88973D02*
X32318Y88973D01*
X32318Y89272D02*
X33018Y89272D01*
X34446Y89374D02*
X34446Y88674D01*
X33746Y88674D01*
X33746Y89374D01*
X34446Y89374D01*
X34446Y88973D02*
X33746Y88973D01*
X33746Y89272D02*
X34446Y89272D01*
X35716Y89374D02*
X35716Y88674D01*
X35016Y88674D01*
X35016Y89374D01*
X35716Y89374D01*
X35716Y88973D02*
X35016Y88973D01*
X35016Y89272D02*
X35716Y89272D01*
X37145Y89374D02*
X37145Y88674D01*
X36445Y88674D01*
X36445Y89374D01*
X37145Y89374D01*
X37145Y88973D02*
X36445Y88973D01*
X36445Y89272D02*
X37145Y89272D01*
X38415Y89374D02*
X38415Y88674D01*
X37715Y88674D01*
X37715Y89374D01*
X38415Y89374D01*
X38415Y88973D02*
X37715Y88973D01*
X37715Y89272D02*
X38415Y89272D01*
X39844Y89374D02*
X39844Y88674D01*
X39144Y88674D01*
X39144Y89374D01*
X39844Y89374D01*
X39844Y88973D02*
X39144Y88973D01*
X39144Y89272D02*
X39844Y89272D01*
X41114Y89374D02*
X41114Y88674D01*
X40414Y88674D01*
X40414Y89374D01*
X41114Y89374D01*
X41114Y88973D02*
X40414Y88973D01*
X40414Y89272D02*
X41114Y89272D01*
X40535Y78794D02*
X39835Y78794D01*
X40535Y78794D02*
X40535Y78094D01*
X39835Y78094D01*
X39835Y78794D01*
X39835Y78393D02*
X40535Y78393D01*
X40535Y78692D02*
X39835Y78692D01*
X38835Y78794D02*
X38135Y78794D01*
X38835Y78794D02*
X38835Y78094D01*
X38135Y78094D01*
X38135Y78794D01*
X38135Y78393D02*
X38835Y78393D01*
X38835Y78692D02*
X38135Y78692D01*
X25295Y91587D02*
X24595Y91587D01*
X24595Y92287D01*
X25295Y92287D01*
X25295Y91587D01*
X25295Y91886D02*
X24595Y91886D01*
X24595Y92185D02*
X25295Y92185D01*
X23595Y91587D02*
X22895Y91587D01*
X22895Y92287D01*
X23595Y92287D01*
X23595Y91587D01*
X23595Y91886D02*
X22895Y91886D01*
X22895Y92185D02*
X23595Y92185D01*
X21644Y91587D02*
X20944Y91587D01*
X20944Y92287D01*
X21644Y92287D01*
X21644Y91587D01*
X21644Y91886D02*
X20944Y91886D01*
X20944Y92185D02*
X21644Y92185D01*
X19944Y91587D02*
X19244Y91587D01*
X19244Y92287D01*
X19944Y92287D01*
X19944Y91587D01*
X19944Y91886D02*
X19244Y91886D01*
X19244Y92185D02*
X19944Y92185D01*
X18571Y91849D02*
X18571Y92549D01*
X18571Y91849D02*
X17871Y91849D01*
X17871Y92549D01*
X18571Y92549D01*
X18571Y92148D02*
X17871Y92148D01*
X17871Y92447D02*
X18571Y92447D01*
X18571Y93549D02*
X18571Y94249D01*
X18571Y93549D02*
X17871Y93549D01*
X17871Y94249D01*
X18571Y94249D01*
X18571Y93848D02*
X17871Y93848D01*
X17871Y94147D02*
X18571Y94147D01*
X17301Y94249D02*
X17301Y93549D01*
X16601Y93549D01*
X16601Y94249D01*
X17301Y94249D01*
X17301Y93848D02*
X16601Y93848D01*
X16601Y94147D02*
X17301Y94147D01*
X17301Y92549D02*
X17301Y91849D01*
X16601Y91849D01*
X16601Y92549D01*
X17301Y92549D01*
X17301Y92148D02*
X16601Y92148D01*
X16601Y92447D02*
X17301Y92447D01*
X63904Y55201D02*
X63904Y54501D01*
X63904Y55201D02*
X64604Y55201D01*
X64604Y54501D01*
X63904Y54501D01*
X63904Y54800D02*
X64604Y54800D01*
X64604Y55099D02*
X63904Y55099D01*
X63904Y53501D02*
X63904Y52801D01*
X63904Y53501D02*
X64604Y53501D01*
X64604Y52801D01*
X63904Y52801D01*
X63904Y53100D02*
X64604Y53100D01*
X64604Y53399D02*
X63904Y53399D01*
X76991Y52974D02*
X76991Y52274D01*
X76291Y52274D01*
X76291Y52974D01*
X76991Y52974D01*
X76991Y52573D02*
X76291Y52573D01*
X76291Y52872D02*
X76991Y52872D01*
X78261Y52974D02*
X78261Y52274D01*
X77561Y52274D01*
X77561Y52974D01*
X78261Y52974D01*
X78261Y52573D02*
X77561Y52573D01*
X77561Y52872D02*
X78261Y52872D01*
X78261Y51274D02*
X78261Y50574D01*
X77561Y50574D01*
X77561Y51274D01*
X78261Y51274D01*
X78261Y50873D02*
X77561Y50873D01*
X77561Y51172D02*
X78261Y51172D01*
X76991Y51274D02*
X76991Y50574D01*
X76291Y50574D01*
X76291Y51274D01*
X76991Y51274D01*
X76991Y50873D02*
X76291Y50873D01*
X76291Y51172D02*
X76991Y51172D01*
D14*
X76770Y93379D02*
X77466Y93379D01*
X76770Y93379D02*
X76770Y94075D01*
X77466Y94075D01*
X77466Y93379D01*
X77466Y93482D02*
X76770Y93482D01*
X76770Y93585D02*
X77466Y93585D01*
X77466Y93688D02*
X76770Y93688D01*
X76770Y93791D02*
X77466Y93791D01*
X77466Y93894D02*
X76770Y93894D01*
X76770Y93997D02*
X77466Y93997D01*
X77466Y94879D02*
X76770Y94879D01*
X76770Y95575D01*
X77466Y95575D01*
X77466Y94879D01*
X77466Y94982D02*
X76770Y94982D01*
X76770Y95085D02*
X77466Y95085D01*
X77466Y95188D02*
X76770Y95188D01*
X76770Y95291D02*
X77466Y95291D01*
X77466Y95394D02*
X76770Y95394D01*
X76770Y95497D02*
X77466Y95497D01*
X63019Y95575D02*
X62323Y95575D01*
X63019Y95575D02*
X63019Y94879D01*
X62323Y94879D01*
X62323Y95575D01*
X62323Y94982D02*
X63019Y94982D01*
X63019Y95085D02*
X62323Y95085D01*
X62323Y95188D02*
X63019Y95188D01*
X63019Y95291D02*
X62323Y95291D01*
X62323Y95394D02*
X63019Y95394D01*
X63019Y95497D02*
X62323Y95497D01*
X62323Y94075D02*
X63019Y94075D01*
X63019Y93379D01*
X62323Y93379D01*
X62323Y94075D01*
X62323Y93482D02*
X63019Y93482D01*
X63019Y93585D02*
X62323Y93585D01*
X62323Y93688D02*
X63019Y93688D01*
X63019Y93791D02*
X62323Y93791D01*
X62323Y93894D02*
X63019Y93894D01*
X63019Y93997D02*
X62323Y93997D01*
X60479Y94075D02*
X59783Y94075D01*
X60479Y94075D02*
X60479Y93379D01*
X59783Y93379D01*
X59783Y94075D01*
X59783Y93482D02*
X60479Y93482D01*
X60479Y93585D02*
X59783Y93585D01*
X59783Y93688D02*
X60479Y93688D01*
X60479Y93791D02*
X59783Y93791D01*
X59783Y93894D02*
X60479Y93894D01*
X60479Y93997D02*
X59783Y93997D01*
X59783Y95575D02*
X60479Y95575D01*
X60479Y94879D01*
X59783Y94879D01*
X59783Y95575D01*
X59783Y94982D02*
X60479Y94982D01*
X60479Y95085D02*
X59783Y95085D01*
X59783Y95188D02*
X60479Y95188D01*
X60479Y95291D02*
X59783Y95291D01*
X59783Y95394D02*
X60479Y95394D01*
X60479Y95497D02*
X59783Y95497D01*
X45874Y95575D02*
X45178Y95575D01*
X45874Y95575D02*
X45874Y94879D01*
X45178Y94879D01*
X45178Y95575D01*
X45178Y94982D02*
X45874Y94982D01*
X45874Y95085D02*
X45178Y95085D01*
X45178Y95188D02*
X45874Y95188D01*
X45874Y95291D02*
X45178Y95291D01*
X45178Y95394D02*
X45874Y95394D01*
X45874Y95497D02*
X45178Y95497D01*
X43969Y95575D02*
X43273Y95575D01*
X43969Y95575D02*
X43969Y94879D01*
X43273Y94879D01*
X43273Y95575D01*
X43273Y94982D02*
X43969Y94982D01*
X43969Y95085D02*
X43273Y95085D01*
X43273Y95188D02*
X43969Y95188D01*
X43969Y95291D02*
X43273Y95291D01*
X43273Y95394D02*
X43969Y95394D01*
X43969Y95497D02*
X43273Y95497D01*
X43273Y94075D02*
X43969Y94075D01*
X43969Y93379D01*
X43273Y93379D01*
X43273Y94075D01*
X43273Y93482D02*
X43969Y93482D01*
X43969Y93585D02*
X43273Y93585D01*
X43273Y93688D02*
X43969Y93688D01*
X43969Y93791D02*
X43273Y93791D01*
X43273Y93894D02*
X43969Y93894D01*
X43969Y93997D02*
X43273Y93997D01*
X41429Y94075D02*
X40733Y94075D01*
X41429Y94075D02*
X41429Y93379D01*
X40733Y93379D01*
X40733Y94075D01*
X40733Y93482D02*
X41429Y93482D01*
X41429Y93585D02*
X40733Y93585D01*
X40733Y93688D02*
X41429Y93688D01*
X41429Y93791D02*
X40733Y93791D01*
X40733Y93894D02*
X41429Y93894D01*
X41429Y93997D02*
X40733Y93997D01*
X40159Y93379D02*
X39463Y93379D01*
X39463Y94075D01*
X40159Y94075D01*
X40159Y93379D01*
X40159Y93482D02*
X39463Y93482D01*
X39463Y93585D02*
X40159Y93585D01*
X40159Y93688D02*
X39463Y93688D01*
X39463Y93791D02*
X40159Y93791D01*
X40159Y93894D02*
X39463Y93894D01*
X39463Y93997D02*
X40159Y93997D01*
X40159Y94879D02*
X39463Y94879D01*
X39463Y95575D01*
X40159Y95575D01*
X40159Y94879D01*
X40159Y94982D02*
X39463Y94982D01*
X39463Y95085D02*
X40159Y95085D01*
X40159Y95188D02*
X39463Y95188D01*
X39463Y95291D02*
X40159Y95291D01*
X40159Y95394D02*
X39463Y95394D01*
X39463Y95497D02*
X40159Y95497D01*
X40733Y95575D02*
X41429Y95575D01*
X41429Y94879D01*
X40733Y94879D01*
X40733Y95575D01*
X40733Y94982D02*
X41429Y94982D01*
X41429Y95085D02*
X40733Y95085D01*
X40733Y95188D02*
X41429Y95188D01*
X41429Y95291D02*
X40733Y95291D01*
X40733Y95394D02*
X41429Y95394D01*
X41429Y95497D02*
X40733Y95497D01*
X37619Y95575D02*
X36923Y95575D01*
X37619Y95575D02*
X37619Y94879D01*
X36923Y94879D01*
X36923Y95575D01*
X36923Y94982D02*
X37619Y94982D01*
X37619Y95085D02*
X36923Y95085D01*
X36923Y95188D02*
X37619Y95188D01*
X37619Y95291D02*
X36923Y95291D01*
X36923Y95394D02*
X37619Y95394D01*
X37619Y95497D02*
X36923Y95497D01*
X36349Y94879D02*
X35653Y94879D01*
X35653Y95575D01*
X36349Y95575D01*
X36349Y94879D01*
X36349Y94982D02*
X35653Y94982D01*
X35653Y95085D02*
X36349Y95085D01*
X36349Y95188D02*
X35653Y95188D01*
X35653Y95291D02*
X36349Y95291D01*
X36349Y95394D02*
X35653Y95394D01*
X35653Y95497D02*
X36349Y95497D01*
X36349Y93379D02*
X35653Y93379D01*
X35653Y94075D01*
X36349Y94075D01*
X36349Y93379D01*
X36349Y93482D02*
X35653Y93482D01*
X35653Y93585D02*
X36349Y93585D01*
X36349Y93688D02*
X35653Y93688D01*
X35653Y93791D02*
X36349Y93791D01*
X36349Y93894D02*
X35653Y93894D01*
X35653Y93997D02*
X36349Y93997D01*
X36923Y94075D02*
X37619Y94075D01*
X37619Y93379D01*
X36923Y93379D01*
X36923Y94075D01*
X36923Y93482D02*
X37619Y93482D01*
X37619Y93585D02*
X36923Y93585D01*
X36923Y93688D02*
X37619Y93688D01*
X37619Y93791D02*
X36923Y93791D01*
X36923Y93894D02*
X37619Y93894D01*
X37619Y93997D02*
X36923Y93997D01*
X33809Y94075D02*
X33113Y94075D01*
X33809Y94075D02*
X33809Y93379D01*
X33113Y93379D01*
X33113Y94075D01*
X33113Y93482D02*
X33809Y93482D01*
X33809Y93585D02*
X33113Y93585D01*
X33113Y93688D02*
X33809Y93688D01*
X33809Y93791D02*
X33113Y93791D01*
X33113Y93894D02*
X33809Y93894D01*
X33809Y93997D02*
X33113Y93997D01*
X32539Y93379D02*
X31843Y93379D01*
X31843Y94075D01*
X32539Y94075D01*
X32539Y93379D01*
X32539Y93482D02*
X31843Y93482D01*
X31843Y93585D02*
X32539Y93585D01*
X32539Y93688D02*
X31843Y93688D01*
X31843Y93791D02*
X32539Y93791D01*
X32539Y93894D02*
X31843Y93894D01*
X31843Y93997D02*
X32539Y93997D01*
X32539Y94879D02*
X31843Y94879D01*
X31843Y95575D01*
X32539Y95575D01*
X32539Y94879D01*
X32539Y94982D02*
X31843Y94982D01*
X31843Y95085D02*
X32539Y95085D01*
X32539Y95188D02*
X31843Y95188D01*
X31843Y95291D02*
X32539Y95291D01*
X32539Y95394D02*
X31843Y95394D01*
X31843Y95497D02*
X32539Y95497D01*
X33113Y95575D02*
X33809Y95575D01*
X33809Y94879D01*
X33113Y94879D01*
X33113Y95575D01*
X33113Y94982D02*
X33809Y94982D01*
X33809Y95085D02*
X33113Y95085D01*
X33113Y95188D02*
X33809Y95188D01*
X33809Y95291D02*
X33113Y95291D01*
X33113Y95394D02*
X33809Y95394D01*
X33809Y95497D02*
X33113Y95497D01*
X29999Y95575D02*
X29303Y95575D01*
X29999Y95575D02*
X29999Y94879D01*
X29303Y94879D01*
X29303Y95575D01*
X29303Y94982D02*
X29999Y94982D01*
X29999Y95085D02*
X29303Y95085D01*
X29303Y95188D02*
X29999Y95188D01*
X29999Y95291D02*
X29303Y95291D01*
X29303Y95394D02*
X29999Y95394D01*
X29999Y95497D02*
X29303Y95497D01*
X28729Y94879D02*
X28033Y94879D01*
X28033Y95575D01*
X28729Y95575D01*
X28729Y94879D01*
X28729Y94982D02*
X28033Y94982D01*
X28033Y95085D02*
X28729Y95085D01*
X28729Y95188D02*
X28033Y95188D01*
X28033Y95291D02*
X28729Y95291D01*
X28729Y95394D02*
X28033Y95394D01*
X28033Y95497D02*
X28729Y95497D01*
X28729Y93379D02*
X28033Y93379D01*
X28033Y94075D01*
X28729Y94075D01*
X28729Y93379D01*
X28729Y93482D02*
X28033Y93482D01*
X28033Y93585D02*
X28729Y93585D01*
X28729Y93688D02*
X28033Y93688D01*
X28033Y93791D02*
X28729Y93791D01*
X28729Y93894D02*
X28033Y93894D01*
X28033Y93997D02*
X28729Y93997D01*
X29303Y94075D02*
X29999Y94075D01*
X29999Y93379D01*
X29303Y93379D01*
X29303Y94075D01*
X29303Y93482D02*
X29999Y93482D01*
X29999Y93585D02*
X29303Y93585D01*
X29303Y93688D02*
X29999Y93688D01*
X29999Y93791D02*
X29303Y93791D01*
X29303Y93894D02*
X29999Y93894D01*
X29999Y93997D02*
X29303Y93997D01*
X26189Y94075D02*
X25493Y94075D01*
X26189Y94075D02*
X26189Y93379D01*
X25493Y93379D01*
X25493Y94075D01*
X25493Y93482D02*
X26189Y93482D01*
X26189Y93585D02*
X25493Y93585D01*
X25493Y93688D02*
X26189Y93688D01*
X26189Y93791D02*
X25493Y93791D01*
X25493Y93894D02*
X26189Y93894D01*
X26189Y93997D02*
X25493Y93997D01*
X24919Y93379D02*
X24223Y93379D01*
X24223Y94075D01*
X24919Y94075D01*
X24919Y93379D01*
X24919Y93482D02*
X24223Y93482D01*
X24223Y93585D02*
X24919Y93585D01*
X24919Y93688D02*
X24223Y93688D01*
X24223Y93791D02*
X24919Y93791D01*
X24919Y93894D02*
X24223Y93894D01*
X24223Y93997D02*
X24919Y93997D01*
X24919Y94879D02*
X24223Y94879D01*
X24223Y95575D01*
X24919Y95575D01*
X24919Y94879D01*
X24919Y94982D02*
X24223Y94982D01*
X24223Y95085D02*
X24919Y95085D01*
X24919Y95188D02*
X24223Y95188D01*
X24223Y95291D02*
X24919Y95291D01*
X24919Y95394D02*
X24223Y95394D01*
X24223Y95497D02*
X24919Y95497D01*
X25493Y95575D02*
X26189Y95575D01*
X26189Y94879D01*
X25493Y94879D01*
X25493Y95575D01*
X25493Y94982D02*
X26189Y94982D01*
X26189Y95085D02*
X25493Y95085D01*
X25493Y95188D02*
X26189Y95188D01*
X26189Y95291D02*
X25493Y95291D01*
X25493Y95394D02*
X26189Y95394D01*
X26189Y95497D02*
X25493Y95497D01*
X22379Y95575D02*
X21683Y95575D01*
X22379Y95575D02*
X22379Y94879D01*
X21683Y94879D01*
X21683Y95575D01*
X21683Y94982D02*
X22379Y94982D01*
X22379Y95085D02*
X21683Y95085D01*
X21683Y95188D02*
X22379Y95188D01*
X22379Y95291D02*
X21683Y95291D01*
X21683Y95394D02*
X22379Y95394D01*
X22379Y95497D02*
X21683Y95497D01*
X21109Y94879D02*
X20413Y94879D01*
X20413Y95575D01*
X21109Y95575D01*
X21109Y94879D01*
X21109Y94982D02*
X20413Y94982D01*
X20413Y95085D02*
X21109Y95085D01*
X21109Y95188D02*
X20413Y95188D01*
X20413Y95291D02*
X21109Y95291D01*
X21109Y95394D02*
X20413Y95394D01*
X20413Y95497D02*
X21109Y95497D01*
X21109Y93379D02*
X20413Y93379D01*
X20413Y94075D01*
X21109Y94075D01*
X21109Y93379D01*
X21109Y93482D02*
X20413Y93482D01*
X20413Y93585D02*
X21109Y93585D01*
X21109Y93688D02*
X20413Y93688D01*
X20413Y93791D02*
X21109Y93791D01*
X21109Y93894D02*
X20413Y93894D01*
X20413Y93997D02*
X21109Y93997D01*
X21683Y94075D02*
X22379Y94075D01*
X22379Y93379D01*
X21683Y93379D01*
X21683Y94075D01*
X21683Y93482D02*
X22379Y93482D01*
X22379Y93585D02*
X21683Y93585D01*
X21683Y93688D02*
X22379Y93688D01*
X22379Y93791D02*
X21683Y93791D01*
X21683Y93894D02*
X22379Y93894D01*
X22379Y93997D02*
X21683Y93997D01*
X45178Y94075D02*
X45874Y94075D01*
X45874Y93379D01*
X45178Y93379D01*
X45178Y94075D01*
X45178Y93482D02*
X45874Y93482D01*
X45874Y93585D02*
X45178Y93585D01*
X45178Y93688D02*
X45874Y93688D01*
X45874Y93791D02*
X45178Y93791D01*
X45178Y93894D02*
X45874Y93894D01*
X45874Y93997D02*
X45178Y93997D01*
D15*
X51061Y92174D02*
X51061Y90274D01*
X51061Y92174D02*
X51361Y92174D01*
X51361Y90274D01*
X51061Y90274D01*
X51061Y90373D02*
X51361Y90373D01*
X51361Y90472D02*
X51061Y90472D01*
X51061Y90571D02*
X51361Y90571D01*
X51361Y90670D02*
X51061Y90670D01*
X51061Y90769D02*
X51361Y90769D01*
X51361Y90868D02*
X51061Y90868D01*
X51061Y90967D02*
X51361Y90967D01*
X51361Y91066D02*
X51061Y91066D01*
X51061Y91165D02*
X51361Y91165D01*
X51361Y91264D02*
X51061Y91264D01*
X51061Y91363D02*
X51361Y91363D01*
X51361Y91462D02*
X51061Y91462D01*
X51061Y91561D02*
X51361Y91561D01*
X51361Y91660D02*
X51061Y91660D01*
X51061Y91759D02*
X51361Y91759D01*
X51361Y91858D02*
X51061Y91858D01*
X51061Y91957D02*
X51361Y91957D01*
X51361Y92056D02*
X51061Y92056D01*
X51061Y92155D02*
X51361Y92155D01*
X51711Y92174D02*
X51711Y90274D01*
X51711Y92174D02*
X52011Y92174D01*
X52011Y90274D01*
X51711Y90274D01*
X51711Y90373D02*
X52011Y90373D01*
X52011Y90472D02*
X51711Y90472D01*
X51711Y90571D02*
X52011Y90571D01*
X52011Y90670D02*
X51711Y90670D01*
X51711Y90769D02*
X52011Y90769D01*
X52011Y90868D02*
X51711Y90868D01*
X51711Y90967D02*
X52011Y90967D01*
X52011Y91066D02*
X51711Y91066D01*
X51711Y91165D02*
X52011Y91165D01*
X52011Y91264D02*
X51711Y91264D01*
X51711Y91363D02*
X52011Y91363D01*
X52011Y91462D02*
X51711Y91462D01*
X51711Y91561D02*
X52011Y91561D01*
X52011Y91660D02*
X51711Y91660D01*
X51711Y91759D02*
X52011Y91759D01*
X52011Y91858D02*
X51711Y91858D01*
X51711Y91957D02*
X52011Y91957D01*
X52011Y92056D02*
X51711Y92056D01*
X51711Y92155D02*
X52011Y92155D01*
X52361Y92174D02*
X52361Y90274D01*
X52361Y92174D02*
X52661Y92174D01*
X52661Y90274D01*
X52361Y90274D01*
X52361Y90373D02*
X52661Y90373D01*
X52661Y90472D02*
X52361Y90472D01*
X52361Y90571D02*
X52661Y90571D01*
X52661Y90670D02*
X52361Y90670D01*
X52361Y90769D02*
X52661Y90769D01*
X52661Y90868D02*
X52361Y90868D01*
X52361Y90967D02*
X52661Y90967D01*
X52661Y91066D02*
X52361Y91066D01*
X52361Y91165D02*
X52661Y91165D01*
X52661Y91264D02*
X52361Y91264D01*
X52361Y91363D02*
X52661Y91363D01*
X52661Y91462D02*
X52361Y91462D01*
X52361Y91561D02*
X52661Y91561D01*
X52661Y91660D02*
X52361Y91660D01*
X52361Y91759D02*
X52661Y91759D01*
X52661Y91858D02*
X52361Y91858D01*
X52361Y91957D02*
X52661Y91957D01*
X52661Y92056D02*
X52361Y92056D01*
X52361Y92155D02*
X52661Y92155D01*
X53011Y92174D02*
X53011Y90274D01*
X53011Y92174D02*
X53311Y92174D01*
X53311Y90274D01*
X53011Y90274D01*
X53011Y90373D02*
X53311Y90373D01*
X53311Y90472D02*
X53011Y90472D01*
X53011Y90571D02*
X53311Y90571D01*
X53311Y90670D02*
X53011Y90670D01*
X53011Y90769D02*
X53311Y90769D01*
X53311Y90868D02*
X53011Y90868D01*
X53011Y90967D02*
X53311Y90967D01*
X53311Y91066D02*
X53011Y91066D01*
X53011Y91165D02*
X53311Y91165D01*
X53311Y91264D02*
X53011Y91264D01*
X53011Y91363D02*
X53311Y91363D01*
X53311Y91462D02*
X53011Y91462D01*
X53011Y91561D02*
X53311Y91561D01*
X53311Y91660D02*
X53011Y91660D01*
X53011Y91759D02*
X53311Y91759D01*
X53311Y91858D02*
X53011Y91858D01*
X53011Y91957D02*
X53311Y91957D01*
X53311Y92056D02*
X53011Y92056D01*
X53011Y92155D02*
X53311Y92155D01*
X53661Y92174D02*
X53661Y90274D01*
X53661Y92174D02*
X53961Y92174D01*
X53961Y90274D01*
X53661Y90274D01*
X53661Y90373D02*
X53961Y90373D01*
X53961Y90472D02*
X53661Y90472D01*
X53661Y90571D02*
X53961Y90571D01*
X53961Y90670D02*
X53661Y90670D01*
X53661Y90769D02*
X53961Y90769D01*
X53961Y90868D02*
X53661Y90868D01*
X53661Y90967D02*
X53961Y90967D01*
X53961Y91066D02*
X53661Y91066D01*
X53661Y91165D02*
X53961Y91165D01*
X53961Y91264D02*
X53661Y91264D01*
X53661Y91363D02*
X53961Y91363D01*
X53961Y91462D02*
X53661Y91462D01*
X53661Y91561D02*
X53961Y91561D01*
X53961Y91660D02*
X53661Y91660D01*
X53661Y91759D02*
X53961Y91759D01*
X53961Y91858D02*
X53661Y91858D01*
X53661Y91957D02*
X53961Y91957D01*
X53961Y92056D02*
X53661Y92056D01*
X53661Y92155D02*
X53961Y92155D01*
X34226Y78765D02*
X33326Y78765D01*
X34226Y78765D02*
X34226Y77465D01*
X33326Y77465D01*
X33326Y78765D01*
X33326Y77564D02*
X34226Y77564D01*
X34226Y77663D02*
X33326Y77663D01*
X33326Y77762D02*
X34226Y77762D01*
X34226Y77861D02*
X33326Y77861D01*
X33326Y77960D02*
X34226Y77960D01*
X34226Y78059D02*
X33326Y78059D01*
X33326Y78158D02*
X34226Y78158D01*
X34226Y78257D02*
X33326Y78257D01*
X33326Y78356D02*
X34226Y78356D01*
X34226Y78455D02*
X33326Y78455D01*
X33326Y78554D02*
X34226Y78554D01*
X34226Y78653D02*
X33326Y78653D01*
X33326Y78752D02*
X34226Y78752D01*
X32326Y78765D02*
X31426Y78765D01*
X32326Y78765D02*
X32326Y77465D01*
X31426Y77465D01*
X31426Y78765D01*
X31426Y77564D02*
X32326Y77564D01*
X32326Y77663D02*
X31426Y77663D01*
X31426Y77762D02*
X32326Y77762D01*
X32326Y77861D02*
X31426Y77861D01*
X31426Y77960D02*
X32326Y77960D01*
X32326Y78059D02*
X31426Y78059D01*
X31426Y78158D02*
X32326Y78158D01*
X32326Y78257D02*
X31426Y78257D01*
X31426Y78356D02*
X32326Y78356D01*
X32326Y78455D02*
X31426Y78455D01*
X31426Y78554D02*
X32326Y78554D01*
X32326Y78653D02*
X31426Y78653D01*
X31426Y78752D02*
X32326Y78752D01*
X32376Y76565D02*
X33276Y76565D01*
X33276Y75265D01*
X32376Y75265D01*
X32376Y76565D01*
X32376Y75364D02*
X33276Y75364D01*
X33276Y75463D02*
X32376Y75463D01*
X32376Y75562D02*
X33276Y75562D01*
X33276Y75661D02*
X32376Y75661D01*
X32376Y75760D02*
X33276Y75760D01*
X33276Y75859D02*
X32376Y75859D01*
X32376Y75958D02*
X33276Y75958D01*
X33276Y76057D02*
X32376Y76057D01*
X32376Y76156D02*
X33276Y76156D01*
X33276Y76255D02*
X32376Y76255D01*
X32376Y76354D02*
X33276Y76354D01*
X33276Y76453D02*
X32376Y76453D01*
X32376Y76552D02*
X33276Y76552D01*
X42561Y68719D02*
X43961Y68719D01*
X43961Y67819D01*
X42561Y67819D01*
X42561Y68719D01*
X42561Y67918D02*
X43961Y67918D01*
X43961Y68017D02*
X42561Y68017D01*
X42561Y68116D02*
X43961Y68116D01*
X43961Y68215D02*
X42561Y68215D01*
X42561Y68314D02*
X43961Y68314D01*
X43961Y68413D02*
X42561Y68413D01*
X42561Y68512D02*
X43961Y68512D01*
X43961Y68611D02*
X42561Y68611D01*
X42561Y68710D02*
X43961Y68710D01*
X43961Y67449D02*
X42561Y67449D01*
X43961Y67449D02*
X43961Y66549D01*
X42561Y66549D01*
X42561Y67449D01*
X42561Y66648D02*
X43961Y66648D01*
X43961Y66747D02*
X42561Y66747D01*
X42561Y66846D02*
X43961Y66846D01*
X43961Y66945D02*
X42561Y66945D01*
X42561Y67044D02*
X43961Y67044D01*
X43961Y67143D02*
X42561Y67143D01*
X42561Y67242D02*
X43961Y67242D01*
X43961Y67341D02*
X42561Y67341D01*
X42561Y67440D02*
X43961Y67440D01*
X43961Y66179D02*
X42561Y66179D01*
X43961Y66179D02*
X43961Y65279D01*
X42561Y65279D01*
X42561Y66179D01*
X42561Y65378D02*
X43961Y65378D01*
X43961Y65477D02*
X42561Y65477D01*
X42561Y65576D02*
X43961Y65576D01*
X43961Y65675D02*
X42561Y65675D01*
X42561Y65774D02*
X43961Y65774D01*
X43961Y65873D02*
X42561Y65873D01*
X42561Y65972D02*
X43961Y65972D01*
X43961Y66071D02*
X42561Y66071D01*
X42561Y66170D02*
X43961Y66170D01*
X43961Y64909D02*
X42561Y64909D01*
X43961Y64909D02*
X43961Y64009D01*
X42561Y64009D01*
X42561Y64909D01*
X42561Y64108D02*
X43961Y64108D01*
X43961Y64207D02*
X42561Y64207D01*
X42561Y64306D02*
X43961Y64306D01*
X43961Y64405D02*
X42561Y64405D01*
X42561Y64504D02*
X43961Y64504D01*
X43961Y64603D02*
X42561Y64603D01*
X42561Y64702D02*
X43961Y64702D01*
X43961Y64801D02*
X42561Y64801D01*
X42561Y64900D02*
X43961Y64900D01*
X43961Y63639D02*
X42561Y63639D01*
X43961Y63639D02*
X43961Y62739D01*
X42561Y62739D01*
X42561Y63639D01*
X42561Y62838D02*
X43961Y62838D01*
X43961Y62937D02*
X42561Y62937D01*
X42561Y63036D02*
X43961Y63036D01*
X43961Y63135D02*
X42561Y63135D01*
X42561Y63234D02*
X43961Y63234D01*
X43961Y63333D02*
X42561Y63333D01*
X42561Y63432D02*
X43961Y63432D01*
X43961Y63531D02*
X42561Y63531D01*
X42561Y63630D02*
X43961Y63630D01*
X43961Y62369D02*
X42561Y62369D01*
X43961Y62369D02*
X43961Y61469D01*
X42561Y61469D01*
X42561Y62369D01*
X42561Y61568D02*
X43961Y61568D01*
X43961Y61667D02*
X42561Y61667D01*
X42561Y61766D02*
X43961Y61766D01*
X43961Y61865D02*
X42561Y61865D01*
X42561Y61964D02*
X43961Y61964D01*
X43961Y62063D02*
X42561Y62063D01*
X42561Y62162D02*
X43961Y62162D01*
X43961Y62261D02*
X42561Y62261D01*
X42561Y62360D02*
X43961Y62360D01*
X43961Y61099D02*
X42561Y61099D01*
X43961Y61099D02*
X43961Y60199D01*
X42561Y60199D01*
X42561Y61099D01*
X42561Y60298D02*
X43961Y60298D01*
X43961Y60397D02*
X42561Y60397D01*
X42561Y60496D02*
X43961Y60496D01*
X43961Y60595D02*
X42561Y60595D01*
X42561Y60694D02*
X43961Y60694D01*
X43961Y60793D02*
X42561Y60793D01*
X42561Y60892D02*
X43961Y60892D01*
X43961Y60991D02*
X42561Y60991D01*
X42561Y61090D02*
X43961Y61090D01*
X43961Y59829D02*
X42561Y59829D01*
X43961Y59829D02*
X43961Y58929D01*
X42561Y58929D01*
X42561Y59829D01*
X42561Y59028D02*
X43961Y59028D01*
X43961Y59127D02*
X42561Y59127D01*
X42561Y59226D02*
X43961Y59226D01*
X43961Y59325D02*
X42561Y59325D01*
X42561Y59424D02*
X43961Y59424D01*
X43961Y59523D02*
X42561Y59523D01*
X42561Y59622D02*
X43961Y59622D01*
X43961Y59721D02*
X42561Y59721D01*
X42561Y59820D02*
X43961Y59820D01*
X43961Y58559D02*
X42561Y58559D01*
X43961Y58559D02*
X43961Y57659D01*
X42561Y57659D01*
X42561Y58559D01*
X42561Y57758D02*
X43961Y57758D01*
X43961Y57857D02*
X42561Y57857D01*
X42561Y57956D02*
X43961Y57956D01*
X43961Y58055D02*
X42561Y58055D01*
X42561Y58154D02*
X43961Y58154D01*
X43961Y58253D02*
X42561Y58253D01*
X42561Y58352D02*
X43961Y58352D01*
X43961Y58451D02*
X42561Y58451D01*
X42561Y58550D02*
X43961Y58550D01*
X43961Y57289D02*
X42561Y57289D01*
X43961Y57289D02*
X43961Y56389D01*
X42561Y56389D01*
X42561Y57289D01*
X42561Y56488D02*
X43961Y56488D01*
X43961Y56587D02*
X42561Y56587D01*
X42561Y56686D02*
X43961Y56686D01*
X43961Y56785D02*
X42561Y56785D01*
X42561Y56884D02*
X43961Y56884D01*
X43961Y56983D02*
X42561Y56983D01*
X42561Y57082D02*
X43961Y57082D01*
X43961Y57181D02*
X42561Y57181D01*
X42561Y57280D02*
X43961Y57280D01*
X43961Y56019D02*
X42561Y56019D01*
X43961Y56019D02*
X43961Y55119D01*
X42561Y55119D01*
X42561Y56019D01*
X42561Y55218D02*
X43961Y55218D01*
X43961Y55317D02*
X42561Y55317D01*
X42561Y55416D02*
X43961Y55416D01*
X43961Y55515D02*
X42561Y55515D01*
X42561Y55614D02*
X43961Y55614D01*
X43961Y55713D02*
X42561Y55713D01*
X42561Y55812D02*
X43961Y55812D01*
X43961Y55911D02*
X42561Y55911D01*
X42561Y56010D02*
X43961Y56010D01*
X43961Y54749D02*
X42561Y54749D01*
X43961Y54749D02*
X43961Y53849D01*
X42561Y53849D01*
X42561Y54749D01*
X42561Y53948D02*
X43961Y53948D01*
X43961Y54047D02*
X42561Y54047D01*
X42561Y54146D02*
X43961Y54146D01*
X43961Y54245D02*
X42561Y54245D01*
X42561Y54344D02*
X43961Y54344D01*
X43961Y54443D02*
X42561Y54443D01*
X42561Y54542D02*
X43961Y54542D01*
X43961Y54641D02*
X42561Y54641D01*
X42561Y54740D02*
X43961Y54740D01*
X43961Y53479D02*
X42561Y53479D01*
X43961Y53479D02*
X43961Y52579D01*
X42561Y52579D01*
X42561Y53479D01*
X42561Y52678D02*
X43961Y52678D01*
X43961Y52777D02*
X42561Y52777D01*
X42561Y52876D02*
X43961Y52876D01*
X43961Y52975D02*
X42561Y52975D01*
X42561Y53074D02*
X43961Y53074D01*
X43961Y53173D02*
X42561Y53173D01*
X42561Y53272D02*
X43961Y53272D01*
X43961Y53371D02*
X42561Y53371D01*
X42561Y53470D02*
X43961Y53470D01*
X43961Y52209D02*
X42561Y52209D01*
X43961Y52209D02*
X43961Y51309D01*
X42561Y51309D01*
X42561Y52209D01*
X42561Y51408D02*
X43961Y51408D01*
X43961Y51507D02*
X42561Y51507D01*
X42561Y51606D02*
X43961Y51606D01*
X43961Y51705D02*
X42561Y51705D01*
X42561Y51804D02*
X43961Y51804D01*
X43961Y51903D02*
X42561Y51903D01*
X42561Y52002D02*
X43961Y52002D01*
X43961Y52101D02*
X42561Y52101D01*
X42561Y52200D02*
X43961Y52200D01*
X61061Y52209D02*
X62461Y52209D01*
X62461Y51309D01*
X61061Y51309D01*
X61061Y52209D01*
X61061Y51408D02*
X62461Y51408D01*
X62461Y51507D02*
X61061Y51507D01*
X61061Y51606D02*
X62461Y51606D01*
X62461Y51705D02*
X61061Y51705D01*
X61061Y51804D02*
X62461Y51804D01*
X62461Y51903D02*
X61061Y51903D01*
X61061Y52002D02*
X62461Y52002D01*
X62461Y52101D02*
X61061Y52101D01*
X61061Y52200D02*
X62461Y52200D01*
X62461Y53479D02*
X61061Y53479D01*
X62461Y53479D02*
X62461Y52579D01*
X61061Y52579D01*
X61061Y53479D01*
X61061Y52678D02*
X62461Y52678D01*
X62461Y52777D02*
X61061Y52777D01*
X61061Y52876D02*
X62461Y52876D01*
X62461Y52975D02*
X61061Y52975D01*
X61061Y53074D02*
X62461Y53074D01*
X62461Y53173D02*
X61061Y53173D01*
X61061Y53272D02*
X62461Y53272D01*
X62461Y53371D02*
X61061Y53371D01*
X61061Y53470D02*
X62461Y53470D01*
X62461Y54749D02*
X61061Y54749D01*
X62461Y54749D02*
X62461Y53849D01*
X61061Y53849D01*
X61061Y54749D01*
X61061Y53948D02*
X62461Y53948D01*
X62461Y54047D02*
X61061Y54047D01*
X61061Y54146D02*
X62461Y54146D01*
X62461Y54245D02*
X61061Y54245D01*
X61061Y54344D02*
X62461Y54344D01*
X62461Y54443D02*
X61061Y54443D01*
X61061Y54542D02*
X62461Y54542D01*
X62461Y54641D02*
X61061Y54641D01*
X61061Y54740D02*
X62461Y54740D01*
X62461Y56019D02*
X61061Y56019D01*
X62461Y56019D02*
X62461Y55119D01*
X61061Y55119D01*
X61061Y56019D01*
X61061Y55218D02*
X62461Y55218D01*
X62461Y55317D02*
X61061Y55317D01*
X61061Y55416D02*
X62461Y55416D01*
X62461Y55515D02*
X61061Y55515D01*
X61061Y55614D02*
X62461Y55614D01*
X62461Y55713D02*
X61061Y55713D01*
X61061Y55812D02*
X62461Y55812D01*
X62461Y55911D02*
X61061Y55911D01*
X61061Y56010D02*
X62461Y56010D01*
X62461Y57289D02*
X61061Y57289D01*
X62461Y57289D02*
X62461Y56389D01*
X61061Y56389D01*
X61061Y57289D01*
X61061Y56488D02*
X62461Y56488D01*
X62461Y56587D02*
X61061Y56587D01*
X61061Y56686D02*
X62461Y56686D01*
X62461Y56785D02*
X61061Y56785D01*
X61061Y56884D02*
X62461Y56884D01*
X62461Y56983D02*
X61061Y56983D01*
X61061Y57082D02*
X62461Y57082D01*
X62461Y57181D02*
X61061Y57181D01*
X61061Y57280D02*
X62461Y57280D01*
X62461Y58559D02*
X61061Y58559D01*
X62461Y58559D02*
X62461Y57659D01*
X61061Y57659D01*
X61061Y58559D01*
X61061Y57758D02*
X62461Y57758D01*
X62461Y57857D02*
X61061Y57857D01*
X61061Y57956D02*
X62461Y57956D01*
X62461Y58055D02*
X61061Y58055D01*
X61061Y58154D02*
X62461Y58154D01*
X62461Y58253D02*
X61061Y58253D01*
X61061Y58352D02*
X62461Y58352D01*
X62461Y58451D02*
X61061Y58451D01*
X61061Y58550D02*
X62461Y58550D01*
X62461Y59829D02*
X61061Y59829D01*
X62461Y59829D02*
X62461Y58929D01*
X61061Y58929D01*
X61061Y59829D01*
X61061Y59028D02*
X62461Y59028D01*
X62461Y59127D02*
X61061Y59127D01*
X61061Y59226D02*
X62461Y59226D01*
X62461Y59325D02*
X61061Y59325D01*
X61061Y59424D02*
X62461Y59424D01*
X62461Y59523D02*
X61061Y59523D01*
X61061Y59622D02*
X62461Y59622D01*
X62461Y59721D02*
X61061Y59721D01*
X61061Y59820D02*
X62461Y59820D01*
X62461Y61099D02*
X61061Y61099D01*
X62461Y61099D02*
X62461Y60199D01*
X61061Y60199D01*
X61061Y61099D01*
X61061Y60298D02*
X62461Y60298D01*
X62461Y60397D02*
X61061Y60397D01*
X61061Y60496D02*
X62461Y60496D01*
X62461Y60595D02*
X61061Y60595D01*
X61061Y60694D02*
X62461Y60694D01*
X62461Y60793D02*
X61061Y60793D01*
X61061Y60892D02*
X62461Y60892D01*
X62461Y60991D02*
X61061Y60991D01*
X61061Y61090D02*
X62461Y61090D01*
X62461Y62369D02*
X61061Y62369D01*
X62461Y62369D02*
X62461Y61469D01*
X61061Y61469D01*
X61061Y62369D01*
X61061Y61568D02*
X62461Y61568D01*
X62461Y61667D02*
X61061Y61667D01*
X61061Y61766D02*
X62461Y61766D01*
X62461Y61865D02*
X61061Y61865D01*
X61061Y61964D02*
X62461Y61964D01*
X62461Y62063D02*
X61061Y62063D01*
X61061Y62162D02*
X62461Y62162D01*
X62461Y62261D02*
X61061Y62261D01*
X61061Y62360D02*
X62461Y62360D01*
X62461Y63639D02*
X61061Y63639D01*
X62461Y63639D02*
X62461Y62739D01*
X61061Y62739D01*
X61061Y63639D01*
X61061Y62838D02*
X62461Y62838D01*
X62461Y62937D02*
X61061Y62937D01*
X61061Y63036D02*
X62461Y63036D01*
X62461Y63135D02*
X61061Y63135D01*
X61061Y63234D02*
X62461Y63234D01*
X62461Y63333D02*
X61061Y63333D01*
X61061Y63432D02*
X62461Y63432D01*
X62461Y63531D02*
X61061Y63531D01*
X61061Y63630D02*
X62461Y63630D01*
X62461Y64909D02*
X61061Y64909D01*
X62461Y64909D02*
X62461Y64009D01*
X61061Y64009D01*
X61061Y64909D01*
X61061Y64108D02*
X62461Y64108D01*
X62461Y64207D02*
X61061Y64207D01*
X61061Y64306D02*
X62461Y64306D01*
X62461Y64405D02*
X61061Y64405D01*
X61061Y64504D02*
X62461Y64504D01*
X62461Y64603D02*
X61061Y64603D01*
X61061Y64702D02*
X62461Y64702D01*
X62461Y64801D02*
X61061Y64801D01*
X61061Y64900D02*
X62461Y64900D01*
X62461Y66179D02*
X61061Y66179D01*
X62461Y66179D02*
X62461Y65279D01*
X61061Y65279D01*
X61061Y66179D01*
X61061Y65378D02*
X62461Y65378D01*
X62461Y65477D02*
X61061Y65477D01*
X61061Y65576D02*
X62461Y65576D01*
X62461Y65675D02*
X61061Y65675D01*
X61061Y65774D02*
X62461Y65774D01*
X62461Y65873D02*
X61061Y65873D01*
X61061Y65972D02*
X62461Y65972D01*
X62461Y66071D02*
X61061Y66071D01*
X61061Y66170D02*
X62461Y66170D01*
X62461Y67449D02*
X61061Y67449D01*
X62461Y67449D02*
X62461Y66549D01*
X61061Y66549D01*
X61061Y67449D01*
X61061Y66648D02*
X62461Y66648D01*
X62461Y66747D02*
X61061Y66747D01*
X61061Y66846D02*
X62461Y66846D01*
X62461Y66945D02*
X61061Y66945D01*
X61061Y67044D02*
X62461Y67044D01*
X62461Y67143D02*
X61061Y67143D01*
X61061Y67242D02*
X62461Y67242D01*
X62461Y67341D02*
X61061Y67341D01*
X61061Y67440D02*
X62461Y67440D01*
X62461Y68719D02*
X61061Y68719D01*
X62461Y68719D02*
X62461Y67819D01*
X61061Y67819D01*
X61061Y68719D01*
X61061Y67918D02*
X62461Y67918D01*
X62461Y68017D02*
X61061Y68017D01*
X61061Y68116D02*
X62461Y68116D01*
X62461Y68215D02*
X61061Y68215D01*
X61061Y68314D02*
X62461Y68314D01*
X62461Y68413D02*
X61061Y68413D01*
X61061Y68512D02*
X62461Y68512D01*
X62461Y68611D02*
X61061Y68611D01*
X61061Y68710D02*
X62461Y68710D01*
X57761Y69309D02*
X57761Y70709D01*
X58661Y70709D01*
X58661Y69309D01*
X57761Y69309D01*
X57761Y69408D02*
X58661Y69408D01*
X58661Y69507D02*
X57761Y69507D01*
X57761Y69606D02*
X58661Y69606D01*
X58661Y69705D02*
X57761Y69705D01*
X57761Y69804D02*
X58661Y69804D01*
X58661Y69903D02*
X57761Y69903D01*
X57761Y70002D02*
X58661Y70002D01*
X58661Y70101D02*
X57761Y70101D01*
X57761Y70200D02*
X58661Y70200D01*
X58661Y70299D02*
X57761Y70299D01*
X57761Y70398D02*
X58661Y70398D01*
X58661Y70497D02*
X57761Y70497D01*
X57761Y70596D02*
X58661Y70596D01*
X58661Y70695D02*
X57761Y70695D01*
X56491Y70709D02*
X56491Y69309D01*
X56491Y70709D02*
X57391Y70709D01*
X57391Y69309D01*
X56491Y69309D01*
X56491Y69408D02*
X57391Y69408D01*
X57391Y69507D02*
X56491Y69507D01*
X56491Y69606D02*
X57391Y69606D01*
X57391Y69705D02*
X56491Y69705D01*
X56491Y69804D02*
X57391Y69804D01*
X57391Y69903D02*
X56491Y69903D01*
X56491Y70002D02*
X57391Y70002D01*
X57391Y70101D02*
X56491Y70101D01*
X56491Y70200D02*
X57391Y70200D01*
X57391Y70299D02*
X56491Y70299D01*
X56491Y70398D02*
X57391Y70398D01*
X57391Y70497D02*
X56491Y70497D01*
X56491Y70596D02*
X57391Y70596D01*
X57391Y70695D02*
X56491Y70695D01*
X55221Y70709D02*
X55221Y69309D01*
X55221Y70709D02*
X56121Y70709D01*
X56121Y69309D01*
X55221Y69309D01*
X55221Y69408D02*
X56121Y69408D01*
X56121Y69507D02*
X55221Y69507D01*
X55221Y69606D02*
X56121Y69606D01*
X56121Y69705D02*
X55221Y69705D01*
X55221Y69804D02*
X56121Y69804D01*
X56121Y69903D02*
X55221Y69903D01*
X55221Y70002D02*
X56121Y70002D01*
X56121Y70101D02*
X55221Y70101D01*
X55221Y70200D02*
X56121Y70200D01*
X56121Y70299D02*
X55221Y70299D01*
X55221Y70398D02*
X56121Y70398D01*
X56121Y70497D02*
X55221Y70497D01*
X55221Y70596D02*
X56121Y70596D01*
X56121Y70695D02*
X55221Y70695D01*
X53951Y70709D02*
X53951Y69309D01*
X53951Y70709D02*
X54851Y70709D01*
X54851Y69309D01*
X53951Y69309D01*
X53951Y69408D02*
X54851Y69408D01*
X54851Y69507D02*
X53951Y69507D01*
X53951Y69606D02*
X54851Y69606D01*
X54851Y69705D02*
X53951Y69705D01*
X53951Y69804D02*
X54851Y69804D01*
X54851Y69903D02*
X53951Y69903D01*
X53951Y70002D02*
X54851Y70002D01*
X54851Y70101D02*
X53951Y70101D01*
X53951Y70200D02*
X54851Y70200D01*
X54851Y70299D02*
X53951Y70299D01*
X53951Y70398D02*
X54851Y70398D01*
X54851Y70497D02*
X53951Y70497D01*
X53951Y70596D02*
X54851Y70596D01*
X54851Y70695D02*
X53951Y70695D01*
X52681Y70709D02*
X52681Y69309D01*
X52681Y70709D02*
X53581Y70709D01*
X53581Y69309D01*
X52681Y69309D01*
X52681Y69408D02*
X53581Y69408D01*
X53581Y69507D02*
X52681Y69507D01*
X52681Y69606D02*
X53581Y69606D01*
X53581Y69705D02*
X52681Y69705D01*
X52681Y69804D02*
X53581Y69804D01*
X53581Y69903D02*
X52681Y69903D01*
X52681Y70002D02*
X53581Y70002D01*
X53581Y70101D02*
X52681Y70101D01*
X52681Y70200D02*
X53581Y70200D01*
X53581Y70299D02*
X52681Y70299D01*
X52681Y70398D02*
X53581Y70398D01*
X53581Y70497D02*
X52681Y70497D01*
X52681Y70596D02*
X53581Y70596D01*
X53581Y70695D02*
X52681Y70695D01*
X51411Y70709D02*
X51411Y69309D01*
X51411Y70709D02*
X52311Y70709D01*
X52311Y69309D01*
X51411Y69309D01*
X51411Y69408D02*
X52311Y69408D01*
X52311Y69507D02*
X51411Y69507D01*
X51411Y69606D02*
X52311Y69606D01*
X52311Y69705D02*
X51411Y69705D01*
X51411Y69804D02*
X52311Y69804D01*
X52311Y69903D02*
X51411Y69903D01*
X51411Y70002D02*
X52311Y70002D01*
X52311Y70101D02*
X51411Y70101D01*
X51411Y70200D02*
X52311Y70200D01*
X52311Y70299D02*
X51411Y70299D01*
X51411Y70398D02*
X52311Y70398D01*
X52311Y70497D02*
X51411Y70497D01*
X51411Y70596D02*
X52311Y70596D01*
X52311Y70695D02*
X51411Y70695D01*
X50141Y70709D02*
X50141Y69309D01*
X50141Y70709D02*
X51041Y70709D01*
X51041Y69309D01*
X50141Y69309D01*
X50141Y69408D02*
X51041Y69408D01*
X51041Y69507D02*
X50141Y69507D01*
X50141Y69606D02*
X51041Y69606D01*
X51041Y69705D02*
X50141Y69705D01*
X50141Y69804D02*
X51041Y69804D01*
X51041Y69903D02*
X50141Y69903D01*
X50141Y70002D02*
X51041Y70002D01*
X51041Y70101D02*
X50141Y70101D01*
X50141Y70200D02*
X51041Y70200D01*
X51041Y70299D02*
X50141Y70299D01*
X50141Y70398D02*
X51041Y70398D01*
X51041Y70497D02*
X50141Y70497D01*
X50141Y70596D02*
X51041Y70596D01*
X51041Y70695D02*
X50141Y70695D01*
X48871Y70709D02*
X48871Y69309D01*
X48871Y70709D02*
X49771Y70709D01*
X49771Y69309D01*
X48871Y69309D01*
X48871Y69408D02*
X49771Y69408D01*
X49771Y69507D02*
X48871Y69507D01*
X48871Y69606D02*
X49771Y69606D01*
X49771Y69705D02*
X48871Y69705D01*
X48871Y69804D02*
X49771Y69804D01*
X49771Y69903D02*
X48871Y69903D01*
X48871Y70002D02*
X49771Y70002D01*
X49771Y70101D02*
X48871Y70101D01*
X48871Y70200D02*
X49771Y70200D01*
X49771Y70299D02*
X48871Y70299D01*
X48871Y70398D02*
X49771Y70398D01*
X49771Y70497D02*
X48871Y70497D01*
X48871Y70596D02*
X49771Y70596D01*
X49771Y70695D02*
X48871Y70695D01*
X47601Y70709D02*
X47601Y69309D01*
X47601Y70709D02*
X48501Y70709D01*
X48501Y69309D01*
X47601Y69309D01*
X47601Y69408D02*
X48501Y69408D01*
X48501Y69507D02*
X47601Y69507D01*
X47601Y69606D02*
X48501Y69606D01*
X48501Y69705D02*
X47601Y69705D01*
X47601Y69804D02*
X48501Y69804D01*
X48501Y69903D02*
X47601Y69903D01*
X47601Y70002D02*
X48501Y70002D01*
X48501Y70101D02*
X47601Y70101D01*
X47601Y70200D02*
X48501Y70200D01*
X48501Y70299D02*
X47601Y70299D01*
X47601Y70398D02*
X48501Y70398D01*
X48501Y70497D02*
X47601Y70497D01*
X47601Y70596D02*
X48501Y70596D01*
X48501Y70695D02*
X47601Y70695D01*
X46331Y70709D02*
X46331Y69309D01*
X46331Y70709D02*
X47231Y70709D01*
X47231Y69309D01*
X46331Y69309D01*
X46331Y69408D02*
X47231Y69408D01*
X47231Y69507D02*
X46331Y69507D01*
X46331Y69606D02*
X47231Y69606D01*
X47231Y69705D02*
X46331Y69705D01*
X46331Y69804D02*
X47231Y69804D01*
X47231Y69903D02*
X46331Y69903D01*
X46331Y70002D02*
X47231Y70002D01*
X47231Y70101D02*
X46331Y70101D01*
X46331Y70200D02*
X47231Y70200D01*
X47231Y70299D02*
X46331Y70299D01*
X46331Y70398D02*
X47231Y70398D01*
X47231Y70497D02*
X46331Y70497D01*
X46331Y70596D02*
X47231Y70596D01*
X47231Y70695D02*
X46331Y70695D01*
D16*
X50111Y62159D02*
X55511Y62159D01*
X55511Y56759D01*
X50111Y56759D01*
X50111Y62159D01*
X50111Y57358D02*
X55511Y57358D01*
X55511Y57957D02*
X50111Y57957D01*
X50111Y58556D02*
X55511Y58556D01*
X55511Y59155D02*
X50111Y59155D01*
X50111Y59754D02*
X55511Y59754D01*
X55511Y60353D02*
X50111Y60353D01*
X50111Y60952D02*
X55511Y60952D01*
X55511Y61551D02*
X50111Y61551D01*
X50111Y62150D02*
X55511Y62150D01*
D17*
X66650Y91774D02*
X67910Y91774D01*
X67910Y90514D01*
X66650Y90514D01*
X66650Y91774D01*
X66650Y90653D02*
X67910Y90653D01*
X67910Y90792D02*
X66650Y90792D01*
X66650Y90931D02*
X67910Y90931D01*
X67910Y91070D02*
X66650Y91070D01*
X66650Y91209D02*
X67910Y91209D01*
X67910Y91348D02*
X66650Y91348D01*
X66650Y91487D02*
X67910Y91487D01*
X67910Y91626D02*
X66650Y91626D01*
X66650Y91765D02*
X67910Y91765D01*
X70450Y91774D02*
X71710Y91774D01*
X71710Y90514D01*
X70450Y90514D01*
X70450Y91774D01*
X70450Y90653D02*
X71710Y90653D01*
X71710Y90792D02*
X70450Y90792D01*
X70450Y90931D02*
X71710Y90931D01*
X71710Y91070D02*
X70450Y91070D01*
X70450Y91209D02*
X71710Y91209D01*
X71710Y91348D02*
X70450Y91348D01*
X70450Y91487D02*
X71710Y91487D01*
X71710Y91626D02*
X70450Y91626D01*
X70450Y91765D02*
X71710Y91765D01*
M02*
