G75*
%MOMM*%
%OFA0B0*%
%FSLAX33Y33*%
%IPPOS*%
%LPD*%
%AMOC8*
5,1,8,0,0,1.08239X$1,22.5*
%
%ADD10C,0.406*%
%ADD11C,0.000*%
%ADD12C,2.302*%
%ADD13C,0.254*%
%ADD14C,0.120*%
%ADD15C,0.330*%
%ADD16C,1.524*%
%ADD17C,0.117*%
%ADD18C,0.110*%
%ADD19C,0.610*%
%ADD20C,0.125*%
%ADD21C,0.010*%
%ADD22C,1.778*%
%ADD23C,2.102*%
%ADD24C,2.642*%
%ADD25C,0.150*%
%ADD26C,1.642*%
%ADD27C,1.102*%
%ADD28C,1.502*%
D10*
X10601Y44154D02*
X10601Y96214D01*
X94421Y96224D01*
X94421Y44154D01*
X10601Y44154D01*
D11*
X11501Y94154D02*
X11503Y94220D01*
X11509Y94285D01*
X11519Y94350D01*
X11532Y94415D01*
X11550Y94478D01*
X11571Y94541D01*
X11596Y94601D01*
X11625Y94661D01*
X11657Y94718D01*
X11692Y94774D01*
X11731Y94827D01*
X11773Y94878D01*
X11817Y94926D01*
X11865Y94971D01*
X11915Y95014D01*
X11968Y95053D01*
X12023Y95090D01*
X12080Y95123D01*
X12139Y95152D01*
X12199Y95178D01*
X12261Y95200D01*
X12324Y95219D01*
X12388Y95233D01*
X12453Y95244D01*
X12519Y95251D01*
X12585Y95254D01*
X12650Y95253D01*
X12716Y95248D01*
X12781Y95239D01*
X12846Y95226D01*
X12909Y95210D01*
X12972Y95190D01*
X13033Y95165D01*
X13093Y95138D01*
X13151Y95107D01*
X13207Y95072D01*
X13261Y95034D01*
X13312Y94993D01*
X13361Y94949D01*
X13407Y94902D01*
X13451Y94853D01*
X13491Y94801D01*
X13528Y94746D01*
X13562Y94690D01*
X13592Y94631D01*
X13619Y94571D01*
X13642Y94510D01*
X13661Y94447D01*
X13677Y94383D01*
X13689Y94318D01*
X13697Y94253D01*
X13701Y94187D01*
X13701Y94121D01*
X13697Y94055D01*
X13689Y93990D01*
X13677Y93925D01*
X13661Y93861D01*
X13642Y93798D01*
X13619Y93737D01*
X13592Y93677D01*
X13562Y93618D01*
X13528Y93562D01*
X13491Y93507D01*
X13451Y93455D01*
X13407Y93406D01*
X13361Y93359D01*
X13312Y93315D01*
X13261Y93274D01*
X13207Y93236D01*
X13151Y93201D01*
X13093Y93170D01*
X13033Y93143D01*
X12972Y93118D01*
X12909Y93098D01*
X12846Y93082D01*
X12781Y93069D01*
X12716Y93060D01*
X12650Y93055D01*
X12585Y93054D01*
X12519Y93057D01*
X12453Y93064D01*
X12388Y93075D01*
X12324Y93089D01*
X12261Y93108D01*
X12199Y93130D01*
X12139Y93156D01*
X12080Y93185D01*
X12023Y93218D01*
X11968Y93255D01*
X11915Y93294D01*
X11865Y93337D01*
X11817Y93382D01*
X11773Y93430D01*
X11731Y93481D01*
X11692Y93534D01*
X11657Y93590D01*
X11625Y93647D01*
X11596Y93707D01*
X11571Y93767D01*
X11550Y93830D01*
X11532Y93893D01*
X11519Y93958D01*
X11509Y94023D01*
X11503Y94088D01*
X11501Y94154D01*
X75501Y46154D02*
X75503Y46220D01*
X75509Y46285D01*
X75519Y46350D01*
X75532Y46415D01*
X75550Y46478D01*
X75571Y46541D01*
X75596Y46601D01*
X75625Y46661D01*
X75657Y46718D01*
X75692Y46774D01*
X75731Y46827D01*
X75773Y46878D01*
X75817Y46926D01*
X75865Y46971D01*
X75915Y47014D01*
X75968Y47053D01*
X76023Y47090D01*
X76080Y47123D01*
X76139Y47152D01*
X76199Y47178D01*
X76261Y47200D01*
X76324Y47219D01*
X76388Y47233D01*
X76453Y47244D01*
X76519Y47251D01*
X76585Y47254D01*
X76650Y47253D01*
X76716Y47248D01*
X76781Y47239D01*
X76846Y47226D01*
X76909Y47210D01*
X76972Y47190D01*
X77033Y47165D01*
X77093Y47138D01*
X77151Y47107D01*
X77207Y47072D01*
X77261Y47034D01*
X77312Y46993D01*
X77361Y46949D01*
X77407Y46902D01*
X77451Y46853D01*
X77491Y46801D01*
X77528Y46746D01*
X77562Y46690D01*
X77592Y46631D01*
X77619Y46571D01*
X77642Y46510D01*
X77661Y46447D01*
X77677Y46383D01*
X77689Y46318D01*
X77697Y46253D01*
X77701Y46187D01*
X77701Y46121D01*
X77697Y46055D01*
X77689Y45990D01*
X77677Y45925D01*
X77661Y45861D01*
X77642Y45798D01*
X77619Y45737D01*
X77592Y45677D01*
X77562Y45618D01*
X77528Y45562D01*
X77491Y45507D01*
X77451Y45455D01*
X77407Y45406D01*
X77361Y45359D01*
X77312Y45315D01*
X77261Y45274D01*
X77207Y45236D01*
X77151Y45201D01*
X77093Y45170D01*
X77033Y45143D01*
X76972Y45118D01*
X76909Y45098D01*
X76846Y45082D01*
X76781Y45069D01*
X76716Y45060D01*
X76650Y45055D01*
X76585Y45054D01*
X76519Y45057D01*
X76453Y45064D01*
X76388Y45075D01*
X76324Y45089D01*
X76261Y45108D01*
X76199Y45130D01*
X76139Y45156D01*
X76080Y45185D01*
X76023Y45218D01*
X75968Y45255D01*
X75915Y45294D01*
X75865Y45337D01*
X75817Y45382D01*
X75773Y45430D01*
X75731Y45481D01*
X75692Y45534D01*
X75657Y45590D01*
X75625Y45647D01*
X75596Y45707D01*
X75571Y45767D01*
X75550Y45830D01*
X75532Y45893D01*
X75519Y45958D01*
X75509Y46023D01*
X75503Y46088D01*
X75501Y46154D01*
X91501Y94154D02*
X91503Y94220D01*
X91509Y94285D01*
X91519Y94350D01*
X91532Y94415D01*
X91550Y94478D01*
X91571Y94541D01*
X91596Y94601D01*
X91625Y94661D01*
X91657Y94718D01*
X91692Y94774D01*
X91731Y94827D01*
X91773Y94878D01*
X91817Y94926D01*
X91865Y94971D01*
X91915Y95014D01*
X91968Y95053D01*
X92023Y95090D01*
X92080Y95123D01*
X92139Y95152D01*
X92199Y95178D01*
X92261Y95200D01*
X92324Y95219D01*
X92388Y95233D01*
X92453Y95244D01*
X92519Y95251D01*
X92585Y95254D01*
X92650Y95253D01*
X92716Y95248D01*
X92781Y95239D01*
X92846Y95226D01*
X92909Y95210D01*
X92972Y95190D01*
X93033Y95165D01*
X93093Y95138D01*
X93151Y95107D01*
X93207Y95072D01*
X93261Y95034D01*
X93312Y94993D01*
X93361Y94949D01*
X93407Y94902D01*
X93451Y94853D01*
X93491Y94801D01*
X93528Y94746D01*
X93562Y94690D01*
X93592Y94631D01*
X93619Y94571D01*
X93642Y94510D01*
X93661Y94447D01*
X93677Y94383D01*
X93689Y94318D01*
X93697Y94253D01*
X93701Y94187D01*
X93701Y94121D01*
X93697Y94055D01*
X93689Y93990D01*
X93677Y93925D01*
X93661Y93861D01*
X93642Y93798D01*
X93619Y93737D01*
X93592Y93677D01*
X93562Y93618D01*
X93528Y93562D01*
X93491Y93507D01*
X93451Y93455D01*
X93407Y93406D01*
X93361Y93359D01*
X93312Y93315D01*
X93261Y93274D01*
X93207Y93236D01*
X93151Y93201D01*
X93093Y93170D01*
X93033Y93143D01*
X92972Y93118D01*
X92909Y93098D01*
X92846Y93082D01*
X92781Y93069D01*
X92716Y93060D01*
X92650Y93055D01*
X92585Y93054D01*
X92519Y93057D01*
X92453Y93064D01*
X92388Y93075D01*
X92324Y93089D01*
X92261Y93108D01*
X92199Y93130D01*
X92139Y93156D01*
X92080Y93185D01*
X92023Y93218D01*
X91968Y93255D01*
X91915Y93294D01*
X91865Y93337D01*
X91817Y93382D01*
X91773Y93430D01*
X91731Y93481D01*
X91692Y93534D01*
X91657Y93590D01*
X91625Y93647D01*
X91596Y93707D01*
X91571Y93767D01*
X91550Y93830D01*
X91532Y93893D01*
X91519Y93958D01*
X91509Y94023D01*
X91503Y94088D01*
X91501Y94154D01*
D12*
X92601Y94154D03*
X76601Y46154D03*
X12601Y94154D03*
D13*
X51003Y81619D02*
X51003Y79079D01*
X51241Y78841D01*
X53781Y78841D01*
X54020Y79079D01*
X54020Y81619D01*
X53781Y81857D01*
X51241Y81857D01*
X51003Y81619D01*
X51003Y81524D02*
X54020Y81524D01*
X54020Y81271D02*
X51003Y81271D01*
X51003Y81019D02*
X54020Y81019D01*
X54020Y80766D02*
X51003Y80766D01*
X51003Y80514D02*
X54020Y80514D01*
X54020Y80261D02*
X51003Y80261D01*
X51003Y80009D02*
X54020Y80009D01*
X54020Y79756D02*
X51003Y79756D01*
X51003Y79504D02*
X54020Y79504D01*
X54020Y79251D02*
X51003Y79251D01*
X51083Y78999D02*
X53940Y78999D01*
X53862Y81776D02*
X51161Y81776D01*
D14*
X51838Y85552D02*
X52520Y85552D01*
X52520Y84670D01*
X51838Y84670D01*
X51838Y85552D01*
X51838Y84789D02*
X52520Y84789D01*
X52520Y84908D02*
X51838Y84908D01*
X51838Y85027D02*
X52520Y85027D01*
X52520Y85146D02*
X51838Y85146D01*
X51838Y85265D02*
X52520Y85265D01*
X52520Y85384D02*
X51838Y85384D01*
X51838Y85503D02*
X52520Y85503D01*
X53138Y85552D02*
X53820Y85552D01*
X53820Y84670D01*
X53138Y84670D01*
X53138Y85552D01*
X53138Y84789D02*
X53820Y84789D01*
X53820Y84908D02*
X53138Y84908D01*
X53138Y85027D02*
X53820Y85027D01*
X53820Y85146D02*
X53138Y85146D01*
X53138Y85265D02*
X53820Y85265D01*
X53820Y85384D02*
X53138Y85384D01*
X53138Y85503D02*
X53820Y85503D01*
X54219Y84670D02*
X54901Y84670D01*
X54219Y84670D02*
X54219Y85552D01*
X54901Y85552D01*
X54901Y84670D01*
X54901Y84789D02*
X54219Y84789D01*
X54219Y84908D02*
X54901Y84908D01*
X54901Y85027D02*
X54219Y85027D01*
X54219Y85146D02*
X54901Y85146D01*
X54901Y85265D02*
X54219Y85265D01*
X54219Y85384D02*
X54901Y85384D01*
X54901Y85503D02*
X54219Y85503D01*
X55519Y84670D02*
X56201Y84670D01*
X55519Y84670D02*
X55519Y85552D01*
X56201Y85552D01*
X56201Y84670D01*
X56201Y84789D02*
X55519Y84789D01*
X55519Y84908D02*
X56201Y84908D01*
X56201Y85027D02*
X55519Y85027D01*
X55519Y85146D02*
X56201Y85146D01*
X56201Y85265D02*
X55519Y85265D01*
X55519Y85384D02*
X56201Y85384D01*
X56201Y85503D02*
X55519Y85503D01*
D15*
X55064Y85995D02*
X54292Y85995D01*
X54292Y86767D01*
X55064Y86767D01*
X55064Y85995D01*
X55064Y86324D02*
X54292Y86324D01*
X54292Y86653D02*
X55064Y86653D01*
X55992Y85995D02*
X56764Y85995D01*
X55992Y85995D02*
X55992Y86767D01*
X56764Y86767D01*
X56764Y85995D01*
X56764Y86324D02*
X55992Y86324D01*
X55992Y86653D02*
X56764Y86653D01*
X53747Y86767D02*
X52975Y86767D01*
X53747Y86767D02*
X53747Y85995D01*
X52975Y85995D01*
X52975Y86767D01*
X52975Y86324D02*
X53747Y86324D01*
X53747Y86653D02*
X52975Y86653D01*
X52047Y86767D02*
X51275Y86767D01*
X52047Y86767D02*
X52047Y85995D01*
X51275Y85995D01*
X51275Y86767D01*
X51275Y86324D02*
X52047Y86324D01*
X52047Y86653D02*
X51275Y86653D01*
X45140Y90225D02*
X45140Y90997D01*
X45912Y90997D01*
X45912Y90225D01*
X45140Y90225D01*
X45140Y90554D02*
X45912Y90554D01*
X45912Y90883D02*
X45140Y90883D01*
X45140Y91925D02*
X45140Y92697D01*
X45912Y92697D01*
X45912Y91925D01*
X45140Y91925D01*
X45140Y92254D02*
X45912Y92254D01*
X45912Y92583D02*
X45140Y92583D01*
X43235Y92697D02*
X43235Y91925D01*
X43235Y92697D02*
X44007Y92697D01*
X44007Y91925D01*
X43235Y91925D01*
X43235Y92254D02*
X44007Y92254D01*
X44007Y92583D02*
X43235Y92583D01*
X43235Y90997D02*
X43235Y90225D01*
X43235Y90997D02*
X44007Y90997D01*
X44007Y90225D01*
X43235Y90225D01*
X43235Y90554D02*
X44007Y90554D01*
X44007Y90883D02*
X43235Y90883D01*
X41150Y91110D02*
X41150Y90338D01*
X40378Y90338D01*
X40378Y91110D01*
X41150Y91110D01*
X41150Y90667D02*
X40378Y90667D01*
X40378Y90996D02*
X41150Y90996D01*
X39880Y91110D02*
X39880Y90338D01*
X39108Y90338D01*
X39108Y91110D01*
X39880Y91110D01*
X39880Y90667D02*
X39108Y90667D01*
X39108Y90996D02*
X39880Y90996D01*
X38451Y91110D02*
X38451Y90338D01*
X37679Y90338D01*
X37679Y91110D01*
X38451Y91110D01*
X38451Y90667D02*
X37679Y90667D01*
X37679Y90996D02*
X38451Y90996D01*
X37181Y91110D02*
X37181Y90338D01*
X36409Y90338D01*
X36409Y91110D01*
X37181Y91110D01*
X37181Y90667D02*
X36409Y90667D01*
X36409Y90996D02*
X37181Y90996D01*
X35752Y91110D02*
X35752Y90338D01*
X34980Y90338D01*
X34980Y91110D01*
X35752Y91110D01*
X35752Y90667D02*
X34980Y90667D01*
X34980Y90996D02*
X35752Y90996D01*
X34482Y91110D02*
X34482Y90338D01*
X33710Y90338D01*
X33710Y91110D01*
X34482Y91110D01*
X34482Y90667D02*
X33710Y90667D01*
X33710Y90996D02*
X34482Y90996D01*
X33054Y91110D02*
X33054Y90338D01*
X32282Y90338D01*
X32282Y91110D01*
X33054Y91110D01*
X33054Y90667D02*
X32282Y90667D01*
X32282Y90996D02*
X33054Y90996D01*
X31784Y91110D02*
X31784Y90338D01*
X31012Y90338D01*
X31012Y91110D01*
X31784Y91110D01*
X31784Y90667D02*
X31012Y90667D01*
X31012Y90996D02*
X31784Y90996D01*
X31784Y89410D02*
X31784Y88638D01*
X31012Y88638D01*
X31012Y89410D01*
X31784Y89410D01*
X31784Y88967D02*
X31012Y88967D01*
X31012Y89296D02*
X31784Y89296D01*
X33054Y89410D02*
X33054Y88638D01*
X32282Y88638D01*
X32282Y89410D01*
X33054Y89410D01*
X33054Y88967D02*
X32282Y88967D01*
X32282Y89296D02*
X33054Y89296D01*
X34482Y89410D02*
X34482Y88638D01*
X33710Y88638D01*
X33710Y89410D01*
X34482Y89410D01*
X34482Y88967D02*
X33710Y88967D01*
X33710Y89296D02*
X34482Y89296D01*
X35752Y89410D02*
X35752Y88638D01*
X34980Y88638D01*
X34980Y89410D01*
X35752Y89410D01*
X35752Y88967D02*
X34980Y88967D01*
X34980Y89296D02*
X35752Y89296D01*
X37181Y89410D02*
X37181Y88638D01*
X36409Y88638D01*
X36409Y89410D01*
X37181Y89410D01*
X37181Y88967D02*
X36409Y88967D01*
X36409Y89296D02*
X37181Y89296D01*
X38451Y89410D02*
X38451Y88638D01*
X37679Y88638D01*
X37679Y89410D01*
X38451Y89410D01*
X38451Y88967D02*
X37679Y88967D01*
X37679Y89296D02*
X38451Y89296D01*
X39880Y89410D02*
X39880Y88638D01*
X39108Y88638D01*
X39108Y89410D01*
X39880Y89410D01*
X39880Y88967D02*
X39108Y88967D01*
X39108Y89296D02*
X39880Y89296D01*
X41150Y89410D02*
X41150Y88638D01*
X40378Y88638D01*
X40378Y89410D01*
X41150Y89410D01*
X41150Y88967D02*
X40378Y88967D01*
X40378Y89296D02*
X41150Y89296D01*
X40571Y78830D02*
X39799Y78830D01*
X40571Y78830D02*
X40571Y78058D01*
X39799Y78058D01*
X39799Y78830D01*
X39799Y78387D02*
X40571Y78387D01*
X40571Y78716D02*
X39799Y78716D01*
X38871Y78830D02*
X38099Y78830D01*
X38871Y78830D02*
X38871Y78058D01*
X38099Y78058D01*
X38099Y78830D01*
X38099Y78387D02*
X38871Y78387D01*
X38871Y78716D02*
X38099Y78716D01*
X25331Y91551D02*
X24559Y91551D01*
X24559Y92323D01*
X25331Y92323D01*
X25331Y91551D01*
X25331Y91880D02*
X24559Y91880D01*
X24559Y92209D02*
X25331Y92209D01*
X23631Y91551D02*
X22859Y91551D01*
X22859Y92323D01*
X23631Y92323D01*
X23631Y91551D01*
X23631Y91880D02*
X22859Y91880D01*
X22859Y92209D02*
X23631Y92209D01*
X21680Y91551D02*
X20908Y91551D01*
X20908Y92323D01*
X21680Y92323D01*
X21680Y91551D01*
X21680Y91880D02*
X20908Y91880D01*
X20908Y92209D02*
X21680Y92209D01*
X19980Y91551D02*
X19208Y91551D01*
X19208Y92323D01*
X19980Y92323D01*
X19980Y91551D01*
X19980Y91880D02*
X19208Y91880D01*
X19208Y92209D02*
X19980Y92209D01*
X18607Y92585D02*
X18607Y91813D01*
X17835Y91813D01*
X17835Y92585D01*
X18607Y92585D01*
X18607Y92142D02*
X17835Y92142D01*
X17835Y92471D02*
X18607Y92471D01*
X18607Y93513D02*
X18607Y94285D01*
X18607Y93513D02*
X17835Y93513D01*
X17835Y94285D01*
X18607Y94285D01*
X18607Y93842D02*
X17835Y93842D01*
X17835Y94171D02*
X18607Y94171D01*
X17337Y94285D02*
X17337Y93513D01*
X16565Y93513D01*
X16565Y94285D01*
X17337Y94285D01*
X17337Y93842D02*
X16565Y93842D01*
X16565Y94171D02*
X17337Y94171D01*
X17337Y92585D02*
X17337Y91813D01*
X16565Y91813D01*
X16565Y92585D01*
X17337Y92585D01*
X17337Y92142D02*
X16565Y92142D01*
X16565Y92471D02*
X17337Y92471D01*
X60517Y92380D02*
X60517Y91608D01*
X59745Y91608D01*
X59745Y92380D01*
X60517Y92380D01*
X60517Y91937D02*
X59745Y91937D01*
X59745Y92266D02*
X60517Y92266D01*
X60517Y90680D02*
X60517Y89908D01*
X59745Y89908D01*
X59745Y90680D01*
X60517Y90680D01*
X60517Y90237D02*
X59745Y90237D01*
X59745Y90566D02*
X60517Y90566D01*
X63975Y95340D02*
X64747Y95340D01*
X64747Y94568D01*
X63975Y94568D01*
X63975Y95340D01*
X63975Y94897D02*
X64747Y94897D01*
X64747Y95226D02*
X63975Y95226D01*
X65675Y95340D02*
X66447Y95340D01*
X66447Y94568D01*
X65675Y94568D01*
X65675Y95340D01*
X65675Y94897D02*
X66447Y94897D01*
X66447Y95226D02*
X65675Y95226D01*
X79250Y95555D02*
X79250Y94783D01*
X78478Y94783D01*
X78478Y95555D01*
X79250Y95555D01*
X79250Y95112D02*
X78478Y95112D01*
X78478Y95441D02*
X79250Y95441D01*
X79250Y93855D02*
X79250Y93083D01*
X78478Y93083D01*
X78478Y93855D01*
X79250Y93855D01*
X79250Y93412D02*
X78478Y93412D01*
X78478Y93741D02*
X79250Y93741D01*
X63868Y55237D02*
X63868Y54465D01*
X63868Y55237D02*
X64640Y55237D01*
X64640Y54465D01*
X63868Y54465D01*
X63868Y54794D02*
X64640Y54794D01*
X64640Y55123D02*
X63868Y55123D01*
X63868Y53537D02*
X63868Y52765D01*
X63868Y53537D02*
X64640Y53537D01*
X64640Y52765D01*
X63868Y52765D01*
X63868Y53094D02*
X64640Y53094D01*
X64640Y53423D02*
X63868Y53423D01*
X77027Y53010D02*
X77027Y52238D01*
X76255Y52238D01*
X76255Y53010D01*
X77027Y53010D01*
X77027Y52567D02*
X76255Y52567D01*
X76255Y52896D02*
X77027Y52896D01*
X78297Y53010D02*
X78297Y52238D01*
X77525Y52238D01*
X77525Y53010D01*
X78297Y53010D01*
X78297Y52567D02*
X77525Y52567D01*
X77525Y52896D02*
X78297Y52896D01*
X78297Y51310D02*
X78297Y50538D01*
X77525Y50538D01*
X77525Y51310D01*
X78297Y51310D01*
X78297Y50867D02*
X77525Y50867D01*
X77525Y51196D02*
X78297Y51196D01*
X77027Y51310D02*
X77027Y50538D01*
X76255Y50538D01*
X76255Y51310D01*
X77027Y51310D01*
X77027Y50867D02*
X76255Y50867D01*
X76255Y51196D02*
X77027Y51196D01*
D16*
X80451Y51774D03*
X80451Y49234D03*
X80451Y46694D03*
X82991Y46694D03*
X82991Y49234D03*
X82991Y51774D03*
X85531Y51774D03*
X85531Y49234D03*
X88071Y49234D03*
X88071Y51774D03*
X88071Y54314D03*
X85531Y54314D03*
X82991Y54314D03*
X82991Y56854D03*
X85531Y56854D03*
X88071Y56854D03*
X88071Y59394D03*
X85531Y59394D03*
X82991Y59394D03*
X82991Y61934D03*
X85531Y61934D03*
X88071Y61934D03*
X88071Y64474D03*
X85531Y64474D03*
X82991Y64474D03*
X82991Y67014D03*
X85531Y67014D03*
X88071Y67014D03*
X88071Y69554D03*
X85531Y69554D03*
X82991Y69554D03*
X82991Y72094D03*
X85531Y72094D03*
X88071Y72094D03*
X88071Y74634D03*
X85531Y74634D03*
X82991Y74634D03*
X82991Y77174D03*
X85531Y77174D03*
X88071Y77174D03*
X90611Y77174D03*
X90611Y74634D03*
X93151Y74634D03*
X93151Y77174D03*
X93151Y72094D03*
X90611Y72094D03*
X90611Y69554D03*
X93151Y69554D03*
X93151Y67014D03*
X90611Y67014D03*
X90611Y64474D03*
X93151Y64474D03*
X93151Y61934D03*
X90611Y61934D03*
X90611Y59394D03*
X93151Y59394D03*
X93151Y56854D03*
X90611Y56854D03*
X90611Y54314D03*
X93151Y54314D03*
X93151Y51774D03*
X90611Y51774D03*
X90611Y49234D03*
X93151Y49234D03*
X80451Y54314D03*
X80451Y56854D03*
X80451Y59394D03*
X80451Y61934D03*
X80451Y64474D03*
X80451Y67014D03*
X80451Y69554D03*
X80451Y72094D03*
X80451Y74634D03*
X80451Y77174D03*
X82991Y82254D03*
X82991Y84794D03*
X82991Y87334D03*
X83944Y91937D03*
X86484Y91937D03*
X86484Y94477D03*
X83944Y94477D03*
X81404Y94477D03*
X81404Y91937D03*
X72831Y84794D03*
X72831Y82254D03*
X69021Y77174D03*
X69021Y74634D03*
X69021Y72094D03*
X69021Y69554D03*
X69021Y67014D03*
X69021Y64474D03*
X69021Y61934D03*
X69021Y59394D03*
X69021Y56854D03*
X69021Y54314D03*
X69021Y51774D03*
X69021Y49234D03*
X60131Y73364D03*
X57591Y73364D03*
X55051Y73364D03*
X52511Y73364D03*
X49971Y73364D03*
X47431Y73364D03*
X44891Y73364D03*
X42351Y73364D03*
X42351Y75904D03*
X42351Y78444D03*
X44891Y78444D03*
X44891Y75904D03*
X47431Y75904D03*
X47431Y78444D03*
X49971Y75904D03*
X52511Y75904D03*
X55051Y75904D03*
X57591Y75904D03*
X57591Y78444D03*
X60131Y78444D03*
X60131Y75904D03*
X62671Y75904D03*
X62671Y78444D03*
X60131Y80984D03*
X57591Y80984D03*
X57591Y88604D03*
X55051Y88604D03*
X52511Y88604D03*
X49971Y88604D03*
X47431Y88604D03*
X47431Y86064D03*
X44891Y86064D03*
X42351Y86064D03*
X39811Y86064D03*
X37271Y86064D03*
X34731Y86064D03*
X32191Y86064D03*
X32191Y83524D03*
X34731Y83524D03*
X37271Y83524D03*
X39811Y83524D03*
X39811Y80984D03*
X42351Y80984D03*
X42351Y83524D03*
X44891Y83524D03*
X44891Y80984D03*
X47431Y80984D03*
X47431Y83524D03*
X36001Y79714D03*
X36001Y77174D03*
X36001Y74634D03*
X36001Y72094D03*
X36001Y69554D03*
X36001Y67014D03*
X36001Y64474D03*
X36001Y61934D03*
X36001Y59394D03*
X36001Y56854D03*
X36001Y54314D03*
X36001Y51774D03*
X36001Y49234D03*
X36001Y46694D03*
X24571Y46694D03*
X22031Y46694D03*
X19491Y46694D03*
X16951Y46694D03*
X14411Y46694D03*
X11871Y46694D03*
X11871Y49234D03*
X11871Y51774D03*
X14411Y51774D03*
X14411Y49234D03*
X16951Y49234D03*
X16951Y51774D03*
X16951Y54314D03*
X14411Y54314D03*
X11871Y54314D03*
X11871Y56854D03*
X14411Y56854D03*
X16951Y56854D03*
X16951Y59394D03*
X14411Y59394D03*
X11871Y59394D03*
X11871Y61934D03*
X14411Y61934D03*
X16951Y61934D03*
X16951Y64474D03*
X14411Y64474D03*
X11871Y64474D03*
X11871Y67014D03*
X14411Y67014D03*
X16951Y67014D03*
X16951Y69554D03*
X14411Y69554D03*
X11871Y69554D03*
X11871Y72094D03*
X14411Y72094D03*
X16951Y72094D03*
X16951Y74634D03*
X14411Y74634D03*
X11871Y74634D03*
X11871Y77174D03*
X14411Y77174D03*
X16951Y77174D03*
X16951Y79714D03*
X14411Y79714D03*
X11871Y79714D03*
X11871Y82254D03*
X14411Y82254D03*
X16951Y82254D03*
X16951Y84794D03*
X14411Y84794D03*
X11871Y84794D03*
X11871Y87334D03*
X14411Y87334D03*
X16951Y87334D03*
X16951Y89874D03*
X14411Y89874D03*
X11871Y89874D03*
X19491Y89874D03*
X22031Y89874D03*
X24571Y89874D03*
X24571Y87334D03*
X22031Y87334D03*
X19491Y87334D03*
X19491Y84794D03*
X22031Y84794D03*
X24571Y84794D03*
X24571Y82254D03*
X22031Y82254D03*
X19491Y82254D03*
X19491Y79714D03*
X22031Y79714D03*
X24571Y79714D03*
X24571Y77174D03*
X22031Y77174D03*
X19491Y77174D03*
X19491Y74634D03*
X22031Y74634D03*
X24571Y74634D03*
X24571Y72094D03*
X22031Y72094D03*
X19491Y72094D03*
X19491Y69554D03*
X22031Y69554D03*
X24571Y69554D03*
X24571Y67014D03*
X22031Y67014D03*
X19491Y67014D03*
X19491Y64474D03*
X22031Y64474D03*
X24571Y64474D03*
X24571Y61934D03*
X22031Y61934D03*
X19491Y61934D03*
X19491Y59394D03*
X22031Y59394D03*
X24571Y59394D03*
X24571Y56854D03*
X22031Y56854D03*
X19491Y56854D03*
X19491Y54314D03*
X22031Y54314D03*
X24571Y54314D03*
X24571Y51774D03*
X22031Y51774D03*
X19491Y51774D03*
X19491Y49234D03*
X22031Y49234D03*
X24571Y49234D03*
X62671Y91144D03*
X65211Y91144D03*
D17*
X63064Y94120D02*
X62278Y94120D01*
X63064Y94120D02*
X63064Y93334D01*
X62278Y93334D01*
X62278Y94120D01*
X62278Y93450D02*
X63064Y93450D01*
X63064Y93566D02*
X62278Y93566D01*
X62278Y93682D02*
X63064Y93682D01*
X63064Y93798D02*
X62278Y93798D01*
X62278Y93914D02*
X63064Y93914D01*
X63064Y94030D02*
X62278Y94030D01*
X62278Y95620D02*
X63064Y95620D01*
X63064Y94834D01*
X62278Y94834D01*
X62278Y95620D01*
X62278Y94950D02*
X63064Y94950D01*
X63064Y95066D02*
X62278Y95066D01*
X62278Y95182D02*
X63064Y95182D01*
X63064Y95298D02*
X62278Y95298D01*
X62278Y95414D02*
X63064Y95414D01*
X63064Y95530D02*
X62278Y95530D01*
X60524Y95620D02*
X59738Y95620D01*
X60524Y95620D02*
X60524Y94834D01*
X59738Y94834D01*
X59738Y95620D01*
X59738Y94950D02*
X60524Y94950D01*
X60524Y95066D02*
X59738Y95066D01*
X59738Y95182D02*
X60524Y95182D01*
X60524Y95298D02*
X59738Y95298D01*
X59738Y95414D02*
X60524Y95414D01*
X60524Y95530D02*
X59738Y95530D01*
X59738Y94120D02*
X60524Y94120D01*
X60524Y93334D01*
X59738Y93334D01*
X59738Y94120D01*
X59738Y93450D02*
X60524Y93450D01*
X60524Y93566D02*
X59738Y93566D01*
X59738Y93682D02*
X60524Y93682D01*
X60524Y93798D02*
X59738Y93798D01*
X59738Y93914D02*
X60524Y93914D01*
X60524Y94030D02*
X59738Y94030D01*
X45919Y94120D02*
X45133Y94120D01*
X45919Y94120D02*
X45919Y93334D01*
X45133Y93334D01*
X45133Y94120D01*
X45133Y93450D02*
X45919Y93450D01*
X45919Y93566D02*
X45133Y93566D01*
X45133Y93682D02*
X45919Y93682D01*
X45919Y93798D02*
X45133Y93798D01*
X45133Y93914D02*
X45919Y93914D01*
X45919Y94030D02*
X45133Y94030D01*
X45133Y95620D02*
X45919Y95620D01*
X45919Y94834D01*
X45133Y94834D01*
X45133Y95620D01*
X45133Y94950D02*
X45919Y94950D01*
X45919Y95066D02*
X45133Y95066D01*
X45133Y95182D02*
X45919Y95182D01*
X45919Y95298D02*
X45133Y95298D01*
X45133Y95414D02*
X45919Y95414D01*
X45919Y95530D02*
X45133Y95530D01*
X44014Y95620D02*
X43228Y95620D01*
X44014Y95620D02*
X44014Y94834D01*
X43228Y94834D01*
X43228Y95620D01*
X43228Y94950D02*
X44014Y94950D01*
X44014Y95066D02*
X43228Y95066D01*
X43228Y95182D02*
X44014Y95182D01*
X44014Y95298D02*
X43228Y95298D01*
X43228Y95414D02*
X44014Y95414D01*
X44014Y95530D02*
X43228Y95530D01*
X43228Y94120D02*
X44014Y94120D01*
X44014Y93334D01*
X43228Y93334D01*
X43228Y94120D01*
X43228Y93450D02*
X44014Y93450D01*
X44014Y93566D02*
X43228Y93566D01*
X43228Y93682D02*
X44014Y93682D01*
X44014Y93798D02*
X43228Y93798D01*
X43228Y93914D02*
X44014Y93914D01*
X44014Y94030D02*
X43228Y94030D01*
X41474Y94120D02*
X40688Y94120D01*
X41474Y94120D02*
X41474Y93334D01*
X40688Y93334D01*
X40688Y94120D01*
X40688Y93450D02*
X41474Y93450D01*
X41474Y93566D02*
X40688Y93566D01*
X40688Y93682D02*
X41474Y93682D01*
X41474Y93798D02*
X40688Y93798D01*
X40688Y93914D02*
X41474Y93914D01*
X41474Y94030D02*
X40688Y94030D01*
X40204Y93334D02*
X39418Y93334D01*
X39418Y94120D01*
X40204Y94120D01*
X40204Y93334D01*
X40204Y93450D02*
X39418Y93450D01*
X39418Y93566D02*
X40204Y93566D01*
X40204Y93682D02*
X39418Y93682D01*
X39418Y93798D02*
X40204Y93798D01*
X40204Y93914D02*
X39418Y93914D01*
X39418Y94030D02*
X40204Y94030D01*
X40204Y94834D02*
X39418Y94834D01*
X39418Y95620D01*
X40204Y95620D01*
X40204Y94834D01*
X40204Y94950D02*
X39418Y94950D01*
X39418Y95066D02*
X40204Y95066D01*
X40204Y95182D02*
X39418Y95182D01*
X39418Y95298D02*
X40204Y95298D01*
X40204Y95414D02*
X39418Y95414D01*
X39418Y95530D02*
X40204Y95530D01*
X40688Y95620D02*
X41474Y95620D01*
X41474Y94834D01*
X40688Y94834D01*
X40688Y95620D01*
X40688Y94950D02*
X41474Y94950D01*
X41474Y95066D02*
X40688Y95066D01*
X40688Y95182D02*
X41474Y95182D01*
X41474Y95298D02*
X40688Y95298D01*
X40688Y95414D02*
X41474Y95414D01*
X41474Y95530D02*
X40688Y95530D01*
X37664Y95620D02*
X36878Y95620D01*
X37664Y95620D02*
X37664Y94834D01*
X36878Y94834D01*
X36878Y95620D01*
X36878Y94950D02*
X37664Y94950D01*
X37664Y95066D02*
X36878Y95066D01*
X36878Y95182D02*
X37664Y95182D01*
X37664Y95298D02*
X36878Y95298D01*
X36878Y95414D02*
X37664Y95414D01*
X37664Y95530D02*
X36878Y95530D01*
X36394Y94834D02*
X35608Y94834D01*
X35608Y95620D01*
X36394Y95620D01*
X36394Y94834D01*
X36394Y94950D02*
X35608Y94950D01*
X35608Y95066D02*
X36394Y95066D01*
X36394Y95182D02*
X35608Y95182D01*
X35608Y95298D02*
X36394Y95298D01*
X36394Y95414D02*
X35608Y95414D01*
X35608Y95530D02*
X36394Y95530D01*
X36394Y93334D02*
X35608Y93334D01*
X35608Y94120D01*
X36394Y94120D01*
X36394Y93334D01*
X36394Y93450D02*
X35608Y93450D01*
X35608Y93566D02*
X36394Y93566D01*
X36394Y93682D02*
X35608Y93682D01*
X35608Y93798D02*
X36394Y93798D01*
X36394Y93914D02*
X35608Y93914D01*
X35608Y94030D02*
X36394Y94030D01*
X36878Y94120D02*
X37664Y94120D01*
X37664Y93334D01*
X36878Y93334D01*
X36878Y94120D01*
X36878Y93450D02*
X37664Y93450D01*
X37664Y93566D02*
X36878Y93566D01*
X36878Y93682D02*
X37664Y93682D01*
X37664Y93798D02*
X36878Y93798D01*
X36878Y93914D02*
X37664Y93914D01*
X37664Y94030D02*
X36878Y94030D01*
X33854Y94120D02*
X33068Y94120D01*
X33854Y94120D02*
X33854Y93334D01*
X33068Y93334D01*
X33068Y94120D01*
X33068Y93450D02*
X33854Y93450D01*
X33854Y93566D02*
X33068Y93566D01*
X33068Y93682D02*
X33854Y93682D01*
X33854Y93798D02*
X33068Y93798D01*
X33068Y93914D02*
X33854Y93914D01*
X33854Y94030D02*
X33068Y94030D01*
X32584Y93334D02*
X31798Y93334D01*
X31798Y94120D01*
X32584Y94120D01*
X32584Y93334D01*
X32584Y93450D02*
X31798Y93450D01*
X31798Y93566D02*
X32584Y93566D01*
X32584Y93682D02*
X31798Y93682D01*
X31798Y93798D02*
X32584Y93798D01*
X32584Y93914D02*
X31798Y93914D01*
X31798Y94030D02*
X32584Y94030D01*
X32584Y94834D02*
X31798Y94834D01*
X31798Y95620D01*
X32584Y95620D01*
X32584Y94834D01*
X32584Y94950D02*
X31798Y94950D01*
X31798Y95066D02*
X32584Y95066D01*
X32584Y95182D02*
X31798Y95182D01*
X31798Y95298D02*
X32584Y95298D01*
X32584Y95414D02*
X31798Y95414D01*
X31798Y95530D02*
X32584Y95530D01*
X33068Y95620D02*
X33854Y95620D01*
X33854Y94834D01*
X33068Y94834D01*
X33068Y95620D01*
X33068Y94950D02*
X33854Y94950D01*
X33854Y95066D02*
X33068Y95066D01*
X33068Y95182D02*
X33854Y95182D01*
X33854Y95298D02*
X33068Y95298D01*
X33068Y95414D02*
X33854Y95414D01*
X33854Y95530D02*
X33068Y95530D01*
X30044Y95620D02*
X29258Y95620D01*
X30044Y95620D02*
X30044Y94834D01*
X29258Y94834D01*
X29258Y95620D01*
X29258Y94950D02*
X30044Y94950D01*
X30044Y95066D02*
X29258Y95066D01*
X29258Y95182D02*
X30044Y95182D01*
X30044Y95298D02*
X29258Y95298D01*
X29258Y95414D02*
X30044Y95414D01*
X30044Y95530D02*
X29258Y95530D01*
X28774Y94834D02*
X27988Y94834D01*
X27988Y95620D01*
X28774Y95620D01*
X28774Y94834D01*
X28774Y94950D02*
X27988Y94950D01*
X27988Y95066D02*
X28774Y95066D01*
X28774Y95182D02*
X27988Y95182D01*
X27988Y95298D02*
X28774Y95298D01*
X28774Y95414D02*
X27988Y95414D01*
X27988Y95530D02*
X28774Y95530D01*
X28774Y93334D02*
X27988Y93334D01*
X27988Y94120D01*
X28774Y94120D01*
X28774Y93334D01*
X28774Y93450D02*
X27988Y93450D01*
X27988Y93566D02*
X28774Y93566D01*
X28774Y93682D02*
X27988Y93682D01*
X27988Y93798D02*
X28774Y93798D01*
X28774Y93914D02*
X27988Y93914D01*
X27988Y94030D02*
X28774Y94030D01*
X29258Y94120D02*
X30044Y94120D01*
X30044Y93334D01*
X29258Y93334D01*
X29258Y94120D01*
X29258Y93450D02*
X30044Y93450D01*
X30044Y93566D02*
X29258Y93566D01*
X29258Y93682D02*
X30044Y93682D01*
X30044Y93798D02*
X29258Y93798D01*
X29258Y93914D02*
X30044Y93914D01*
X30044Y94030D02*
X29258Y94030D01*
X26234Y94120D02*
X25448Y94120D01*
X26234Y94120D02*
X26234Y93334D01*
X25448Y93334D01*
X25448Y94120D01*
X25448Y93450D02*
X26234Y93450D01*
X26234Y93566D02*
X25448Y93566D01*
X25448Y93682D02*
X26234Y93682D01*
X26234Y93798D02*
X25448Y93798D01*
X25448Y93914D02*
X26234Y93914D01*
X26234Y94030D02*
X25448Y94030D01*
X24964Y93334D02*
X24178Y93334D01*
X24178Y94120D01*
X24964Y94120D01*
X24964Y93334D01*
X24964Y93450D02*
X24178Y93450D01*
X24178Y93566D02*
X24964Y93566D01*
X24964Y93682D02*
X24178Y93682D01*
X24178Y93798D02*
X24964Y93798D01*
X24964Y93914D02*
X24178Y93914D01*
X24178Y94030D02*
X24964Y94030D01*
X24964Y94834D02*
X24178Y94834D01*
X24178Y95620D01*
X24964Y95620D01*
X24964Y94834D01*
X24964Y94950D02*
X24178Y94950D01*
X24178Y95066D02*
X24964Y95066D01*
X24964Y95182D02*
X24178Y95182D01*
X24178Y95298D02*
X24964Y95298D01*
X24964Y95414D02*
X24178Y95414D01*
X24178Y95530D02*
X24964Y95530D01*
X25448Y95620D02*
X26234Y95620D01*
X26234Y94834D01*
X25448Y94834D01*
X25448Y95620D01*
X25448Y94950D02*
X26234Y94950D01*
X26234Y95066D02*
X25448Y95066D01*
X25448Y95182D02*
X26234Y95182D01*
X26234Y95298D02*
X25448Y95298D01*
X25448Y95414D02*
X26234Y95414D01*
X26234Y95530D02*
X25448Y95530D01*
X22424Y95620D02*
X21638Y95620D01*
X22424Y95620D02*
X22424Y94834D01*
X21638Y94834D01*
X21638Y95620D01*
X21638Y94950D02*
X22424Y94950D01*
X22424Y95066D02*
X21638Y95066D01*
X21638Y95182D02*
X22424Y95182D01*
X22424Y95298D02*
X21638Y95298D01*
X21638Y95414D02*
X22424Y95414D01*
X22424Y95530D02*
X21638Y95530D01*
X21154Y94834D02*
X20368Y94834D01*
X20368Y95620D01*
X21154Y95620D01*
X21154Y94834D01*
X21154Y94950D02*
X20368Y94950D01*
X20368Y95066D02*
X21154Y95066D01*
X21154Y95182D02*
X20368Y95182D01*
X20368Y95298D02*
X21154Y95298D01*
X21154Y95414D02*
X20368Y95414D01*
X20368Y95530D02*
X21154Y95530D01*
X21154Y93334D02*
X20368Y93334D01*
X20368Y94120D01*
X21154Y94120D01*
X21154Y93334D01*
X21154Y93450D02*
X20368Y93450D01*
X20368Y93566D02*
X21154Y93566D01*
X21154Y93682D02*
X20368Y93682D01*
X20368Y93798D02*
X21154Y93798D01*
X21154Y93914D02*
X20368Y93914D01*
X20368Y94030D02*
X21154Y94030D01*
X21638Y94120D02*
X22424Y94120D01*
X22424Y93334D01*
X21638Y93334D01*
X21638Y94120D01*
X21638Y93450D02*
X22424Y93450D01*
X22424Y93566D02*
X21638Y93566D01*
X21638Y93682D02*
X22424Y93682D01*
X22424Y93798D02*
X21638Y93798D01*
X21638Y93914D02*
X22424Y93914D01*
X22424Y94030D02*
X21638Y94030D01*
X76725Y93334D02*
X77511Y93334D01*
X76725Y93334D02*
X76725Y94120D01*
X77511Y94120D01*
X77511Y93334D01*
X77511Y93450D02*
X76725Y93450D01*
X76725Y93566D02*
X77511Y93566D01*
X77511Y93682D02*
X76725Y93682D01*
X76725Y93798D02*
X77511Y93798D01*
X77511Y93914D02*
X76725Y93914D01*
X76725Y94030D02*
X77511Y94030D01*
X77511Y94834D02*
X76725Y94834D01*
X76725Y95620D01*
X77511Y95620D01*
X77511Y94834D01*
X77511Y94950D02*
X76725Y94950D01*
X76725Y95066D02*
X77511Y95066D01*
X77511Y95182D02*
X76725Y95182D01*
X76725Y95298D02*
X77511Y95298D01*
X77511Y95414D02*
X76725Y95414D01*
X76725Y95530D02*
X77511Y95530D01*
D18*
X57715Y70755D02*
X57715Y69263D01*
X57715Y70755D02*
X58707Y70755D01*
X58707Y69263D01*
X57715Y69263D01*
X57715Y69372D02*
X58707Y69372D01*
X58707Y69481D02*
X57715Y69481D01*
X57715Y69590D02*
X58707Y69590D01*
X58707Y69699D02*
X57715Y69699D01*
X57715Y69808D02*
X58707Y69808D01*
X58707Y69917D02*
X57715Y69917D01*
X57715Y70026D02*
X58707Y70026D01*
X58707Y70135D02*
X57715Y70135D01*
X57715Y70244D02*
X58707Y70244D01*
X58707Y70353D02*
X57715Y70353D01*
X57715Y70462D02*
X58707Y70462D01*
X58707Y70571D02*
X57715Y70571D01*
X57715Y70680D02*
X58707Y70680D01*
X56445Y70755D02*
X56445Y69263D01*
X56445Y70755D02*
X57437Y70755D01*
X57437Y69263D01*
X56445Y69263D01*
X56445Y69372D02*
X57437Y69372D01*
X57437Y69481D02*
X56445Y69481D01*
X56445Y69590D02*
X57437Y69590D01*
X57437Y69699D02*
X56445Y69699D01*
X56445Y69808D02*
X57437Y69808D01*
X57437Y69917D02*
X56445Y69917D01*
X56445Y70026D02*
X57437Y70026D01*
X57437Y70135D02*
X56445Y70135D01*
X56445Y70244D02*
X57437Y70244D01*
X57437Y70353D02*
X56445Y70353D01*
X56445Y70462D02*
X57437Y70462D01*
X57437Y70571D02*
X56445Y70571D01*
X56445Y70680D02*
X57437Y70680D01*
X55175Y70755D02*
X55175Y69263D01*
X55175Y70755D02*
X56167Y70755D01*
X56167Y69263D01*
X55175Y69263D01*
X55175Y69372D02*
X56167Y69372D01*
X56167Y69481D02*
X55175Y69481D01*
X55175Y69590D02*
X56167Y69590D01*
X56167Y69699D02*
X55175Y69699D01*
X55175Y69808D02*
X56167Y69808D01*
X56167Y69917D02*
X55175Y69917D01*
X55175Y70026D02*
X56167Y70026D01*
X56167Y70135D02*
X55175Y70135D01*
X55175Y70244D02*
X56167Y70244D01*
X56167Y70353D02*
X55175Y70353D01*
X55175Y70462D02*
X56167Y70462D01*
X56167Y70571D02*
X55175Y70571D01*
X55175Y70680D02*
X56167Y70680D01*
X53905Y70755D02*
X53905Y69263D01*
X53905Y70755D02*
X54897Y70755D01*
X54897Y69263D01*
X53905Y69263D01*
X53905Y69372D02*
X54897Y69372D01*
X54897Y69481D02*
X53905Y69481D01*
X53905Y69590D02*
X54897Y69590D01*
X54897Y69699D02*
X53905Y69699D01*
X53905Y69808D02*
X54897Y69808D01*
X54897Y69917D02*
X53905Y69917D01*
X53905Y70026D02*
X54897Y70026D01*
X54897Y70135D02*
X53905Y70135D01*
X53905Y70244D02*
X54897Y70244D01*
X54897Y70353D02*
X53905Y70353D01*
X53905Y70462D02*
X54897Y70462D01*
X54897Y70571D02*
X53905Y70571D01*
X53905Y70680D02*
X54897Y70680D01*
X52635Y70755D02*
X52635Y69263D01*
X52635Y70755D02*
X53627Y70755D01*
X53627Y69263D01*
X52635Y69263D01*
X52635Y69372D02*
X53627Y69372D01*
X53627Y69481D02*
X52635Y69481D01*
X52635Y69590D02*
X53627Y69590D01*
X53627Y69699D02*
X52635Y69699D01*
X52635Y69808D02*
X53627Y69808D01*
X53627Y69917D02*
X52635Y69917D01*
X52635Y70026D02*
X53627Y70026D01*
X53627Y70135D02*
X52635Y70135D01*
X52635Y70244D02*
X53627Y70244D01*
X53627Y70353D02*
X52635Y70353D01*
X52635Y70462D02*
X53627Y70462D01*
X53627Y70571D02*
X52635Y70571D01*
X52635Y70680D02*
X53627Y70680D01*
X51365Y70755D02*
X51365Y69263D01*
X51365Y70755D02*
X52357Y70755D01*
X52357Y69263D01*
X51365Y69263D01*
X51365Y69372D02*
X52357Y69372D01*
X52357Y69481D02*
X51365Y69481D01*
X51365Y69590D02*
X52357Y69590D01*
X52357Y69699D02*
X51365Y69699D01*
X51365Y69808D02*
X52357Y69808D01*
X52357Y69917D02*
X51365Y69917D01*
X51365Y70026D02*
X52357Y70026D01*
X52357Y70135D02*
X51365Y70135D01*
X51365Y70244D02*
X52357Y70244D01*
X52357Y70353D02*
X51365Y70353D01*
X51365Y70462D02*
X52357Y70462D01*
X52357Y70571D02*
X51365Y70571D01*
X51365Y70680D02*
X52357Y70680D01*
X50095Y70755D02*
X50095Y69263D01*
X50095Y70755D02*
X51087Y70755D01*
X51087Y69263D01*
X50095Y69263D01*
X50095Y69372D02*
X51087Y69372D01*
X51087Y69481D02*
X50095Y69481D01*
X50095Y69590D02*
X51087Y69590D01*
X51087Y69699D02*
X50095Y69699D01*
X50095Y69808D02*
X51087Y69808D01*
X51087Y69917D02*
X50095Y69917D01*
X50095Y70026D02*
X51087Y70026D01*
X51087Y70135D02*
X50095Y70135D01*
X50095Y70244D02*
X51087Y70244D01*
X51087Y70353D02*
X50095Y70353D01*
X50095Y70462D02*
X51087Y70462D01*
X51087Y70571D02*
X50095Y70571D01*
X50095Y70680D02*
X51087Y70680D01*
X48825Y70755D02*
X48825Y69263D01*
X48825Y70755D02*
X49817Y70755D01*
X49817Y69263D01*
X48825Y69263D01*
X48825Y69372D02*
X49817Y69372D01*
X49817Y69481D02*
X48825Y69481D01*
X48825Y69590D02*
X49817Y69590D01*
X49817Y69699D02*
X48825Y69699D01*
X48825Y69808D02*
X49817Y69808D01*
X49817Y69917D02*
X48825Y69917D01*
X48825Y70026D02*
X49817Y70026D01*
X49817Y70135D02*
X48825Y70135D01*
X48825Y70244D02*
X49817Y70244D01*
X49817Y70353D02*
X48825Y70353D01*
X48825Y70462D02*
X49817Y70462D01*
X49817Y70571D02*
X48825Y70571D01*
X48825Y70680D02*
X49817Y70680D01*
X47555Y70755D02*
X47555Y69263D01*
X47555Y70755D02*
X48547Y70755D01*
X48547Y69263D01*
X47555Y69263D01*
X47555Y69372D02*
X48547Y69372D01*
X48547Y69481D02*
X47555Y69481D01*
X47555Y69590D02*
X48547Y69590D01*
X48547Y69699D02*
X47555Y69699D01*
X47555Y69808D02*
X48547Y69808D01*
X48547Y69917D02*
X47555Y69917D01*
X47555Y70026D02*
X48547Y70026D01*
X48547Y70135D02*
X47555Y70135D01*
X47555Y70244D02*
X48547Y70244D01*
X48547Y70353D02*
X47555Y70353D01*
X47555Y70462D02*
X48547Y70462D01*
X48547Y70571D02*
X47555Y70571D01*
X47555Y70680D02*
X48547Y70680D01*
X46285Y70755D02*
X46285Y69263D01*
X46285Y70755D02*
X47277Y70755D01*
X47277Y69263D01*
X46285Y69263D01*
X46285Y69372D02*
X47277Y69372D01*
X47277Y69481D02*
X46285Y69481D01*
X46285Y69590D02*
X47277Y69590D01*
X47277Y69699D02*
X46285Y69699D01*
X46285Y69808D02*
X47277Y69808D01*
X47277Y69917D02*
X46285Y69917D01*
X46285Y70026D02*
X47277Y70026D01*
X47277Y70135D02*
X46285Y70135D01*
X46285Y70244D02*
X47277Y70244D01*
X47277Y70353D02*
X46285Y70353D01*
X46285Y70462D02*
X47277Y70462D01*
X47277Y70571D02*
X46285Y70571D01*
X46285Y70680D02*
X47277Y70680D01*
X44007Y68765D02*
X42515Y68765D01*
X44007Y68765D02*
X44007Y67773D01*
X42515Y67773D01*
X42515Y68765D01*
X42515Y67882D02*
X44007Y67882D01*
X44007Y67991D02*
X42515Y67991D01*
X42515Y68100D02*
X44007Y68100D01*
X44007Y68209D02*
X42515Y68209D01*
X42515Y68318D02*
X44007Y68318D01*
X44007Y68427D02*
X42515Y68427D01*
X42515Y68536D02*
X44007Y68536D01*
X44007Y68645D02*
X42515Y68645D01*
X42515Y68754D02*
X44007Y68754D01*
X44007Y67495D02*
X42515Y67495D01*
X44007Y67495D02*
X44007Y66503D01*
X42515Y66503D01*
X42515Y67495D01*
X42515Y66612D02*
X44007Y66612D01*
X44007Y66721D02*
X42515Y66721D01*
X42515Y66830D02*
X44007Y66830D01*
X44007Y66939D02*
X42515Y66939D01*
X42515Y67048D02*
X44007Y67048D01*
X44007Y67157D02*
X42515Y67157D01*
X42515Y67266D02*
X44007Y67266D01*
X44007Y67375D02*
X42515Y67375D01*
X42515Y67484D02*
X44007Y67484D01*
X44007Y66225D02*
X42515Y66225D01*
X44007Y66225D02*
X44007Y65233D01*
X42515Y65233D01*
X42515Y66225D01*
X42515Y65342D02*
X44007Y65342D01*
X44007Y65451D02*
X42515Y65451D01*
X42515Y65560D02*
X44007Y65560D01*
X44007Y65669D02*
X42515Y65669D01*
X42515Y65778D02*
X44007Y65778D01*
X44007Y65887D02*
X42515Y65887D01*
X42515Y65996D02*
X44007Y65996D01*
X44007Y66105D02*
X42515Y66105D01*
X42515Y66214D02*
X44007Y66214D01*
X44007Y64955D02*
X42515Y64955D01*
X44007Y64955D02*
X44007Y63963D01*
X42515Y63963D01*
X42515Y64955D01*
X42515Y64072D02*
X44007Y64072D01*
X44007Y64181D02*
X42515Y64181D01*
X42515Y64290D02*
X44007Y64290D01*
X44007Y64399D02*
X42515Y64399D01*
X42515Y64508D02*
X44007Y64508D01*
X44007Y64617D02*
X42515Y64617D01*
X42515Y64726D02*
X44007Y64726D01*
X44007Y64835D02*
X42515Y64835D01*
X42515Y64944D02*
X44007Y64944D01*
X44007Y63685D02*
X42515Y63685D01*
X44007Y63685D02*
X44007Y62693D01*
X42515Y62693D01*
X42515Y63685D01*
X42515Y62802D02*
X44007Y62802D01*
X44007Y62911D02*
X42515Y62911D01*
X42515Y63020D02*
X44007Y63020D01*
X44007Y63129D02*
X42515Y63129D01*
X42515Y63238D02*
X44007Y63238D01*
X44007Y63347D02*
X42515Y63347D01*
X42515Y63456D02*
X44007Y63456D01*
X44007Y63565D02*
X42515Y63565D01*
X42515Y63674D02*
X44007Y63674D01*
X44007Y62415D02*
X42515Y62415D01*
X44007Y62415D02*
X44007Y61423D01*
X42515Y61423D01*
X42515Y62415D01*
X42515Y61532D02*
X44007Y61532D01*
X44007Y61641D02*
X42515Y61641D01*
X42515Y61750D02*
X44007Y61750D01*
X44007Y61859D02*
X42515Y61859D01*
X42515Y61968D02*
X44007Y61968D01*
X44007Y62077D02*
X42515Y62077D01*
X42515Y62186D02*
X44007Y62186D01*
X44007Y62295D02*
X42515Y62295D01*
X42515Y62404D02*
X44007Y62404D01*
X44007Y61145D02*
X42515Y61145D01*
X44007Y61145D02*
X44007Y60153D01*
X42515Y60153D01*
X42515Y61145D01*
X42515Y60262D02*
X44007Y60262D01*
X44007Y60371D02*
X42515Y60371D01*
X42515Y60480D02*
X44007Y60480D01*
X44007Y60589D02*
X42515Y60589D01*
X42515Y60698D02*
X44007Y60698D01*
X44007Y60807D02*
X42515Y60807D01*
X42515Y60916D02*
X44007Y60916D01*
X44007Y61025D02*
X42515Y61025D01*
X42515Y61134D02*
X44007Y61134D01*
X44007Y59875D02*
X42515Y59875D01*
X44007Y59875D02*
X44007Y58883D01*
X42515Y58883D01*
X42515Y59875D01*
X42515Y58992D02*
X44007Y58992D01*
X44007Y59101D02*
X42515Y59101D01*
X42515Y59210D02*
X44007Y59210D01*
X44007Y59319D02*
X42515Y59319D01*
X42515Y59428D02*
X44007Y59428D01*
X44007Y59537D02*
X42515Y59537D01*
X42515Y59646D02*
X44007Y59646D01*
X44007Y59755D02*
X42515Y59755D01*
X42515Y59864D02*
X44007Y59864D01*
X44007Y58605D02*
X42515Y58605D01*
X44007Y58605D02*
X44007Y57613D01*
X42515Y57613D01*
X42515Y58605D01*
X42515Y57722D02*
X44007Y57722D01*
X44007Y57831D02*
X42515Y57831D01*
X42515Y57940D02*
X44007Y57940D01*
X44007Y58049D02*
X42515Y58049D01*
X42515Y58158D02*
X44007Y58158D01*
X44007Y58267D02*
X42515Y58267D01*
X42515Y58376D02*
X44007Y58376D01*
X44007Y58485D02*
X42515Y58485D01*
X42515Y58594D02*
X44007Y58594D01*
X44007Y57335D02*
X42515Y57335D01*
X44007Y57335D02*
X44007Y56343D01*
X42515Y56343D01*
X42515Y57335D01*
X42515Y56452D02*
X44007Y56452D01*
X44007Y56561D02*
X42515Y56561D01*
X42515Y56670D02*
X44007Y56670D01*
X44007Y56779D02*
X42515Y56779D01*
X42515Y56888D02*
X44007Y56888D01*
X44007Y56997D02*
X42515Y56997D01*
X42515Y57106D02*
X44007Y57106D01*
X44007Y57215D02*
X42515Y57215D01*
X42515Y57324D02*
X44007Y57324D01*
X44007Y56065D02*
X42515Y56065D01*
X44007Y56065D02*
X44007Y55073D01*
X42515Y55073D01*
X42515Y56065D01*
X42515Y55182D02*
X44007Y55182D01*
X44007Y55291D02*
X42515Y55291D01*
X42515Y55400D02*
X44007Y55400D01*
X44007Y55509D02*
X42515Y55509D01*
X42515Y55618D02*
X44007Y55618D01*
X44007Y55727D02*
X42515Y55727D01*
X42515Y55836D02*
X44007Y55836D01*
X44007Y55945D02*
X42515Y55945D01*
X42515Y56054D02*
X44007Y56054D01*
X44007Y54795D02*
X42515Y54795D01*
X44007Y54795D02*
X44007Y53803D01*
X42515Y53803D01*
X42515Y54795D01*
X42515Y53912D02*
X44007Y53912D01*
X44007Y54021D02*
X42515Y54021D01*
X42515Y54130D02*
X44007Y54130D01*
X44007Y54239D02*
X42515Y54239D01*
X42515Y54348D02*
X44007Y54348D01*
X44007Y54457D02*
X42515Y54457D01*
X42515Y54566D02*
X44007Y54566D01*
X44007Y54675D02*
X42515Y54675D01*
X42515Y54784D02*
X44007Y54784D01*
X44007Y53525D02*
X42515Y53525D01*
X44007Y53525D02*
X44007Y52533D01*
X42515Y52533D01*
X42515Y53525D01*
X42515Y52642D02*
X44007Y52642D01*
X44007Y52751D02*
X42515Y52751D01*
X42515Y52860D02*
X44007Y52860D01*
X44007Y52969D02*
X42515Y52969D01*
X42515Y53078D02*
X44007Y53078D01*
X44007Y53187D02*
X42515Y53187D01*
X42515Y53296D02*
X44007Y53296D01*
X44007Y53405D02*
X42515Y53405D01*
X42515Y53514D02*
X44007Y53514D01*
X44007Y52255D02*
X42515Y52255D01*
X44007Y52255D02*
X44007Y51263D01*
X42515Y51263D01*
X42515Y52255D01*
X42515Y51372D02*
X44007Y51372D01*
X44007Y51481D02*
X42515Y51481D01*
X42515Y51590D02*
X44007Y51590D01*
X44007Y51699D02*
X42515Y51699D01*
X42515Y51808D02*
X44007Y51808D01*
X44007Y51917D02*
X42515Y51917D01*
X42515Y52026D02*
X44007Y52026D01*
X44007Y52135D02*
X42515Y52135D01*
X42515Y52244D02*
X44007Y52244D01*
X61015Y52255D02*
X62507Y52255D01*
X62507Y51263D01*
X61015Y51263D01*
X61015Y52255D01*
X61015Y51372D02*
X62507Y51372D01*
X62507Y51481D02*
X61015Y51481D01*
X61015Y51590D02*
X62507Y51590D01*
X62507Y51699D02*
X61015Y51699D01*
X61015Y51808D02*
X62507Y51808D01*
X62507Y51917D02*
X61015Y51917D01*
X61015Y52026D02*
X62507Y52026D01*
X62507Y52135D02*
X61015Y52135D01*
X61015Y52244D02*
X62507Y52244D01*
X62507Y53525D02*
X61015Y53525D01*
X62507Y53525D02*
X62507Y52533D01*
X61015Y52533D01*
X61015Y53525D01*
X61015Y52642D02*
X62507Y52642D01*
X62507Y52751D02*
X61015Y52751D01*
X61015Y52860D02*
X62507Y52860D01*
X62507Y52969D02*
X61015Y52969D01*
X61015Y53078D02*
X62507Y53078D01*
X62507Y53187D02*
X61015Y53187D01*
X61015Y53296D02*
X62507Y53296D01*
X62507Y53405D02*
X61015Y53405D01*
X61015Y53514D02*
X62507Y53514D01*
X62507Y54795D02*
X61015Y54795D01*
X62507Y54795D02*
X62507Y53803D01*
X61015Y53803D01*
X61015Y54795D01*
X61015Y53912D02*
X62507Y53912D01*
X62507Y54021D02*
X61015Y54021D01*
X61015Y54130D02*
X62507Y54130D01*
X62507Y54239D02*
X61015Y54239D01*
X61015Y54348D02*
X62507Y54348D01*
X62507Y54457D02*
X61015Y54457D01*
X61015Y54566D02*
X62507Y54566D01*
X62507Y54675D02*
X61015Y54675D01*
X61015Y54784D02*
X62507Y54784D01*
X62507Y56065D02*
X61015Y56065D01*
X62507Y56065D02*
X62507Y55073D01*
X61015Y55073D01*
X61015Y56065D01*
X61015Y55182D02*
X62507Y55182D01*
X62507Y55291D02*
X61015Y55291D01*
X61015Y55400D02*
X62507Y55400D01*
X62507Y55509D02*
X61015Y55509D01*
X61015Y55618D02*
X62507Y55618D01*
X62507Y55727D02*
X61015Y55727D01*
X61015Y55836D02*
X62507Y55836D01*
X62507Y55945D02*
X61015Y55945D01*
X61015Y56054D02*
X62507Y56054D01*
X62507Y57335D02*
X61015Y57335D01*
X62507Y57335D02*
X62507Y56343D01*
X61015Y56343D01*
X61015Y57335D01*
X61015Y56452D02*
X62507Y56452D01*
X62507Y56561D02*
X61015Y56561D01*
X61015Y56670D02*
X62507Y56670D01*
X62507Y56779D02*
X61015Y56779D01*
X61015Y56888D02*
X62507Y56888D01*
X62507Y56997D02*
X61015Y56997D01*
X61015Y57106D02*
X62507Y57106D01*
X62507Y57215D02*
X61015Y57215D01*
X61015Y57324D02*
X62507Y57324D01*
X62507Y58605D02*
X61015Y58605D01*
X62507Y58605D02*
X62507Y57613D01*
X61015Y57613D01*
X61015Y58605D01*
X61015Y57722D02*
X62507Y57722D01*
X62507Y57831D02*
X61015Y57831D01*
X61015Y57940D02*
X62507Y57940D01*
X62507Y58049D02*
X61015Y58049D01*
X61015Y58158D02*
X62507Y58158D01*
X62507Y58267D02*
X61015Y58267D01*
X61015Y58376D02*
X62507Y58376D01*
X62507Y58485D02*
X61015Y58485D01*
X61015Y58594D02*
X62507Y58594D01*
X62507Y59875D02*
X61015Y59875D01*
X62507Y59875D02*
X62507Y58883D01*
X61015Y58883D01*
X61015Y59875D01*
X61015Y58992D02*
X62507Y58992D01*
X62507Y59101D02*
X61015Y59101D01*
X61015Y59210D02*
X62507Y59210D01*
X62507Y59319D02*
X61015Y59319D01*
X61015Y59428D02*
X62507Y59428D01*
X62507Y59537D02*
X61015Y59537D01*
X61015Y59646D02*
X62507Y59646D01*
X62507Y59755D02*
X61015Y59755D01*
X61015Y59864D02*
X62507Y59864D01*
X62507Y61145D02*
X61015Y61145D01*
X62507Y61145D02*
X62507Y60153D01*
X61015Y60153D01*
X61015Y61145D01*
X61015Y60262D02*
X62507Y60262D01*
X62507Y60371D02*
X61015Y60371D01*
X61015Y60480D02*
X62507Y60480D01*
X62507Y60589D02*
X61015Y60589D01*
X61015Y60698D02*
X62507Y60698D01*
X62507Y60807D02*
X61015Y60807D01*
X61015Y60916D02*
X62507Y60916D01*
X62507Y61025D02*
X61015Y61025D01*
X61015Y61134D02*
X62507Y61134D01*
X62507Y62415D02*
X61015Y62415D01*
X62507Y62415D02*
X62507Y61423D01*
X61015Y61423D01*
X61015Y62415D01*
X61015Y61532D02*
X62507Y61532D01*
X62507Y61641D02*
X61015Y61641D01*
X61015Y61750D02*
X62507Y61750D01*
X62507Y61859D02*
X61015Y61859D01*
X61015Y61968D02*
X62507Y61968D01*
X62507Y62077D02*
X61015Y62077D01*
X61015Y62186D02*
X62507Y62186D01*
X62507Y62295D02*
X61015Y62295D01*
X61015Y62404D02*
X62507Y62404D01*
X62507Y63685D02*
X61015Y63685D01*
X62507Y63685D02*
X62507Y62693D01*
X61015Y62693D01*
X61015Y63685D01*
X61015Y62802D02*
X62507Y62802D01*
X62507Y62911D02*
X61015Y62911D01*
X61015Y63020D02*
X62507Y63020D01*
X62507Y63129D02*
X61015Y63129D01*
X61015Y63238D02*
X62507Y63238D01*
X62507Y63347D02*
X61015Y63347D01*
X61015Y63456D02*
X62507Y63456D01*
X62507Y63565D02*
X61015Y63565D01*
X61015Y63674D02*
X62507Y63674D01*
X62507Y64955D02*
X61015Y64955D01*
X62507Y64955D02*
X62507Y63963D01*
X61015Y63963D01*
X61015Y64955D01*
X61015Y64072D02*
X62507Y64072D01*
X62507Y64181D02*
X61015Y64181D01*
X61015Y64290D02*
X62507Y64290D01*
X62507Y64399D02*
X61015Y64399D01*
X61015Y64508D02*
X62507Y64508D01*
X62507Y64617D02*
X61015Y64617D01*
X61015Y64726D02*
X62507Y64726D01*
X62507Y64835D02*
X61015Y64835D01*
X61015Y64944D02*
X62507Y64944D01*
X62507Y66225D02*
X61015Y66225D01*
X62507Y66225D02*
X62507Y65233D01*
X61015Y65233D01*
X61015Y66225D01*
X61015Y65342D02*
X62507Y65342D01*
X62507Y65451D02*
X61015Y65451D01*
X61015Y65560D02*
X62507Y65560D01*
X62507Y65669D02*
X61015Y65669D01*
X61015Y65778D02*
X62507Y65778D01*
X62507Y65887D02*
X61015Y65887D01*
X61015Y65996D02*
X62507Y65996D01*
X62507Y66105D02*
X61015Y66105D01*
X61015Y66214D02*
X62507Y66214D01*
X62507Y67495D02*
X61015Y67495D01*
X62507Y67495D02*
X62507Y66503D01*
X61015Y66503D01*
X61015Y67495D01*
X61015Y66612D02*
X62507Y66612D01*
X62507Y66721D02*
X61015Y66721D01*
X61015Y66830D02*
X62507Y66830D01*
X62507Y66939D02*
X61015Y66939D01*
X61015Y67048D02*
X62507Y67048D01*
X62507Y67157D02*
X61015Y67157D01*
X61015Y67266D02*
X62507Y67266D01*
X62507Y67375D02*
X61015Y67375D01*
X61015Y67484D02*
X62507Y67484D01*
X62507Y68765D02*
X61015Y68765D01*
X62507Y68765D02*
X62507Y67773D01*
X61015Y67773D01*
X61015Y68765D01*
X61015Y67882D02*
X62507Y67882D01*
X62507Y67991D02*
X61015Y67991D01*
X61015Y68100D02*
X62507Y68100D01*
X62507Y68209D02*
X61015Y68209D01*
X61015Y68318D02*
X62507Y68318D01*
X62507Y68427D02*
X61015Y68427D01*
X61015Y68536D02*
X62507Y68536D01*
X62507Y68645D02*
X61015Y68645D01*
X61015Y68754D02*
X62507Y68754D01*
X34272Y78811D02*
X33280Y78811D01*
X34272Y78811D02*
X34272Y77419D01*
X33280Y77419D01*
X33280Y78811D01*
X33280Y77528D02*
X34272Y77528D01*
X34272Y77637D02*
X33280Y77637D01*
X33280Y77746D02*
X34272Y77746D01*
X34272Y77855D02*
X33280Y77855D01*
X33280Y77964D02*
X34272Y77964D01*
X34272Y78073D02*
X33280Y78073D01*
X33280Y78182D02*
X34272Y78182D01*
X34272Y78291D02*
X33280Y78291D01*
X33280Y78400D02*
X34272Y78400D01*
X34272Y78509D02*
X33280Y78509D01*
X33280Y78618D02*
X34272Y78618D01*
X34272Y78727D02*
X33280Y78727D01*
X32372Y78811D02*
X31380Y78811D01*
X32372Y78811D02*
X32372Y77419D01*
X31380Y77419D01*
X31380Y78811D01*
X31380Y77528D02*
X32372Y77528D01*
X32372Y77637D02*
X31380Y77637D01*
X31380Y77746D02*
X32372Y77746D01*
X32372Y77855D02*
X31380Y77855D01*
X31380Y77964D02*
X32372Y77964D01*
X32372Y78073D02*
X31380Y78073D01*
X31380Y78182D02*
X32372Y78182D01*
X32372Y78291D02*
X31380Y78291D01*
X31380Y78400D02*
X32372Y78400D01*
X32372Y78509D02*
X31380Y78509D01*
X31380Y78618D02*
X32372Y78618D01*
X32372Y78727D02*
X31380Y78727D01*
X32330Y76611D02*
X33322Y76611D01*
X33322Y75219D01*
X32330Y75219D01*
X32330Y76611D01*
X32330Y75328D02*
X33322Y75328D01*
X33322Y75437D02*
X32330Y75437D01*
X32330Y75546D02*
X33322Y75546D01*
X33322Y75655D02*
X32330Y75655D01*
X32330Y75764D02*
X33322Y75764D01*
X33322Y75873D02*
X32330Y75873D01*
X32330Y75982D02*
X33322Y75982D01*
X33322Y76091D02*
X32330Y76091D01*
X32330Y76200D02*
X33322Y76200D01*
X33322Y76309D02*
X32330Y76309D01*
X32330Y76418D02*
X33322Y76418D01*
X33322Y76527D02*
X32330Y76527D01*
D19*
X50065Y62205D02*
X55557Y62205D01*
X55557Y56713D01*
X50065Y56713D01*
X50065Y62205D01*
X50065Y57322D02*
X55557Y57322D01*
X55557Y57931D02*
X50065Y57931D01*
X50065Y58540D02*
X55557Y58540D01*
X55557Y59149D02*
X50065Y59149D01*
X50065Y59758D02*
X55557Y59758D01*
X55557Y60367D02*
X50065Y60367D01*
X50065Y60976D02*
X55557Y60976D01*
X55557Y61585D02*
X50065Y61585D01*
X50065Y62194D02*
X55557Y62194D01*
D20*
X53622Y90235D02*
X53622Y92213D01*
X54000Y92213D01*
X54000Y90235D01*
X53622Y90235D01*
X53622Y90359D02*
X54000Y90359D01*
X54000Y90483D02*
X53622Y90483D01*
X53622Y90607D02*
X54000Y90607D01*
X54000Y90731D02*
X53622Y90731D01*
X53622Y90855D02*
X54000Y90855D01*
X54000Y90979D02*
X53622Y90979D01*
X53622Y91103D02*
X54000Y91103D01*
X54000Y91227D02*
X53622Y91227D01*
X53622Y91351D02*
X54000Y91351D01*
X54000Y91475D02*
X53622Y91475D01*
X53622Y91599D02*
X54000Y91599D01*
X54000Y91723D02*
X53622Y91723D01*
X53622Y91847D02*
X54000Y91847D01*
X54000Y91971D02*
X53622Y91971D01*
X53622Y92095D02*
X54000Y92095D01*
X52972Y92213D02*
X52972Y90235D01*
X52972Y92213D02*
X53350Y92213D01*
X53350Y90235D01*
X52972Y90235D01*
X52972Y90359D02*
X53350Y90359D01*
X53350Y90483D02*
X52972Y90483D01*
X52972Y90607D02*
X53350Y90607D01*
X53350Y90731D02*
X52972Y90731D01*
X52972Y90855D02*
X53350Y90855D01*
X53350Y90979D02*
X52972Y90979D01*
X52972Y91103D02*
X53350Y91103D01*
X53350Y91227D02*
X52972Y91227D01*
X52972Y91351D02*
X53350Y91351D01*
X53350Y91475D02*
X52972Y91475D01*
X52972Y91599D02*
X53350Y91599D01*
X53350Y91723D02*
X52972Y91723D01*
X52972Y91847D02*
X53350Y91847D01*
X53350Y91971D02*
X52972Y91971D01*
X52972Y92095D02*
X53350Y92095D01*
X52322Y92213D02*
X52322Y90235D01*
X52322Y92213D02*
X52700Y92213D01*
X52700Y90235D01*
X52322Y90235D01*
X52322Y90359D02*
X52700Y90359D01*
X52700Y90483D02*
X52322Y90483D01*
X52322Y90607D02*
X52700Y90607D01*
X52700Y90731D02*
X52322Y90731D01*
X52322Y90855D02*
X52700Y90855D01*
X52700Y90979D02*
X52322Y90979D01*
X52322Y91103D02*
X52700Y91103D01*
X52700Y91227D02*
X52322Y91227D01*
X52322Y91351D02*
X52700Y91351D01*
X52700Y91475D02*
X52322Y91475D01*
X52322Y91599D02*
X52700Y91599D01*
X52700Y91723D02*
X52322Y91723D01*
X52322Y91847D02*
X52700Y91847D01*
X52700Y91971D02*
X52322Y91971D01*
X52322Y92095D02*
X52700Y92095D01*
X51672Y92213D02*
X51672Y90235D01*
X51672Y92213D02*
X52050Y92213D01*
X52050Y90235D01*
X51672Y90235D01*
X51672Y90359D02*
X52050Y90359D01*
X52050Y90483D02*
X51672Y90483D01*
X51672Y90607D02*
X52050Y90607D01*
X52050Y90731D02*
X51672Y90731D01*
X51672Y90855D02*
X52050Y90855D01*
X52050Y90979D02*
X51672Y90979D01*
X51672Y91103D02*
X52050Y91103D01*
X52050Y91227D02*
X51672Y91227D01*
X51672Y91351D02*
X52050Y91351D01*
X52050Y91475D02*
X51672Y91475D01*
X51672Y91599D02*
X52050Y91599D01*
X52050Y91723D02*
X51672Y91723D01*
X51672Y91847D02*
X52050Y91847D01*
X52050Y91971D02*
X51672Y91971D01*
X51672Y92095D02*
X52050Y92095D01*
X51022Y92213D02*
X51022Y90235D01*
X51022Y92213D02*
X51400Y92213D01*
X51400Y90235D01*
X51022Y90235D01*
X51022Y90359D02*
X51400Y90359D01*
X51400Y90483D02*
X51022Y90483D01*
X51022Y90607D02*
X51400Y90607D01*
X51400Y90731D02*
X51022Y90731D01*
X51022Y90855D02*
X51400Y90855D01*
X51400Y90979D02*
X51022Y90979D01*
X51022Y91103D02*
X51400Y91103D01*
X51400Y91227D02*
X51022Y91227D01*
X51022Y91351D02*
X51400Y91351D01*
X51400Y91475D02*
X51022Y91475D01*
X51022Y91599D02*
X51400Y91599D01*
X51400Y91723D02*
X51022Y91723D01*
X51022Y91847D02*
X51400Y91847D01*
X51400Y91971D02*
X51022Y91971D01*
X51022Y92095D02*
X51400Y92095D01*
D21*
X50211Y92094D02*
X47811Y92094D01*
X47811Y92102D02*
X50211Y92102D01*
X50211Y92111D02*
X47811Y92111D01*
X47811Y92119D02*
X50211Y92119D01*
X50211Y92128D02*
X47811Y92128D01*
X47811Y92136D02*
X50211Y92136D01*
X50211Y92145D02*
X47811Y92145D01*
X47811Y92153D02*
X50211Y92153D01*
X50211Y92162D02*
X47811Y92162D01*
X47811Y92170D02*
X50211Y92170D01*
X50211Y92179D02*
X47811Y92179D01*
X47811Y92187D02*
X50211Y92187D01*
X50211Y92196D02*
X47811Y92196D01*
X47811Y92204D02*
X50211Y92204D01*
X50211Y92213D02*
X47811Y92213D01*
X47811Y92221D02*
X50211Y92221D01*
X50211Y92230D02*
X47811Y92230D01*
X47811Y92238D02*
X50211Y92238D01*
X50211Y92247D02*
X47811Y92247D01*
X47811Y92255D02*
X50211Y92255D01*
X50211Y92264D02*
X47811Y92264D01*
X47811Y92272D02*
X50211Y92272D01*
X50211Y92281D02*
X47811Y92281D01*
X47811Y92289D02*
X50211Y92289D01*
X50211Y92298D02*
X47811Y92298D01*
X47811Y92306D02*
X50211Y92306D01*
X50211Y92315D02*
X47811Y92315D01*
X47811Y92323D02*
X50211Y92323D01*
X50211Y92332D02*
X47811Y92332D01*
X47811Y92340D02*
X50211Y92340D01*
X50211Y92349D02*
X47811Y92349D01*
X47811Y92357D02*
X50211Y92357D01*
X50211Y92366D02*
X47811Y92366D01*
X47811Y92374D02*
X50211Y92374D01*
X50211Y92383D02*
X47811Y92383D01*
X47811Y92391D02*
X50211Y92391D01*
X50211Y92400D02*
X47811Y92400D01*
X47811Y92408D02*
X50211Y92408D01*
X50211Y92417D02*
X47811Y92417D01*
X47811Y92425D02*
X50211Y92425D01*
X50211Y92434D02*
X47811Y92434D01*
X47811Y92442D02*
X50211Y92442D01*
X50211Y92451D02*
X47811Y92451D01*
X47811Y92459D02*
X50211Y92459D01*
X50211Y92468D02*
X47811Y92468D01*
X47811Y92476D02*
X50211Y92476D01*
X50211Y92485D02*
X47811Y92485D01*
X47811Y92493D02*
X50211Y92493D01*
X50211Y92502D02*
X47811Y92502D01*
X47811Y92510D02*
X50211Y92510D01*
X50211Y92519D02*
X47811Y92519D01*
X47811Y92527D02*
X50211Y92527D01*
X50211Y92536D02*
X47811Y92536D01*
X47811Y92544D02*
X50211Y92544D01*
X50211Y92553D02*
X47811Y92553D01*
X47811Y92561D02*
X50211Y92561D01*
X50211Y92570D02*
X47811Y92570D01*
X47811Y92578D02*
X50211Y92578D01*
X50211Y92587D02*
X47811Y92587D01*
X47811Y92595D02*
X50211Y92595D01*
X50211Y92604D02*
X47811Y92604D01*
X47811Y92612D02*
X50211Y92612D01*
X50211Y92621D02*
X47811Y92621D01*
X47811Y92629D02*
X50211Y92629D01*
X50211Y92638D02*
X47811Y92638D01*
X47811Y92646D02*
X50211Y92646D01*
X50211Y92655D02*
X47811Y92655D01*
X47811Y92663D02*
X50211Y92663D01*
X50211Y92672D02*
X47811Y92672D01*
X47811Y92680D02*
X50211Y92680D01*
X50211Y92689D02*
X47811Y92689D01*
X47811Y92697D02*
X50211Y92697D01*
X50211Y92706D02*
X47811Y92706D01*
X47811Y92714D02*
X50211Y92714D01*
X50211Y92723D02*
X47811Y92723D01*
X47811Y92731D02*
X50211Y92731D01*
X50211Y92740D02*
X47811Y92740D01*
X47811Y92748D02*
X50211Y92748D01*
X50211Y92757D02*
X47811Y92757D01*
X47811Y92765D02*
X50211Y92765D01*
X50211Y92774D02*
X47811Y92774D01*
X47811Y92782D02*
X50211Y92782D01*
X50211Y92791D02*
X47811Y92791D01*
X47811Y92799D02*
X50211Y92799D01*
X50211Y92808D02*
X47811Y92808D01*
X47811Y92816D02*
X50211Y92816D01*
X50211Y92825D02*
X47811Y92825D01*
X47811Y92833D02*
X50211Y92833D01*
X50211Y92842D02*
X47811Y92842D01*
X47811Y92850D02*
X50211Y92850D01*
X50211Y92859D02*
X47811Y92859D01*
X47811Y92867D02*
X50211Y92867D01*
X50211Y92876D02*
X47811Y92876D01*
X47811Y92884D02*
X50211Y92884D01*
X50211Y92893D02*
X47811Y92893D01*
X47811Y92901D02*
X50211Y92901D01*
X50211Y92910D02*
X47811Y92910D01*
X47811Y92918D02*
X50211Y92918D01*
X50211Y92927D02*
X47811Y92927D01*
X47811Y92935D02*
X50211Y92935D01*
X50211Y92944D02*
X47811Y92944D01*
X47811Y92952D02*
X50211Y92952D01*
X50211Y92961D02*
X47811Y92961D01*
X47811Y92969D02*
X50211Y92969D01*
X50211Y92978D02*
X47811Y92978D01*
X47811Y92986D02*
X50211Y92986D01*
X50211Y92995D02*
X47811Y92995D01*
X47811Y93003D02*
X50211Y93003D01*
X50211Y93012D02*
X47811Y93012D01*
X47811Y93020D02*
X50211Y93020D01*
X50211Y93029D02*
X47811Y93029D01*
X47811Y93037D02*
X50211Y93037D01*
X50211Y93046D02*
X47811Y93046D01*
X47811Y93054D02*
X50211Y93054D01*
X50211Y93063D02*
X47811Y93063D01*
X47811Y93071D02*
X50211Y93071D01*
X50211Y93080D02*
X47811Y93080D01*
X47811Y93088D02*
X50211Y93088D01*
X50211Y93097D02*
X47811Y93097D01*
X47811Y93105D02*
X50211Y93105D01*
X50211Y93114D02*
X47811Y93114D01*
X47811Y93122D02*
X50211Y93122D01*
X50211Y93131D02*
X47811Y93131D01*
X47811Y93139D02*
X50211Y93139D01*
X50211Y93148D02*
X47811Y93148D01*
X47811Y93156D02*
X50211Y93156D01*
X50211Y93165D02*
X47811Y93165D01*
X47811Y93173D02*
X50211Y93173D01*
X50211Y93182D02*
X47811Y93182D01*
X47811Y93190D02*
X50211Y93190D01*
X50211Y93199D02*
X47811Y93199D01*
X47811Y93207D02*
X50211Y93207D01*
X50211Y93216D02*
X47811Y93216D01*
X47811Y93224D02*
X50211Y93224D01*
X50211Y93233D02*
X47811Y93233D01*
X47811Y93241D02*
X50211Y93241D01*
X50211Y93250D02*
X47811Y93250D01*
X47811Y93258D02*
X50211Y93258D01*
X50211Y93267D02*
X47811Y93267D01*
X47811Y93275D02*
X50211Y93275D01*
X50211Y93284D02*
X47811Y93284D01*
X47811Y93292D02*
X50211Y93292D01*
X50211Y93301D02*
X47811Y93301D01*
X47811Y93309D02*
X50211Y93309D01*
X50211Y93318D02*
X47811Y93318D01*
X47811Y93326D02*
X50211Y93326D01*
X50211Y93335D02*
X47811Y93335D01*
X47811Y93343D02*
X50211Y93343D01*
X50211Y93352D02*
X47811Y93352D01*
X47811Y93360D02*
X50211Y93360D01*
X50211Y93369D02*
X47811Y93369D01*
X47811Y93377D02*
X50211Y93377D01*
X50211Y93386D02*
X47811Y93386D01*
X47811Y93394D02*
X50211Y93394D01*
X50211Y93403D02*
X47811Y93403D01*
X47811Y93411D02*
X50211Y93411D01*
X50211Y93420D02*
X47811Y93420D01*
X47811Y93428D02*
X50211Y93428D01*
X50211Y93437D02*
X47811Y93437D01*
X47811Y93445D02*
X50211Y93445D01*
X50211Y93454D02*
X47811Y93454D01*
X47811Y93462D02*
X50211Y93462D01*
X50211Y93471D02*
X47811Y93471D01*
X47811Y93479D02*
X50211Y93479D01*
X50211Y93488D02*
X47811Y93488D01*
X47811Y93496D02*
X50211Y93496D01*
X50211Y93505D02*
X47811Y93505D01*
X47811Y93513D02*
X50211Y93513D01*
X50211Y93522D02*
X47811Y93522D01*
X47811Y93530D02*
X57211Y93530D01*
X57211Y93522D02*
X54811Y93522D01*
X54811Y93524D02*
X50211Y93524D01*
X50211Y90524D01*
X47811Y90524D01*
X47811Y95799D01*
X57211Y95799D01*
X57211Y90524D01*
X54811Y90524D01*
X54811Y93524D01*
X54811Y93513D02*
X57211Y93513D01*
X57211Y93505D02*
X54811Y93505D01*
X54811Y93496D02*
X57211Y93496D01*
X57211Y93488D02*
X54811Y93488D01*
X54811Y93479D02*
X57211Y93479D01*
X57211Y93471D02*
X54811Y93471D01*
X54811Y93462D02*
X57211Y93462D01*
X57211Y93454D02*
X54811Y93454D01*
X54811Y93445D02*
X57211Y93445D01*
X57211Y93437D02*
X54811Y93437D01*
X54811Y93428D02*
X57211Y93428D01*
X57211Y93420D02*
X54811Y93420D01*
X54811Y93411D02*
X57211Y93411D01*
X57211Y93403D02*
X54811Y93403D01*
X54811Y93394D02*
X57211Y93394D01*
X57211Y93386D02*
X54811Y93386D01*
X54811Y93377D02*
X57211Y93377D01*
X57211Y93369D02*
X54811Y93369D01*
X54811Y93360D02*
X57211Y93360D01*
X57211Y93352D02*
X54811Y93352D01*
X54811Y93343D02*
X57211Y93343D01*
X57211Y93335D02*
X54811Y93335D01*
X54811Y93326D02*
X57211Y93326D01*
X57211Y93318D02*
X54811Y93318D01*
X54811Y93309D02*
X57211Y93309D01*
X57211Y93301D02*
X54811Y93301D01*
X54811Y93292D02*
X57211Y93292D01*
X57211Y93284D02*
X54811Y93284D01*
X54811Y93275D02*
X57211Y93275D01*
X57211Y93267D02*
X54811Y93267D01*
X54811Y93258D02*
X57211Y93258D01*
X57211Y93250D02*
X54811Y93250D01*
X54811Y93241D02*
X57211Y93241D01*
X57211Y93233D02*
X54811Y93233D01*
X54811Y93224D02*
X57211Y93224D01*
X57211Y93216D02*
X54811Y93216D01*
X54811Y93207D02*
X57211Y93207D01*
X57211Y93199D02*
X54811Y93199D01*
X54811Y93190D02*
X57211Y93190D01*
X57211Y93182D02*
X54811Y93182D01*
X54811Y93173D02*
X57211Y93173D01*
X57211Y93165D02*
X54811Y93165D01*
X54811Y93156D02*
X57211Y93156D01*
X57211Y93148D02*
X54811Y93148D01*
X54811Y93139D02*
X57211Y93139D01*
X57211Y93131D02*
X54811Y93131D01*
X54811Y93122D02*
X57211Y93122D01*
X57211Y93114D02*
X54811Y93114D01*
X54811Y93105D02*
X57211Y93105D01*
X57211Y93097D02*
X54811Y93097D01*
X54811Y93088D02*
X57211Y93088D01*
X57211Y93080D02*
X54811Y93080D01*
X54811Y93071D02*
X57211Y93071D01*
X57211Y93063D02*
X54811Y93063D01*
X54811Y93054D02*
X57211Y93054D01*
X57211Y93046D02*
X54811Y93046D01*
X54811Y93037D02*
X57211Y93037D01*
X57211Y93029D02*
X54811Y93029D01*
X54811Y93020D02*
X57211Y93020D01*
X57211Y93012D02*
X54811Y93012D01*
X54811Y93003D02*
X57211Y93003D01*
X57211Y92995D02*
X54811Y92995D01*
X54811Y92986D02*
X57211Y92986D01*
X57211Y92978D02*
X54811Y92978D01*
X54811Y92969D02*
X57211Y92969D01*
X57211Y92961D02*
X54811Y92961D01*
X54811Y92952D02*
X57211Y92952D01*
X57211Y92944D02*
X54811Y92944D01*
X54811Y92935D02*
X57211Y92935D01*
X57211Y92927D02*
X54811Y92927D01*
X54811Y92918D02*
X57211Y92918D01*
X57211Y92910D02*
X54811Y92910D01*
X54811Y92901D02*
X57211Y92901D01*
X57211Y92893D02*
X54811Y92893D01*
X54811Y92884D02*
X57211Y92884D01*
X57211Y92876D02*
X54811Y92876D01*
X54811Y92867D02*
X57211Y92867D01*
X57211Y92859D02*
X54811Y92859D01*
X54811Y92850D02*
X57211Y92850D01*
X57211Y92842D02*
X54811Y92842D01*
X54811Y92833D02*
X57211Y92833D01*
X57211Y92825D02*
X54811Y92825D01*
X54811Y92816D02*
X57211Y92816D01*
X57211Y92808D02*
X54811Y92808D01*
X54811Y92799D02*
X57211Y92799D01*
X57211Y92791D02*
X54811Y92791D01*
X54811Y92782D02*
X57211Y92782D01*
X57211Y92774D02*
X54811Y92774D01*
X54811Y92765D02*
X57211Y92765D01*
X57211Y92757D02*
X54811Y92757D01*
X54811Y92748D02*
X57211Y92748D01*
X57211Y92740D02*
X54811Y92740D01*
X54811Y92731D02*
X57211Y92731D01*
X57211Y92723D02*
X54811Y92723D01*
X54811Y92714D02*
X57211Y92714D01*
X57211Y92706D02*
X54811Y92706D01*
X54811Y92697D02*
X57211Y92697D01*
X57211Y92689D02*
X54811Y92689D01*
X54811Y92680D02*
X57211Y92680D01*
X57211Y92672D02*
X54811Y92672D01*
X54811Y92663D02*
X57211Y92663D01*
X57211Y92655D02*
X54811Y92655D01*
X54811Y92646D02*
X57211Y92646D01*
X57211Y92638D02*
X54811Y92638D01*
X54811Y92629D02*
X57211Y92629D01*
X57211Y92621D02*
X54811Y92621D01*
X54811Y92612D02*
X57211Y92612D01*
X57211Y92604D02*
X54811Y92604D01*
X54811Y92595D02*
X57211Y92595D01*
X57211Y92587D02*
X54811Y92587D01*
X54811Y92578D02*
X57211Y92578D01*
X57211Y92570D02*
X54811Y92570D01*
X54811Y92561D02*
X57211Y92561D01*
X57211Y92553D02*
X54811Y92553D01*
X54811Y92544D02*
X57211Y92544D01*
X57211Y92536D02*
X54811Y92536D01*
X54811Y92527D02*
X57211Y92527D01*
X57211Y92519D02*
X54811Y92519D01*
X54811Y92510D02*
X57211Y92510D01*
X57211Y92502D02*
X54811Y92502D01*
X54811Y92493D02*
X57211Y92493D01*
X57211Y92485D02*
X54811Y92485D01*
X54811Y92476D02*
X57211Y92476D01*
X57211Y92468D02*
X54811Y92468D01*
X54811Y92459D02*
X57211Y92459D01*
X57211Y92451D02*
X54811Y92451D01*
X54811Y92442D02*
X57211Y92442D01*
X57211Y92434D02*
X54811Y92434D01*
X54811Y92425D02*
X57211Y92425D01*
X57211Y92417D02*
X54811Y92417D01*
X54811Y92408D02*
X57211Y92408D01*
X57211Y92400D02*
X54811Y92400D01*
X54811Y92391D02*
X57211Y92391D01*
X57211Y92383D02*
X54811Y92383D01*
X54811Y92374D02*
X57211Y92374D01*
X57211Y92366D02*
X54811Y92366D01*
X54811Y92357D02*
X57211Y92357D01*
X57211Y92349D02*
X54811Y92349D01*
X54811Y92340D02*
X57211Y92340D01*
X57211Y92332D02*
X54811Y92332D01*
X54811Y92323D02*
X57211Y92323D01*
X57211Y92315D02*
X54811Y92315D01*
X54811Y92306D02*
X57211Y92306D01*
X57211Y92298D02*
X54811Y92298D01*
X54811Y92289D02*
X57211Y92289D01*
X57211Y92281D02*
X54811Y92281D01*
X54811Y92272D02*
X57211Y92272D01*
X57211Y92264D02*
X54811Y92264D01*
X54811Y92255D02*
X57211Y92255D01*
X57211Y92247D02*
X54811Y92247D01*
X54811Y92238D02*
X57211Y92238D01*
X57211Y92230D02*
X54811Y92230D01*
X54811Y92221D02*
X57211Y92221D01*
X57211Y92213D02*
X54811Y92213D01*
X54811Y92204D02*
X57211Y92204D01*
X57211Y92196D02*
X54811Y92196D01*
X54811Y92187D02*
X57211Y92187D01*
X57211Y92179D02*
X54811Y92179D01*
X54811Y92170D02*
X57211Y92170D01*
X57211Y92162D02*
X54811Y92162D01*
X54811Y92153D02*
X57211Y92153D01*
X57211Y92145D02*
X54811Y92145D01*
X54811Y92136D02*
X57211Y92136D01*
X57211Y92128D02*
X54811Y92128D01*
X54811Y92119D02*
X57211Y92119D01*
X57211Y92111D02*
X54811Y92111D01*
X54811Y92102D02*
X57211Y92102D01*
X57211Y92094D02*
X54811Y92094D01*
X54811Y92085D02*
X57211Y92085D01*
X57211Y92077D02*
X54811Y92077D01*
X54811Y92068D02*
X57211Y92068D01*
X57211Y92060D02*
X54811Y92060D01*
X54811Y92051D02*
X57211Y92051D01*
X57211Y92043D02*
X54811Y92043D01*
X54811Y92034D02*
X57211Y92034D01*
X57211Y92026D02*
X54811Y92026D01*
X54811Y92017D02*
X57211Y92017D01*
X57211Y92009D02*
X54811Y92009D01*
X54811Y92000D02*
X57211Y92000D01*
X57211Y91992D02*
X54811Y91992D01*
X54811Y91983D02*
X57211Y91983D01*
X57211Y91975D02*
X54811Y91975D01*
X54811Y91966D02*
X57211Y91966D01*
X57211Y91958D02*
X54811Y91958D01*
X54811Y91949D02*
X57211Y91949D01*
X57211Y91941D02*
X54811Y91941D01*
X54811Y91932D02*
X57211Y91932D01*
X57211Y91924D02*
X54811Y91924D01*
X54811Y91915D02*
X57211Y91915D01*
X57211Y91907D02*
X54811Y91907D01*
X54811Y91898D02*
X57211Y91898D01*
X57211Y91890D02*
X54811Y91890D01*
X54811Y91881D02*
X57211Y91881D01*
X57211Y91873D02*
X54811Y91873D01*
X54811Y91864D02*
X57211Y91864D01*
X57211Y91856D02*
X54811Y91856D01*
X54811Y91847D02*
X57211Y91847D01*
X57211Y91839D02*
X54811Y91839D01*
X54811Y91830D02*
X57211Y91830D01*
X57211Y91822D02*
X54811Y91822D01*
X54811Y91813D02*
X57211Y91813D01*
X57211Y91805D02*
X54811Y91805D01*
X54811Y91796D02*
X57211Y91796D01*
X57211Y91788D02*
X54811Y91788D01*
X54811Y91779D02*
X57211Y91779D01*
X57211Y91771D02*
X54811Y91771D01*
X54811Y91762D02*
X57211Y91762D01*
X57211Y91754D02*
X54811Y91754D01*
X54811Y91745D02*
X57211Y91745D01*
X57211Y91737D02*
X54811Y91737D01*
X54811Y91728D02*
X57211Y91728D01*
X57211Y91720D02*
X54811Y91720D01*
X54811Y91711D02*
X57211Y91711D01*
X57211Y91703D02*
X54811Y91703D01*
X54811Y91694D02*
X57211Y91694D01*
X57211Y91686D02*
X54811Y91686D01*
X54811Y91677D02*
X57211Y91677D01*
X57211Y91669D02*
X54811Y91669D01*
X54811Y91660D02*
X57211Y91660D01*
X57211Y91652D02*
X54811Y91652D01*
X54811Y91643D02*
X57211Y91643D01*
X57211Y91635D02*
X54811Y91635D01*
X54811Y91626D02*
X57211Y91626D01*
X57211Y91618D02*
X54811Y91618D01*
X54811Y91609D02*
X57211Y91609D01*
X57211Y91601D02*
X54811Y91601D01*
X54811Y91592D02*
X57211Y91592D01*
X57211Y91584D02*
X54811Y91584D01*
X54811Y91575D02*
X57211Y91575D01*
X57211Y91567D02*
X54811Y91567D01*
X54811Y91558D02*
X57211Y91558D01*
X57211Y91550D02*
X54811Y91550D01*
X54811Y91541D02*
X57211Y91541D01*
X57211Y91533D02*
X54811Y91533D01*
X54811Y91524D02*
X57211Y91524D01*
X57211Y91516D02*
X54811Y91516D01*
X54811Y91507D02*
X57211Y91507D01*
X57211Y91499D02*
X54811Y91499D01*
X54811Y91490D02*
X57211Y91490D01*
X57211Y91482D02*
X54811Y91482D01*
X54811Y91473D02*
X57211Y91473D01*
X57211Y91465D02*
X54811Y91465D01*
X54811Y91456D02*
X57211Y91456D01*
X57211Y91448D02*
X54811Y91448D01*
X54811Y91439D02*
X57211Y91439D01*
X57211Y91431D02*
X54811Y91431D01*
X54811Y91422D02*
X57211Y91422D01*
X57211Y91414D02*
X54811Y91414D01*
X54811Y91405D02*
X57211Y91405D01*
X57211Y91397D02*
X54811Y91397D01*
X54811Y91388D02*
X57211Y91388D01*
X57211Y91380D02*
X54811Y91380D01*
X54811Y91371D02*
X57211Y91371D01*
X57211Y91363D02*
X54811Y91363D01*
X54811Y91354D02*
X57211Y91354D01*
X57211Y91346D02*
X54811Y91346D01*
X54811Y91337D02*
X57211Y91337D01*
X57211Y91329D02*
X54811Y91329D01*
X54811Y91320D02*
X57211Y91320D01*
X57211Y91312D02*
X54811Y91312D01*
X54811Y91303D02*
X57211Y91303D01*
X57211Y91295D02*
X54811Y91295D01*
X54811Y91286D02*
X57211Y91286D01*
X57211Y91278D02*
X54811Y91278D01*
X54811Y91269D02*
X57211Y91269D01*
X57211Y91261D02*
X54811Y91261D01*
X54811Y91252D02*
X57211Y91252D01*
X57211Y91244D02*
X54811Y91244D01*
X54811Y91235D02*
X57211Y91235D01*
X57211Y91227D02*
X54811Y91227D01*
X54811Y91218D02*
X57211Y91218D01*
X57211Y91210D02*
X54811Y91210D01*
X54811Y91201D02*
X57211Y91201D01*
X57211Y91193D02*
X54811Y91193D01*
X54811Y91184D02*
X57211Y91184D01*
X57211Y91176D02*
X54811Y91176D01*
X54811Y91167D02*
X57211Y91167D01*
X57211Y91159D02*
X54811Y91159D01*
X54811Y91150D02*
X57211Y91150D01*
X57211Y91142D02*
X54811Y91142D01*
X54811Y91133D02*
X57211Y91133D01*
X57211Y91125D02*
X54811Y91125D01*
X54811Y91116D02*
X57211Y91116D01*
X57211Y91108D02*
X54811Y91108D01*
X54811Y91099D02*
X57211Y91099D01*
X57211Y91091D02*
X54811Y91091D01*
X54811Y91082D02*
X57211Y91082D01*
X57211Y91074D02*
X54811Y91074D01*
X54811Y91065D02*
X57211Y91065D01*
X57211Y91057D02*
X54811Y91057D01*
X54811Y91048D02*
X57211Y91048D01*
X57211Y91040D02*
X54811Y91040D01*
X54811Y91031D02*
X57211Y91031D01*
X57211Y91023D02*
X54811Y91023D01*
X54811Y91014D02*
X57211Y91014D01*
X57211Y91006D02*
X54811Y91006D01*
X54811Y90997D02*
X57211Y90997D01*
X57211Y90989D02*
X54811Y90989D01*
X54811Y90980D02*
X57211Y90980D01*
X57211Y90972D02*
X54811Y90972D01*
X54811Y90963D02*
X57211Y90963D01*
X57211Y90955D02*
X54811Y90955D01*
X54811Y90946D02*
X57211Y90946D01*
X57211Y90938D02*
X54811Y90938D01*
X54811Y90929D02*
X57211Y90929D01*
X57211Y90921D02*
X54811Y90921D01*
X54811Y90912D02*
X57211Y90912D01*
X57211Y90904D02*
X54811Y90904D01*
X54811Y90895D02*
X57211Y90895D01*
X57211Y90887D02*
X54811Y90887D01*
X54811Y90878D02*
X57211Y90878D01*
X57211Y90870D02*
X54811Y90870D01*
X54811Y90861D02*
X57211Y90861D01*
X57211Y90853D02*
X54811Y90853D01*
X54811Y90844D02*
X57211Y90844D01*
X57211Y90836D02*
X54811Y90836D01*
X54811Y90827D02*
X57211Y90827D01*
X57211Y90819D02*
X54811Y90819D01*
X54811Y90810D02*
X57211Y90810D01*
X57211Y90802D02*
X54811Y90802D01*
X54811Y90793D02*
X57211Y90793D01*
X57211Y90785D02*
X54811Y90785D01*
X54811Y90776D02*
X57211Y90776D01*
X57211Y90768D02*
X54811Y90768D01*
X54811Y90759D02*
X57211Y90759D01*
X57211Y90751D02*
X54811Y90751D01*
X54811Y90742D02*
X57211Y90742D01*
X57211Y90734D02*
X54811Y90734D01*
X54811Y90725D02*
X57211Y90725D01*
X57211Y90717D02*
X54811Y90717D01*
X54811Y90708D02*
X57211Y90708D01*
X57211Y90700D02*
X54811Y90700D01*
X54811Y90691D02*
X57211Y90691D01*
X57211Y90683D02*
X54811Y90683D01*
X54811Y90674D02*
X57211Y90674D01*
X57211Y90666D02*
X54811Y90666D01*
X54811Y90657D02*
X57211Y90657D01*
X57211Y90649D02*
X54811Y90649D01*
X54811Y90640D02*
X57211Y90640D01*
X57211Y90632D02*
X54811Y90632D01*
X54811Y90623D02*
X57211Y90623D01*
X57211Y90615D02*
X54811Y90615D01*
X54811Y90606D02*
X57211Y90606D01*
X57211Y90598D02*
X54811Y90598D01*
X54811Y90589D02*
X57211Y90589D01*
X57211Y90581D02*
X54811Y90581D01*
X54811Y90572D02*
X57211Y90572D01*
X57211Y90564D02*
X54811Y90564D01*
X54811Y90555D02*
X57211Y90555D01*
X57211Y90547D02*
X54811Y90547D01*
X54811Y90538D02*
X57211Y90538D01*
X57211Y90530D02*
X54811Y90530D01*
X57211Y93539D02*
X47811Y93539D01*
X47811Y93547D02*
X57211Y93547D01*
X57211Y93556D02*
X47811Y93556D01*
X47811Y93564D02*
X57211Y93564D01*
X57211Y93573D02*
X47811Y93573D01*
X47811Y93581D02*
X57211Y93581D01*
X57211Y93590D02*
X47811Y93590D01*
X47811Y93598D02*
X57211Y93598D01*
X57211Y93607D02*
X47811Y93607D01*
X47811Y93615D02*
X57211Y93615D01*
X57211Y93624D02*
X47811Y93624D01*
X47811Y93632D02*
X57211Y93632D01*
X57211Y93641D02*
X47811Y93641D01*
X47811Y93649D02*
X57211Y93649D01*
X57211Y93658D02*
X47811Y93658D01*
X47811Y93666D02*
X57211Y93666D01*
X57211Y93675D02*
X47811Y93675D01*
X47811Y93683D02*
X57211Y93683D01*
X57211Y93692D02*
X47811Y93692D01*
X47811Y93700D02*
X57211Y93700D01*
X57211Y93709D02*
X47811Y93709D01*
X47811Y93717D02*
X57211Y93717D01*
X57211Y93726D02*
X47811Y93726D01*
X47811Y93734D02*
X57211Y93734D01*
X57211Y93743D02*
X47811Y93743D01*
X47811Y93751D02*
X57211Y93751D01*
X57211Y93760D02*
X47811Y93760D01*
X47811Y93768D02*
X57211Y93768D01*
X57211Y93777D02*
X47811Y93777D01*
X47811Y93785D02*
X57211Y93785D01*
X57211Y93794D02*
X47811Y93794D01*
X47811Y93802D02*
X57211Y93802D01*
X57211Y93811D02*
X47811Y93811D01*
X47811Y93819D02*
X57211Y93819D01*
X57211Y93828D02*
X47811Y93828D01*
X47811Y93836D02*
X57211Y93836D01*
X57211Y93845D02*
X47811Y93845D01*
X47811Y93853D02*
X57211Y93853D01*
X57211Y93862D02*
X47811Y93862D01*
X47811Y93870D02*
X57211Y93870D01*
X57211Y93879D02*
X47811Y93879D01*
X47811Y93887D02*
X57211Y93887D01*
X57211Y93896D02*
X47811Y93896D01*
X47811Y93904D02*
X57211Y93904D01*
X57211Y93913D02*
X47811Y93913D01*
X47811Y93921D02*
X57211Y93921D01*
X57211Y93930D02*
X47811Y93930D01*
X47811Y93938D02*
X57211Y93938D01*
X57211Y93947D02*
X47811Y93947D01*
X47811Y93955D02*
X57211Y93955D01*
X57211Y93964D02*
X47811Y93964D01*
X47811Y93972D02*
X57211Y93972D01*
X57211Y93981D02*
X47811Y93981D01*
X47811Y93989D02*
X57211Y93989D01*
X57211Y93998D02*
X47811Y93998D01*
X47811Y94006D02*
X57211Y94006D01*
X57211Y94015D02*
X47811Y94015D01*
X47811Y94023D02*
X57211Y94023D01*
X57211Y94032D02*
X47811Y94032D01*
X47811Y94040D02*
X57211Y94040D01*
X57211Y94049D02*
X47811Y94049D01*
X47811Y94057D02*
X57211Y94057D01*
X57211Y94066D02*
X47811Y94066D01*
X47811Y94074D02*
X57211Y94074D01*
X57211Y94083D02*
X47811Y94083D01*
X47811Y94091D02*
X57211Y94091D01*
X57211Y94100D02*
X47811Y94100D01*
X47811Y94108D02*
X57211Y94108D01*
X57211Y94117D02*
X47811Y94117D01*
X47811Y94125D02*
X57211Y94125D01*
X57211Y94134D02*
X47811Y94134D01*
X47811Y94142D02*
X57211Y94142D01*
X57211Y94151D02*
X47811Y94151D01*
X47811Y94159D02*
X57211Y94159D01*
X57211Y94168D02*
X47811Y94168D01*
X47811Y94176D02*
X57211Y94176D01*
X57211Y94185D02*
X47811Y94185D01*
X47811Y94193D02*
X57211Y94193D01*
X57211Y94202D02*
X47811Y94202D01*
X47811Y94210D02*
X57211Y94210D01*
X57211Y94219D02*
X47811Y94219D01*
X47811Y94227D02*
X57211Y94227D01*
X57211Y94236D02*
X47811Y94236D01*
X47811Y94244D02*
X57211Y94244D01*
X57211Y94253D02*
X47811Y94253D01*
X47811Y94261D02*
X57211Y94261D01*
X57211Y94270D02*
X47811Y94270D01*
X47811Y94278D02*
X57211Y94278D01*
X57211Y94287D02*
X47811Y94287D01*
X47811Y94295D02*
X57211Y94295D01*
X57211Y94304D02*
X47811Y94304D01*
X47811Y94312D02*
X57211Y94312D01*
X57211Y94321D02*
X47811Y94321D01*
X47811Y94329D02*
X57211Y94329D01*
X57211Y94338D02*
X47811Y94338D01*
X47811Y94346D02*
X57211Y94346D01*
X57211Y94355D02*
X47811Y94355D01*
X47811Y94363D02*
X57211Y94363D01*
X57211Y94372D02*
X47811Y94372D01*
X47811Y94380D02*
X57211Y94380D01*
X57211Y94389D02*
X47811Y94389D01*
X47811Y94397D02*
X57211Y94397D01*
X57211Y94406D02*
X47811Y94406D01*
X47811Y94414D02*
X57211Y94414D01*
X57211Y94423D02*
X47811Y94423D01*
X47811Y94431D02*
X57211Y94431D01*
X57211Y94440D02*
X47811Y94440D01*
X47811Y94448D02*
X57211Y94448D01*
X57211Y94457D02*
X47811Y94457D01*
X47811Y94465D02*
X57211Y94465D01*
X57211Y94474D02*
X47811Y94474D01*
X47811Y94482D02*
X57211Y94482D01*
X57211Y94491D02*
X47811Y94491D01*
X47811Y94499D02*
X57211Y94499D01*
X57211Y94508D02*
X47811Y94508D01*
X47811Y94516D02*
X57211Y94516D01*
X57211Y94525D02*
X47811Y94525D01*
X47811Y94533D02*
X57211Y94533D01*
X57211Y94542D02*
X47811Y94542D01*
X47811Y94550D02*
X57211Y94550D01*
X57211Y94559D02*
X47811Y94559D01*
X47811Y94567D02*
X57211Y94567D01*
X57211Y94576D02*
X47811Y94576D01*
X47811Y94584D02*
X57211Y94584D01*
X57211Y94593D02*
X47811Y94593D01*
X47811Y94601D02*
X57211Y94601D01*
X57211Y94610D02*
X47811Y94610D01*
X47811Y94618D02*
X57211Y94618D01*
X57211Y94627D02*
X47811Y94627D01*
X47811Y94635D02*
X57211Y94635D01*
X57211Y94644D02*
X47811Y94644D01*
X47811Y94652D02*
X57211Y94652D01*
X57211Y94661D02*
X47811Y94661D01*
X47811Y94669D02*
X57211Y94669D01*
X57211Y94678D02*
X47811Y94678D01*
X47811Y94686D02*
X57211Y94686D01*
X57211Y94695D02*
X47811Y94695D01*
X47811Y94703D02*
X57211Y94703D01*
X57211Y94712D02*
X47811Y94712D01*
X47811Y94720D02*
X57211Y94720D01*
X57211Y94729D02*
X47811Y94729D01*
X47811Y94737D02*
X57211Y94737D01*
X57211Y94746D02*
X47811Y94746D01*
X47811Y94754D02*
X57211Y94754D01*
X57211Y94763D02*
X47811Y94763D01*
X47811Y94771D02*
X57211Y94771D01*
X57211Y94780D02*
X47811Y94780D01*
X47811Y94788D02*
X57211Y94788D01*
X57211Y94797D02*
X47811Y94797D01*
X47811Y94805D02*
X57211Y94805D01*
X57211Y94814D02*
X47811Y94814D01*
X47811Y94822D02*
X57211Y94822D01*
X57211Y94831D02*
X47811Y94831D01*
X47811Y94839D02*
X57211Y94839D01*
X57211Y94848D02*
X47811Y94848D01*
X47811Y94856D02*
X57211Y94856D01*
X57211Y94865D02*
X47811Y94865D01*
X47811Y94873D02*
X57211Y94873D01*
X57211Y94882D02*
X47811Y94882D01*
X47811Y94890D02*
X57211Y94890D01*
X57211Y94899D02*
X47811Y94899D01*
X47811Y94907D02*
X57211Y94907D01*
X57211Y94916D02*
X47811Y94916D01*
X47811Y94924D02*
X57211Y94924D01*
X57211Y94933D02*
X47811Y94933D01*
X47811Y94941D02*
X57211Y94941D01*
X57211Y94950D02*
X47811Y94950D01*
X47811Y94958D02*
X57211Y94958D01*
X57211Y94967D02*
X47811Y94967D01*
X47811Y94975D02*
X57211Y94975D01*
X57211Y94984D02*
X47811Y94984D01*
X47811Y94992D02*
X57211Y94992D01*
X57211Y95001D02*
X47811Y95001D01*
X47811Y95009D02*
X57211Y95009D01*
X57211Y95018D02*
X47811Y95018D01*
X47811Y95026D02*
X57211Y95026D01*
X57211Y95035D02*
X47811Y95035D01*
X47811Y95043D02*
X57211Y95043D01*
X57211Y95052D02*
X47811Y95052D01*
X47811Y95060D02*
X57211Y95060D01*
X57211Y95069D02*
X47811Y95069D01*
X47811Y95077D02*
X57211Y95077D01*
X57211Y95086D02*
X47811Y95086D01*
X47811Y95094D02*
X57211Y95094D01*
X57211Y95103D02*
X47811Y95103D01*
X47811Y95111D02*
X57211Y95111D01*
X57211Y95120D02*
X47811Y95120D01*
X47811Y95128D02*
X57211Y95128D01*
X57211Y95137D02*
X47811Y95137D01*
X47811Y95145D02*
X57211Y95145D01*
X57211Y95154D02*
X47811Y95154D01*
X47811Y95162D02*
X57211Y95162D01*
X57211Y95171D02*
X47811Y95171D01*
X47811Y95179D02*
X57211Y95179D01*
X57211Y95188D02*
X47811Y95188D01*
X47811Y95196D02*
X57211Y95196D01*
X57211Y95205D02*
X47811Y95205D01*
X47811Y95213D02*
X57211Y95213D01*
X57211Y95222D02*
X47811Y95222D01*
X47811Y95230D02*
X57211Y95230D01*
X57211Y95239D02*
X47811Y95239D01*
X47811Y95247D02*
X57211Y95247D01*
X57211Y95256D02*
X47811Y95256D01*
X47811Y95264D02*
X57211Y95264D01*
X57211Y95273D02*
X47811Y95273D01*
X47811Y95281D02*
X57211Y95281D01*
X57211Y95290D02*
X47811Y95290D01*
X47811Y95298D02*
X57211Y95298D01*
X57211Y95307D02*
X47811Y95307D01*
X47811Y95315D02*
X57211Y95315D01*
X57211Y95324D02*
X47811Y95324D01*
X47811Y95332D02*
X57211Y95332D01*
X57211Y95341D02*
X47811Y95341D01*
X47811Y95349D02*
X57211Y95349D01*
X57211Y95358D02*
X47811Y95358D01*
X47811Y95366D02*
X57211Y95366D01*
X57211Y95375D02*
X47811Y95375D01*
X47811Y95383D02*
X57211Y95383D01*
X57211Y95392D02*
X47811Y95392D01*
X47811Y95400D02*
X57211Y95400D01*
X57211Y95409D02*
X47811Y95409D01*
X47811Y95417D02*
X57211Y95417D01*
X57211Y95426D02*
X47811Y95426D01*
X47811Y95434D02*
X57211Y95434D01*
X57211Y95443D02*
X47811Y95443D01*
X47811Y95451D02*
X57211Y95451D01*
X57211Y95460D02*
X47811Y95460D01*
X47811Y95468D02*
X57211Y95468D01*
X57211Y95477D02*
X47811Y95477D01*
X47811Y95485D02*
X57211Y95485D01*
X57211Y95494D02*
X47811Y95494D01*
X47811Y95502D02*
X57211Y95502D01*
X57211Y95511D02*
X47811Y95511D01*
X47811Y95519D02*
X57211Y95519D01*
X57211Y95528D02*
X47811Y95528D01*
X47811Y95536D02*
X57211Y95536D01*
X57211Y95545D02*
X47811Y95545D01*
X47811Y95553D02*
X57211Y95553D01*
X57211Y95562D02*
X47811Y95562D01*
X47811Y95570D02*
X57211Y95570D01*
X57211Y95579D02*
X47811Y95579D01*
X47811Y95587D02*
X57211Y95587D01*
X57211Y95596D02*
X47811Y95596D01*
X47811Y95604D02*
X57211Y95604D01*
X57211Y95613D02*
X47811Y95613D01*
X47811Y95621D02*
X57211Y95621D01*
X57211Y95630D02*
X47811Y95630D01*
X47811Y95638D02*
X57211Y95638D01*
X57211Y95647D02*
X47811Y95647D01*
X47811Y95655D02*
X57211Y95655D01*
X57211Y95664D02*
X47811Y95664D01*
X47811Y95672D02*
X57211Y95672D01*
X57211Y95681D02*
X47811Y95681D01*
X47811Y95689D02*
X57211Y95689D01*
X57211Y95698D02*
X47811Y95698D01*
X47811Y95706D02*
X57211Y95706D01*
X57211Y95715D02*
X47811Y95715D01*
X47811Y95723D02*
X57211Y95723D01*
X57211Y95732D02*
X47811Y95732D01*
X47811Y95740D02*
X57211Y95740D01*
X57211Y95749D02*
X47811Y95749D01*
X47811Y95757D02*
X57211Y95757D01*
X57211Y95766D02*
X47811Y95766D01*
X47811Y95774D02*
X57211Y95774D01*
X57211Y95783D02*
X47811Y95783D01*
X47811Y95791D02*
X57211Y95791D01*
X50211Y92085D02*
X47811Y92085D01*
X47811Y92077D02*
X50211Y92077D01*
X50211Y92068D02*
X47811Y92068D01*
X47811Y92060D02*
X50211Y92060D01*
X50211Y92051D02*
X47811Y92051D01*
X47811Y92043D02*
X50211Y92043D01*
X50211Y92034D02*
X47811Y92034D01*
X47811Y92026D02*
X50211Y92026D01*
X50211Y92017D02*
X47811Y92017D01*
X47811Y92009D02*
X50211Y92009D01*
X50211Y92000D02*
X47811Y92000D01*
X47811Y91992D02*
X50211Y91992D01*
X50211Y91983D02*
X47811Y91983D01*
X47811Y91975D02*
X50211Y91975D01*
X50211Y91966D02*
X47811Y91966D01*
X47811Y91958D02*
X50211Y91958D01*
X50211Y91949D02*
X47811Y91949D01*
X47811Y91941D02*
X50211Y91941D01*
X50211Y91932D02*
X47811Y91932D01*
X47811Y91924D02*
X50211Y91924D01*
X50211Y91915D02*
X47811Y91915D01*
X47811Y91907D02*
X50211Y91907D01*
X50211Y91898D02*
X47811Y91898D01*
X47811Y91890D02*
X50211Y91890D01*
X50211Y91881D02*
X47811Y91881D01*
X47811Y91873D02*
X50211Y91873D01*
X50211Y91864D02*
X47811Y91864D01*
X47811Y91856D02*
X50211Y91856D01*
X50211Y91847D02*
X47811Y91847D01*
X47811Y91839D02*
X50211Y91839D01*
X50211Y91830D02*
X47811Y91830D01*
X47811Y91822D02*
X50211Y91822D01*
X50211Y91813D02*
X47811Y91813D01*
X47811Y91805D02*
X50211Y91805D01*
X50211Y91796D02*
X47811Y91796D01*
X47811Y91788D02*
X50211Y91788D01*
X50211Y91779D02*
X47811Y91779D01*
X47811Y91771D02*
X50211Y91771D01*
X50211Y91762D02*
X47811Y91762D01*
X47811Y91754D02*
X50211Y91754D01*
X50211Y91745D02*
X47811Y91745D01*
X47811Y91737D02*
X50211Y91737D01*
X50211Y91728D02*
X47811Y91728D01*
X47811Y91720D02*
X50211Y91720D01*
X50211Y91711D02*
X47811Y91711D01*
X47811Y91703D02*
X50211Y91703D01*
X50211Y91694D02*
X47811Y91694D01*
X47811Y91686D02*
X50211Y91686D01*
X50211Y91677D02*
X47811Y91677D01*
X47811Y91669D02*
X50211Y91669D01*
X50211Y91660D02*
X47811Y91660D01*
X47811Y91652D02*
X50211Y91652D01*
X50211Y91643D02*
X47811Y91643D01*
X47811Y91635D02*
X50211Y91635D01*
X50211Y91626D02*
X47811Y91626D01*
X47811Y91618D02*
X50211Y91618D01*
X50211Y91609D02*
X47811Y91609D01*
X47811Y91601D02*
X50211Y91601D01*
X50211Y91592D02*
X47811Y91592D01*
X47811Y91584D02*
X50211Y91584D01*
X50211Y91575D02*
X47811Y91575D01*
X47811Y91567D02*
X50211Y91567D01*
X50211Y91558D02*
X47811Y91558D01*
X47811Y91550D02*
X50211Y91550D01*
X50211Y91541D02*
X47811Y91541D01*
X47811Y91533D02*
X50211Y91533D01*
X50211Y91524D02*
X47811Y91524D01*
X47811Y91516D02*
X50211Y91516D01*
X50211Y91507D02*
X47811Y91507D01*
X47811Y91499D02*
X50211Y91499D01*
X50211Y91490D02*
X47811Y91490D01*
X47811Y91482D02*
X50211Y91482D01*
X50211Y91473D02*
X47811Y91473D01*
X47811Y91465D02*
X50211Y91465D01*
X50211Y91456D02*
X47811Y91456D01*
X47811Y91448D02*
X50211Y91448D01*
X50211Y91439D02*
X47811Y91439D01*
X47811Y91431D02*
X50211Y91431D01*
X50211Y91422D02*
X47811Y91422D01*
X47811Y91414D02*
X50211Y91414D01*
X50211Y91405D02*
X47811Y91405D01*
X47811Y91397D02*
X50211Y91397D01*
X50211Y91388D02*
X47811Y91388D01*
X47811Y91380D02*
X50211Y91380D01*
X50211Y91371D02*
X47811Y91371D01*
X47811Y91363D02*
X50211Y91363D01*
X50211Y91354D02*
X47811Y91354D01*
X47811Y91346D02*
X50211Y91346D01*
X50211Y91337D02*
X47811Y91337D01*
X47811Y91329D02*
X50211Y91329D01*
X50211Y91320D02*
X47811Y91320D01*
X47811Y91312D02*
X50211Y91312D01*
X50211Y91303D02*
X47811Y91303D01*
X47811Y91295D02*
X50211Y91295D01*
X50211Y91286D02*
X47811Y91286D01*
X47811Y91278D02*
X50211Y91278D01*
X50211Y91269D02*
X47811Y91269D01*
X47811Y91261D02*
X50211Y91261D01*
X50211Y91252D02*
X47811Y91252D01*
X47811Y91244D02*
X50211Y91244D01*
X50211Y91235D02*
X47811Y91235D01*
X47811Y91227D02*
X50211Y91227D01*
X50211Y91218D02*
X47811Y91218D01*
X47811Y91210D02*
X50211Y91210D01*
X50211Y91201D02*
X47811Y91201D01*
X47811Y91193D02*
X50211Y91193D01*
X50211Y91184D02*
X47811Y91184D01*
X47811Y91176D02*
X50211Y91176D01*
X50211Y91167D02*
X47811Y91167D01*
X47811Y91159D02*
X50211Y91159D01*
X50211Y91150D02*
X47811Y91150D01*
X47811Y91142D02*
X50211Y91142D01*
X50211Y91133D02*
X47811Y91133D01*
X47811Y91125D02*
X50211Y91125D01*
X50211Y91116D02*
X47811Y91116D01*
X47811Y91108D02*
X50211Y91108D01*
X50211Y91099D02*
X47811Y91099D01*
X47811Y91091D02*
X50211Y91091D01*
X50211Y91082D02*
X47811Y91082D01*
X47811Y91074D02*
X50211Y91074D01*
X50211Y91065D02*
X47811Y91065D01*
X47811Y91057D02*
X50211Y91057D01*
X50211Y91048D02*
X47811Y91048D01*
X47811Y91040D02*
X50211Y91040D01*
X50211Y91031D02*
X47811Y91031D01*
X47811Y91023D02*
X50211Y91023D01*
X50211Y91014D02*
X47811Y91014D01*
X47811Y91006D02*
X50211Y91006D01*
X50211Y90997D02*
X47811Y90997D01*
X47811Y90989D02*
X50211Y90989D01*
X50211Y90980D02*
X47811Y90980D01*
X47811Y90972D02*
X50211Y90972D01*
X50211Y90963D02*
X47811Y90963D01*
X47811Y90955D02*
X50211Y90955D01*
X50211Y90946D02*
X47811Y90946D01*
X47811Y90938D02*
X50211Y90938D01*
X50211Y90929D02*
X47811Y90929D01*
X47811Y90921D02*
X50211Y90921D01*
X50211Y90912D02*
X47811Y90912D01*
X47811Y90904D02*
X50211Y90904D01*
X50211Y90895D02*
X47811Y90895D01*
X47811Y90887D02*
X50211Y90887D01*
X50211Y90878D02*
X47811Y90878D01*
X47811Y90870D02*
X50211Y90870D01*
X50211Y90861D02*
X47811Y90861D01*
X47811Y90853D02*
X50211Y90853D01*
X50211Y90844D02*
X47811Y90844D01*
X47811Y90836D02*
X50211Y90836D01*
X50211Y90827D02*
X47811Y90827D01*
X47811Y90819D02*
X50211Y90819D01*
X50211Y90810D02*
X47811Y90810D01*
X47811Y90802D02*
X50211Y90802D01*
X50211Y90793D02*
X47811Y90793D01*
X47811Y90785D02*
X50211Y90785D01*
X50211Y90776D02*
X47811Y90776D01*
X47811Y90768D02*
X50211Y90768D01*
X50211Y90759D02*
X47811Y90759D01*
X47811Y90751D02*
X50211Y90751D01*
X50211Y90742D02*
X47811Y90742D01*
X47811Y90734D02*
X50211Y90734D01*
X50211Y90725D02*
X47811Y90725D01*
X47811Y90717D02*
X50211Y90717D01*
X50211Y90708D02*
X47811Y90708D01*
X47811Y90700D02*
X50211Y90700D01*
X50211Y90691D02*
X47811Y90691D01*
X47811Y90683D02*
X50211Y90683D01*
X50211Y90674D02*
X47811Y90674D01*
X47811Y90666D02*
X50211Y90666D01*
X50211Y90657D02*
X47811Y90657D01*
X47811Y90649D02*
X50211Y90649D01*
X50211Y90640D02*
X47811Y90640D01*
X47811Y90632D02*
X50211Y90632D01*
X50211Y90623D02*
X47811Y90623D01*
X47811Y90615D02*
X50211Y90615D01*
X50211Y90606D02*
X47811Y90606D01*
X47811Y90598D02*
X50211Y90598D01*
X50211Y90589D02*
X47811Y90589D01*
X47811Y90581D02*
X50211Y90581D01*
X50211Y90572D02*
X47811Y90572D01*
X47811Y90564D02*
X50211Y90564D01*
X50211Y90555D02*
X47811Y90555D01*
X47811Y90547D02*
X50211Y90547D01*
X50211Y90538D02*
X47811Y90538D01*
X47811Y90530D02*
X50211Y90530D01*
D22*
X28381Y91144D03*
X28381Y88604D03*
X28381Y86064D03*
X28381Y83524D03*
X28381Y80984D03*
X28381Y78444D03*
X28381Y75904D03*
X28381Y73364D03*
X28381Y69300D03*
X28381Y66760D03*
X28381Y64220D03*
X28381Y61680D03*
X28381Y59140D03*
X28381Y56600D03*
X28381Y54060D03*
X28381Y51520D03*
X28381Y48980D03*
X28381Y46440D03*
X76641Y55584D03*
X76641Y58124D03*
X76641Y60664D03*
X76641Y63204D03*
X76641Y65744D03*
X76641Y68284D03*
X76641Y70824D03*
X76641Y73364D03*
X76641Y78444D03*
X76641Y80984D03*
X76641Y83524D03*
X76641Y86064D03*
X76641Y88604D03*
X76641Y91144D03*
D23*
X90586Y87313D03*
X90586Y82233D03*
D24*
X66481Y82254D03*
X66481Y87334D03*
D25*
X66604Y91820D02*
X67956Y91820D01*
X67956Y90468D01*
X66604Y90468D01*
X66604Y91820D01*
X66604Y90617D02*
X67956Y90617D01*
X67956Y90766D02*
X66604Y90766D01*
X66604Y90915D02*
X67956Y90915D01*
X67956Y91064D02*
X66604Y91064D01*
X66604Y91213D02*
X67956Y91213D01*
X67956Y91362D02*
X66604Y91362D01*
X66604Y91511D02*
X67956Y91511D01*
X67956Y91660D02*
X66604Y91660D01*
X66604Y91809D02*
X67956Y91809D01*
X70404Y91820D02*
X71756Y91820D01*
X71756Y90468D01*
X70404Y90468D01*
X70404Y91820D01*
X70404Y90617D02*
X71756Y90617D01*
X71756Y90766D02*
X70404Y90766D01*
X70404Y90915D02*
X71756Y90915D01*
X71756Y91064D02*
X70404Y91064D01*
X70404Y91213D02*
X71756Y91213D01*
X71756Y91362D02*
X70404Y91362D01*
X70404Y91511D02*
X71756Y91511D01*
X71756Y91660D02*
X70404Y91660D01*
X70404Y91809D02*
X71756Y91809D01*
D26*
X72860Y45920D03*
X66425Y45920D03*
X86772Y45880D03*
X93207Y45880D03*
D27*
X65529Y53044D03*
X64894Y51774D03*
X66481Y78444D03*
X61243Y83841D03*
X61243Y85111D03*
X59020Y85111D03*
X59020Y83841D03*
X59020Y86381D03*
X57750Y86381D03*
X50448Y86381D03*
X49813Y85349D03*
X49178Y86381D03*
X65688Y84794D03*
X67275Y84794D03*
D28*
X53385Y81222D03*
X51638Y81222D03*
X51638Y79476D03*
X53385Y79476D03*
X52829Y61299D03*
X54734Y61299D03*
X54734Y59394D03*
X52829Y59394D03*
X50924Y59394D03*
X50924Y61299D03*
X50924Y57489D03*
X52829Y57489D03*
X54734Y57489D03*
M02*
