G75*
%MOMM*%
%OFA0B0*%
%FSLAX33Y33*%
%IPPOS*%
%LPD*%
%AMOC8*
5,1,8,0,0,1.08239X$1,22.5*
%
%ADD10C,0.406*%
%ADD11C,0.000*%
%ADD12C,2.302*%
%ADD13C,0.254*%
%ADD14C,0.330*%
%ADD15C,1.524*%
%ADD16C,0.110*%
%ADD17C,0.118*%
%ADD18C,1.778*%
%ADD19C,2.102*%
%ADD20C,0.150*%
%ADD21C,0.120*%
%ADD22C,0.420*%
%ADD23C,2.642*%
%ADD24C,0.144*%
%ADD25C,1.089*%
%ADD26C,1.642*%
%ADD27C,1.102*%
%ADD28C,1.502*%
D10*
X10601Y44154D02*
X10601Y96214D01*
X94421Y96224D01*
X94421Y44154D01*
X10601Y44154D01*
D11*
X11501Y94154D02*
X11503Y94220D01*
X11509Y94285D01*
X11519Y94350D01*
X11532Y94415D01*
X11550Y94478D01*
X11571Y94541D01*
X11596Y94601D01*
X11625Y94661D01*
X11657Y94718D01*
X11692Y94774D01*
X11731Y94827D01*
X11773Y94878D01*
X11817Y94926D01*
X11865Y94971D01*
X11915Y95014D01*
X11968Y95053D01*
X12023Y95090D01*
X12080Y95123D01*
X12139Y95152D01*
X12199Y95178D01*
X12261Y95200D01*
X12324Y95219D01*
X12388Y95233D01*
X12453Y95244D01*
X12519Y95251D01*
X12585Y95254D01*
X12650Y95253D01*
X12716Y95248D01*
X12781Y95239D01*
X12846Y95226D01*
X12909Y95210D01*
X12972Y95190D01*
X13033Y95165D01*
X13093Y95138D01*
X13151Y95107D01*
X13207Y95072D01*
X13261Y95034D01*
X13312Y94993D01*
X13361Y94949D01*
X13407Y94902D01*
X13451Y94853D01*
X13491Y94801D01*
X13528Y94746D01*
X13562Y94690D01*
X13592Y94631D01*
X13619Y94571D01*
X13642Y94510D01*
X13661Y94447D01*
X13677Y94383D01*
X13689Y94318D01*
X13697Y94253D01*
X13701Y94187D01*
X13701Y94121D01*
X13697Y94055D01*
X13689Y93990D01*
X13677Y93925D01*
X13661Y93861D01*
X13642Y93798D01*
X13619Y93737D01*
X13592Y93677D01*
X13562Y93618D01*
X13528Y93562D01*
X13491Y93507D01*
X13451Y93455D01*
X13407Y93406D01*
X13361Y93359D01*
X13312Y93315D01*
X13261Y93274D01*
X13207Y93236D01*
X13151Y93201D01*
X13093Y93170D01*
X13033Y93143D01*
X12972Y93118D01*
X12909Y93098D01*
X12846Y93082D01*
X12781Y93069D01*
X12716Y93060D01*
X12650Y93055D01*
X12585Y93054D01*
X12519Y93057D01*
X12453Y93064D01*
X12388Y93075D01*
X12324Y93089D01*
X12261Y93108D01*
X12199Y93130D01*
X12139Y93156D01*
X12080Y93185D01*
X12023Y93218D01*
X11968Y93255D01*
X11915Y93294D01*
X11865Y93337D01*
X11817Y93382D01*
X11773Y93430D01*
X11731Y93481D01*
X11692Y93534D01*
X11657Y93590D01*
X11625Y93647D01*
X11596Y93707D01*
X11571Y93767D01*
X11550Y93830D01*
X11532Y93893D01*
X11519Y93958D01*
X11509Y94023D01*
X11503Y94088D01*
X11501Y94154D01*
X75501Y46154D02*
X75503Y46220D01*
X75509Y46285D01*
X75519Y46350D01*
X75532Y46415D01*
X75550Y46478D01*
X75571Y46541D01*
X75596Y46601D01*
X75625Y46661D01*
X75657Y46718D01*
X75692Y46774D01*
X75731Y46827D01*
X75773Y46878D01*
X75817Y46926D01*
X75865Y46971D01*
X75915Y47014D01*
X75968Y47053D01*
X76023Y47090D01*
X76080Y47123D01*
X76139Y47152D01*
X76199Y47178D01*
X76261Y47200D01*
X76324Y47219D01*
X76388Y47233D01*
X76453Y47244D01*
X76519Y47251D01*
X76585Y47254D01*
X76650Y47253D01*
X76716Y47248D01*
X76781Y47239D01*
X76846Y47226D01*
X76909Y47210D01*
X76972Y47190D01*
X77033Y47165D01*
X77093Y47138D01*
X77151Y47107D01*
X77207Y47072D01*
X77261Y47034D01*
X77312Y46993D01*
X77361Y46949D01*
X77407Y46902D01*
X77451Y46853D01*
X77491Y46801D01*
X77528Y46746D01*
X77562Y46690D01*
X77592Y46631D01*
X77619Y46571D01*
X77642Y46510D01*
X77661Y46447D01*
X77677Y46383D01*
X77689Y46318D01*
X77697Y46253D01*
X77701Y46187D01*
X77701Y46121D01*
X77697Y46055D01*
X77689Y45990D01*
X77677Y45925D01*
X77661Y45861D01*
X77642Y45798D01*
X77619Y45737D01*
X77592Y45677D01*
X77562Y45618D01*
X77528Y45562D01*
X77491Y45507D01*
X77451Y45455D01*
X77407Y45406D01*
X77361Y45359D01*
X77312Y45315D01*
X77261Y45274D01*
X77207Y45236D01*
X77151Y45201D01*
X77093Y45170D01*
X77033Y45143D01*
X76972Y45118D01*
X76909Y45098D01*
X76846Y45082D01*
X76781Y45069D01*
X76716Y45060D01*
X76650Y45055D01*
X76585Y45054D01*
X76519Y45057D01*
X76453Y45064D01*
X76388Y45075D01*
X76324Y45089D01*
X76261Y45108D01*
X76199Y45130D01*
X76139Y45156D01*
X76080Y45185D01*
X76023Y45218D01*
X75968Y45255D01*
X75915Y45294D01*
X75865Y45337D01*
X75817Y45382D01*
X75773Y45430D01*
X75731Y45481D01*
X75692Y45534D01*
X75657Y45590D01*
X75625Y45647D01*
X75596Y45707D01*
X75571Y45767D01*
X75550Y45830D01*
X75532Y45893D01*
X75519Y45958D01*
X75509Y46023D01*
X75503Y46088D01*
X75501Y46154D01*
X91501Y94154D02*
X91503Y94220D01*
X91509Y94285D01*
X91519Y94350D01*
X91532Y94415D01*
X91550Y94478D01*
X91571Y94541D01*
X91596Y94601D01*
X91625Y94661D01*
X91657Y94718D01*
X91692Y94774D01*
X91731Y94827D01*
X91773Y94878D01*
X91817Y94926D01*
X91865Y94971D01*
X91915Y95014D01*
X91968Y95053D01*
X92023Y95090D01*
X92080Y95123D01*
X92139Y95152D01*
X92199Y95178D01*
X92261Y95200D01*
X92324Y95219D01*
X92388Y95233D01*
X92453Y95244D01*
X92519Y95251D01*
X92585Y95254D01*
X92650Y95253D01*
X92716Y95248D01*
X92781Y95239D01*
X92846Y95226D01*
X92909Y95210D01*
X92972Y95190D01*
X93033Y95165D01*
X93093Y95138D01*
X93151Y95107D01*
X93207Y95072D01*
X93261Y95034D01*
X93312Y94993D01*
X93361Y94949D01*
X93407Y94902D01*
X93451Y94853D01*
X93491Y94801D01*
X93528Y94746D01*
X93562Y94690D01*
X93592Y94631D01*
X93619Y94571D01*
X93642Y94510D01*
X93661Y94447D01*
X93677Y94383D01*
X93689Y94318D01*
X93697Y94253D01*
X93701Y94187D01*
X93701Y94121D01*
X93697Y94055D01*
X93689Y93990D01*
X93677Y93925D01*
X93661Y93861D01*
X93642Y93798D01*
X93619Y93737D01*
X93592Y93677D01*
X93562Y93618D01*
X93528Y93562D01*
X93491Y93507D01*
X93451Y93455D01*
X93407Y93406D01*
X93361Y93359D01*
X93312Y93315D01*
X93261Y93274D01*
X93207Y93236D01*
X93151Y93201D01*
X93093Y93170D01*
X93033Y93143D01*
X92972Y93118D01*
X92909Y93098D01*
X92846Y93082D01*
X92781Y93069D01*
X92716Y93060D01*
X92650Y93055D01*
X92585Y93054D01*
X92519Y93057D01*
X92453Y93064D01*
X92388Y93075D01*
X92324Y93089D01*
X92261Y93108D01*
X92199Y93130D01*
X92139Y93156D01*
X92080Y93185D01*
X92023Y93218D01*
X91968Y93255D01*
X91915Y93294D01*
X91865Y93337D01*
X91817Y93382D01*
X91773Y93430D01*
X91731Y93481D01*
X91692Y93534D01*
X91657Y93590D01*
X91625Y93647D01*
X91596Y93707D01*
X91571Y93767D01*
X91550Y93830D01*
X91532Y93893D01*
X91519Y93958D01*
X91509Y94023D01*
X91503Y94088D01*
X91501Y94154D01*
D12*
X92601Y94154D03*
X76601Y46154D03*
X12601Y94154D03*
D13*
X49971Y62331D02*
X55686Y62331D01*
X55686Y56616D01*
X49971Y56616D01*
X49971Y62331D01*
X49971Y62081D02*
X55686Y62081D01*
X55686Y61829D02*
X49971Y61829D01*
X49971Y61576D02*
X55686Y61576D01*
X55686Y61324D02*
X49971Y61324D01*
X49971Y61071D02*
X55686Y61071D01*
X55686Y60819D02*
X49971Y60819D01*
X49971Y60566D02*
X55686Y60566D01*
X55686Y60314D02*
X49971Y60314D01*
X49971Y60061D02*
X55686Y60061D01*
X55686Y59809D02*
X49971Y59809D01*
X49971Y59556D02*
X55686Y59556D01*
X55686Y59304D02*
X49971Y59304D01*
X49971Y59051D02*
X55686Y59051D01*
X55686Y58799D02*
X49971Y58799D01*
X49971Y58546D02*
X55686Y58546D01*
X55686Y58294D02*
X49971Y58294D01*
X49971Y58041D02*
X55686Y58041D01*
X55686Y57789D02*
X49971Y57789D01*
X49971Y57536D02*
X55686Y57536D01*
X55686Y57284D02*
X49971Y57284D01*
X49971Y57031D02*
X55686Y57031D01*
X55686Y56779D02*
X49971Y56779D01*
D14*
X63707Y57235D02*
X63707Y58007D01*
X63707Y57235D02*
X62935Y57235D01*
X62935Y58007D01*
X63707Y58007D01*
X63707Y57564D02*
X62935Y57564D01*
X62935Y57893D02*
X63707Y57893D01*
X63707Y56307D02*
X63707Y55535D01*
X62935Y55535D01*
X62935Y56307D01*
X63707Y56307D01*
X63707Y55864D02*
X62935Y55864D01*
X62935Y56193D02*
X63707Y56193D01*
X72230Y57240D02*
X73002Y57240D01*
X73002Y56468D01*
X72230Y56468D01*
X72230Y57240D01*
X72230Y56797D02*
X73002Y56797D01*
X73002Y57126D02*
X72230Y57126D01*
X73930Y57240D02*
X74702Y57240D01*
X74702Y56468D01*
X73930Y56468D01*
X73930Y57240D01*
X73930Y56797D02*
X74702Y56797D01*
X74702Y57126D02*
X73930Y57126D01*
X73930Y54700D02*
X74702Y54700D01*
X74702Y53928D01*
X73930Y53928D01*
X73930Y54700D01*
X73930Y54257D02*
X74702Y54257D01*
X74702Y54586D02*
X73930Y54586D01*
X73002Y54700D02*
X72230Y54700D01*
X73002Y54700D02*
X73002Y53928D01*
X72230Y53928D01*
X72230Y54700D01*
X72230Y54257D02*
X73002Y54257D01*
X73002Y54586D02*
X72230Y54586D01*
X72230Y52160D02*
X73002Y52160D01*
X73002Y51388D01*
X72230Y51388D01*
X72230Y52160D01*
X72230Y51717D02*
X73002Y51717D01*
X73002Y52046D02*
X72230Y52046D01*
X73930Y52160D02*
X74702Y52160D01*
X74702Y51388D01*
X73930Y51388D01*
X73930Y52160D01*
X73930Y51717D02*
X74702Y51717D01*
X74702Y52046D02*
X73930Y52046D01*
X73930Y49620D02*
X74702Y49620D01*
X74702Y48848D01*
X73930Y48848D01*
X73930Y49620D01*
X73930Y49177D02*
X74702Y49177D01*
X74702Y49506D02*
X73930Y49506D01*
X73002Y49620D02*
X72230Y49620D01*
X73002Y49620D02*
X73002Y48848D01*
X72230Y48848D01*
X72230Y49620D01*
X72230Y49177D02*
X73002Y49177D01*
X73002Y49506D02*
X72230Y49506D01*
X72230Y59780D02*
X73002Y59780D01*
X73002Y59008D01*
X72230Y59008D01*
X72230Y59780D01*
X72230Y59337D02*
X73002Y59337D01*
X73002Y59666D02*
X72230Y59666D01*
X73930Y59780D02*
X74702Y59780D01*
X74702Y59008D01*
X73930Y59008D01*
X73930Y59780D01*
X73930Y59337D02*
X74702Y59337D01*
X74702Y59666D02*
X73930Y59666D01*
X73930Y62320D02*
X74702Y62320D01*
X74702Y61548D01*
X73930Y61548D01*
X73930Y62320D01*
X73930Y61877D02*
X74702Y61877D01*
X74702Y62206D02*
X73930Y62206D01*
X73002Y62320D02*
X72230Y62320D01*
X73002Y62320D02*
X73002Y61548D01*
X72230Y61548D01*
X72230Y62320D01*
X72230Y61877D02*
X73002Y61877D01*
X73002Y62206D02*
X72230Y62206D01*
X72230Y64860D02*
X73002Y64860D01*
X73002Y64088D01*
X72230Y64088D01*
X72230Y64860D01*
X72230Y64417D02*
X73002Y64417D01*
X73002Y64746D02*
X72230Y64746D01*
X73930Y64860D02*
X74702Y64860D01*
X74702Y64088D01*
X73930Y64088D01*
X73930Y64860D01*
X73930Y64417D02*
X74702Y64417D01*
X74702Y64746D02*
X73930Y64746D01*
X73930Y67400D02*
X74702Y67400D01*
X74702Y66628D01*
X73930Y66628D01*
X73930Y67400D01*
X73930Y66957D02*
X74702Y66957D01*
X74702Y67286D02*
X73930Y67286D01*
X73002Y67400D02*
X72230Y67400D01*
X73002Y67400D02*
X73002Y66628D01*
X72230Y66628D01*
X72230Y67400D01*
X72230Y66957D02*
X73002Y66957D01*
X73002Y67286D02*
X72230Y67286D01*
X72230Y69940D02*
X73002Y69940D01*
X73002Y69168D01*
X72230Y69168D01*
X72230Y69940D01*
X72230Y69497D02*
X73002Y69497D01*
X73002Y69826D02*
X72230Y69826D01*
X73930Y69940D02*
X74702Y69940D01*
X74702Y69168D01*
X73930Y69168D01*
X73930Y69940D01*
X73930Y69497D02*
X74702Y69497D01*
X74702Y69826D02*
X73930Y69826D01*
X73930Y72480D02*
X74702Y72480D01*
X74702Y71708D01*
X73930Y71708D01*
X73930Y72480D01*
X73930Y72037D02*
X74702Y72037D01*
X74702Y72366D02*
X73930Y72366D01*
X73002Y72480D02*
X72230Y72480D01*
X73002Y72480D02*
X73002Y71708D01*
X72230Y71708D01*
X72230Y72480D01*
X72230Y72037D02*
X73002Y72037D01*
X73002Y72366D02*
X72230Y72366D01*
X72230Y75020D02*
X73002Y75020D01*
X73002Y74248D01*
X72230Y74248D01*
X72230Y75020D01*
X72230Y74577D02*
X73002Y74577D01*
X73002Y74906D02*
X72230Y74906D01*
X73930Y75020D02*
X74702Y75020D01*
X74702Y74248D01*
X73930Y74248D01*
X73930Y75020D01*
X73930Y74577D02*
X74702Y74577D01*
X74702Y74906D02*
X73930Y74906D01*
X73930Y77560D02*
X74702Y77560D01*
X74702Y76788D01*
X73930Y76788D01*
X73930Y77560D01*
X73930Y77117D02*
X74702Y77117D01*
X74702Y77446D02*
X73930Y77446D01*
X73002Y77560D02*
X72230Y77560D01*
X73002Y77560D02*
X73002Y76788D01*
X72230Y76788D01*
X72230Y77560D01*
X72230Y77117D02*
X73002Y77117D01*
X73002Y77446D02*
X72230Y77446D01*
X70734Y79804D02*
X69962Y79804D01*
X69962Y80576D01*
X70734Y80576D01*
X70734Y79804D01*
X70734Y80133D02*
X69962Y80133D01*
X69962Y80462D02*
X70734Y80462D01*
X69034Y79804D02*
X68262Y79804D01*
X68262Y80576D01*
X69034Y80576D01*
X69034Y79804D01*
X69034Y80133D02*
X68262Y80133D01*
X68262Y80462D02*
X69034Y80462D01*
X69034Y86313D02*
X68262Y86313D01*
X68262Y87085D01*
X69034Y87085D01*
X69034Y86313D01*
X69034Y86642D02*
X68262Y86642D01*
X68262Y86971D02*
X69034Y86971D01*
X69034Y87583D02*
X68262Y87583D01*
X68262Y88355D01*
X69034Y88355D01*
X69034Y87583D01*
X69034Y87912D02*
X68262Y87912D01*
X68262Y88241D02*
X69034Y88241D01*
X69962Y87583D02*
X70734Y87583D01*
X69962Y87583D02*
X69962Y88355D01*
X70734Y88355D01*
X70734Y87583D01*
X70734Y87912D02*
X69962Y87912D01*
X69962Y88241D02*
X70734Y88241D01*
X70734Y86313D02*
X69962Y86313D01*
X69962Y87085D01*
X70734Y87085D01*
X70734Y86313D01*
X70734Y86642D02*
X69962Y86642D01*
X69962Y86971D02*
X70734Y86971D01*
X57342Y85236D02*
X57342Y84464D01*
X56570Y84464D01*
X56570Y85236D01*
X57342Y85236D01*
X57342Y84793D02*
X56570Y84793D01*
X56570Y85122D02*
X57342Y85122D01*
X57342Y83536D02*
X57342Y82764D01*
X56570Y82764D01*
X56570Y83536D01*
X57342Y83536D01*
X57342Y83093D02*
X56570Y83093D01*
X56570Y83422D02*
X57342Y83422D01*
X40095Y77560D02*
X39323Y77560D01*
X40095Y77560D02*
X40095Y76788D01*
X39323Y76788D01*
X39323Y77560D01*
X39323Y77117D02*
X40095Y77117D01*
X40095Y77446D02*
X39323Y77446D01*
X38395Y77560D02*
X37623Y77560D01*
X38395Y77560D02*
X38395Y76788D01*
X37623Y76788D01*
X37623Y77560D01*
X37623Y77117D02*
X38395Y77117D01*
X38395Y77446D02*
X37623Y77446D01*
X37838Y78636D02*
X37838Y79408D01*
X38610Y79408D01*
X38610Y78636D01*
X37838Y78636D01*
X37838Y78965D02*
X38610Y78965D01*
X38610Y79294D02*
X37838Y79294D01*
X37838Y80336D02*
X37838Y81108D01*
X38610Y81108D01*
X38610Y80336D01*
X37838Y80336D01*
X37838Y80665D02*
X38610Y80665D01*
X38610Y80994D02*
X37838Y80994D01*
X34062Y79328D02*
X33290Y79328D01*
X33290Y80100D01*
X34062Y80100D01*
X34062Y79328D01*
X34062Y79657D02*
X33290Y79657D01*
X33290Y79986D02*
X34062Y79986D01*
X32362Y79328D02*
X31590Y79328D01*
X31590Y80100D01*
X32362Y80100D01*
X32362Y79328D01*
X32362Y79657D02*
X31590Y79657D01*
X31590Y79986D02*
X32362Y79986D01*
X32362Y76788D02*
X31590Y76788D01*
X31590Y77560D01*
X32362Y77560D01*
X32362Y76788D01*
X32362Y77117D02*
X31590Y77117D01*
X31590Y77446D02*
X32362Y77446D01*
X33290Y76788D02*
X34062Y76788D01*
X33290Y76788D02*
X33290Y77560D01*
X34062Y77560D01*
X34062Y76788D01*
X34062Y77117D02*
X33290Y77117D01*
X33290Y77446D02*
X34062Y77446D01*
X34062Y74248D02*
X33290Y74248D01*
X33290Y75020D01*
X34062Y75020D01*
X34062Y74248D01*
X34062Y74577D02*
X33290Y74577D01*
X33290Y74906D02*
X34062Y74906D01*
X32362Y74248D02*
X31590Y74248D01*
X31590Y75020D01*
X32362Y75020D01*
X32362Y74248D01*
X32362Y74577D02*
X31590Y74577D01*
X31590Y74906D02*
X32362Y74906D01*
X32362Y71708D02*
X31590Y71708D01*
X31590Y72480D01*
X32362Y72480D01*
X32362Y71708D01*
X32362Y72037D02*
X31590Y72037D01*
X31590Y72366D02*
X32362Y72366D01*
X33290Y71708D02*
X34062Y71708D01*
X33290Y71708D02*
X33290Y72480D01*
X34062Y72480D01*
X34062Y71708D01*
X34062Y72037D02*
X33290Y72037D01*
X33290Y72366D02*
X34062Y72366D01*
X34062Y69168D02*
X33290Y69168D01*
X33290Y69940D01*
X34062Y69940D01*
X34062Y69168D01*
X34062Y69497D02*
X33290Y69497D01*
X33290Y69826D02*
X34062Y69826D01*
X32362Y69168D02*
X31590Y69168D01*
X31590Y69940D01*
X32362Y69940D01*
X32362Y69168D01*
X32362Y69497D02*
X31590Y69497D01*
X31590Y69826D02*
X32362Y69826D01*
X32362Y66628D02*
X31590Y66628D01*
X31590Y67400D01*
X32362Y67400D01*
X32362Y66628D01*
X32362Y66957D02*
X31590Y66957D01*
X31590Y67286D02*
X32362Y67286D01*
X33290Y66628D02*
X34062Y66628D01*
X33290Y66628D02*
X33290Y67400D01*
X34062Y67400D01*
X34062Y66628D01*
X34062Y66957D02*
X33290Y66957D01*
X33290Y67286D02*
X34062Y67286D01*
X34062Y64088D02*
X33290Y64088D01*
X33290Y64860D01*
X34062Y64860D01*
X34062Y64088D01*
X34062Y64417D02*
X33290Y64417D01*
X33290Y64746D02*
X34062Y64746D01*
X32362Y64088D02*
X31590Y64088D01*
X31590Y64860D01*
X32362Y64860D01*
X32362Y64088D01*
X32362Y64417D02*
X31590Y64417D01*
X31590Y64746D02*
X32362Y64746D01*
X32362Y61548D02*
X31590Y61548D01*
X31590Y62320D01*
X32362Y62320D01*
X32362Y61548D01*
X32362Y61877D02*
X31590Y61877D01*
X31590Y62206D02*
X32362Y62206D01*
X33290Y61548D02*
X34062Y61548D01*
X33290Y61548D02*
X33290Y62320D01*
X34062Y62320D01*
X34062Y61548D01*
X34062Y61877D02*
X33290Y61877D01*
X33290Y62206D02*
X34062Y62206D01*
X34062Y59008D02*
X33290Y59008D01*
X33290Y59780D01*
X34062Y59780D01*
X34062Y59008D01*
X34062Y59337D02*
X33290Y59337D01*
X33290Y59666D02*
X34062Y59666D01*
X32362Y59008D02*
X31590Y59008D01*
X31590Y59780D01*
X32362Y59780D01*
X32362Y59008D01*
X32362Y59337D02*
X31590Y59337D01*
X31590Y59666D02*
X32362Y59666D01*
X32362Y56468D02*
X31590Y56468D01*
X31590Y57240D01*
X32362Y57240D01*
X32362Y56468D01*
X32362Y56797D02*
X31590Y56797D01*
X31590Y57126D02*
X32362Y57126D01*
X33290Y56468D02*
X34062Y56468D01*
X33290Y56468D02*
X33290Y57240D01*
X34062Y57240D01*
X34062Y56468D01*
X34062Y56797D02*
X33290Y56797D01*
X33290Y57126D02*
X34062Y57126D01*
X34062Y53928D02*
X33290Y53928D01*
X33290Y54700D01*
X34062Y54700D01*
X34062Y53928D01*
X34062Y54257D02*
X33290Y54257D01*
X33290Y54586D02*
X34062Y54586D01*
X32362Y53928D02*
X31590Y53928D01*
X31590Y54700D01*
X32362Y54700D01*
X32362Y53928D01*
X32362Y54257D02*
X31590Y54257D01*
X31590Y54586D02*
X32362Y54586D01*
X32362Y51388D02*
X31590Y51388D01*
X31590Y52160D01*
X32362Y52160D01*
X32362Y51388D01*
X32362Y51717D02*
X31590Y51717D01*
X31590Y52046D02*
X32362Y52046D01*
X33290Y51388D02*
X34062Y51388D01*
X33290Y51388D02*
X33290Y52160D01*
X34062Y52160D01*
X34062Y51388D01*
X34062Y51717D02*
X33290Y51717D01*
X33290Y52046D02*
X34062Y52046D01*
X34062Y48848D02*
X33290Y48848D01*
X33290Y49620D01*
X34062Y49620D01*
X34062Y48848D01*
X34062Y49177D02*
X33290Y49177D01*
X33290Y49506D02*
X34062Y49506D01*
X32362Y48848D02*
X31590Y48848D01*
X31590Y49620D01*
X32362Y49620D01*
X32362Y48848D01*
X32362Y49177D02*
X31590Y49177D01*
X31590Y49506D02*
X32362Y49506D01*
X32362Y46308D02*
X31590Y46308D01*
X31590Y47080D01*
X32362Y47080D01*
X32362Y46308D01*
X32362Y46637D02*
X31590Y46637D01*
X31590Y46966D02*
X32362Y46966D01*
X33290Y46308D02*
X34062Y46308D01*
X33290Y46308D02*
X33290Y47080D01*
X34062Y47080D01*
X34062Y46308D01*
X34062Y46637D02*
X33290Y46637D01*
X33290Y46966D02*
X34062Y46966D01*
X37203Y69588D02*
X37203Y70360D01*
X37975Y70360D01*
X37975Y69588D01*
X37203Y69588D01*
X37203Y69917D02*
X37975Y69917D01*
X37975Y70246D02*
X37203Y70246D01*
X37203Y71288D02*
X37203Y72060D01*
X37975Y72060D01*
X37975Y71288D01*
X37203Y71288D01*
X37203Y71617D02*
X37975Y71617D01*
X37975Y71946D02*
X37203Y71946D01*
D15*
X36001Y72094D03*
X36001Y69554D03*
X36001Y67014D03*
X36001Y64474D03*
X36001Y61934D03*
X36001Y59394D03*
X36001Y56854D03*
X36001Y54314D03*
X36001Y51774D03*
X36001Y49234D03*
X36001Y46694D03*
X24571Y46694D03*
X22031Y46694D03*
X19491Y46694D03*
X16951Y46694D03*
X14411Y46694D03*
X11871Y46694D03*
X11871Y49234D03*
X11871Y51774D03*
X14411Y51774D03*
X14411Y49234D03*
X16951Y49234D03*
X16951Y51774D03*
X16951Y54314D03*
X14411Y54314D03*
X11871Y54314D03*
X11871Y56854D03*
X14411Y56854D03*
X16951Y56854D03*
X16951Y59394D03*
X14411Y59394D03*
X11871Y59394D03*
X11871Y61934D03*
X14411Y61934D03*
X16951Y61934D03*
X16951Y64474D03*
X14411Y64474D03*
X11871Y64474D03*
X11871Y67014D03*
X14411Y67014D03*
X16951Y67014D03*
X16951Y69554D03*
X14411Y69554D03*
X11871Y69554D03*
X11871Y72094D03*
X14411Y72094D03*
X16951Y72094D03*
X16951Y74634D03*
X14411Y74634D03*
X11871Y74634D03*
X11871Y77174D03*
X14411Y77174D03*
X16951Y77174D03*
X16951Y79714D03*
X14411Y79714D03*
X11871Y79714D03*
X11871Y82254D03*
X14411Y82254D03*
X16951Y82254D03*
X16951Y84794D03*
X14411Y84794D03*
X11871Y84794D03*
X11871Y87334D03*
X14411Y87334D03*
X16951Y87334D03*
X16951Y89874D03*
X14411Y89874D03*
X11871Y89874D03*
X19491Y89874D03*
X22031Y89874D03*
X24571Y89874D03*
X24571Y87334D03*
X22031Y87334D03*
X19491Y87334D03*
X19491Y84794D03*
X22031Y84794D03*
X24571Y84794D03*
X24571Y82254D03*
X22031Y82254D03*
X19491Y82254D03*
X19491Y79714D03*
X22031Y79714D03*
X24571Y79714D03*
X24571Y77174D03*
X22031Y77174D03*
X19491Y77174D03*
X19491Y74634D03*
X22031Y74634D03*
X24571Y74634D03*
X24571Y72094D03*
X22031Y72094D03*
X19491Y72094D03*
X19491Y69554D03*
X22031Y69554D03*
X24571Y69554D03*
X24571Y67014D03*
X22031Y67014D03*
X19491Y67014D03*
X19491Y64474D03*
X22031Y64474D03*
X24571Y64474D03*
X24571Y61934D03*
X22031Y61934D03*
X19491Y61934D03*
X19491Y59394D03*
X22031Y59394D03*
X24571Y59394D03*
X24571Y56854D03*
X22031Y56854D03*
X19491Y56854D03*
X19491Y54314D03*
X22031Y54314D03*
X24571Y54314D03*
X24571Y51774D03*
X22031Y51774D03*
X19491Y51774D03*
X19491Y49234D03*
X22031Y49234D03*
X24571Y49234D03*
X42351Y73364D03*
X44891Y73364D03*
X44891Y75904D03*
X42351Y75904D03*
X42351Y78444D03*
X44891Y78444D03*
X44891Y80984D03*
X42351Y80984D03*
X39811Y80984D03*
X39811Y83524D03*
X42351Y83524D03*
X44891Y83524D03*
X44891Y86064D03*
X42351Y86064D03*
X39811Y86064D03*
X37271Y86064D03*
X34731Y86064D03*
X32191Y86064D03*
X32191Y83524D03*
X34731Y83524D03*
X37271Y83524D03*
X36001Y79714D03*
X36001Y77174D03*
X36001Y74634D03*
X47431Y75904D03*
X47431Y78444D03*
X49971Y75904D03*
X52511Y75904D03*
X52511Y73364D03*
X49971Y73364D03*
X47431Y73364D03*
X55051Y73364D03*
X57591Y73364D03*
X60131Y73364D03*
X60131Y75904D03*
X57591Y75904D03*
X55051Y75904D03*
X57591Y78444D03*
X60131Y78444D03*
X60131Y80984D03*
X57591Y80984D03*
X62671Y78444D03*
X62671Y75904D03*
X69021Y77174D03*
X69021Y74634D03*
X69021Y72094D03*
X69021Y69554D03*
X69021Y67014D03*
X69021Y64474D03*
X69021Y61934D03*
X69021Y59394D03*
X69021Y56854D03*
X69021Y54314D03*
X69021Y51774D03*
X69021Y49234D03*
X80451Y49234D03*
X80451Y51774D03*
X80451Y54314D03*
X80451Y56854D03*
X80451Y59394D03*
X80451Y61934D03*
X80451Y64474D03*
X80451Y67014D03*
X80451Y69554D03*
X80451Y72094D03*
X80451Y74634D03*
X80451Y77174D03*
X82991Y77174D03*
X82991Y74634D03*
X85531Y74634D03*
X85531Y77174D03*
X88071Y77174D03*
X88071Y74634D03*
X88071Y72094D03*
X85531Y72094D03*
X82991Y72094D03*
X82991Y69554D03*
X85531Y69554D03*
X88071Y69554D03*
X88071Y67014D03*
X85531Y67014D03*
X82991Y67014D03*
X82991Y64474D03*
X85531Y64474D03*
X88071Y64474D03*
X88071Y61934D03*
X85531Y61934D03*
X82991Y61934D03*
X82991Y59394D03*
X85531Y59394D03*
X88071Y59394D03*
X88071Y56854D03*
X85531Y56854D03*
X82991Y56854D03*
X82991Y54314D03*
X85531Y54314D03*
X88071Y54314D03*
X88071Y51774D03*
X85531Y51774D03*
X82991Y51774D03*
X82991Y49234D03*
X85531Y49234D03*
X88071Y49234D03*
X90611Y49234D03*
X90611Y51774D03*
X93151Y51774D03*
X93151Y49234D03*
X93151Y54314D03*
X90611Y54314D03*
X90611Y56854D03*
X93151Y56854D03*
X93151Y59394D03*
X90611Y59394D03*
X90611Y61934D03*
X93151Y61934D03*
X93151Y64474D03*
X90611Y64474D03*
X90611Y67014D03*
X93151Y67014D03*
X93151Y69554D03*
X90611Y69554D03*
X90611Y72094D03*
X93151Y72094D03*
X93151Y74634D03*
X90611Y74634D03*
X90611Y77174D03*
X93151Y77174D03*
X82991Y82254D03*
X82991Y84794D03*
X82991Y87334D03*
X83944Y91937D03*
X86484Y91937D03*
X86484Y94477D03*
X83944Y94477D03*
X81404Y94477D03*
X81404Y91937D03*
X72831Y84794D03*
X72831Y82254D03*
X65211Y91144D03*
X62671Y91144D03*
X57591Y88604D03*
X55051Y88604D03*
X52511Y88604D03*
X49971Y88604D03*
X47431Y88604D03*
X47431Y86064D03*
X47431Y83524D03*
X47431Y80984D03*
X80451Y46694D03*
X82991Y46694D03*
D16*
X41099Y74720D02*
X40107Y74720D01*
X40107Y76112D01*
X41099Y76112D01*
X41099Y74720D01*
X41099Y74829D02*
X40107Y74829D01*
X40107Y74938D02*
X41099Y74938D01*
X41099Y75047D02*
X40107Y75047D01*
X40107Y75156D02*
X41099Y75156D01*
X41099Y75265D02*
X40107Y75265D01*
X40107Y75374D02*
X41099Y75374D01*
X41099Y75483D02*
X40107Y75483D01*
X40107Y75592D02*
X41099Y75592D01*
X41099Y75701D02*
X40107Y75701D01*
X40107Y75810D02*
X41099Y75810D01*
X41099Y75919D02*
X40107Y75919D01*
X40107Y76028D02*
X41099Y76028D01*
X39199Y74720D02*
X38207Y74720D01*
X38207Y76112D01*
X39199Y76112D01*
X39199Y74720D01*
X39199Y74829D02*
X38207Y74829D01*
X38207Y74938D02*
X39199Y74938D01*
X39199Y75047D02*
X38207Y75047D01*
X38207Y75156D02*
X39199Y75156D01*
X39199Y75265D02*
X38207Y75265D01*
X38207Y75374D02*
X39199Y75374D01*
X39199Y75483D02*
X38207Y75483D01*
X38207Y75592D02*
X39199Y75592D01*
X39199Y75701D02*
X38207Y75701D01*
X38207Y75810D02*
X39199Y75810D01*
X39199Y75919D02*
X38207Y75919D01*
X38207Y76028D02*
X39199Y76028D01*
X39157Y72520D02*
X40149Y72520D01*
X39157Y72520D02*
X39157Y73912D01*
X40149Y73912D01*
X40149Y72520D01*
X40149Y72629D02*
X39157Y72629D01*
X39157Y72738D02*
X40149Y72738D01*
X40149Y72847D02*
X39157Y72847D01*
X39157Y72956D02*
X40149Y72956D01*
X40149Y73065D02*
X39157Y73065D01*
X39157Y73174D02*
X40149Y73174D01*
X40149Y73283D02*
X39157Y73283D01*
X39157Y73392D02*
X40149Y73392D01*
X40149Y73501D02*
X39157Y73501D01*
X39157Y73610D02*
X40149Y73610D01*
X40149Y73719D02*
X39157Y73719D01*
X39157Y73828D02*
X40149Y73828D01*
D17*
X69333Y81468D02*
X69333Y82722D01*
X69333Y81468D02*
X68715Y81468D01*
X68715Y82722D01*
X69333Y82722D01*
X69333Y81585D02*
X68715Y81585D01*
X68715Y81702D02*
X69333Y81702D01*
X69333Y81819D02*
X68715Y81819D01*
X68715Y81936D02*
X69333Y81936D01*
X69333Y82053D02*
X68715Y82053D01*
X68715Y82170D02*
X69333Y82170D01*
X69333Y82287D02*
X68715Y82287D01*
X68715Y82404D02*
X69333Y82404D01*
X69333Y82521D02*
X68715Y82521D01*
X68715Y82638D02*
X69333Y82638D01*
X71233Y82722D02*
X71233Y81468D01*
X70615Y81468D01*
X70615Y82722D01*
X71233Y82722D01*
X71233Y81585D02*
X70615Y81585D01*
X70615Y81702D02*
X71233Y81702D01*
X71233Y81819D02*
X70615Y81819D01*
X70615Y81936D02*
X71233Y81936D01*
X71233Y82053D02*
X70615Y82053D01*
X70615Y82170D02*
X71233Y82170D01*
X71233Y82287D02*
X70615Y82287D01*
X70615Y82404D02*
X71233Y82404D01*
X71233Y82521D02*
X70615Y82521D01*
X70615Y82638D02*
X71233Y82638D01*
X70615Y84008D02*
X70615Y85262D01*
X71233Y85262D01*
X71233Y84008D01*
X70615Y84008D01*
X70615Y84125D02*
X71233Y84125D01*
X71233Y84242D02*
X70615Y84242D01*
X70615Y84359D02*
X71233Y84359D01*
X71233Y84476D02*
X70615Y84476D01*
X70615Y84593D02*
X71233Y84593D01*
X71233Y84710D02*
X70615Y84710D01*
X70615Y84827D02*
X71233Y84827D01*
X71233Y84944D02*
X70615Y84944D01*
X70615Y85061D02*
X71233Y85061D01*
X71233Y85178D02*
X70615Y85178D01*
X69665Y85262D02*
X69665Y84008D01*
X69665Y85262D02*
X70283Y85262D01*
X70283Y84008D01*
X69665Y84008D01*
X69665Y84125D02*
X70283Y84125D01*
X70283Y84242D02*
X69665Y84242D01*
X69665Y84359D02*
X70283Y84359D01*
X70283Y84476D02*
X69665Y84476D01*
X69665Y84593D02*
X70283Y84593D01*
X70283Y84710D02*
X69665Y84710D01*
X69665Y84827D02*
X70283Y84827D01*
X70283Y84944D02*
X69665Y84944D01*
X69665Y85061D02*
X70283Y85061D01*
X70283Y85178D02*
X69665Y85178D01*
X68715Y85262D02*
X68715Y84008D01*
X68715Y85262D02*
X69333Y85262D01*
X69333Y84008D01*
X68715Y84008D01*
X68715Y84125D02*
X69333Y84125D01*
X69333Y84242D02*
X68715Y84242D01*
X68715Y84359D02*
X69333Y84359D01*
X69333Y84476D02*
X68715Y84476D01*
X68715Y84593D02*
X69333Y84593D01*
X69333Y84710D02*
X68715Y84710D01*
X68715Y84827D02*
X69333Y84827D01*
X69333Y84944D02*
X68715Y84944D01*
X68715Y85061D02*
X69333Y85061D01*
X69333Y85178D02*
X68715Y85178D01*
D18*
X76641Y86064D03*
X76641Y88604D03*
X76641Y91144D03*
X76641Y83524D03*
X76641Y80984D03*
X76641Y78444D03*
X76641Y73364D03*
X76641Y70824D03*
X76641Y68284D03*
X76641Y65744D03*
X76641Y63204D03*
X76641Y60664D03*
X76641Y58124D03*
X76641Y55584D03*
X28381Y56600D03*
X28381Y59140D03*
X28381Y61680D03*
X28381Y64220D03*
X28381Y66760D03*
X28381Y69300D03*
X28381Y73364D03*
X28381Y75904D03*
X28381Y78444D03*
X28381Y80984D03*
X28381Y83524D03*
X28381Y86064D03*
X28381Y88604D03*
X28381Y91144D03*
X28381Y54060D03*
X28381Y51520D03*
X28381Y48980D03*
X28381Y46440D03*
D19*
X90586Y82233D03*
X90586Y87313D03*
D20*
X89377Y81578D02*
X88025Y81578D01*
X88025Y82930D01*
X89377Y82930D01*
X89377Y81578D01*
X89377Y81727D02*
X88025Y81727D01*
X88025Y81876D02*
X89377Y81876D01*
X89377Y82025D02*
X88025Y82025D01*
X88025Y82174D02*
X89377Y82174D01*
X89377Y82323D02*
X88025Y82323D01*
X88025Y82472D02*
X89377Y82472D01*
X89377Y82621D02*
X88025Y82621D01*
X88025Y82770D02*
X89377Y82770D01*
X89377Y82919D02*
X88025Y82919D01*
X85577Y81578D02*
X84225Y81578D01*
X84225Y82930D01*
X85577Y82930D01*
X85577Y81578D01*
X85577Y81727D02*
X84225Y81727D01*
X84225Y81876D02*
X85577Y81876D01*
X85577Y82025D02*
X84225Y82025D01*
X84225Y82174D02*
X85577Y82174D01*
X85577Y82323D02*
X84225Y82323D01*
X84225Y82472D02*
X85577Y82472D01*
X85577Y82621D02*
X84225Y82621D01*
X84225Y82770D02*
X85577Y82770D01*
X85577Y82919D02*
X84225Y82919D01*
X63977Y89280D02*
X62625Y89280D01*
X63977Y89280D02*
X63977Y87928D01*
X62625Y87928D01*
X62625Y89280D01*
X62625Y88077D02*
X63977Y88077D01*
X63977Y88226D02*
X62625Y88226D01*
X62625Y88375D02*
X63977Y88375D01*
X63977Y88524D02*
X62625Y88524D01*
X62625Y88673D02*
X63977Y88673D01*
X63977Y88822D02*
X62625Y88822D01*
X62625Y88971D02*
X63977Y88971D01*
X63977Y89120D02*
X62625Y89120D01*
X62625Y89269D02*
X63977Y89269D01*
X60177Y89280D02*
X58825Y89280D01*
X60177Y89280D02*
X60177Y87928D01*
X58825Y87928D01*
X58825Y89280D01*
X58825Y88077D02*
X60177Y88077D01*
X60177Y88226D02*
X58825Y88226D01*
X58825Y88375D02*
X60177Y88375D01*
X60177Y88524D02*
X58825Y88524D01*
X58825Y88673D02*
X60177Y88673D01*
X60177Y88822D02*
X58825Y88822D01*
X58825Y88971D02*
X60177Y88971D01*
X60177Y89120D02*
X58825Y89120D01*
X58825Y89269D02*
X60177Y89269D01*
D21*
X84138Y87055D02*
X84138Y86373D01*
X84138Y87055D02*
X85020Y87055D01*
X85020Y86373D01*
X84138Y86373D01*
X84138Y86492D02*
X85020Y86492D01*
X85020Y86611D02*
X84138Y86611D01*
X84138Y86730D02*
X85020Y86730D01*
X85020Y86849D02*
X84138Y86849D01*
X84138Y86968D02*
X85020Y86968D01*
X84138Y85755D02*
X84138Y85073D01*
X84138Y85755D02*
X85020Y85755D01*
X85020Y85073D01*
X84138Y85073D01*
X84138Y85192D02*
X85020Y85192D01*
X85020Y85311D02*
X84138Y85311D01*
X84138Y85430D02*
X85020Y85430D01*
X85020Y85549D02*
X84138Y85549D01*
X84138Y85668D02*
X85020Y85668D01*
X85020Y84515D02*
X85020Y83833D01*
X84138Y83833D01*
X84138Y84515D01*
X85020Y84515D01*
X85020Y83952D02*
X84138Y83952D01*
X84138Y84071D02*
X85020Y84071D01*
X85020Y84190D02*
X84138Y84190D01*
X84138Y84309D02*
X85020Y84309D01*
X85020Y84428D02*
X84138Y84428D01*
X85020Y83215D02*
X85020Y82533D01*
X84138Y82533D01*
X84138Y83215D01*
X85020Y83215D01*
X85020Y82652D02*
X84138Y82652D01*
X84138Y82771D02*
X85020Y82771D01*
X85020Y82890D02*
X84138Y82890D01*
X84138Y83009D02*
X85020Y83009D01*
X85020Y83128D02*
X84138Y83128D01*
X88985Y46341D02*
X89667Y46341D01*
X89667Y45459D01*
X88985Y45459D01*
X88985Y46341D01*
X88985Y45578D02*
X89667Y45578D01*
X89667Y45697D02*
X88985Y45697D01*
X88985Y45816D02*
X89667Y45816D01*
X89667Y45935D02*
X88985Y45935D01*
X88985Y46054D02*
X89667Y46054D01*
X89667Y46173D02*
X88985Y46173D01*
X88985Y46292D02*
X89667Y46292D01*
X90285Y46341D02*
X90967Y46341D01*
X90967Y45459D01*
X90285Y45459D01*
X90285Y46341D01*
X90285Y45578D02*
X90967Y45578D01*
X90967Y45697D02*
X90285Y45697D01*
X90285Y45816D02*
X90967Y45816D01*
X90967Y45935D02*
X90285Y45935D01*
X90285Y46054D02*
X90967Y46054D01*
X90967Y46173D02*
X90285Y46173D01*
X90285Y46292D02*
X90967Y46292D01*
X70647Y45459D02*
X69965Y45459D01*
X69965Y46341D01*
X70647Y46341D01*
X70647Y45459D01*
X70647Y45578D02*
X69965Y45578D01*
X69965Y45697D02*
X70647Y45697D01*
X70647Y45816D02*
X69965Y45816D01*
X69965Y45935D02*
X70647Y45935D01*
X70647Y46054D02*
X69965Y46054D01*
X69965Y46173D02*
X70647Y46173D01*
X70647Y46292D02*
X69965Y46292D01*
X69347Y45459D02*
X68665Y45459D01*
X68665Y46341D01*
X69347Y46341D01*
X69347Y45459D01*
X69347Y45578D02*
X68665Y45578D01*
X68665Y45697D02*
X69347Y45697D01*
X69347Y45816D02*
X68665Y45816D01*
X68665Y45935D02*
X69347Y45935D01*
X69347Y46054D02*
X68665Y46054D01*
X68665Y46173D02*
X69347Y46173D01*
X69347Y46292D02*
X68665Y46292D01*
D22*
X23892Y87163D02*
X23892Y88145D01*
X23892Y87163D02*
X22710Y87163D01*
X22710Y88145D01*
X23892Y88145D01*
X23892Y87582D02*
X22710Y87582D01*
X22710Y88001D02*
X23892Y88001D01*
X23892Y89063D02*
X23892Y90045D01*
X23892Y89063D02*
X22710Y89063D01*
X22710Y90045D01*
X23892Y90045D01*
X23892Y89482D02*
X22710Y89482D01*
X22710Y89901D02*
X23892Y89901D01*
X21352Y90045D02*
X21352Y89063D01*
X20170Y89063D01*
X20170Y90045D01*
X21352Y90045D01*
X21352Y89482D02*
X20170Y89482D01*
X20170Y89901D02*
X21352Y89901D01*
X21352Y88145D02*
X21352Y87163D01*
X20170Y87163D01*
X20170Y88145D01*
X21352Y88145D01*
X21352Y87582D02*
X20170Y87582D01*
X20170Y88001D02*
X21352Y88001D01*
X18812Y88145D02*
X18812Y87163D01*
X17630Y87163D01*
X17630Y88145D01*
X18812Y88145D01*
X18812Y87582D02*
X17630Y87582D01*
X17630Y88001D02*
X18812Y88001D01*
X18812Y89063D02*
X18812Y90045D01*
X18812Y89063D02*
X17630Y89063D01*
X17630Y90045D01*
X18812Y90045D01*
X18812Y89482D02*
X17630Y89482D01*
X17630Y89901D02*
X18812Y89901D01*
X16272Y90045D02*
X16272Y89063D01*
X15090Y89063D01*
X15090Y90045D01*
X16272Y90045D01*
X16272Y89482D02*
X15090Y89482D01*
X15090Y89901D02*
X16272Y89901D01*
X16272Y88145D02*
X16272Y87163D01*
X15090Y87163D01*
X15090Y88145D01*
X16272Y88145D01*
X16272Y87582D02*
X15090Y87582D01*
X15090Y88001D02*
X16272Y88001D01*
X13732Y88145D02*
X13732Y87163D01*
X12550Y87163D01*
X12550Y88145D01*
X13732Y88145D01*
X13732Y87582D02*
X12550Y87582D01*
X12550Y88001D02*
X13732Y88001D01*
X13732Y89063D02*
X13732Y90045D01*
X13732Y89063D02*
X12550Y89063D01*
X12550Y90045D01*
X13732Y90045D01*
X13732Y89482D02*
X12550Y89482D01*
X12550Y89901D02*
X13732Y89901D01*
D23*
X66481Y87334D03*
X66481Y82254D03*
D24*
X55640Y81953D02*
X54382Y81953D01*
X55640Y81953D02*
X55640Y81745D01*
X54382Y81745D01*
X54382Y81953D01*
X54382Y81888D02*
X55640Y81888D01*
X55640Y81453D02*
X54382Y81453D01*
X55640Y81453D02*
X55640Y81245D01*
X54382Y81245D01*
X54382Y81453D01*
X54382Y81388D02*
X55640Y81388D01*
X55640Y80953D02*
X54382Y80953D01*
X55640Y80953D02*
X55640Y80745D01*
X54382Y80745D01*
X54382Y80953D01*
X54382Y80888D02*
X55640Y80888D01*
X55640Y80453D02*
X54382Y80453D01*
X55640Y80453D02*
X55640Y80245D01*
X54382Y80245D01*
X54382Y80453D01*
X54382Y80388D02*
X55640Y80388D01*
X55640Y79953D02*
X54382Y79953D01*
X55640Y79953D02*
X55640Y79745D01*
X54382Y79745D01*
X54382Y79953D01*
X54382Y79888D02*
X55640Y79888D01*
X55640Y79453D02*
X54382Y79453D01*
X55640Y79453D02*
X55640Y79245D01*
X54382Y79245D01*
X54382Y79453D01*
X54382Y79388D02*
X55640Y79388D01*
X55640Y78953D02*
X54382Y78953D01*
X55640Y78953D02*
X55640Y78745D01*
X54382Y78745D01*
X54382Y78953D01*
X54382Y78888D02*
X55640Y78888D01*
X54115Y78478D02*
X54115Y77220D01*
X53907Y77220D01*
X53907Y78478D01*
X54115Y78478D01*
X54115Y77363D02*
X53907Y77363D01*
X53907Y77506D02*
X54115Y77506D01*
X54115Y77649D02*
X53907Y77649D01*
X53907Y77792D02*
X54115Y77792D01*
X54115Y77935D02*
X53907Y77935D01*
X53907Y78078D02*
X54115Y78078D01*
X54115Y78221D02*
X53907Y78221D01*
X53907Y78364D02*
X54115Y78364D01*
X53615Y78478D02*
X53615Y77220D01*
X53407Y77220D01*
X53407Y78478D01*
X53615Y78478D01*
X53615Y77363D02*
X53407Y77363D01*
X53407Y77506D02*
X53615Y77506D01*
X53615Y77649D02*
X53407Y77649D01*
X53407Y77792D02*
X53615Y77792D01*
X53615Y77935D02*
X53407Y77935D01*
X53407Y78078D02*
X53615Y78078D01*
X53615Y78221D02*
X53407Y78221D01*
X53407Y78364D02*
X53615Y78364D01*
X53115Y78478D02*
X53115Y77220D01*
X52907Y77220D01*
X52907Y78478D01*
X53115Y78478D01*
X53115Y77363D02*
X52907Y77363D01*
X52907Y77506D02*
X53115Y77506D01*
X53115Y77649D02*
X52907Y77649D01*
X52907Y77792D02*
X53115Y77792D01*
X53115Y77935D02*
X52907Y77935D01*
X52907Y78078D02*
X53115Y78078D01*
X53115Y78221D02*
X52907Y78221D01*
X52907Y78364D02*
X53115Y78364D01*
X52615Y78478D02*
X52615Y77220D01*
X52407Y77220D01*
X52407Y78478D01*
X52615Y78478D01*
X52615Y77363D02*
X52407Y77363D01*
X52407Y77506D02*
X52615Y77506D01*
X52615Y77649D02*
X52407Y77649D01*
X52407Y77792D02*
X52615Y77792D01*
X52615Y77935D02*
X52407Y77935D01*
X52407Y78078D02*
X52615Y78078D01*
X52615Y78221D02*
X52407Y78221D01*
X52407Y78364D02*
X52615Y78364D01*
X52115Y78478D02*
X52115Y77220D01*
X51907Y77220D01*
X51907Y78478D01*
X52115Y78478D01*
X52115Y77363D02*
X51907Y77363D01*
X51907Y77506D02*
X52115Y77506D01*
X52115Y77649D02*
X51907Y77649D01*
X51907Y77792D02*
X52115Y77792D01*
X52115Y77935D02*
X51907Y77935D01*
X51907Y78078D02*
X52115Y78078D01*
X52115Y78221D02*
X51907Y78221D01*
X51907Y78364D02*
X52115Y78364D01*
X51615Y78478D02*
X51615Y77220D01*
X51407Y77220D01*
X51407Y78478D01*
X51615Y78478D01*
X51615Y77363D02*
X51407Y77363D01*
X51407Y77506D02*
X51615Y77506D01*
X51615Y77649D02*
X51407Y77649D01*
X51407Y77792D02*
X51615Y77792D01*
X51615Y77935D02*
X51407Y77935D01*
X51407Y78078D02*
X51615Y78078D01*
X51615Y78221D02*
X51407Y78221D01*
X51407Y78364D02*
X51615Y78364D01*
X51115Y78478D02*
X51115Y77220D01*
X50907Y77220D01*
X50907Y78478D01*
X51115Y78478D01*
X51115Y77363D02*
X50907Y77363D01*
X50907Y77506D02*
X51115Y77506D01*
X51115Y77649D02*
X50907Y77649D01*
X50907Y77792D02*
X51115Y77792D01*
X51115Y77935D02*
X50907Y77935D01*
X50907Y78078D02*
X51115Y78078D01*
X51115Y78221D02*
X50907Y78221D01*
X50907Y78364D02*
X51115Y78364D01*
X50640Y78745D02*
X49382Y78745D01*
X49382Y78953D01*
X50640Y78953D01*
X50640Y78745D01*
X50640Y78888D02*
X49382Y78888D01*
X49382Y79245D02*
X50640Y79245D01*
X49382Y79245D02*
X49382Y79453D01*
X50640Y79453D01*
X50640Y79245D01*
X50640Y79388D02*
X49382Y79388D01*
X49382Y79745D02*
X50640Y79745D01*
X49382Y79745D02*
X49382Y79953D01*
X50640Y79953D01*
X50640Y79745D01*
X50640Y79888D02*
X49382Y79888D01*
X49382Y80245D02*
X50640Y80245D01*
X49382Y80245D02*
X49382Y80453D01*
X50640Y80453D01*
X50640Y80245D01*
X50640Y80388D02*
X49382Y80388D01*
X49382Y80745D02*
X50640Y80745D01*
X49382Y80745D02*
X49382Y80953D01*
X50640Y80953D01*
X50640Y80745D01*
X50640Y80888D02*
X49382Y80888D01*
X49382Y81245D02*
X50640Y81245D01*
X49382Y81245D02*
X49382Y81453D01*
X50640Y81453D01*
X50640Y81245D01*
X50640Y81388D02*
X49382Y81388D01*
X49382Y81745D02*
X50640Y81745D01*
X49382Y81745D02*
X49382Y81953D01*
X50640Y81953D01*
X50640Y81745D01*
X50640Y81888D02*
X49382Y81888D01*
X50907Y82220D02*
X50907Y83478D01*
X51115Y83478D01*
X51115Y82220D01*
X50907Y82220D01*
X50907Y82363D02*
X51115Y82363D01*
X51115Y82506D02*
X50907Y82506D01*
X50907Y82649D02*
X51115Y82649D01*
X51115Y82792D02*
X50907Y82792D01*
X50907Y82935D02*
X51115Y82935D01*
X51115Y83078D02*
X50907Y83078D01*
X50907Y83221D02*
X51115Y83221D01*
X51115Y83364D02*
X50907Y83364D01*
X51407Y83478D02*
X51407Y82220D01*
X51407Y83478D02*
X51615Y83478D01*
X51615Y82220D01*
X51407Y82220D01*
X51407Y82363D02*
X51615Y82363D01*
X51615Y82506D02*
X51407Y82506D01*
X51407Y82649D02*
X51615Y82649D01*
X51615Y82792D02*
X51407Y82792D01*
X51407Y82935D02*
X51615Y82935D01*
X51615Y83078D02*
X51407Y83078D01*
X51407Y83221D02*
X51615Y83221D01*
X51615Y83364D02*
X51407Y83364D01*
X51907Y83478D02*
X51907Y82220D01*
X51907Y83478D02*
X52115Y83478D01*
X52115Y82220D01*
X51907Y82220D01*
X51907Y82363D02*
X52115Y82363D01*
X52115Y82506D02*
X51907Y82506D01*
X51907Y82649D02*
X52115Y82649D01*
X52115Y82792D02*
X51907Y82792D01*
X51907Y82935D02*
X52115Y82935D01*
X52115Y83078D02*
X51907Y83078D01*
X51907Y83221D02*
X52115Y83221D01*
X52115Y83364D02*
X51907Y83364D01*
X52407Y83478D02*
X52407Y82220D01*
X52407Y83478D02*
X52615Y83478D01*
X52615Y82220D01*
X52407Y82220D01*
X52407Y82363D02*
X52615Y82363D01*
X52615Y82506D02*
X52407Y82506D01*
X52407Y82649D02*
X52615Y82649D01*
X52615Y82792D02*
X52407Y82792D01*
X52407Y82935D02*
X52615Y82935D01*
X52615Y83078D02*
X52407Y83078D01*
X52407Y83221D02*
X52615Y83221D01*
X52615Y83364D02*
X52407Y83364D01*
X52907Y83478D02*
X52907Y82220D01*
X52907Y83478D02*
X53115Y83478D01*
X53115Y82220D01*
X52907Y82220D01*
X52907Y82363D02*
X53115Y82363D01*
X53115Y82506D02*
X52907Y82506D01*
X52907Y82649D02*
X53115Y82649D01*
X53115Y82792D02*
X52907Y82792D01*
X52907Y82935D02*
X53115Y82935D01*
X53115Y83078D02*
X52907Y83078D01*
X52907Y83221D02*
X53115Y83221D01*
X53115Y83364D02*
X52907Y83364D01*
X53407Y83478D02*
X53407Y82220D01*
X53407Y83478D02*
X53615Y83478D01*
X53615Y82220D01*
X53407Y82220D01*
X53407Y82363D02*
X53615Y82363D01*
X53615Y82506D02*
X53407Y82506D01*
X53407Y82649D02*
X53615Y82649D01*
X53615Y82792D02*
X53407Y82792D01*
X53407Y82935D02*
X53615Y82935D01*
X53615Y83078D02*
X53407Y83078D01*
X53407Y83221D02*
X53615Y83221D01*
X53615Y83364D02*
X53407Y83364D01*
X53907Y83478D02*
X53907Y82220D01*
X53907Y83478D02*
X54115Y83478D01*
X54115Y82220D01*
X53907Y82220D01*
X53907Y82363D02*
X54115Y82363D01*
X54115Y82506D02*
X53907Y82506D01*
X53907Y82649D02*
X54115Y82649D01*
X54115Y82792D02*
X53907Y82792D01*
X53907Y82935D02*
X54115Y82935D01*
X54115Y83078D02*
X53907Y83078D01*
X53907Y83221D02*
X54115Y83221D01*
X54115Y83364D02*
X53907Y83364D01*
D25*
X51354Y81506D02*
X51354Y79192D01*
X51354Y81506D02*
X53668Y81506D01*
X53668Y79192D01*
X51354Y79192D01*
X51354Y80280D02*
X53668Y80280D01*
X53668Y81368D02*
X51354Y81368D01*
D26*
X66425Y45920D03*
X72860Y45920D03*
X86772Y45880D03*
X93207Y45880D03*
D27*
X65529Y53044D03*
X64894Y51774D03*
X66481Y78444D03*
X61243Y83841D03*
X61243Y85111D03*
X59020Y85111D03*
X59020Y83841D03*
X59020Y86381D03*
X57750Y86381D03*
X50448Y86381D03*
X49813Y85349D03*
X49178Y86381D03*
X65688Y84794D03*
X67275Y84794D03*
D28*
X53385Y81222D03*
X51638Y81222D03*
X51638Y79476D03*
X53385Y79476D03*
X52829Y61299D03*
X54734Y61299D03*
X54734Y59394D03*
X52829Y59394D03*
X50924Y59394D03*
X50924Y61299D03*
X50924Y57489D03*
X52829Y57489D03*
X54734Y57489D03*
M02*
