G75*
%MOMM*%
%OFA0B0*%
%FSLAX33Y33*%
%IPPOS*%
%LPD*%
%AMOC8*
5,1,8,0,0,1.08239X$1,22.5*
%
%ADD10C,0.406*%
%ADD11C,0.000*%
%ADD12C,0.279*%
%ADD13C,0.356*%
%ADD14C,0.229*%
%ADD15C,0.203*%
%ADD16R,0.010X0.213*%
%ADD17R,0.010X0.498*%
%ADD18R,0.010X0.660*%
%ADD19R,0.010X0.792*%
%ADD20R,0.010X0.904*%
%ADD21R,0.010X1.006*%
%ADD22R,0.010X1.097*%
%ADD23R,0.010X1.189*%
%ADD24R,0.010X1.260*%
%ADD25R,0.010X1.331*%
%ADD26R,0.010X1.402*%
%ADD27R,0.010X1.473*%
%ADD28R,0.010X1.534*%
%ADD29R,0.010X1.585*%
%ADD30R,0.010X1.646*%
%ADD31R,0.010X1.697*%
%ADD32R,0.010X1.758*%
%ADD33R,0.010X1.798*%
%ADD34R,0.010X1.859*%
%ADD35R,0.010X1.900*%
%ADD36R,0.010X1.951*%
%ADD37R,0.010X1.991*%
%ADD38R,0.010X2.042*%
%ADD39R,0.010X2.083*%
%ADD40R,0.010X2.123*%
%ADD41R,0.010X2.164*%
%ADD42R,0.010X2.205*%
%ADD43R,0.010X2.245*%
%ADD44R,0.010X2.286*%
%ADD45R,0.010X2.316*%
%ADD46R,0.010X2.357*%
%ADD47R,0.010X2.388*%
%ADD48R,0.010X2.428*%
%ADD49R,0.010X2.459*%
%ADD50R,0.010X2.489*%
%ADD51R,0.010X2.530*%
%ADD52R,0.010X2.560*%
%ADD53R,0.010X2.591*%
%ADD54R,0.010X2.621*%
%ADD55R,0.010X2.652*%
%ADD56R,0.010X2.682*%
%ADD57R,0.010X2.713*%
%ADD58R,0.010X2.743*%
%ADD59R,0.010X2.774*%
%ADD60R,0.010X2.804*%
%ADD61R,0.010X2.835*%
%ADD62R,0.010X2.855*%
%ADD63R,0.010X2.885*%
%ADD64R,0.010X2.916*%
%ADD65R,0.010X2.936*%
%ADD66R,0.010X2.967*%
%ADD67R,0.010X2.987*%
%ADD68R,0.010X3.018*%
%ADD69R,0.010X3.038*%
%ADD70R,0.010X3.068*%
%ADD71R,0.010X3.089*%
%ADD72R,0.010X3.119*%
%ADD73R,0.010X3.139*%
%ADD74R,0.010X3.160*%
%ADD75R,0.010X3.180*%
%ADD76R,0.010X3.211*%
%ADD77R,0.010X3.231*%
%ADD78R,0.010X3.251*%
%ADD79R,0.010X3.272*%
%ADD80R,0.010X2.042*%
%ADD81R,0.010X1.250*%
%ADD82R,0.010X1.219*%
%ADD83R,0.010X0.782*%
%ADD84R,0.010X1.209*%
%ADD85R,0.010X0.772*%
%ADD86R,0.010X1.168*%
%ADD87R,0.010X0.752*%
%ADD88R,0.010X1.158*%
%ADD89R,0.010X1.138*%
%ADD90R,0.010X0.742*%
%ADD91R,0.010X1.118*%
%ADD92R,0.010X0.732*%
%ADD93R,0.010X1.107*%
%ADD94R,0.010X0.721*%
%ADD95R,0.010X1.097*%
%ADD96R,0.010X1.087*%
%ADD97R,0.010X0.711*%
%ADD98R,0.010X1.067*%
%ADD99R,0.010X0.691*%
%ADD100R,0.010X1.057*%
%ADD101R,0.010X0.681*%
%ADD102R,0.010X1.046*%
%ADD103R,0.010X0.671*%
%ADD104R,0.010X1.036*%
%ADD105R,0.010X1.026*%
%ADD106R,0.010X0.650*%
%ADD107R,0.010X1.026*%
%ADD108R,0.010X1.006*%
%ADD109R,0.010X0.640*%
%ADD110R,0.010X1.016*%
%ADD111R,0.010X0.996*%
%ADD112R,0.010X0.630*%
%ADD113R,0.010X0.986*%
%ADD114R,0.010X0.610*%
%ADD115R,0.010X0.996*%
%ADD116R,0.010X0.975*%
%ADD117R,0.010X0.599*%
%ADD118R,0.010X0.965*%
%ADD119R,0.010X0.589*%
%ADD120R,0.010X0.955*%
%ADD121R,0.010X0.579*%
%ADD122R,0.010X0.569*%
%ADD123R,0.010X0.945*%
%ADD124R,0.010X0.945*%
%ADD125R,0.010X0.549*%
%ADD126R,0.010X0.935*%
%ADD127R,0.010X0.538*%
%ADD128R,0.010X0.914*%
%ADD129R,0.010X0.528*%
%ADD130R,0.010X0.925*%
%ADD131R,0.010X0.914*%
%ADD132R,0.010X0.041*%
%ADD133R,0.010X0.508*%
%ADD134R,0.010X0.030*%
%ADD135R,0.010X0.081*%
%ADD136R,0.010X0.071*%
%ADD137R,0.010X0.112*%
%ADD138R,0.010X0.488*%
%ADD139R,0.010X0.102*%
%ADD140R,0.010X0.894*%
%ADD141R,0.010X0.894*%
%ADD142R,0.010X0.142*%
%ADD143R,0.010X0.467*%
%ADD144R,0.010X0.884*%
%ADD145R,0.010X0.183*%
%ADD146R,0.010X0.457*%
%ADD147R,0.010X0.173*%
%ADD148R,0.010X0.874*%
%ADD149R,0.010X0.203*%
%ADD150R,0.010X0.447*%
%ADD151R,0.010X0.884*%
%ADD152R,0.010X0.874*%
%ADD153R,0.010X0.234*%
%ADD154R,0.010X0.437*%
%ADD155R,0.010X0.864*%
%ADD156R,0.010X0.274*%
%ADD157R,0.010X0.427*%
%ADD158R,0.010X0.264*%
%ADD159R,0.010X0.295*%
%ADD160R,0.010X0.406*%
%ADD161R,0.010X0.284*%
%ADD162R,0.010X0.853*%
%ADD163R,0.010X0.325*%
%ADD164R,0.010X0.396*%
%ADD165R,0.010X0.315*%
%ADD166R,0.010X0.843*%
%ADD167R,0.010X0.345*%
%ADD168R,0.010X0.843*%
%ADD169R,0.010X0.376*%
%ADD170R,0.010X0.366*%
%ADD171R,0.010X0.396*%
%ADD172R,0.010X0.417*%
%ADD173R,0.010X0.853*%
%ADD174R,0.010X0.447*%
%ADD175R,0.010X0.437*%
%ADD176R,0.010X0.864*%
%ADD177R,0.010X0.478*%
%ADD178R,0.010X0.518*%
%ADD179R,0.010X0.528*%
%ADD180R,0.010X0.904*%
%ADD181R,0.010X0.549*%
%ADD182R,0.010X0.538*%
%ADD183R,0.010X0.925*%
%ADD184R,0.010X0.559*%
%ADD185R,0.010X0.955*%
%ADD186R,0.010X0.559*%
%ADD187R,0.010X0.965*%
%ADD188R,0.010X0.569*%
%ADD189R,0.010X0.579*%
%ADD190R,0.010X1.016*%
%ADD191R,0.010X1.026*%
%ADD192R,0.010X0.589*%
%ADD193R,0.010X0.152*%
%ADD194R,0.010X1.057*%
%ADD195R,0.010X0.599*%
%ADD196R,0.010X0.589*%
%ADD197R,0.010X1.666*%
%ADD198R,0.010X1.077*%
%ADD199R,0.010X1.077*%
%ADD200R,0.010X1.646*%
%ADD201R,0.010X1.107*%
%ADD202R,0.010X1.626*%
%ADD203R,0.010X1.128*%
%ADD204R,0.010X1.615*%
%ADD205R,0.010X1.605*%
%ADD206R,0.010X1.148*%
%ADD207R,0.010X1.138*%
%ADD208R,0.010X1.605*%
%ADD209R,0.010X1.148*%
%ADD210R,0.010X1.595*%
%ADD211R,0.010X1.179*%
%ADD212R,0.010X1.179*%
%ADD213R,0.010X1.575*%
%ADD214R,0.010X1.189*%
%ADD215R,0.010X1.565*%
%ADD216R,0.010X1.565*%
%ADD217R,0.010X1.554*%
%ADD218R,0.010X1.544*%
%ADD219R,0.010X1.158*%
%ADD220R,0.010X1.534*%
%ADD221R,0.010X1.524*%
%ADD222R,0.010X1.148*%
%ADD223R,0.010X1.514*%
%ADD224R,0.010X1.128*%
%ADD225R,0.010X1.524*%
%ADD226R,0.010X1.118*%
%ADD227R,0.010X1.687*%
%ADD228R,0.010X1.097*%
%ADD229R,0.010X1.707*%
%ADD230R,0.010X1.727*%
%ADD231R,0.010X1.748*%
%ADD232R,0.010X1.097*%
%ADD233R,0.010X1.778*%
%ADD234R,0.010X1.819*%
%ADD235R,0.010X0.671*%
%ADD236R,0.010X0.366*%
%ADD237R,0.010X1.829*%
%ADD238R,0.010X0.366*%
%ADD239R,0.010X1.849*%
%ADD240R,0.010X0.264*%
%ADD241R,0.010X0.163*%
%ADD242R,0.010X1.869*%
%ADD243R,0.010X0.061*%
%ADD244R,0.010X1.880*%
%ADD245R,0.010X0.660*%
%ADD246R,0.010X1.910*%
%ADD247R,0.010X1.930*%
%ADD248R,0.010X1.941*%
%ADD249R,0.010X0.650*%
%ADD250R,0.010X1.961*%
%ADD251R,0.010X1.971*%
%ADD252R,0.010X1.991*%
%ADD253R,0.010X2.002*%
%ADD254R,0.010X2.012*%
%ADD255R,0.010X2.022*%
%ADD256R,0.010X2.052*%
%ADD257R,0.010X2.062*%
%ADD258R,0.010X2.073*%
%ADD259R,0.010X0.122*%
%ADD260R,0.010X0.640*%
%ADD261R,0.010X0.224*%
%ADD262R,0.010X2.093*%
%ADD263R,0.010X0.132*%
%ADD264R,0.010X2.113*%
%ADD265R,0.010X0.244*%
%ADD266R,0.010X0.335*%
%ADD267R,0.010X0.437*%
%ADD268R,0.010X3.048*%
%ADD269R,0.010X3.058*%
%ADD270R,0.010X0.640*%
%ADD271R,0.010X3.058*%
%ADD272R,0.010X3.078*%
%ADD273R,0.010X3.089*%
%ADD274R,0.010X0.640*%
%ADD275R,0.010X3.099*%
%ADD276R,0.010X3.099*%
%ADD277R,0.010X3.109*%
%ADD278R,0.010X3.129*%
%ADD279R,0.010X0.630*%
%ADD280R,0.010X3.129*%
%ADD281R,0.010X3.150*%
%ADD282R,0.010X3.150*%
%ADD283R,0.010X1.504*%
%ADD284R,0.010X1.463*%
%ADD285R,0.010X1.453*%
%ADD286R,0.010X1.443*%
%ADD287R,0.010X1.433*%
%ADD288R,0.010X1.422*%
%ADD289R,0.010X1.412*%
%ADD290R,0.010X1.402*%
%ADD291R,0.010X1.392*%
%ADD292R,0.010X1.382*%
%ADD293R,0.010X1.361*%
%ADD294R,0.010X1.372*%
%ADD295R,0.010X1.361*%
%ADD296R,0.010X1.351*%
%ADD297R,0.010X1.351*%
%ADD298R,0.010X1.341*%
%ADD299R,0.010X1.331*%
%ADD300R,0.010X1.331*%
%ADD301R,0.010X1.321*%
%ADD302R,0.010X1.311*%
%ADD303R,0.010X1.300*%
%ADD304R,0.010X1.300*%
%ADD305R,0.010X1.290*%
%ADD306R,0.010X0.620*%
%ADD307R,0.010X1.250*%
%ADD308R,0.010X1.280*%
%ADD309R,0.010X1.219*%
%ADD310R,0.010X1.240*%
%ADD311R,0.010X1.209*%
%ADD312R,0.010X1.168*%
%ADD313R,0.010X1.046*%
%ADD314R,0.010X0.986*%
%ADD315R,0.955X0.010*%
%ADD316R,0.010X0.833*%
%ADD317R,0.010X0.732*%
%ADD318R,0.010X0.843*%
%ADD319R,0.010X0.843*%
%ADD320R,0.010X0.742*%
%ADD321R,0.010X0.762*%
%ADD322R,0.843X0.010*%
%ADD323R,0.010X0.803*%
%ADD324R,0.010X0.823*%
%ADD325R,0.010X0.996*%
%ADD326R,0.010X0.874*%
%ADD327R,0.010X0.894*%
%ADD328R,0.010X0.945*%
%ADD329R,0.010X0.975*%
%ADD330R,0.010X2.276*%
%ADD331R,0.010X2.266*%
%ADD332R,0.010X2.256*%
%ADD333R,0.010X1.036*%
%ADD334R,0.010X2.235*%
%ADD335R,0.010X2.225*%
%ADD336R,0.010X2.215*%
%ADD337R,0.010X1.046*%
%ADD338R,0.010X2.195*%
%ADD339R,0.010X2.184*%
%ADD340R,0.010X1.026*%
%ADD341R,0.010X2.195*%
%ADD342R,0.010X2.266*%
%ADD343R,0.010X2.286*%
%ADD344R,0.010X2.306*%
%ADD345R,0.010X2.327*%
%ADD346R,0.010X2.347*%
%ADD347R,0.010X2.367*%
%ADD348R,0.010X2.388*%
%ADD349R,0.010X2.408*%
%ADD350R,0.010X2.449*%
%ADD351R,0.010X2.469*%
%ADD352R,0.010X0.833*%
%ADD353R,0.010X2.489*%
%ADD354R,0.010X0.823*%
%ADD355R,0.010X2.510*%
%ADD356R,0.010X0.813*%
%ADD357R,0.010X2.530*%
%ADD358R,0.010X2.550*%
%ADD359R,0.010X0.782*%
%ADD360R,0.010X2.570*%
%ADD361R,0.010X0.772*%
%ADD362R,0.010X2.591*%
%ADD363R,0.010X0.772*%
%ADD364R,0.010X2.611*%
%ADD365R,0.010X2.631*%
%ADD366R,0.010X2.672*%
%ADD367R,0.010X0.721*%
%ADD368R,0.010X0.701*%
%ADD369R,0.010X2.692*%
%ADD370R,0.010X0.711*%
%ADD371R,0.010X0.691*%
%ADD372R,0.010X2.733*%
%ADD373R,0.010X2.753*%
%ADD374R,0.010X2.774*%
%ADD375R,0.010X0.691*%
%ADD376R,0.010X2.794*%
%ADD377R,0.010X2.804*%
%ADD378R,0.010X0.701*%
%ADD379R,0.010X2.814*%
%ADD380R,0.010X2.794*%
%ADD381R,0.010X2.784*%
%ADD382R,0.010X2.764*%
%ADD383R,0.010X2.713*%
%ADD384R,0.010X2.703*%
%ADD385R,0.010X2.692*%
%ADD386R,0.010X1.453*%
%ADD387R,0.010X0.518*%
%ADD388R,0.010X1.422*%
%ADD389R,0.010X0.721*%
%ADD390R,0.010X0.721*%
%ADD391R,0.010X1.402*%
%ADD392R,0.010X1.372*%
%ADD393R,0.010X0.457*%
%ADD394R,0.010X0.406*%
%ADD395R,0.010X1.280*%
%ADD396R,0.010X0.427*%
%ADD397R,0.010X0.386*%
%ADD398R,0.010X0.356*%
%ADD399R,0.010X0.386*%
%ADD400R,0.010X0.742*%
%ADD401R,0.010X0.325*%
%ADD402R,0.010X0.315*%
%ADD403R,0.010X0.742*%
%ADD404R,0.010X0.284*%
%ADD405R,0.010X0.305*%
%ADD406R,0.010X0.752*%
%ADD407R,0.010X0.284*%
%ADD408R,0.010X0.234*%
%ADD409R,0.010X0.183*%
%ADD410R,0.010X0.213*%
%ADD411R,0.010X0.762*%
%ADD412R,0.010X0.152*%
%ADD413R,0.010X0.183*%
%ADD414R,0.010X0.772*%
%ADD415R,0.010X0.132*%
%ADD416R,0.010X0.081*%
%ADD417R,0.010X0.030*%
%ADD418R,0.010X0.051*%
%ADD419R,0.010X0.030*%
%ADD420R,0.010X0.010*%
%ADD421R,0.010X0.051*%
%ADD422R,0.010X0.792*%
%ADD423R,0.010X0.792*%
%ADD424R,0.010X0.112*%
%ADD425R,0.010X0.183*%
%ADD426R,0.010X0.538*%
%ADD427R,0.010X0.254*%
%ADD428R,0.010X0.813*%
%ADD429R,0.010X0.295*%
%ADD430R,0.010X0.498*%
%ADD431R,0.010X0.589*%
%ADD432R,0.010X0.620*%
%ADD433R,0.010X0.508*%
%ADD434R,0.010X0.610*%
%ADD435R,0.010X1.534*%
%ADD436R,0.010X1.514*%
%ADD437R,0.010X1.534*%
%ADD438R,0.010X1.494*%
%ADD439R,0.010X1.504*%
%ADD440R,0.010X1.494*%
%ADD441R,0.010X0.488*%
%ADD442R,0.010X1.483*%
%ADD443R,0.010X1.483*%
%ADD444R,0.010X0.467*%
%ADD445R,0.010X1.463*%
%ADD446R,0.010X1.443*%
%ADD447R,0.010X1.453*%
%ADD448R,0.010X1.433*%
%ADD449R,0.010X1.433*%
%ADD450R,0.010X1.382*%
%ADD451R,0.010X1.392*%
%ADD452R,0.010X1.341*%
%ADD453R,0.010X1.351*%
%ADD454R,0.010X1.300*%
%ADD455R,0.010X1.300*%
%ADD456R,0.010X1.554*%
%ADD457R,0.010X1.544*%
%ADD458R,0.010X3.282*%
%ADD459R,0.010X3.261*%
%ADD460R,0.010X3.211*%
%ADD461R,0.010X3.190*%
%ADD462R,0.010X3.068*%
%ADD463R,0.010X2.997*%
%ADD464R,0.010X2.967*%
%ADD465R,0.010X2.936*%
%ADD466R,0.010X2.865*%
%ADD467R,0.010X2.835*%
%ADD468R,0.010X2.804*%
%ADD469R,0.010X2.662*%
%ADD470R,0.010X2.570*%
%ADD471R,0.010X2.499*%
%ADD472R,0.010X2.469*%
%ADD473R,0.010X2.398*%
%ADD474R,0.010X2.357*%
%ADD475R,0.010X2.327*%
%ADD476R,0.010X2.164*%
%ADD477R,0.010X2.123*%
%ADD478R,0.010X1.656*%
%ADD479R,0.010X1.270*%
%ADD480R,0.010X1.199*%
%ADD481C,0.102*%
%ADD482C,0.152*%
%ADD483C,0.127*%
%ADD484R,0.150X0.300*%
%ADD485R,0.300X0.300*%
%ADD486R,0.250X0.250*%
%ADD487C,0.178*%
%ADD488C,0.508*%
%ADD489R,1.270X1.905*%
%ADD490R,0.762X1.778*%
%ADD491R,1.270X0.762*%
%ADD492R,2.286X0.635*%
D10*
X10601Y44154D02*
X10601Y96214D01*
X94421Y96224D01*
X94421Y44154D01*
X10601Y44154D01*
D11*
X11501Y94154D02*
X11503Y94220D01*
X11509Y94285D01*
X11519Y94350D01*
X11532Y94415D01*
X11550Y94478D01*
X11571Y94541D01*
X11596Y94601D01*
X11625Y94661D01*
X11657Y94718D01*
X11692Y94774D01*
X11731Y94827D01*
X11773Y94878D01*
X11817Y94926D01*
X11865Y94971D01*
X11915Y95014D01*
X11968Y95053D01*
X12023Y95090D01*
X12080Y95123D01*
X12139Y95152D01*
X12199Y95178D01*
X12261Y95200D01*
X12324Y95219D01*
X12388Y95233D01*
X12453Y95244D01*
X12519Y95251D01*
X12585Y95254D01*
X12650Y95253D01*
X12716Y95248D01*
X12781Y95239D01*
X12846Y95226D01*
X12909Y95210D01*
X12972Y95190D01*
X13033Y95165D01*
X13093Y95138D01*
X13151Y95107D01*
X13207Y95072D01*
X13261Y95034D01*
X13312Y94993D01*
X13361Y94949D01*
X13407Y94902D01*
X13451Y94853D01*
X13491Y94801D01*
X13528Y94746D01*
X13562Y94690D01*
X13592Y94631D01*
X13619Y94571D01*
X13642Y94510D01*
X13661Y94447D01*
X13677Y94383D01*
X13689Y94318D01*
X13697Y94253D01*
X13701Y94187D01*
X13701Y94121D01*
X13697Y94055D01*
X13689Y93990D01*
X13677Y93925D01*
X13661Y93861D01*
X13642Y93798D01*
X13619Y93737D01*
X13592Y93677D01*
X13562Y93618D01*
X13528Y93562D01*
X13491Y93507D01*
X13451Y93455D01*
X13407Y93406D01*
X13361Y93359D01*
X13312Y93315D01*
X13261Y93274D01*
X13207Y93236D01*
X13151Y93201D01*
X13093Y93170D01*
X13033Y93143D01*
X12972Y93118D01*
X12909Y93098D01*
X12846Y93082D01*
X12781Y93069D01*
X12716Y93060D01*
X12650Y93055D01*
X12585Y93054D01*
X12519Y93057D01*
X12453Y93064D01*
X12388Y93075D01*
X12324Y93089D01*
X12261Y93108D01*
X12199Y93130D01*
X12139Y93156D01*
X12080Y93185D01*
X12023Y93218D01*
X11968Y93255D01*
X11915Y93294D01*
X11865Y93337D01*
X11817Y93382D01*
X11773Y93430D01*
X11731Y93481D01*
X11692Y93534D01*
X11657Y93590D01*
X11625Y93647D01*
X11596Y93707D01*
X11571Y93767D01*
X11550Y93830D01*
X11532Y93893D01*
X11519Y93958D01*
X11509Y94023D01*
X11503Y94088D01*
X11501Y94154D01*
X75501Y46154D02*
X75503Y46220D01*
X75509Y46285D01*
X75519Y46350D01*
X75532Y46415D01*
X75550Y46478D01*
X75571Y46541D01*
X75596Y46601D01*
X75625Y46661D01*
X75657Y46718D01*
X75692Y46774D01*
X75731Y46827D01*
X75773Y46878D01*
X75817Y46926D01*
X75865Y46971D01*
X75915Y47014D01*
X75968Y47053D01*
X76023Y47090D01*
X76080Y47123D01*
X76139Y47152D01*
X76199Y47178D01*
X76261Y47200D01*
X76324Y47219D01*
X76388Y47233D01*
X76453Y47244D01*
X76519Y47251D01*
X76585Y47254D01*
X76650Y47253D01*
X76716Y47248D01*
X76781Y47239D01*
X76846Y47226D01*
X76909Y47210D01*
X76972Y47190D01*
X77033Y47165D01*
X77093Y47138D01*
X77151Y47107D01*
X77207Y47072D01*
X77261Y47034D01*
X77312Y46993D01*
X77361Y46949D01*
X77407Y46902D01*
X77451Y46853D01*
X77491Y46801D01*
X77528Y46746D01*
X77562Y46690D01*
X77592Y46631D01*
X77619Y46571D01*
X77642Y46510D01*
X77661Y46447D01*
X77677Y46383D01*
X77689Y46318D01*
X77697Y46253D01*
X77701Y46187D01*
X77701Y46121D01*
X77697Y46055D01*
X77689Y45990D01*
X77677Y45925D01*
X77661Y45861D01*
X77642Y45798D01*
X77619Y45737D01*
X77592Y45677D01*
X77562Y45618D01*
X77528Y45562D01*
X77491Y45507D01*
X77451Y45455D01*
X77407Y45406D01*
X77361Y45359D01*
X77312Y45315D01*
X77261Y45274D01*
X77207Y45236D01*
X77151Y45201D01*
X77093Y45170D01*
X77033Y45143D01*
X76972Y45118D01*
X76909Y45098D01*
X76846Y45082D01*
X76781Y45069D01*
X76716Y45060D01*
X76650Y45055D01*
X76585Y45054D01*
X76519Y45057D01*
X76453Y45064D01*
X76388Y45075D01*
X76324Y45089D01*
X76261Y45108D01*
X76199Y45130D01*
X76139Y45156D01*
X76080Y45185D01*
X76023Y45218D01*
X75968Y45255D01*
X75915Y45294D01*
X75865Y45337D01*
X75817Y45382D01*
X75773Y45430D01*
X75731Y45481D01*
X75692Y45534D01*
X75657Y45590D01*
X75625Y45647D01*
X75596Y45707D01*
X75571Y45767D01*
X75550Y45830D01*
X75532Y45893D01*
X75519Y45958D01*
X75509Y46023D01*
X75503Y46088D01*
X75501Y46154D01*
X91501Y94154D02*
X91503Y94220D01*
X91509Y94285D01*
X91519Y94350D01*
X91532Y94415D01*
X91550Y94478D01*
X91571Y94541D01*
X91596Y94601D01*
X91625Y94661D01*
X91657Y94718D01*
X91692Y94774D01*
X91731Y94827D01*
X91773Y94878D01*
X91817Y94926D01*
X91865Y94971D01*
X91915Y95014D01*
X91968Y95053D01*
X92023Y95090D01*
X92080Y95123D01*
X92139Y95152D01*
X92199Y95178D01*
X92261Y95200D01*
X92324Y95219D01*
X92388Y95233D01*
X92453Y95244D01*
X92519Y95251D01*
X92585Y95254D01*
X92650Y95253D01*
X92716Y95248D01*
X92781Y95239D01*
X92846Y95226D01*
X92909Y95210D01*
X92972Y95190D01*
X93033Y95165D01*
X93093Y95138D01*
X93151Y95107D01*
X93207Y95072D01*
X93261Y95034D01*
X93312Y94993D01*
X93361Y94949D01*
X93407Y94902D01*
X93451Y94853D01*
X93491Y94801D01*
X93528Y94746D01*
X93562Y94690D01*
X93592Y94631D01*
X93619Y94571D01*
X93642Y94510D01*
X93661Y94447D01*
X93677Y94383D01*
X93689Y94318D01*
X93697Y94253D01*
X93701Y94187D01*
X93701Y94121D01*
X93697Y94055D01*
X93689Y93990D01*
X93677Y93925D01*
X93661Y93861D01*
X93642Y93798D01*
X93619Y93737D01*
X93592Y93677D01*
X93562Y93618D01*
X93528Y93562D01*
X93491Y93507D01*
X93451Y93455D01*
X93407Y93406D01*
X93361Y93359D01*
X93312Y93315D01*
X93261Y93274D01*
X93207Y93236D01*
X93151Y93201D01*
X93093Y93170D01*
X93033Y93143D01*
X92972Y93118D01*
X92909Y93098D01*
X92846Y93082D01*
X92781Y93069D01*
X92716Y93060D01*
X92650Y93055D01*
X92585Y93054D01*
X92519Y93057D01*
X92453Y93064D01*
X92388Y93075D01*
X92324Y93089D01*
X92261Y93108D01*
X92199Y93130D01*
X92139Y93156D01*
X92080Y93185D01*
X92023Y93218D01*
X91968Y93255D01*
X91915Y93294D01*
X91865Y93337D01*
X91817Y93382D01*
X91773Y93430D01*
X91731Y93481D01*
X91692Y93534D01*
X91657Y93590D01*
X91625Y93647D01*
X91596Y93707D01*
X91571Y93767D01*
X91550Y93830D01*
X91532Y93893D01*
X91519Y93958D01*
X91509Y94023D01*
X91503Y94088D01*
X91501Y94154D01*
D12*
X91047Y79583D02*
X91297Y79333D01*
X91297Y78833D01*
X91047Y78583D01*
X90547Y79083D02*
X90547Y79333D01*
X90797Y79583D01*
X91047Y79583D01*
X90547Y79333D02*
X90297Y79583D01*
X90047Y79583D01*
X89797Y79333D01*
X89797Y78833D01*
X90047Y78583D01*
X88630Y78833D02*
X88630Y79333D01*
X88380Y79583D01*
X87880Y79583D01*
X87880Y79083D01*
X87380Y78583D02*
X87130Y78833D01*
X87130Y79333D01*
X87380Y79583D01*
X87380Y78583D02*
X88380Y78583D01*
X88630Y78833D01*
X85963Y78833D02*
X85713Y78583D01*
X85963Y78833D02*
X85963Y79333D01*
X85713Y79583D01*
X85463Y79583D01*
X85213Y79333D01*
X85213Y78833D01*
X84963Y78583D01*
X84713Y78583D01*
X84463Y78833D01*
X84463Y79333D01*
X84713Y79583D01*
X83296Y79333D02*
X83296Y78833D01*
X83046Y78583D01*
X82546Y78833D02*
X82546Y79333D01*
X82796Y79583D01*
X83046Y79583D01*
X83296Y79333D01*
X82546Y78833D02*
X82296Y78583D01*
X82046Y78583D01*
X81796Y78833D01*
X81796Y79333D01*
X82046Y79583D01*
X80629Y79333D02*
X80629Y78833D01*
X80379Y78583D01*
X79879Y78833D02*
X79629Y78583D01*
X79379Y78583D01*
X79129Y78833D01*
X79129Y79333D01*
X79379Y79583D01*
X79879Y79333D02*
X80129Y79583D01*
X80379Y79583D01*
X80629Y79333D01*
X79879Y79333D02*
X79879Y78833D01*
X74616Y77930D02*
X74616Y77744D01*
X74430Y77557D01*
X74616Y77370D01*
X74616Y77183D01*
X74430Y76996D01*
X74056Y76996D01*
X73869Y77183D01*
X74243Y77557D02*
X74430Y77557D01*
X74616Y77930D02*
X74430Y78117D01*
X74056Y78117D01*
X73869Y77930D01*
X72954Y78117D02*
X72954Y76996D01*
X73327Y76996D02*
X72580Y76996D01*
X72038Y77183D02*
X72038Y77930D01*
X71851Y78117D01*
X71478Y78117D01*
X71291Y77930D01*
X71291Y77183D01*
X71478Y76996D01*
X71851Y76996D01*
X72038Y77183D01*
X72580Y77744D02*
X72954Y78117D01*
X70805Y78117D02*
X70431Y78117D01*
X70618Y78117D02*
X70618Y76996D01*
X70431Y76996D02*
X70805Y76996D01*
X70805Y75577D02*
X70431Y75577D01*
X70618Y75577D02*
X70618Y74456D01*
X70431Y74456D02*
X70805Y74456D01*
X71291Y74643D02*
X71478Y74456D01*
X71851Y74456D01*
X72038Y74643D01*
X72038Y75390D01*
X71851Y75577D01*
X71478Y75577D01*
X71291Y75390D01*
X71291Y74643D01*
X72580Y74456D02*
X73327Y74456D01*
X72954Y74456D02*
X72954Y75577D01*
X72580Y75204D01*
X73869Y75390D02*
X74056Y75577D01*
X74430Y75577D01*
X74616Y75390D01*
X74616Y75204D01*
X73869Y74456D01*
X74616Y74456D01*
X74430Y73037D02*
X73869Y72477D01*
X74616Y72477D01*
X74430Y73037D02*
X74430Y71916D01*
X73327Y71916D02*
X72580Y71916D01*
X72954Y71916D02*
X72954Y73037D01*
X72580Y72664D01*
X72038Y72850D02*
X72038Y72103D01*
X71851Y71916D01*
X71478Y71916D01*
X71291Y72103D01*
X71291Y72850D01*
X71478Y73037D01*
X71851Y73037D01*
X72038Y72850D01*
X70805Y73037D02*
X70431Y73037D01*
X70618Y73037D02*
X70618Y71916D01*
X70431Y71916D02*
X70805Y71916D01*
X70805Y70497D02*
X70431Y70497D01*
X70618Y70497D02*
X70618Y69376D01*
X70431Y69376D02*
X70805Y69376D01*
X71291Y69563D02*
X71478Y69376D01*
X71851Y69376D01*
X72038Y69563D01*
X72038Y70310D01*
X71851Y70497D01*
X71478Y70497D01*
X71291Y70310D01*
X71291Y69563D01*
X72580Y69376D02*
X73327Y70124D01*
X73327Y70310D01*
X73140Y70497D01*
X72767Y70497D01*
X72580Y70310D01*
X72580Y69376D02*
X73327Y69376D01*
X73869Y69376D02*
X73869Y69563D01*
X74616Y70310D01*
X74616Y70497D01*
X73869Y70497D01*
X73140Y67957D02*
X72767Y67957D01*
X72580Y67770D01*
X72038Y67770D02*
X72038Y67023D01*
X71851Y66836D01*
X71478Y66836D01*
X71291Y67023D01*
X71291Y67770D01*
X71478Y67957D01*
X71851Y67957D01*
X72038Y67770D01*
X72580Y66836D02*
X73327Y67584D01*
X73327Y67770D01*
X73140Y67957D01*
X73869Y67397D02*
X73869Y67023D01*
X74056Y66836D01*
X74430Y66836D01*
X74616Y67023D01*
X74616Y67210D01*
X74430Y67397D01*
X73869Y67397D01*
X74243Y67770D01*
X74616Y67957D01*
X73327Y66836D02*
X72580Y66836D01*
X72767Y65417D02*
X72580Y65230D01*
X72767Y65417D02*
X73140Y65417D01*
X73327Y65230D01*
X73327Y65044D01*
X72580Y64296D01*
X73327Y64296D01*
X73869Y64483D02*
X74056Y64296D01*
X74430Y64296D01*
X74616Y64483D01*
X74616Y64857D01*
X74430Y65044D01*
X74243Y65044D01*
X73869Y64857D01*
X73869Y65417D01*
X74616Y65417D01*
X74430Y62877D02*
X74056Y62877D01*
X73869Y62690D01*
X74243Y62317D02*
X74430Y62317D01*
X74616Y62130D01*
X74616Y61943D01*
X74430Y61756D01*
X74056Y61756D01*
X73869Y61943D01*
X73327Y61943D02*
X73140Y61756D01*
X72767Y61756D01*
X72580Y61943D01*
X72954Y62317D02*
X73140Y62317D01*
X73327Y62130D01*
X73327Y61943D01*
X73140Y62317D02*
X73327Y62504D01*
X73327Y62690D01*
X73140Y62877D01*
X72767Y62877D01*
X72580Y62690D01*
X72038Y62690D02*
X72038Y61943D01*
X71851Y61756D01*
X71478Y61756D01*
X71291Y61943D01*
X71291Y62690D01*
X71478Y62877D01*
X71851Y62877D01*
X72038Y62690D01*
X70805Y62877D02*
X70431Y62877D01*
X70618Y62877D02*
X70618Y61756D01*
X70431Y61756D02*
X70805Y61756D01*
X70805Y60337D02*
X70431Y60337D01*
X70618Y60337D02*
X70618Y59216D01*
X70431Y59216D02*
X70805Y59216D01*
X71291Y59403D02*
X71478Y59216D01*
X71851Y59216D01*
X72038Y59403D01*
X72038Y60150D01*
X71851Y60337D01*
X71478Y60337D01*
X71291Y60150D01*
X71291Y59403D01*
X72580Y59403D02*
X72767Y59216D01*
X73140Y59216D01*
X73327Y59403D01*
X73327Y59590D01*
X73140Y59777D01*
X72954Y59777D01*
X73140Y59777D02*
X73327Y59964D01*
X73327Y60150D01*
X73140Y60337D01*
X72767Y60337D01*
X72580Y60150D01*
X73869Y60150D02*
X74056Y60337D01*
X74430Y60337D01*
X74616Y60150D01*
X74616Y59964D01*
X73869Y59216D01*
X74616Y59216D01*
X74616Y57797D02*
X73869Y57797D01*
X73869Y57237D01*
X74243Y57424D01*
X74430Y57424D01*
X74616Y57237D01*
X74616Y56863D01*
X74430Y56676D01*
X74056Y56676D01*
X73869Y56863D01*
X73327Y56863D02*
X73140Y56676D01*
X72767Y56676D01*
X72580Y56863D01*
X72954Y57237D02*
X73140Y57237D01*
X73327Y57050D01*
X73327Y56863D01*
X73140Y57237D02*
X73327Y57424D01*
X73327Y57610D01*
X73140Y57797D01*
X72767Y57797D01*
X72580Y57610D01*
X72038Y57610D02*
X72038Y56863D01*
X71851Y56676D01*
X71478Y56676D01*
X71291Y56863D01*
X71291Y57610D01*
X71478Y57797D01*
X71851Y57797D01*
X72038Y57610D01*
X70805Y57797D02*
X70431Y57797D01*
X70618Y57797D02*
X70618Y56676D01*
X70431Y56676D02*
X70805Y56676D01*
X70805Y55257D02*
X70431Y55257D01*
X70618Y55257D02*
X70618Y54136D01*
X70431Y54136D02*
X70805Y54136D01*
X71291Y54323D02*
X71478Y54136D01*
X71851Y54136D01*
X72038Y54323D01*
X72038Y55070D01*
X71851Y55257D01*
X71478Y55257D01*
X71291Y55070D01*
X71291Y54323D01*
X72580Y54323D02*
X72767Y54136D01*
X73140Y54136D01*
X73327Y54323D01*
X73327Y54510D01*
X73140Y54697D01*
X72954Y54697D01*
X73140Y54697D02*
X73327Y54884D01*
X73327Y55070D01*
X73140Y55257D01*
X72767Y55257D01*
X72580Y55070D01*
X73869Y54697D02*
X74616Y54697D01*
X74430Y55257D02*
X74430Y54136D01*
X73869Y54697D02*
X74430Y55257D01*
X73757Y52717D02*
X73757Y51596D01*
X73009Y52717D01*
X73009Y51596D01*
X72468Y51970D02*
X72468Y52717D01*
X72468Y51970D02*
X72094Y51596D01*
X71720Y51970D01*
X71720Y52717D01*
X71179Y52530D02*
X70992Y52717D01*
X70618Y52717D01*
X70431Y52530D01*
X70431Y52344D01*
X70618Y52157D01*
X70992Y52157D01*
X71179Y51970D01*
X71179Y51783D01*
X70992Y51596D01*
X70618Y51596D01*
X70431Y51783D01*
X70618Y50177D02*
X70431Y49990D01*
X70431Y49804D01*
X70618Y49617D01*
X70992Y49617D01*
X71179Y49430D01*
X71179Y49243D01*
X70992Y49056D01*
X70618Y49056D01*
X70431Y49243D01*
X70618Y50177D02*
X70992Y50177D01*
X71179Y49990D01*
X71720Y50177D02*
X71720Y49430D01*
X72094Y49056D01*
X72468Y49430D01*
X72468Y50177D01*
X73009Y50177D02*
X73570Y50177D01*
X73757Y49990D01*
X73757Y49617D01*
X73570Y49430D01*
X73009Y49430D01*
X73009Y49056D02*
X73009Y50177D01*
X74430Y62317D02*
X74616Y62504D01*
X74616Y62690D01*
X74430Y62877D01*
X72038Y64483D02*
X71851Y64296D01*
X71478Y64296D01*
X71291Y64483D01*
X71291Y65230D01*
X71478Y65417D01*
X71851Y65417D01*
X72038Y65230D01*
X72038Y64483D01*
X70805Y64296D02*
X70431Y64296D01*
X70618Y64296D02*
X70618Y65417D01*
X70431Y65417D02*
X70805Y65417D01*
X70805Y66836D02*
X70431Y66836D01*
X70618Y66836D02*
X70618Y67957D01*
X70431Y67957D02*
X70805Y67957D01*
X71936Y86464D02*
X71936Y91620D01*
X72494Y91218D02*
X73616Y91218D01*
X72494Y90471D01*
X73616Y90471D01*
X73429Y89929D02*
X72681Y89929D01*
X72494Y89742D01*
X72494Y89181D01*
X73616Y89181D01*
X73616Y89742D01*
X73429Y89929D01*
X73616Y88640D02*
X72494Y88640D01*
X73055Y88640D02*
X73055Y87892D01*
X73616Y87892D02*
X72494Y87892D01*
X72681Y87351D02*
X72494Y87164D01*
X72494Y86790D01*
X72681Y86603D01*
X72868Y86603D01*
X73055Y86790D01*
X73055Y87164D01*
X73242Y87351D01*
X73429Y87351D01*
X73616Y87164D01*
X73616Y86790D01*
X73429Y86603D01*
X92464Y79583D02*
X92464Y78583D01*
X93214Y78583D01*
X92964Y79083D01*
X92964Y79333D01*
X93214Y79583D01*
X93714Y79583D01*
X93964Y79333D01*
X93964Y78833D01*
X93714Y78583D01*
X41418Y69186D02*
X40655Y69186D01*
X40274Y68805D01*
X40655Y68424D01*
X41418Y68424D01*
X41418Y67877D02*
X40274Y67877D01*
X40274Y67114D02*
X41418Y67877D01*
X41418Y67114D02*
X40274Y67114D01*
X40465Y66567D02*
X40846Y66567D01*
X41037Y66376D01*
X41037Y65804D01*
X41418Y65804D02*
X40274Y65804D01*
X40274Y66376D01*
X40465Y66567D01*
X41037Y66186D02*
X41418Y66567D01*
X41418Y65257D02*
X40655Y65257D01*
X40274Y64876D01*
X40655Y64494D01*
X41418Y64494D01*
X40846Y64494D02*
X40846Y65257D01*
X40274Y63947D02*
X40274Y63185D01*
X40274Y63566D02*
X41418Y63566D01*
X41227Y62638D02*
X40465Y62638D01*
X40274Y62447D01*
X40274Y62066D01*
X40465Y61875D01*
X41227Y61875D01*
X41418Y62066D01*
X41418Y62447D01*
X41227Y62638D01*
X41227Y61328D02*
X41418Y61137D01*
X41418Y60565D01*
X40274Y60565D01*
X40274Y61137D01*
X40465Y61328D01*
X40655Y61328D01*
X40846Y61137D01*
X40846Y60565D01*
X40846Y61137D02*
X41037Y61328D01*
X41227Y61328D01*
X41227Y60018D02*
X40465Y60018D01*
X40274Y59828D01*
X40274Y59446D01*
X40465Y59256D01*
X41227Y59256D01*
X41418Y59446D01*
X41418Y59828D01*
X41227Y60018D01*
X41418Y58709D02*
X41037Y58327D01*
X41037Y58518D02*
X41037Y57946D01*
X41418Y57946D02*
X40274Y57946D01*
X40274Y58518D01*
X40465Y58709D01*
X40846Y58709D01*
X41037Y58518D01*
X39354Y58284D02*
X39354Y57930D01*
X39177Y57753D01*
X38824Y58107D02*
X38824Y58284D01*
X39000Y58461D01*
X39177Y58461D01*
X39354Y58284D01*
X38824Y58284D02*
X38647Y58461D01*
X38470Y58461D01*
X38293Y58284D01*
X38293Y57930D01*
X38470Y57753D01*
X38470Y57227D02*
X38824Y57227D01*
X39000Y57050D01*
X39000Y56519D01*
X39354Y56519D02*
X38293Y56519D01*
X38293Y57050D01*
X38470Y57227D01*
X38470Y58987D02*
X38293Y59164D01*
X38293Y59518D01*
X38470Y59695D01*
X38647Y59695D01*
X39354Y58987D01*
X39354Y59695D01*
X39177Y60221D02*
X39354Y60398D01*
X39354Y60929D01*
X38647Y60929D01*
X38647Y61455D02*
X38647Y61985D01*
X38824Y62162D01*
X39354Y62162D01*
X39354Y62689D02*
X39354Y63042D01*
X39354Y62865D02*
X38647Y62865D01*
X38647Y62689D01*
X38293Y62865D02*
X38116Y62865D01*
X38647Y63511D02*
X39354Y63865D01*
X38647Y64219D01*
X38824Y64745D02*
X38647Y64922D01*
X38647Y65276D01*
X38824Y65453D01*
X39000Y65453D01*
X39000Y64745D01*
X38824Y64745D02*
X39177Y64745D01*
X39354Y64922D01*
X39354Y65276D01*
X39354Y65979D02*
X38647Y65979D01*
X39000Y65979D02*
X38647Y66333D01*
X38647Y66510D01*
X38824Y67007D02*
X38647Y67184D01*
X38647Y67715D01*
X39000Y67538D02*
X39000Y67184D01*
X38824Y67007D01*
X39354Y67007D02*
X39354Y67538D01*
X39177Y67715D01*
X39000Y67538D01*
X39177Y68241D02*
X39000Y68418D01*
X39000Y68949D01*
X38824Y68949D02*
X39354Y68949D01*
X39354Y68418D01*
X39177Y68241D01*
X38647Y68418D02*
X38647Y68772D01*
X38824Y68949D01*
X39354Y69475D02*
X39354Y69829D01*
X39354Y69652D02*
X38293Y69652D01*
X38293Y69475D01*
X38647Y71531D02*
X39354Y71885D01*
X38647Y72239D01*
X38470Y72765D02*
X38293Y72942D01*
X38293Y73296D01*
X38470Y73473D01*
X38647Y73473D01*
X39354Y72765D01*
X39354Y73473D01*
X39354Y73999D02*
X39354Y74176D01*
X39177Y74176D01*
X39177Y73999D01*
X39354Y73999D01*
X39354Y74616D02*
X39354Y75323D01*
X39354Y74970D02*
X38293Y74970D01*
X38647Y74616D01*
X38755Y76211D02*
X38568Y76398D01*
X38568Y77145D01*
X38755Y77332D01*
X39129Y77332D01*
X39316Y77145D01*
X39316Y76398D01*
X39129Y76211D01*
X38755Y76211D01*
X38082Y76211D02*
X37709Y76211D01*
X37896Y76211D02*
X37896Y77332D01*
X38082Y77332D02*
X37709Y77332D01*
X39857Y77145D02*
X40044Y77332D01*
X40418Y77332D01*
X40605Y77145D01*
X40605Y76959D01*
X39857Y76211D01*
X40605Y76211D01*
X34255Y74605D02*
X33507Y73858D01*
X33694Y73671D01*
X34068Y73671D01*
X34255Y73858D01*
X34255Y74605D01*
X34068Y74792D01*
X33694Y74792D01*
X33507Y74605D01*
X33507Y73858D01*
X32966Y73858D02*
X32966Y74605D01*
X32779Y74792D01*
X32405Y74792D01*
X32218Y74605D01*
X32218Y73858D01*
X32405Y73671D01*
X32779Y73671D01*
X32966Y73858D01*
X31732Y73671D02*
X31359Y73671D01*
X31546Y73671D02*
X31546Y74792D01*
X31732Y74792D02*
X31359Y74792D01*
X31359Y72252D02*
X31732Y72252D01*
X31546Y72252D02*
X31546Y71131D01*
X31732Y71131D02*
X31359Y71131D01*
X32218Y71318D02*
X32405Y71131D01*
X32779Y71131D01*
X32966Y71318D01*
X32966Y72065D01*
X32779Y72252D01*
X32405Y72252D01*
X32218Y72065D01*
X32218Y71318D01*
X32592Y69712D02*
X32592Y68591D01*
X32218Y68591D02*
X32966Y68591D01*
X33507Y68778D02*
X33694Y68591D01*
X34068Y68591D01*
X34255Y68778D01*
X34255Y68965D01*
X34068Y69152D01*
X33507Y69152D01*
X33507Y68778D01*
X33507Y69152D02*
X33881Y69525D01*
X34255Y69712D01*
X34068Y71131D02*
X34068Y72252D01*
X33507Y71692D01*
X34255Y71692D01*
X32592Y69712D02*
X32218Y69339D01*
X31677Y69525D02*
X31677Y68778D01*
X31490Y68591D01*
X31116Y68591D01*
X30929Y68778D01*
X30929Y69525D01*
X31116Y69712D01*
X31490Y69712D01*
X31677Y69525D01*
X30443Y69712D02*
X30069Y69712D01*
X30256Y69712D02*
X30256Y68591D01*
X30069Y68591D02*
X30443Y68591D01*
X30443Y67172D02*
X30069Y67172D01*
X30256Y67172D02*
X30256Y66051D01*
X30069Y66051D02*
X30443Y66051D01*
X30929Y66238D02*
X31116Y66051D01*
X31490Y66051D01*
X31677Y66238D01*
X31677Y66985D01*
X31490Y67172D01*
X31116Y67172D01*
X30929Y66985D01*
X30929Y66238D01*
X32218Y66051D02*
X32966Y66051D01*
X32592Y66051D02*
X32592Y67172D01*
X32218Y66799D01*
X33507Y67172D02*
X34255Y67172D01*
X34255Y66985D01*
X33507Y66238D01*
X33507Y66051D01*
X33507Y64632D02*
X33507Y64072D01*
X33881Y64259D01*
X34068Y64259D01*
X34255Y64072D01*
X34255Y63698D01*
X34068Y63511D01*
X33694Y63511D01*
X33507Y63698D01*
X32966Y63698D02*
X32966Y64445D01*
X32779Y64632D01*
X32405Y64632D01*
X32218Y64445D01*
X32218Y63698D01*
X32405Y63511D01*
X32779Y63511D01*
X32966Y63698D01*
X33507Y64632D02*
X34255Y64632D01*
X31732Y64632D02*
X31359Y64632D01*
X31546Y64632D02*
X31546Y63511D01*
X31732Y63511D02*
X31359Y63511D01*
X31490Y62092D02*
X31116Y62092D01*
X30929Y61905D01*
X30929Y61158D01*
X31116Y60971D01*
X31490Y60971D01*
X31677Y61158D01*
X31677Y61905D01*
X31490Y62092D01*
X32218Y61719D02*
X32592Y62092D01*
X32592Y60971D01*
X32218Y60971D02*
X32966Y60971D01*
X33507Y61158D02*
X33507Y61345D01*
X33694Y61532D01*
X34068Y61532D01*
X34255Y61345D01*
X34255Y61158D01*
X34068Y60971D01*
X33694Y60971D01*
X33507Y61158D01*
X33694Y61532D02*
X33507Y61719D01*
X33507Y61905D01*
X33694Y62092D01*
X34068Y62092D01*
X34255Y61905D01*
X34255Y61719D01*
X34068Y61532D01*
X34068Y59552D02*
X33694Y59552D01*
X33507Y59365D01*
X33507Y59179D01*
X33694Y58992D01*
X34255Y58992D01*
X34255Y59365D02*
X34255Y58618D01*
X34068Y58431D01*
X33694Y58431D01*
X33507Y58618D01*
X32966Y58431D02*
X32218Y58431D01*
X32592Y58431D02*
X32592Y59552D01*
X32218Y59179D01*
X31677Y59365D02*
X31677Y58618D01*
X31490Y58431D01*
X31116Y58431D01*
X30929Y58618D01*
X30929Y59365D01*
X31116Y59552D01*
X31490Y59552D01*
X31677Y59365D01*
X30443Y59552D02*
X30069Y59552D01*
X30256Y59552D02*
X30256Y58431D01*
X30069Y58431D02*
X30443Y58431D01*
X30443Y57012D02*
X30069Y57012D01*
X30256Y57012D02*
X30256Y55891D01*
X30069Y55891D02*
X30443Y55891D01*
X30929Y56078D02*
X31116Y55891D01*
X31490Y55891D01*
X31677Y56078D01*
X31677Y56825D01*
X31490Y57012D01*
X31116Y57012D01*
X30929Y56825D01*
X30929Y56078D01*
X32218Y55891D02*
X32966Y56639D01*
X32966Y56825D01*
X32779Y57012D01*
X32405Y57012D01*
X32218Y56825D01*
X32218Y55891D02*
X32966Y55891D01*
X33507Y55891D02*
X34255Y55891D01*
X33881Y55891D02*
X33881Y57012D01*
X33507Y56639D01*
X33507Y54472D02*
X34068Y54472D01*
X34255Y54285D01*
X34255Y53538D01*
X34068Y53351D01*
X33507Y53351D01*
X33507Y54472D01*
X32966Y54472D02*
X32218Y53351D01*
X31677Y53351D02*
X31303Y53725D01*
X31490Y53725D02*
X30929Y53725D01*
X30929Y53351D02*
X30929Y54472D01*
X31490Y54472D01*
X31677Y54285D01*
X31677Y53912D01*
X31490Y53725D01*
X32218Y54472D02*
X32966Y53351D01*
X32966Y51932D02*
X32218Y50811D01*
X32966Y50811D02*
X32218Y51932D01*
X31677Y51932D02*
X30929Y51932D01*
X31303Y51932D02*
X31303Y50811D01*
X31490Y49392D02*
X31116Y49392D01*
X30929Y49205D01*
X30929Y48458D01*
X31116Y48271D01*
X31490Y48271D01*
X31677Y48458D01*
X31677Y49205D01*
X31490Y49392D01*
X32218Y49205D02*
X32405Y49392D01*
X32779Y49392D01*
X32966Y49205D01*
X32966Y49019D01*
X32218Y48271D01*
X32966Y48271D01*
X33507Y48271D02*
X34255Y49019D01*
X34255Y49205D01*
X34068Y49392D01*
X33694Y49392D01*
X33507Y49205D01*
X33507Y48271D02*
X34255Y48271D01*
X34068Y46852D02*
X34255Y46665D01*
X34255Y46479D01*
X34068Y46292D01*
X34255Y46105D01*
X34255Y45918D01*
X34068Y45731D01*
X33694Y45731D01*
X33507Y45918D01*
X33881Y46292D02*
X34068Y46292D01*
X34068Y46852D02*
X33694Y46852D01*
X33507Y46665D01*
X32966Y46665D02*
X32779Y46852D01*
X32405Y46852D01*
X32218Y46665D01*
X31677Y46665D02*
X31490Y46852D01*
X31116Y46852D01*
X30929Y46665D01*
X30929Y45918D01*
X31116Y45731D01*
X31490Y45731D01*
X31677Y45918D01*
X31677Y46665D01*
X32218Y45731D02*
X32966Y46479D01*
X32966Y46665D01*
X32966Y45731D02*
X32218Y45731D01*
X30443Y45731D02*
X30069Y45731D01*
X30256Y45731D02*
X30256Y46852D01*
X30069Y46852D02*
X30443Y46852D01*
X30443Y48271D02*
X30069Y48271D01*
X30256Y48271D02*
X30256Y49392D01*
X30069Y49392D02*
X30443Y49392D01*
X33507Y50811D02*
X34068Y50811D01*
X34255Y50998D01*
X34255Y51745D01*
X34068Y51932D01*
X33507Y51932D01*
X33507Y50811D01*
X38293Y50881D02*
X38470Y51058D01*
X39177Y50350D01*
X39354Y50527D01*
X39354Y50881D01*
X39177Y51058D01*
X38470Y51058D01*
X38293Y50881D02*
X38293Y50527D01*
X38470Y50350D01*
X39177Y50350D01*
X39354Y49824D02*
X39354Y49116D01*
X38647Y49824D01*
X38470Y49824D01*
X38293Y49647D01*
X38293Y49293D01*
X38470Y49116D01*
X38470Y48590D02*
X38647Y48590D01*
X38824Y48413D01*
X39000Y48590D01*
X39177Y48590D01*
X39354Y48413D01*
X39354Y48059D01*
X39177Y47882D01*
X38824Y48236D02*
X38824Y48413D01*
X38470Y48590D02*
X38293Y48413D01*
X38293Y48059D01*
X38470Y47882D01*
X38470Y47356D02*
X38647Y47356D01*
X38824Y47179D01*
X38824Y46648D01*
X38824Y46122D02*
X39000Y45945D01*
X39000Y45415D01*
X39000Y45768D02*
X39354Y46122D01*
X39354Y46648D02*
X39354Y47179D01*
X39177Y47356D01*
X39000Y47356D01*
X38824Y47179D01*
X38470Y47356D02*
X38293Y47179D01*
X38293Y46648D01*
X39354Y46648D01*
X38824Y46122D02*
X38470Y46122D01*
X38293Y45945D01*
X38293Y45415D01*
X39354Y45415D01*
X39177Y51584D02*
X38470Y51584D01*
X38293Y51761D01*
X38293Y52115D01*
X38470Y52292D01*
X39177Y51584D01*
X39354Y51761D01*
X39354Y52115D01*
X39177Y52292D01*
X38470Y52292D01*
X38824Y52818D02*
X38824Y53525D01*
X38824Y54052D02*
X38824Y54405D01*
X39354Y54052D02*
X39354Y54759D01*
X39177Y55285D02*
X39354Y55462D01*
X39354Y55816D01*
X39177Y55993D01*
X39000Y55993D01*
X38824Y55816D01*
X38824Y55462D01*
X38647Y55285D01*
X38470Y55285D01*
X38293Y55462D01*
X38293Y55816D01*
X38470Y55993D01*
X38293Y54759D02*
X38293Y54052D01*
X39354Y54052D01*
X39177Y60221D02*
X38647Y60221D01*
X38647Y61455D02*
X39354Y61455D01*
X34255Y59365D02*
X34068Y59552D01*
X30443Y60971D02*
X30069Y60971D01*
X30256Y60971D02*
X30256Y62092D01*
X30069Y62092D02*
X30443Y62092D01*
X40846Y68424D02*
X40846Y69186D01*
X33909Y79068D02*
X33535Y79068D01*
X33348Y79255D01*
X33348Y79629D02*
X33722Y79816D01*
X33909Y79816D01*
X34096Y79629D01*
X34096Y79255D01*
X33909Y79068D01*
X33348Y79629D02*
X33348Y80190D01*
X34096Y80190D01*
X32433Y80190D02*
X32433Y79068D01*
X32059Y79068D02*
X32807Y79068D01*
X32059Y79816D02*
X32433Y80190D01*
X31518Y80003D02*
X31518Y79255D01*
X31331Y79068D01*
X30957Y79068D01*
X30770Y79255D01*
X30770Y80003D01*
X30957Y80190D01*
X31331Y80190D01*
X31518Y80003D01*
X30285Y80190D02*
X29911Y80190D01*
X30098Y80190D02*
X30098Y79068D01*
X29911Y79068D02*
X30285Y79068D01*
X27249Y81596D02*
X27249Y81846D01*
X26999Y82096D01*
X26499Y82096D01*
X26249Y82346D01*
X26249Y82596D01*
X26499Y82845D01*
X26999Y82845D01*
X27249Y82596D01*
X27249Y81596D02*
X26999Y81346D01*
X26499Y81346D01*
X26249Y81596D01*
X26499Y84013D02*
X26249Y84263D01*
X26499Y84013D02*
X26999Y84013D01*
X27249Y84263D01*
X27249Y84513D01*
X26999Y84763D01*
X26499Y84763D01*
X26249Y85013D01*
X26249Y85263D01*
X26499Y85512D01*
X26999Y85512D01*
X27249Y85263D01*
X26999Y86680D02*
X26499Y86680D01*
X26249Y86930D01*
X26249Y87430D02*
X26749Y87680D01*
X26999Y87680D01*
X27249Y87430D01*
X27249Y86930D01*
X26999Y86680D01*
X26249Y87430D02*
X26249Y88179D01*
X27249Y88179D01*
X26999Y89347D02*
X26499Y89347D01*
X26249Y89597D01*
X26249Y90597D01*
X26499Y90846D01*
X26999Y90846D01*
X27249Y90597D01*
X27249Y90097D02*
X26749Y90097D01*
X27249Y90097D02*
X27249Y89597D01*
X26999Y89347D01*
X25611Y45293D02*
X25861Y45043D01*
X25861Y44543D01*
X25611Y44293D01*
X25111Y44543D02*
X25111Y45043D01*
X25361Y45293D01*
X25611Y45293D01*
X25111Y44543D02*
X24861Y44293D01*
X24611Y44293D01*
X24361Y44543D01*
X24361Y45043D01*
X24611Y45293D01*
X23194Y45043D02*
X23194Y44543D01*
X22944Y44293D01*
X22444Y44543D02*
X22444Y45043D01*
X22694Y45293D01*
X22944Y45293D01*
X23194Y45043D01*
X22444Y44543D02*
X22194Y44293D01*
X21944Y44293D01*
X21694Y44543D01*
X21694Y45043D01*
X21944Y45293D01*
X20527Y45043D02*
X20527Y44543D01*
X20277Y44293D01*
X19777Y44543D02*
X19777Y45043D01*
X20027Y45293D01*
X20277Y45293D01*
X20527Y45043D01*
X19777Y44543D02*
X19527Y44293D01*
X19277Y44293D01*
X19027Y44543D01*
X19027Y45043D01*
X19277Y45293D01*
X17860Y45043D02*
X17860Y44543D01*
X17610Y44293D01*
X16610Y44293D01*
X16360Y44543D01*
X16360Y45043D01*
X16610Y45293D01*
X17110Y45293D02*
X17110Y44793D01*
X17110Y45293D02*
X17610Y45293D01*
X17860Y45043D01*
X15193Y45043D02*
X15193Y44543D01*
X14943Y44293D01*
X14443Y44793D02*
X14443Y45043D01*
X14693Y45293D01*
X14943Y45293D01*
X15193Y45043D01*
X14443Y45043D02*
X14193Y45293D01*
X13943Y45293D01*
X13693Y45043D01*
X13693Y44543D01*
X13943Y44293D01*
X12526Y44543D02*
X12526Y45043D01*
X12276Y45293D01*
X11776Y45293D01*
X11526Y45043D01*
X11526Y44793D01*
X11776Y44293D01*
X11026Y44293D01*
X11026Y45293D01*
X12276Y44293D02*
X12526Y44543D01*
D13*
X40274Y45453D02*
X40274Y46165D01*
X40511Y46402D01*
X40986Y46402D01*
X41223Y46165D01*
X41223Y45453D01*
X41223Y45927D02*
X41697Y46402D01*
X41697Y47090D02*
X40274Y47090D01*
X40274Y47802D01*
X40511Y48039D01*
X40748Y48039D01*
X40986Y47802D01*
X40986Y47090D01*
X41697Y47090D02*
X41697Y47802D01*
X41460Y48039D01*
X41223Y48039D01*
X40986Y47802D01*
X41697Y45453D02*
X40274Y45453D01*
X40511Y50364D02*
X40274Y50601D01*
X40274Y51076D01*
X40511Y51313D01*
X40748Y51313D01*
X40986Y51076D01*
X41223Y51313D01*
X41460Y51313D01*
X41697Y51076D01*
X41697Y50601D01*
X41460Y50364D01*
X40986Y50839D02*
X40986Y51076D01*
X40986Y52001D02*
X40986Y52950D01*
X40748Y53638D02*
X40274Y54113D01*
X41697Y54113D01*
X41697Y53638D02*
X41697Y54588D01*
X41697Y55276D02*
X41460Y55276D01*
X40511Y56225D01*
X40274Y56225D01*
X40274Y55276D01*
X88295Y91320D02*
X89244Y91320D01*
X88769Y90845D02*
X88769Y91794D01*
X88769Y94120D02*
X88769Y95069D01*
D14*
X76140Y93567D02*
X76140Y93405D01*
X75978Y93243D01*
X75492Y93243D01*
X75035Y93081D02*
X75035Y92919D01*
X74873Y92757D01*
X74549Y92757D01*
X74387Y92919D01*
X74549Y93243D02*
X74873Y93243D01*
X75035Y93081D01*
X75035Y93567D02*
X74873Y93729D01*
X74549Y93729D01*
X74387Y93567D01*
X74387Y93405D01*
X74549Y93243D01*
X73930Y92919D02*
X73768Y92757D01*
X73444Y92757D01*
X73282Y92919D01*
X73282Y93729D01*
X73930Y93729D02*
X73930Y92919D01*
X72825Y92595D02*
X72177Y92595D01*
X71720Y92919D02*
X71558Y92757D01*
X71234Y92757D01*
X71072Y92919D01*
X71396Y93243D02*
X71558Y93243D01*
X71720Y93081D01*
X71720Y92919D01*
X71558Y93243D02*
X71720Y93405D01*
X71720Y93567D01*
X71558Y93729D01*
X71234Y93729D01*
X71072Y93567D01*
X70616Y93729D02*
X70616Y93081D01*
X70291Y92757D01*
X69967Y93081D01*
X69967Y93729D01*
X69511Y93567D02*
X69511Y93405D01*
X69349Y93243D01*
X69511Y93081D01*
X69511Y92919D01*
X69349Y92757D01*
X69024Y92757D01*
X68862Y92919D01*
X69186Y93243D02*
X69349Y93243D01*
X69511Y93567D02*
X69349Y93729D01*
X69024Y93729D01*
X68862Y93567D01*
X68704Y94503D02*
X69352Y94503D01*
X69809Y94503D02*
X70457Y94503D01*
X70914Y94503D02*
X71400Y94503D01*
X71562Y94665D01*
X71562Y95313D01*
X71400Y95475D01*
X70914Y95475D01*
X70914Y94503D01*
X70133Y94989D02*
X69809Y94989D01*
X69809Y95475D02*
X69809Y94503D01*
X69809Y95475D02*
X70457Y95475D01*
X72019Y94341D02*
X72667Y94341D01*
X73123Y94665D02*
X73285Y94503D01*
X73610Y94503D01*
X73772Y94665D01*
X73772Y94827D01*
X73610Y94989D01*
X73448Y94989D01*
X73610Y94989D02*
X73772Y95151D01*
X73772Y95313D01*
X73610Y95475D01*
X73285Y95475D01*
X73123Y95313D01*
X74228Y95475D02*
X74228Y94827D01*
X74552Y94503D01*
X74877Y94827D01*
X74877Y95475D01*
X75333Y95313D02*
X75495Y95475D01*
X75819Y95475D01*
X75981Y95313D01*
X75981Y95151D01*
X75819Y94989D01*
X75981Y94827D01*
X75981Y94665D01*
X75819Y94503D01*
X75495Y94503D01*
X75333Y94665D01*
X75657Y94989D02*
X75819Y94989D01*
X75978Y93729D02*
X76140Y93567D01*
X75978Y93729D02*
X75492Y93729D01*
X75492Y92757D01*
X75978Y92757D01*
X76140Y92919D01*
X76140Y93081D01*
X75978Y93243D01*
X68704Y94503D02*
X68704Y95475D01*
X67139Y93729D02*
X66653Y93729D01*
X66653Y92757D01*
X67139Y92757D01*
X67301Y92919D01*
X67301Y93567D01*
X67139Y93729D01*
X66196Y93729D02*
X65548Y93729D01*
X65548Y92757D01*
X66196Y92757D01*
X65872Y93243D02*
X65548Y93243D01*
X65091Y92757D02*
X64443Y92757D01*
X64443Y93729D01*
X67757Y92595D02*
X68406Y92595D01*
X60582Y89210D02*
X60582Y88724D01*
X59610Y88724D01*
X59610Y89210D01*
X59772Y89372D01*
X59934Y89372D01*
X60096Y89210D01*
X60096Y88724D01*
X60258Y88267D02*
X60096Y88105D01*
X60096Y87781D01*
X59934Y87619D01*
X59772Y87619D01*
X59610Y87781D01*
X59610Y88105D01*
X59772Y88267D01*
X60258Y88267D02*
X60420Y88267D01*
X60582Y88105D01*
X60582Y87781D01*
X60420Y87619D01*
X60420Y87163D02*
X59610Y87163D01*
X59610Y86514D02*
X60420Y86514D01*
X60582Y86676D01*
X60582Y87000D01*
X60420Y87163D01*
X60744Y86058D02*
X60744Y85409D01*
X60258Y84953D02*
X59610Y84953D01*
X60258Y84953D02*
X60582Y84629D01*
X60258Y84304D01*
X59610Y84304D01*
X59610Y83848D02*
X59610Y83200D01*
X60096Y83200D01*
X59934Y83524D01*
X59934Y83686D01*
X60096Y83848D01*
X60420Y83848D01*
X60582Y83686D01*
X60582Y83362D01*
X60420Y83200D01*
X60582Y89210D02*
X60420Y89372D01*
X60258Y89372D01*
X60096Y89210D01*
X47317Y93004D02*
X46345Y93004D01*
X46345Y93490D01*
X46507Y93652D01*
X46831Y93652D01*
X46993Y93490D01*
X46993Y93004D01*
X46993Y93328D02*
X47317Y93652D01*
X47317Y94109D02*
X46345Y94757D01*
X46345Y94109D02*
X47317Y94757D01*
X42872Y94757D02*
X41900Y94109D01*
X41900Y93652D02*
X41900Y93004D01*
X41900Y93328D02*
X42872Y93328D01*
X42872Y94109D02*
X41900Y94757D01*
X38986Y93656D02*
X38338Y93008D01*
X38500Y92845D01*
X38824Y92845D01*
X38986Y93008D01*
X38986Y93656D01*
X38824Y93818D01*
X38500Y93818D01*
X38338Y93656D01*
X38338Y93008D01*
X35176Y92845D02*
X34528Y92845D01*
X34852Y92845D02*
X34852Y93818D01*
X34528Y93494D01*
X31366Y93494D02*
X31366Y93656D01*
X31204Y93818D01*
X30880Y93818D01*
X30718Y93656D01*
X31366Y93494D02*
X30718Y92845D01*
X31366Y92845D01*
X27556Y93008D02*
X27394Y92845D01*
X27070Y92845D01*
X26908Y93008D01*
X27232Y93332D02*
X27394Y93332D01*
X27556Y93170D01*
X27556Y93008D01*
X27394Y93332D02*
X27556Y93494D01*
X27556Y93656D01*
X27394Y93818D01*
X27070Y93818D01*
X26908Y93656D01*
X23746Y93967D02*
X23098Y93967D01*
X23584Y94453D01*
X23584Y93480D01*
X18508Y94913D02*
X18346Y94750D01*
X18022Y94750D01*
X17860Y94913D01*
X17860Y95237D02*
X18184Y95399D01*
X18346Y95399D01*
X18508Y95237D01*
X18508Y94913D01*
X17860Y95237D02*
X17860Y95723D01*
X18508Y95723D01*
X32464Y88099D02*
X32950Y87613D01*
X32950Y88261D01*
X33436Y88099D02*
X32464Y88099D01*
X34264Y88099D02*
X34264Y87775D01*
X34426Y87613D01*
X34264Y88099D02*
X34426Y88261D01*
X34588Y88261D01*
X35236Y87613D01*
X35236Y88261D01*
X36064Y88099D02*
X36064Y87775D01*
X36226Y87613D01*
X36874Y87613D01*
X36226Y88261D01*
X36874Y88261D01*
X37036Y88099D01*
X37036Y87775D01*
X36874Y87613D01*
X36226Y88261D02*
X36064Y88099D01*
X37036Y81911D02*
X37036Y81263D01*
X37036Y81587D02*
X36064Y81587D01*
X36388Y81263D01*
X35236Y81425D02*
X35236Y81749D01*
X35074Y81911D01*
X34912Y81911D01*
X34750Y81749D01*
X34750Y81587D01*
X34750Y81749D02*
X34588Y81911D01*
X34426Y81911D01*
X34264Y81749D01*
X34264Y81425D01*
X34426Y81263D01*
X35074Y81263D02*
X35236Y81425D01*
X33436Y81425D02*
X33436Y81749D01*
X33274Y81911D01*
X32950Y81911D01*
X32788Y81749D01*
X32788Y81587D01*
X32950Y81263D01*
X32464Y81263D01*
X32464Y81911D01*
X33274Y81263D02*
X33436Y81425D01*
X42316Y71751D02*
X42316Y71103D01*
X41992Y71427D02*
X42640Y71427D01*
X44856Y71103D02*
X44856Y71751D01*
X46910Y71795D02*
X46910Y71471D01*
X46910Y71633D02*
X47882Y71633D01*
X47882Y71471D02*
X47882Y71795D01*
X49450Y71589D02*
X49450Y71265D01*
X49612Y71103D01*
X50260Y71103D01*
X50422Y71265D01*
X50422Y71589D01*
X50260Y71751D01*
X49612Y71751D01*
X49450Y71589D01*
X51990Y71589D02*
X51990Y71265D01*
X52152Y71103D01*
X52800Y71103D01*
X52962Y71265D01*
X52962Y71589D01*
X52800Y71751D01*
X52152Y71751D02*
X51990Y71589D01*
X54530Y71589D02*
X54530Y71265D01*
X54692Y71103D01*
X54854Y71103D01*
X55016Y71265D01*
X55016Y71589D01*
X55178Y71751D01*
X55340Y71751D01*
X55502Y71589D01*
X55502Y71265D01*
X55340Y71103D01*
X54692Y71751D02*
X54530Y71589D01*
X57070Y71751D02*
X58042Y71751D01*
X57718Y71427D01*
X58042Y71103D01*
X57070Y71103D01*
X59610Y71103D02*
X60582Y71103D01*
X60096Y71103D02*
X60096Y71751D01*
X59610Y71751D02*
X60582Y71751D01*
D15*
X58865Y67404D02*
X58865Y67072D01*
X58865Y67238D02*
X57867Y67238D01*
X57867Y67072D01*
X58366Y66632D02*
X58865Y66632D01*
X58865Y66133D01*
X58699Y65967D01*
X58532Y66133D01*
X58532Y66632D01*
X58366Y66632D02*
X58200Y66466D01*
X58200Y66133D01*
X58200Y65527D02*
X58200Y65028D01*
X58366Y64862D01*
X58532Y65028D01*
X58532Y65361D01*
X58699Y65527D01*
X58865Y65361D01*
X58865Y64862D01*
X58200Y64440D02*
X58200Y64274D01*
X58532Y63941D01*
X58200Y63941D02*
X58865Y63941D01*
X58532Y63501D02*
X58532Y62836D01*
X58366Y62836D02*
X58200Y63002D01*
X58200Y63335D01*
X58366Y63501D01*
X58532Y63501D01*
X58865Y63335D02*
X58865Y63002D01*
X58699Y62836D01*
X58366Y62836D01*
X58200Y62396D02*
X58865Y62064D01*
X58200Y61731D01*
X58200Y61161D02*
X58865Y61161D01*
X58865Y61327D02*
X58865Y60994D01*
X58865Y60555D02*
X58366Y60555D01*
X58200Y60388D01*
X58200Y59890D01*
X58865Y59890D01*
X58865Y59450D02*
X58200Y59450D01*
X58865Y59450D02*
X58865Y58951D01*
X58699Y58785D01*
X58200Y58785D01*
X58200Y58345D02*
X58034Y58345D01*
X57867Y58178D01*
X57867Y57846D01*
X58034Y57680D01*
X58034Y57240D02*
X58200Y57240D01*
X58366Y57074D01*
X58532Y57240D01*
X58699Y57240D01*
X58865Y57074D01*
X58865Y56741D01*
X58699Y56575D01*
X58366Y56907D02*
X58366Y57074D01*
X58034Y57240D02*
X57867Y57074D01*
X57867Y56741D01*
X58034Y56575D01*
X58034Y56135D02*
X58366Y56135D01*
X58532Y55969D01*
X58532Y55470D01*
X58865Y55470D02*
X57867Y55470D01*
X57867Y55969D01*
X58034Y56135D01*
X57065Y56539D02*
X56899Y56373D01*
X56234Y56373D01*
X56400Y56539D02*
X56400Y56206D01*
X56566Y55767D02*
X56400Y55600D01*
X56400Y55268D01*
X56566Y55101D01*
X56899Y55101D01*
X57065Y55268D01*
X57065Y55600D01*
X56899Y55767D01*
X56566Y55767D01*
X56566Y54662D02*
X56400Y54495D01*
X56400Y53996D01*
X56067Y53996D02*
X57065Y53996D01*
X57065Y54495D01*
X56899Y54662D01*
X56566Y54662D01*
X56566Y53557D02*
X56400Y53390D01*
X56400Y53058D01*
X56566Y52892D01*
X56899Y52892D01*
X57065Y53058D01*
X57065Y53390D01*
X56899Y53557D01*
X56566Y53557D01*
X56400Y52470D02*
X56400Y52303D01*
X56732Y51971D01*
X56400Y51971D02*
X57065Y51971D01*
X57065Y51585D02*
X57065Y51418D01*
X56899Y51418D01*
X56899Y51585D01*
X57065Y51585D01*
X56566Y51585D02*
X56566Y51418D01*
X56400Y51418D01*
X56400Y51585D01*
X56566Y51585D01*
X56566Y50978D02*
X56400Y50812D01*
X56400Y50313D01*
X56067Y50313D02*
X57065Y50313D01*
X57065Y50812D01*
X56899Y50978D01*
X56566Y50978D01*
X56400Y49874D02*
X57065Y49874D01*
X57065Y49375D01*
X56899Y49208D01*
X56400Y49208D01*
X56566Y48769D02*
X57065Y48769D01*
X56566Y48769D02*
X56400Y48602D01*
X56400Y48270D01*
X56566Y48103D01*
X56400Y47699D02*
X56400Y47367D01*
X56234Y47533D02*
X56899Y47533D01*
X57065Y47699D01*
X57065Y48103D02*
X56067Y48103D01*
X57065Y46963D02*
X57065Y46630D01*
X57065Y46796D02*
X56400Y46796D01*
X56400Y46630D01*
X56067Y46796D02*
X55901Y46796D01*
X56400Y46190D02*
X56400Y45692D01*
X56566Y45525D01*
X56899Y45525D01*
X57065Y45692D01*
X57065Y46190D01*
X57231Y46190D02*
X56400Y46190D01*
X57231Y46190D02*
X57397Y46024D01*
X57397Y45858D01*
X57867Y46024D02*
X57867Y45525D01*
X58865Y45525D01*
X58532Y45525D02*
X58532Y46024D01*
X58366Y46190D01*
X58034Y46190D01*
X57867Y46024D01*
X57867Y46630D02*
X57867Y47129D01*
X58034Y47295D01*
X58200Y47295D01*
X58366Y47129D01*
X58366Y46630D01*
X58865Y46630D02*
X57867Y46630D01*
X58366Y47129D02*
X58532Y47295D01*
X58699Y47295D01*
X58865Y47129D01*
X58865Y46630D01*
X58865Y46190D02*
X58532Y45858D01*
X59667Y46024D02*
X59667Y45692D01*
X59834Y45525D01*
X60499Y45525D01*
X60665Y45692D01*
X60665Y46024D01*
X60499Y46190D01*
X60499Y46630D02*
X60665Y46796D01*
X60665Y47129D01*
X60499Y47295D01*
X60499Y46630D02*
X59834Y46630D01*
X59667Y46796D01*
X59667Y47129D01*
X59834Y47295D01*
X59834Y46190D02*
X59667Y46024D01*
X58699Y47735D02*
X58865Y47901D01*
X58865Y48234D01*
X58699Y48400D01*
X58532Y48400D01*
X58366Y48234D01*
X58366Y48068D01*
X58366Y48234D02*
X58200Y48400D01*
X58034Y48400D01*
X57867Y48234D01*
X57867Y47901D01*
X58034Y47735D01*
X58034Y48840D02*
X57867Y49006D01*
X57867Y49339D01*
X58034Y49505D01*
X58200Y49505D01*
X58865Y48840D01*
X58865Y49505D01*
X58699Y49945D02*
X58034Y50610D01*
X58699Y50610D01*
X58865Y50444D01*
X58865Y50111D01*
X58699Y49945D01*
X58034Y49945D01*
X57867Y50111D01*
X57867Y50444D01*
X58034Y50610D01*
X58034Y51050D02*
X57867Y51216D01*
X57867Y51549D01*
X58034Y51715D01*
X58699Y51050D01*
X58865Y51216D01*
X58865Y51549D01*
X58699Y51715D01*
X58034Y51715D01*
X58366Y52155D02*
X58366Y52820D01*
X58366Y53260D02*
X58366Y53592D01*
X57867Y53260D02*
X58865Y53260D01*
X58865Y53925D01*
X58699Y54365D02*
X58865Y54531D01*
X58865Y54864D01*
X58699Y55030D01*
X58532Y55030D01*
X58366Y54864D01*
X58366Y54531D01*
X58200Y54365D01*
X58034Y54365D01*
X57867Y54531D01*
X57867Y54864D01*
X58034Y55030D01*
X57867Y53925D02*
X57867Y53260D01*
X59667Y53592D02*
X60000Y53925D01*
X60665Y53925D01*
X60166Y53925D02*
X60166Y53260D01*
X60000Y53260D02*
X59667Y53592D01*
X60000Y53260D02*
X60665Y53260D01*
X60499Y52820D02*
X60665Y52654D01*
X60665Y52321D01*
X60499Y52155D01*
X60166Y52321D02*
X60166Y52654D01*
X60332Y52820D01*
X60499Y52820D01*
X60166Y52321D02*
X60000Y52155D01*
X59834Y52155D01*
X59667Y52321D01*
X59667Y52654D01*
X59834Y52820D01*
X60166Y51715D02*
X60166Y51050D01*
X59834Y50610D02*
X59667Y50610D01*
X59834Y50610D02*
X60166Y50278D01*
X60665Y50278D01*
X60166Y50278D02*
X59834Y49945D01*
X59667Y49945D01*
X59834Y49505D02*
X60000Y49505D01*
X60166Y49339D01*
X60166Y48840D01*
X59667Y48840D02*
X59667Y49339D01*
X59834Y49505D01*
X60166Y49339D02*
X60332Y49505D01*
X60499Y49505D01*
X60665Y49339D01*
X60665Y48840D01*
X59667Y48840D01*
X58699Y51050D02*
X58034Y51050D01*
X60166Y55470D02*
X60166Y56135D01*
X59667Y55969D02*
X60166Y55470D01*
X60665Y55969D02*
X59667Y55969D01*
X60499Y56575D02*
X60499Y56741D01*
X60665Y56741D01*
X60665Y56575D01*
X60499Y56575D01*
X60499Y57127D02*
X59834Y57792D01*
X60499Y57792D01*
X60665Y57626D01*
X60665Y57293D01*
X60499Y57127D01*
X59834Y57127D01*
X59667Y57293D01*
X59667Y57626D01*
X59834Y57792D01*
X58865Y57680D02*
X58200Y58345D01*
X58865Y58345D02*
X58865Y57680D01*
X57065Y57846D02*
X57065Y58345D01*
X57065Y58785D02*
X57065Y59283D01*
X56899Y59450D01*
X56732Y59283D01*
X56732Y58951D01*
X56566Y58785D01*
X56400Y58951D01*
X56400Y59450D01*
X56400Y59890D02*
X56400Y60388D01*
X56566Y60555D01*
X56899Y60555D01*
X57065Y60388D01*
X57065Y59890D01*
X56067Y59890D01*
X56400Y60994D02*
X57065Y60994D01*
X56732Y60994D02*
X56400Y61327D01*
X56400Y61493D01*
X56400Y61915D02*
X56400Y62414D01*
X56566Y62580D01*
X57065Y62580D01*
X56899Y63020D02*
X57065Y63186D01*
X57065Y63519D01*
X56899Y63685D01*
X56566Y63685D01*
X56400Y63519D01*
X56400Y63186D01*
X56566Y63020D01*
X56899Y63020D01*
X57065Y61915D02*
X56400Y61915D01*
X57701Y61161D02*
X57867Y61161D01*
X58200Y61161D02*
X58200Y60994D01*
X56400Y58345D02*
X56400Y57846D01*
X56566Y57680D01*
X56899Y57680D01*
X57065Y57846D01*
X57065Y57276D02*
X57065Y56943D01*
X57065Y57109D02*
X56400Y57109D01*
X56400Y56943D01*
X56067Y57109D02*
X55901Y57109D01*
X57065Y64125D02*
X56067Y64790D01*
X45425Y64363D02*
X45425Y63651D01*
X44713Y64363D01*
X44713Y63651D01*
X44713Y63193D02*
X44713Y62659D01*
X44891Y62482D01*
X45247Y62482D01*
X45425Y62659D01*
X45425Y63193D01*
X45425Y62075D02*
X45425Y61897D01*
X45247Y61897D01*
X45247Y62075D01*
X45425Y62075D01*
X45247Y61439D02*
X44891Y61439D01*
X44713Y61261D01*
X44713Y60905D01*
X44891Y60727D01*
X45247Y60727D01*
X45425Y60905D01*
X45425Y61261D01*
X45247Y61439D01*
X45425Y60270D02*
X44891Y60270D01*
X44713Y60092D01*
X44713Y59558D01*
X45425Y59558D01*
X44713Y59117D02*
X44713Y58939D01*
X45069Y58584D01*
X45425Y58584D02*
X44713Y58584D01*
X44713Y58126D02*
X44891Y57948D01*
X44891Y57414D01*
X44891Y56957D02*
X45425Y56957D01*
X45425Y56423D01*
X45247Y56245D01*
X45069Y56423D01*
X45069Y56957D01*
X44891Y56957D02*
X44713Y56779D01*
X44713Y56423D01*
X44713Y55804D02*
X45069Y55270D01*
X45425Y55804D01*
X45425Y55270D02*
X44357Y55270D01*
X44357Y54669D02*
X44179Y54669D01*
X44713Y54669D02*
X45425Y54669D01*
X45425Y54491D02*
X45425Y54847D01*
X44713Y54669D02*
X44713Y54491D01*
X44713Y54067D02*
X44713Y53711D01*
X44535Y53889D02*
X45247Y53889D01*
X45425Y54067D01*
X45247Y53253D02*
X44891Y53253D01*
X44713Y53076D01*
X44713Y52720D01*
X44891Y52542D01*
X45247Y52542D01*
X45425Y52720D01*
X45425Y53076D01*
X45247Y53253D01*
X45247Y52084D02*
X44891Y52084D01*
X44713Y51906D01*
X44713Y51372D01*
X44357Y51372D02*
X45425Y51372D01*
X45425Y51906D01*
X45247Y52084D01*
X45247Y50915D02*
X44891Y50915D01*
X44713Y50737D01*
X44713Y50381D01*
X44891Y50203D01*
X45247Y50203D01*
X45425Y50381D01*
X45425Y50737D01*
X45247Y50915D01*
X45425Y49745D02*
X45069Y49389D01*
X45069Y49567D02*
X45069Y49033D01*
X45425Y49033D02*
X44357Y49033D01*
X44357Y49567D01*
X44535Y49745D01*
X44891Y49745D01*
X45069Y49567D01*
X45069Y47406D02*
X45247Y47406D01*
X45425Y47229D01*
X45425Y46695D01*
X44357Y46695D01*
X44357Y47229D01*
X44535Y47406D01*
X44713Y47406D01*
X44891Y47229D01*
X44891Y46695D01*
X44891Y46237D02*
X45069Y46059D01*
X45069Y45525D01*
X45425Y45525D02*
X44357Y45525D01*
X44357Y46059D01*
X44535Y46237D01*
X44891Y46237D01*
X45069Y45881D02*
X45425Y46237D01*
X44891Y47229D02*
X45069Y47406D01*
X45425Y57414D02*
X44357Y57414D01*
X44357Y57948D01*
X44535Y58126D01*
X44713Y58126D01*
X44891Y57948D02*
X45069Y58126D01*
X45247Y58126D01*
X45425Y57948D01*
X45425Y57414D01*
X30419Y53036D02*
X29754Y53036D01*
X29621Y53169D01*
X30020Y53169D02*
X30020Y52903D01*
X30020Y52514D02*
X30153Y52514D01*
X30153Y51982D01*
X30286Y51982D02*
X30020Y51982D01*
X29887Y52115D01*
X29887Y52381D01*
X30020Y52514D01*
X30419Y52381D02*
X30419Y52115D01*
X30286Y51982D01*
X30419Y51593D02*
X30153Y51327D01*
X30153Y51460D02*
X30153Y51062D01*
X30419Y51062D02*
X29621Y51062D01*
X29621Y51460D01*
X29754Y51593D01*
X30020Y51593D01*
X30153Y51460D01*
X30020Y50672D02*
X30020Y50141D01*
X29887Y50141D02*
X29621Y50407D01*
X29887Y50672D01*
X30419Y50672D01*
X30419Y50141D02*
X29887Y50141D01*
X27079Y50092D02*
X27079Y49693D01*
X26281Y49693D01*
X26281Y50092D01*
X26414Y50225D01*
X26946Y50225D01*
X27079Y50092D01*
X27079Y50614D02*
X26547Y50614D01*
X26281Y50880D01*
X26547Y51146D01*
X27079Y51146D01*
X26680Y51146D02*
X26680Y50614D01*
X26813Y49304D02*
X26946Y49304D01*
X27079Y49171D01*
X27079Y48905D01*
X26946Y48772D01*
X26680Y48905D02*
X26680Y49171D01*
X26813Y49304D01*
X26414Y49304D02*
X26281Y49171D01*
X26281Y48905D01*
X26414Y48772D01*
X26547Y48772D01*
X26680Y48905D01*
X27079Y48061D02*
X27079Y47529D01*
X26281Y47529D01*
X26414Y47140D02*
X26281Y47007D01*
X26281Y46741D01*
X26414Y46608D01*
X26946Y46608D01*
X27079Y46741D01*
X27079Y47007D01*
X26946Y47140D01*
X26946Y46219D02*
X26813Y46219D01*
X26680Y46086D01*
X26680Y45820D01*
X26547Y45687D01*
X26414Y45687D01*
X26281Y45820D01*
X26281Y46086D01*
X26414Y46219D01*
X26946Y46219D02*
X27079Y46086D01*
X27079Y45820D01*
X26946Y45687D01*
X26946Y52755D02*
X26414Y52755D01*
X26281Y52888D01*
X26281Y53154D01*
X26414Y53287D01*
X26680Y53287D02*
X26680Y53021D01*
X26680Y53287D02*
X26946Y53287D01*
X27079Y53154D01*
X27079Y52888D01*
X26946Y52755D01*
X27079Y53676D02*
X26281Y53676D01*
X27079Y54207D01*
X26281Y54207D01*
X26281Y54596D02*
X26281Y54995D01*
X26414Y55128D01*
X26946Y55128D01*
X27079Y54995D01*
X27079Y54596D01*
X26281Y54596D01*
X26566Y55968D02*
X26300Y56234D01*
X27097Y56234D01*
X27097Y56499D02*
X27097Y55968D01*
X26964Y56888D02*
X27097Y57021D01*
X27097Y57287D01*
X26964Y57420D01*
X26832Y57420D01*
X26699Y57287D01*
X26699Y57154D01*
X26699Y57287D02*
X26566Y57420D01*
X26433Y57420D01*
X26300Y57287D01*
X26300Y57021D01*
X26433Y56888D01*
X26566Y58508D02*
X26300Y58774D01*
X27097Y58774D01*
X27097Y59039D02*
X27097Y58508D01*
X27097Y59428D02*
X26566Y59960D01*
X26433Y59960D01*
X26300Y59827D01*
X26300Y59561D01*
X26433Y59428D01*
X27097Y59428D02*
X27097Y59960D01*
X27097Y61048D02*
X27097Y61579D01*
X27097Y61314D02*
X26300Y61314D01*
X26566Y61048D01*
X26566Y61968D02*
X26300Y62234D01*
X27097Y62234D01*
X27097Y61968D02*
X27097Y62500D01*
X27097Y63588D02*
X27097Y64119D01*
X27097Y63854D02*
X26300Y63854D01*
X26566Y63588D01*
X26433Y64508D02*
X26300Y64641D01*
X26300Y64907D01*
X26433Y65040D01*
X26964Y64508D01*
X27097Y64641D01*
X27097Y64907D01*
X26964Y65040D01*
X26433Y65040D01*
X26433Y64508D02*
X26964Y64508D01*
X26964Y66540D02*
X27097Y66673D01*
X27097Y66939D01*
X26964Y67072D01*
X26433Y67072D01*
X26300Y66939D01*
X26300Y66673D01*
X26433Y66540D01*
X26566Y66540D01*
X26699Y66673D01*
X26699Y67072D01*
X26832Y69080D02*
X26699Y69213D01*
X26699Y69479D01*
X26832Y69612D01*
X26964Y69612D01*
X27097Y69479D01*
X27097Y69213D01*
X26964Y69080D01*
X26832Y69080D01*
X26699Y69213D02*
X26566Y69080D01*
X26433Y69080D01*
X26300Y69213D01*
X26300Y69479D01*
X26433Y69612D01*
X26566Y69612D01*
X26699Y69479D01*
X29737Y73144D02*
X29737Y73676D01*
X29870Y73676D01*
X30402Y73144D01*
X30535Y73144D01*
X30402Y75684D02*
X30535Y75817D01*
X30535Y76083D01*
X30402Y76216D01*
X30269Y76216D01*
X30136Y76083D01*
X30136Y75684D01*
X30402Y75684D01*
X30136Y75684D02*
X29870Y75950D01*
X29737Y76216D01*
X29737Y77287D02*
X30136Y77287D01*
X30003Y77553D01*
X30003Y77686D01*
X30136Y77819D01*
X30402Y77819D01*
X30535Y77686D01*
X30535Y77420D01*
X30402Y77287D01*
X29737Y77287D02*
X29737Y77819D01*
X30136Y81077D02*
X29737Y81476D01*
X30535Y81476D01*
X30136Y81609D02*
X30136Y81077D01*
X29870Y83304D02*
X29737Y83437D01*
X29737Y83703D01*
X29870Y83836D01*
X30003Y83836D01*
X30136Y83703D01*
X30269Y83836D01*
X30402Y83836D01*
X30535Y83703D01*
X30535Y83437D01*
X30402Y83304D01*
X30136Y83570D02*
X30136Y83703D01*
X29870Y85844D02*
X29737Y85977D01*
X29737Y86243D01*
X29870Y86376D01*
X30003Y86376D01*
X30535Y85844D01*
X30535Y86376D01*
X30535Y88384D02*
X30535Y88916D01*
X30535Y88650D02*
X29737Y88650D01*
X30003Y88384D01*
X29870Y90924D02*
X29737Y91057D01*
X29737Y91323D01*
X29870Y91456D01*
X30402Y90924D01*
X30535Y91057D01*
X30535Y91323D01*
X30402Y91456D01*
X29870Y91456D01*
X29870Y90924D02*
X30402Y90924D01*
X77970Y90864D02*
X78369Y90864D01*
X78236Y91130D01*
X78236Y91263D01*
X78369Y91396D01*
X78634Y91396D01*
X78767Y91263D01*
X78767Y90997D01*
X78634Y90864D01*
X77970Y90864D02*
X77970Y91396D01*
X78369Y88856D02*
X78369Y88324D01*
X77970Y88723D01*
X78767Y88723D01*
X78634Y86316D02*
X78502Y86316D01*
X78369Y86183D01*
X78369Y86050D01*
X78369Y86183D02*
X78236Y86316D01*
X78103Y86316D01*
X77970Y86183D01*
X77970Y85917D01*
X78103Y85784D01*
X78634Y85784D02*
X78767Y85917D01*
X78767Y86183D01*
X78634Y86316D01*
X78767Y83776D02*
X78767Y83244D01*
X78236Y83776D01*
X78103Y83776D01*
X77970Y83643D01*
X77970Y83377D01*
X78103Y83244D01*
X78767Y81236D02*
X78767Y80704D01*
X78767Y80970D02*
X77970Y80970D01*
X78236Y80704D01*
X78103Y78091D02*
X78634Y77559D01*
X78767Y77692D01*
X78767Y77958D01*
X78634Y78091D01*
X78103Y78091D01*
X77970Y77958D01*
X77970Y77692D01*
X78103Y77559D01*
X78634Y77559D01*
X78767Y74597D02*
X78369Y74597D01*
X78236Y74464D01*
X78236Y74065D01*
X78767Y74065D01*
X78767Y73717D02*
X78767Y73451D01*
X78767Y73584D02*
X78236Y73584D01*
X78236Y73451D01*
X77970Y73584D02*
X77837Y73584D01*
X77970Y73062D02*
X78502Y73062D01*
X78767Y72796D01*
X78502Y72531D01*
X77970Y72531D01*
X77970Y70896D02*
X78767Y70896D01*
X78767Y70497D01*
X78634Y70364D01*
X78369Y70364D01*
X78236Y70497D01*
X78236Y70896D01*
X78369Y69975D02*
X78767Y69975D01*
X78369Y69975D02*
X78236Y69842D01*
X78236Y69443D01*
X78767Y69443D01*
X78634Y69054D02*
X78369Y69054D01*
X78369Y68788D01*
X78634Y68522D02*
X78103Y68522D01*
X77970Y68655D01*
X77970Y68921D01*
X78103Y69054D01*
X78634Y69054D02*
X78767Y68921D01*
X78767Y68655D01*
X78634Y68522D01*
X78502Y66744D02*
X77970Y66744D01*
X78502Y66744D02*
X78767Y66478D01*
X78502Y66212D01*
X77970Y66212D01*
X77970Y65823D02*
X77970Y65292D01*
X78369Y65292D01*
X78236Y65557D01*
X78236Y65690D01*
X78369Y65823D01*
X78634Y65823D01*
X78767Y65690D01*
X78767Y65424D01*
X78634Y65292D01*
X78502Y63950D02*
X77970Y63950D01*
X78502Y63950D02*
X78767Y63684D01*
X78502Y63418D01*
X77970Y63418D01*
X78103Y63029D02*
X78236Y63029D01*
X78369Y62896D01*
X78502Y63029D01*
X78634Y63029D01*
X78767Y62896D01*
X78767Y62630D01*
X78634Y62498D01*
X78369Y62763D02*
X78369Y62896D01*
X78103Y63029D02*
X77970Y62896D01*
X77970Y62630D01*
X78103Y62498D01*
X77980Y61771D02*
X77980Y61240D01*
X77980Y61506D02*
X78777Y61506D01*
X78645Y60851D02*
X78512Y60851D01*
X78379Y60718D01*
X78379Y60452D01*
X78246Y60319D01*
X78113Y60319D01*
X77980Y60452D01*
X77980Y60718D01*
X78113Y60851D01*
X78645Y60851D02*
X78777Y60718D01*
X78777Y60452D01*
X78645Y60319D01*
X78777Y59930D02*
X78512Y59664D01*
X78512Y59797D02*
X78512Y59398D01*
X78777Y59398D02*
X77980Y59398D01*
X77980Y59797D01*
X78113Y59930D01*
X78379Y59930D01*
X78512Y59797D01*
X78246Y58792D02*
X78246Y58659D01*
X78512Y58393D01*
X78777Y58393D02*
X78246Y58393D01*
X78113Y58004D02*
X77980Y57871D01*
X77980Y57605D01*
X78113Y57472D01*
X78645Y57472D01*
X78777Y57605D01*
X78777Y57871D01*
X78645Y58004D01*
X78113Y58004D01*
X77980Y57124D02*
X77980Y56858D01*
X77980Y56991D02*
X78777Y56991D01*
X78777Y56858D02*
X78777Y57124D01*
X78645Y56083D02*
X78777Y55950D01*
X78777Y55684D01*
X78645Y55552D01*
X78113Y55552D01*
X77980Y55684D01*
X77980Y55950D01*
X78113Y56083D01*
X77980Y55162D02*
X78777Y55162D01*
X77980Y54631D01*
X78777Y54631D01*
X93374Y79123D02*
X94088Y79123D01*
X94088Y79386D01*
X93938Y79564D01*
X93938Y79693D01*
X94361Y79693D01*
X94661Y79693D01*
X94661Y89853D01*
X94361Y89853D01*
X94361Y79693D01*
X93938Y79693D02*
X93739Y79693D01*
X93739Y89853D01*
X94361Y89853D01*
X93739Y89853D02*
X93059Y89853D01*
X92567Y89853D01*
X88570Y89853D01*
X88087Y89853D01*
X86561Y89853D01*
X86561Y79693D01*
X88087Y79693D01*
X88570Y79693D01*
X92567Y79693D01*
X93059Y79693D01*
X93059Y89853D01*
X88671Y87313D02*
X88673Y87400D01*
X88679Y87487D01*
X88689Y87574D01*
X88703Y87660D01*
X88720Y87745D01*
X88742Y87830D01*
X88767Y87913D01*
X88797Y87995D01*
X88830Y88076D01*
X88866Y88155D01*
X88906Y88233D01*
X88950Y88308D01*
X88997Y88381D01*
X89047Y88453D01*
X89101Y88522D01*
X89157Y88588D01*
X89217Y88652D01*
X89279Y88713D01*
X89344Y88771D01*
X89412Y88826D01*
X89482Y88877D01*
X89554Y88926D01*
X89628Y88971D01*
X89705Y89013D01*
X89783Y89052D01*
X89863Y89086D01*
X89945Y89117D01*
X90027Y89145D01*
X90111Y89168D01*
X90196Y89188D01*
X90282Y89204D01*
X90368Y89216D01*
X90455Y89224D01*
X90542Y89228D01*
X90630Y89228D01*
X90717Y89224D01*
X90804Y89216D01*
X90890Y89204D01*
X90976Y89188D01*
X91061Y89168D01*
X91145Y89145D01*
X91227Y89117D01*
X91309Y89086D01*
X91389Y89052D01*
X91467Y89013D01*
X91543Y88971D01*
X91618Y88926D01*
X91690Y88877D01*
X91760Y88826D01*
X91828Y88771D01*
X91893Y88713D01*
X91955Y88652D01*
X92015Y88588D01*
X92071Y88522D01*
X92125Y88453D01*
X92175Y88381D01*
X92222Y88308D01*
X92266Y88233D01*
X92306Y88155D01*
X92342Y88076D01*
X92375Y87995D01*
X92405Y87913D01*
X92430Y87830D01*
X92452Y87745D01*
X92469Y87660D01*
X92483Y87574D01*
X92493Y87487D01*
X92499Y87400D01*
X92501Y87313D01*
X92499Y87226D01*
X92493Y87139D01*
X92483Y87052D01*
X92469Y86966D01*
X92452Y86881D01*
X92430Y86796D01*
X92405Y86713D01*
X92375Y86631D01*
X92342Y86550D01*
X92306Y86471D01*
X92266Y86393D01*
X92222Y86318D01*
X92175Y86245D01*
X92125Y86173D01*
X92071Y86104D01*
X92015Y86038D01*
X91955Y85974D01*
X91893Y85913D01*
X91828Y85855D01*
X91760Y85800D01*
X91690Y85749D01*
X91618Y85700D01*
X91544Y85655D01*
X91467Y85613D01*
X91389Y85574D01*
X91309Y85540D01*
X91227Y85509D01*
X91145Y85481D01*
X91061Y85458D01*
X90976Y85438D01*
X90890Y85422D01*
X90804Y85410D01*
X90717Y85402D01*
X90630Y85398D01*
X90542Y85398D01*
X90455Y85402D01*
X90368Y85410D01*
X90282Y85422D01*
X90196Y85438D01*
X90111Y85458D01*
X90027Y85481D01*
X89945Y85509D01*
X89863Y85540D01*
X89783Y85574D01*
X89705Y85613D01*
X89628Y85655D01*
X89554Y85700D01*
X89482Y85749D01*
X89412Y85800D01*
X89344Y85855D01*
X89279Y85913D01*
X89217Y85974D01*
X89157Y86038D01*
X89101Y86104D01*
X89047Y86173D01*
X88997Y86245D01*
X88950Y86318D01*
X88906Y86393D01*
X88866Y86471D01*
X88830Y86550D01*
X88797Y86631D01*
X88767Y86713D01*
X88742Y86796D01*
X88720Y86881D01*
X88703Y86966D01*
X88689Y87052D01*
X88679Y87139D01*
X88673Y87226D01*
X88671Y87313D01*
X88087Y89853D02*
X88087Y79693D01*
X88671Y82233D02*
X88673Y82320D01*
X88679Y82407D01*
X88689Y82494D01*
X88703Y82580D01*
X88720Y82665D01*
X88742Y82750D01*
X88767Y82833D01*
X88797Y82915D01*
X88830Y82996D01*
X88866Y83075D01*
X88906Y83153D01*
X88950Y83228D01*
X88997Y83301D01*
X89047Y83373D01*
X89101Y83442D01*
X89157Y83508D01*
X89217Y83572D01*
X89279Y83633D01*
X89344Y83691D01*
X89412Y83746D01*
X89482Y83797D01*
X89554Y83846D01*
X89628Y83891D01*
X89705Y83933D01*
X89783Y83972D01*
X89863Y84006D01*
X89945Y84037D01*
X90027Y84065D01*
X90111Y84088D01*
X90196Y84108D01*
X90282Y84124D01*
X90368Y84136D01*
X90455Y84144D01*
X90542Y84148D01*
X90630Y84148D01*
X90717Y84144D01*
X90804Y84136D01*
X90890Y84124D01*
X90976Y84108D01*
X91061Y84088D01*
X91145Y84065D01*
X91227Y84037D01*
X91309Y84006D01*
X91389Y83972D01*
X91467Y83933D01*
X91543Y83891D01*
X91618Y83846D01*
X91690Y83797D01*
X91760Y83746D01*
X91828Y83691D01*
X91893Y83633D01*
X91955Y83572D01*
X92015Y83508D01*
X92071Y83442D01*
X92125Y83373D01*
X92175Y83301D01*
X92222Y83228D01*
X92266Y83153D01*
X92306Y83075D01*
X92342Y82996D01*
X92375Y82915D01*
X92405Y82833D01*
X92430Y82750D01*
X92452Y82665D01*
X92469Y82580D01*
X92483Y82494D01*
X92493Y82407D01*
X92499Y82320D01*
X92501Y82233D01*
X92499Y82146D01*
X92493Y82059D01*
X92483Y81972D01*
X92469Y81886D01*
X92452Y81801D01*
X92430Y81716D01*
X92405Y81633D01*
X92375Y81551D01*
X92342Y81470D01*
X92306Y81391D01*
X92266Y81313D01*
X92222Y81238D01*
X92175Y81165D01*
X92125Y81093D01*
X92071Y81024D01*
X92015Y80958D01*
X91955Y80894D01*
X91893Y80833D01*
X91828Y80775D01*
X91760Y80720D01*
X91690Y80669D01*
X91618Y80620D01*
X91544Y80575D01*
X91467Y80533D01*
X91389Y80494D01*
X91309Y80460D01*
X91227Y80429D01*
X91145Y80401D01*
X91061Y80378D01*
X90976Y80358D01*
X90890Y80342D01*
X90804Y80330D01*
X90717Y80322D01*
X90630Y80318D01*
X90542Y80318D01*
X90455Y80322D01*
X90368Y80330D01*
X90282Y80342D01*
X90196Y80358D01*
X90111Y80378D01*
X90027Y80401D01*
X89945Y80429D01*
X89863Y80460D01*
X89783Y80494D01*
X89705Y80533D01*
X89628Y80575D01*
X89554Y80620D01*
X89482Y80669D01*
X89412Y80720D01*
X89344Y80775D01*
X89279Y80833D01*
X89217Y80894D01*
X89157Y80958D01*
X89101Y81024D01*
X89047Y81093D01*
X88997Y81165D01*
X88950Y81238D01*
X88906Y81313D01*
X88866Y81391D01*
X88830Y81470D01*
X88797Y81551D01*
X88767Y81633D01*
X88742Y81716D01*
X88720Y81801D01*
X88703Y81886D01*
X88689Y81972D01*
X88679Y82059D01*
X88673Y82146D01*
X88671Y82233D01*
X93059Y79693D02*
X93524Y79693D01*
X93739Y79693D01*
X93524Y79693D02*
X93524Y79564D01*
X93374Y79386D01*
X93374Y79123D01*
D16*
X67004Y71812D03*
X51452Y47995D03*
D17*
X51442Y47995D03*
X50568Y47995D03*
X47652Y47985D03*
X63205Y71802D03*
X66120Y71812D03*
X66994Y71812D03*
D18*
X66984Y71812D03*
X65369Y73763D03*
X65348Y73773D03*
X65338Y73773D03*
X65318Y73783D03*
X65297Y73794D03*
X65287Y73794D03*
X65267Y73804D03*
X64596Y73895D03*
X65358Y69862D03*
X65338Y69852D03*
X65318Y69841D03*
X65308Y69841D03*
X65287Y69831D03*
X65257Y69821D03*
X49044Y50078D03*
X49715Y49986D03*
X49735Y49976D03*
X49745Y49976D03*
X49765Y49966D03*
X49786Y49956D03*
X49796Y49956D03*
X49816Y49946D03*
X51432Y47995D03*
X49806Y46044D03*
X49786Y46034D03*
X49765Y46024D03*
X49755Y46024D03*
X49735Y46014D03*
X49704Y46004D03*
D19*
X48993Y45978D03*
X48373Y46080D03*
X51421Y48000D03*
X47835Y49687D03*
X47825Y49676D03*
X63926Y69897D03*
X64546Y69796D03*
X66974Y71817D03*
X63387Y73504D03*
X63377Y73494D03*
D20*
X65948Y73357D03*
X66120Y73225D03*
X66964Y71812D03*
X66120Y70400D03*
X66110Y70390D03*
X64637Y71010D03*
X64353Y71101D03*
X64017Y69923D03*
X50395Y49539D03*
X50568Y49407D03*
X51411Y47995D03*
X50568Y46583D03*
X50558Y46572D03*
X49085Y47192D03*
X48800Y47284D03*
X48465Y46105D03*
D21*
X48861Y46095D03*
X50283Y46430D03*
X51401Y47995D03*
X48861Y49895D03*
X64414Y69912D03*
X65836Y70248D03*
X66954Y71812D03*
X64414Y73712D03*
D22*
X65389Y73545D03*
X65409Y73535D03*
X65745Y73382D03*
X66943Y71817D03*
X50192Y49565D03*
X49857Y49717D03*
X49836Y49727D03*
X51391Y48000D03*
D23*
X51381Y47995D03*
X50781Y49072D03*
X50781Y46918D03*
X66334Y70735D03*
X66933Y71812D03*
X66334Y72889D03*
D24*
X66923Y71817D03*
X51371Y48000D03*
D25*
X51360Y47995D03*
X47378Y46918D03*
X47317Y49011D03*
X47368Y49062D03*
X62930Y70735D03*
X62869Y72828D03*
X62920Y72879D03*
X66913Y71812D03*
D26*
X66903Y71817D03*
X51350Y48000D03*
D27*
X51340Y47995D03*
X49379Y48848D03*
X47550Y49153D03*
X46748Y47995D03*
X47571Y46826D03*
X63123Y70644D03*
X62300Y71812D03*
X63103Y72971D03*
X64932Y72666D03*
X66893Y71812D03*
D28*
X66882Y71812D03*
X63215Y70603D03*
X62310Y71812D03*
X51330Y47995D03*
X47662Y46786D03*
X46758Y47995D03*
D29*
X50101Y48000D03*
X50111Y48000D03*
X51320Y48000D03*
X65653Y71817D03*
X65663Y71817D03*
X66872Y71817D03*
D30*
X66862Y71817D03*
X65755Y71817D03*
X65745Y71817D03*
X51310Y48000D03*
X50202Y48000D03*
X50192Y48000D03*
D31*
X51299Y47995D03*
X66852Y71812D03*
D32*
X66842Y71812D03*
X65419Y71812D03*
X62351Y71812D03*
X51289Y47995D03*
X49867Y47995D03*
X46799Y47995D03*
D33*
X49847Y47995D03*
X51279Y47995D03*
X65399Y71812D03*
X66832Y71812D03*
D34*
X66821Y71812D03*
X62371Y71812D03*
X51269Y47995D03*
X46819Y47995D03*
D35*
X49786Y47995D03*
X51259Y47995D03*
X65338Y71812D03*
X66811Y71812D03*
D36*
X66801Y71817D03*
X51249Y48000D03*
D37*
X51239Y48000D03*
X66791Y71817D03*
D38*
X66781Y71812D03*
X65237Y71812D03*
X62412Y71812D03*
X51228Y47995D03*
X49684Y47995D03*
X46860Y47995D03*
D39*
X46870Y47995D03*
X49643Y47995D03*
X51218Y47995D03*
X62422Y71812D03*
X65196Y71812D03*
X66771Y71812D03*
D40*
X66761Y71812D03*
X65165Y71812D03*
X51208Y47995D03*
X49613Y47995D03*
D41*
X51198Y47995D03*
X66750Y71812D03*
D42*
X66740Y71812D03*
X64149Y71812D03*
X64099Y71802D03*
X62453Y71812D03*
X51188Y47995D03*
X48597Y47995D03*
X48546Y47985D03*
X46900Y47995D03*
D43*
X46910Y47995D03*
X48526Y47985D03*
X48648Y47995D03*
X51178Y47995D03*
X62463Y71812D03*
X64078Y71802D03*
X64200Y71812D03*
X66730Y71812D03*
D44*
X66720Y71812D03*
X62473Y71812D03*
X51167Y47995D03*
X46921Y47995D03*
D45*
X51157Y48000D03*
X66710Y71817D03*
D46*
X66700Y71817D03*
X51147Y48000D03*
D47*
X51137Y47995D03*
X66689Y71812D03*
D48*
X66679Y71812D03*
X63987Y71802D03*
X62514Y71812D03*
X51127Y47995D03*
X48434Y47985D03*
X46961Y47995D03*
D49*
X51117Y48000D03*
X66669Y71817D03*
D50*
X66659Y71812D03*
X51106Y47995D03*
D51*
X51096Y47995D03*
X66649Y71812D03*
D52*
X66639Y71817D03*
X51086Y48000D03*
D53*
X51076Y47995D03*
X49603Y47771D03*
X47012Y47995D03*
X62564Y71812D03*
X65155Y71589D03*
X66628Y71812D03*
D54*
X66618Y71817D03*
X51066Y48000D03*
D55*
X51056Y47995D03*
X48323Y47985D03*
X63875Y71802D03*
X66608Y71812D03*
D56*
X66598Y71817D03*
X51045Y48000D03*
D57*
X51035Y47995D03*
X48292Y47985D03*
X47053Y47995D03*
X62605Y71812D03*
X63845Y71802D03*
X66588Y71812D03*
D58*
X66578Y71817D03*
X63723Y71817D03*
X51025Y48000D03*
X48170Y48000D03*
D59*
X47073Y47995D03*
X51015Y47995D03*
X62625Y71812D03*
X66567Y71812D03*
D60*
X66557Y71817D03*
X63773Y71817D03*
X51005Y48000D03*
X48221Y48000D03*
D61*
X50995Y47995D03*
X66547Y71812D03*
D62*
X66537Y71812D03*
X50985Y47995D03*
D63*
X50974Y48000D03*
X47114Y48000D03*
X62666Y71817D03*
X66527Y71817D03*
D64*
X66517Y71812D03*
X62676Y71812D03*
X50964Y47995D03*
X47124Y47995D03*
D65*
X50954Y47995D03*
X66507Y71812D03*
D66*
X66496Y71817D03*
X50944Y48000D03*
D67*
X50934Y48000D03*
X66486Y71817D03*
D68*
X66476Y71812D03*
X62717Y71812D03*
X50924Y47995D03*
X47164Y47995D03*
D69*
X50913Y47995D03*
X66466Y71812D03*
D70*
X66456Y71817D03*
X65115Y71817D03*
X50903Y48000D03*
X49562Y48000D03*
D71*
X50893Y48000D03*
X66446Y71817D03*
D72*
X66435Y71812D03*
X65043Y71812D03*
X65033Y71812D03*
X62757Y71812D03*
X50883Y47995D03*
X49491Y47995D03*
X49481Y47995D03*
X47205Y47995D03*
D73*
X47215Y47995D03*
X49440Y47995D03*
X49450Y47995D03*
X50873Y47995D03*
X62768Y71812D03*
X64993Y71812D03*
X65003Y71812D03*
X66425Y71812D03*
D74*
X66415Y71812D03*
X64962Y71812D03*
X64952Y71812D03*
X62778Y71812D03*
X50863Y47995D03*
X49410Y47995D03*
X49400Y47995D03*
X47225Y47995D03*
D75*
X50852Y47995D03*
X66405Y71812D03*
D76*
X66395Y71817D03*
X50842Y48000D03*
D77*
X50832Y48000D03*
X47256Y48000D03*
X62808Y71817D03*
X66385Y71817D03*
D78*
X66374Y71817D03*
X50822Y48000D03*
D79*
X50812Y48000D03*
X66364Y71817D03*
D80*
X66354Y71182D03*
X50802Y47365D03*
D81*
X50802Y49021D03*
X48038Y47995D03*
X63591Y71812D03*
X66354Y72839D03*
D82*
X66344Y70761D03*
X50791Y46943D03*
D83*
X50791Y47995D03*
X66344Y71812D03*
D84*
X66344Y72869D03*
X50791Y49052D03*
D85*
X50781Y47990D03*
X49003Y50022D03*
X47906Y49737D03*
X47906Y46252D03*
X47916Y46252D03*
X47926Y46242D03*
X63459Y70070D03*
X63469Y70070D03*
X63479Y70060D03*
X66334Y71807D03*
X64556Y73839D03*
X63459Y73555D03*
D86*
X65572Y73438D03*
X65592Y73428D03*
X65602Y73418D03*
X65663Y73387D03*
X66324Y70715D03*
X65653Y70227D03*
X65612Y70217D03*
X65602Y70207D03*
X50111Y49570D03*
X50050Y49600D03*
X50040Y49610D03*
X50019Y49620D03*
X50771Y46898D03*
X50101Y46410D03*
X50060Y46400D03*
X50050Y46390D03*
D87*
X48343Y46070D03*
X47987Y46202D03*
X47977Y46212D03*
X47967Y46212D03*
X47957Y46222D03*
X50771Y47990D03*
X47987Y49788D03*
X47977Y49788D03*
X47967Y49778D03*
X47937Y49758D03*
X63519Y70029D03*
X63530Y70029D03*
X63540Y70019D03*
X63509Y70039D03*
X63895Y69887D03*
X66324Y71807D03*
X63540Y73606D03*
X63530Y73606D03*
X63519Y73595D03*
X63489Y73575D03*
D88*
X65551Y73453D03*
X65562Y73443D03*
X65673Y73392D03*
X66324Y72915D03*
X65673Y70233D03*
X65663Y70233D03*
X65592Y70202D03*
X50121Y49575D03*
X50009Y49626D03*
X49999Y49636D03*
X50771Y49097D03*
X50121Y46415D03*
X50111Y46415D03*
X50040Y46385D03*
D89*
X49999Y46354D03*
X49989Y46344D03*
X50141Y46415D03*
X50761Y46872D03*
X49156Y48904D03*
X49948Y49666D03*
X49969Y49656D03*
X50761Y49118D03*
X48008Y48000D03*
X65541Y70161D03*
X65551Y70172D03*
X65694Y70233D03*
X66313Y70690D03*
X66313Y72935D03*
X65521Y73474D03*
X65501Y73484D03*
X64708Y72722D03*
X63560Y71817D03*
D90*
X63580Y69994D03*
X63885Y69882D03*
X66313Y71812D03*
X63885Y73743D03*
X48333Y49925D03*
X50761Y47995D03*
X48333Y46064D03*
X48028Y46176D03*
D91*
X49938Y46313D03*
X49948Y46324D03*
X50162Y46415D03*
X50751Y46852D03*
X50751Y49138D03*
X50172Y49565D03*
X49918Y49687D03*
X49908Y49687D03*
X49897Y49697D03*
X65491Y70131D03*
X65501Y70141D03*
X65714Y70233D03*
X66303Y70669D03*
X66303Y72955D03*
X65724Y73382D03*
X65470Y73504D03*
X65460Y73504D03*
X65450Y73514D03*
D92*
X63875Y73748D03*
X63621Y73656D03*
X63611Y73646D03*
X63591Y73636D03*
X63570Y73626D03*
X66303Y71807D03*
X63875Y69877D03*
X63631Y69968D03*
X63611Y69979D03*
X63591Y69989D03*
X48323Y49930D03*
X48069Y49839D03*
X48058Y49829D03*
X48038Y49819D03*
X48018Y49808D03*
X50751Y47990D03*
X48323Y46059D03*
X48079Y46151D03*
X48058Y46161D03*
X48038Y46171D03*
D93*
X47997Y47995D03*
X49928Y46308D03*
X50741Y46837D03*
X50182Y49570D03*
X65480Y70126D03*
X66293Y70654D03*
X65734Y73387D03*
X63550Y71812D03*
D94*
X63652Y69953D03*
X66293Y71812D03*
X50741Y47995D03*
X48099Y46136D03*
D95*
X49877Y46283D03*
X50182Y46425D03*
X50741Y49158D03*
X65430Y70100D03*
X65734Y70243D03*
X66293Y72976D03*
D96*
X66283Y72991D03*
X65755Y73387D03*
X65399Y73540D03*
X64688Y72696D03*
X64698Y70928D03*
X65399Y70085D03*
X65409Y70085D03*
X65419Y70095D03*
X65745Y70238D03*
X66283Y70634D03*
X50202Y49570D03*
X49847Y49722D03*
X50731Y49173D03*
X49135Y48879D03*
X49146Y47111D03*
X49847Y46268D03*
X49857Y46268D03*
X49867Y46278D03*
X50192Y46420D03*
X50731Y46816D03*
D97*
X50731Y47990D03*
X49024Y45937D03*
X48312Y46059D03*
X48170Y46100D03*
X48140Y46120D03*
X48130Y46120D03*
X47916Y48000D03*
X48109Y49859D03*
X48130Y49869D03*
X48140Y49880D03*
X48160Y49890D03*
X48170Y49890D03*
X49024Y50052D03*
X63682Y69938D03*
X63692Y69938D03*
X63723Y69918D03*
X63865Y69877D03*
X64576Y69755D03*
X63469Y71817D03*
X63662Y73677D03*
X63682Y73687D03*
X63692Y73697D03*
X63713Y73707D03*
X63723Y73707D03*
X64576Y73870D03*
X66283Y71807D03*
D98*
X66273Y70614D03*
X66273Y73011D03*
X63540Y71812D03*
X50720Y49194D03*
X50720Y46796D03*
X47987Y47995D03*
D99*
X48231Y49920D03*
X48241Y49920D03*
X48262Y49930D03*
X48272Y49941D03*
X48282Y49941D03*
X48292Y49941D03*
X50720Y47990D03*
X48272Y46059D03*
X48262Y46059D03*
X48241Y46070D03*
X48221Y46080D03*
X63773Y69897D03*
X63794Y69887D03*
X63814Y69877D03*
X63824Y69877D03*
X66273Y71807D03*
X63845Y73758D03*
X63834Y73758D03*
X63824Y73758D03*
X63814Y73748D03*
X63794Y73738D03*
X63784Y73738D03*
D100*
X64129Y73656D03*
X64251Y72427D03*
X64251Y71198D03*
X64688Y70944D03*
X65775Y70243D03*
X66263Y70598D03*
X66263Y73027D03*
X50710Y49209D03*
X48699Y48610D03*
X48699Y47380D03*
X49135Y47126D03*
X50223Y46425D03*
X50710Y46781D03*
X48577Y49839D03*
D101*
X49034Y50068D03*
X50710Y47995D03*
X49034Y45922D03*
X64586Y69740D03*
X66263Y71812D03*
X64586Y73885D03*
D102*
X64190Y73672D03*
X64149Y73662D03*
X64139Y73662D03*
X65795Y73377D03*
X65805Y73377D03*
X66253Y70583D03*
X50253Y49560D03*
X50243Y49560D03*
X48638Y49854D03*
X48597Y49844D03*
X48587Y49844D03*
X50700Y46766D03*
D103*
X49816Y46049D03*
X49796Y46039D03*
X50700Y47990D03*
X49806Y49951D03*
X65348Y69857D03*
X65369Y69867D03*
X66253Y71807D03*
X65358Y73768D03*
D104*
X64251Y73687D03*
X64221Y73677D03*
X64200Y73677D03*
X64180Y73667D03*
X64170Y73667D03*
X64119Y73656D03*
X66253Y73047D03*
X65805Y70243D03*
X65795Y70243D03*
X64170Y69958D03*
X64149Y69958D03*
X64139Y69968D03*
X64129Y69968D03*
X50700Y49229D03*
X48699Y49869D03*
X48668Y49859D03*
X48648Y49859D03*
X48627Y49849D03*
X48617Y49849D03*
X48566Y49839D03*
X48577Y46151D03*
X48587Y46151D03*
X48597Y46141D03*
X48617Y46141D03*
X50243Y46425D03*
X50253Y46425D03*
D105*
X50690Y46745D03*
X48658Y46125D03*
X48556Y49844D03*
X48709Y49874D03*
X64210Y69943D03*
X66242Y70563D03*
X64261Y73692D03*
X64109Y73662D03*
D106*
X65176Y73829D03*
X65226Y73819D03*
X65277Y73799D03*
X66242Y71807D03*
X65226Y69816D03*
X65176Y69796D03*
X49725Y49981D03*
X49674Y50001D03*
X49623Y50012D03*
X50690Y47990D03*
X49674Y45998D03*
X49623Y45978D03*
D107*
X48709Y47365D03*
X50690Y49245D03*
X64261Y71182D03*
X66242Y73062D03*
D108*
X66222Y73093D03*
X65846Y73377D03*
X64434Y73712D03*
X64424Y73712D03*
X64088Y73672D03*
X64271Y72463D03*
X64099Y69953D03*
X64322Y69923D03*
X64332Y69923D03*
X64342Y69923D03*
X64353Y69923D03*
X64373Y69912D03*
X64383Y69912D03*
X64393Y69912D03*
X64403Y69912D03*
X64424Y69912D03*
X65826Y70248D03*
X66232Y70553D03*
X50294Y49560D03*
X50670Y49275D03*
X48881Y49895D03*
X48871Y49895D03*
X48536Y49854D03*
X48719Y48645D03*
X48546Y46136D03*
X48770Y46105D03*
X48780Y46105D03*
X48790Y46105D03*
X48800Y46105D03*
X48820Y46095D03*
X48831Y46095D03*
X48841Y46095D03*
X48851Y46095D03*
X48871Y46095D03*
X50273Y46430D03*
X50680Y46735D03*
D109*
X49603Y45973D03*
X49593Y45973D03*
X49562Y45963D03*
X49552Y45963D03*
X49359Y45922D03*
X49278Y45912D03*
X47906Y47995D03*
X47672Y48757D03*
X49308Y50078D03*
X49532Y50037D03*
X49542Y50037D03*
X49562Y50027D03*
X49582Y50027D03*
X50680Y47995D03*
X64830Y69730D03*
X64911Y69740D03*
X65104Y69780D03*
X65115Y69780D03*
X65145Y69791D03*
X65155Y69791D03*
X66232Y71812D03*
X65135Y73844D03*
X65115Y73844D03*
X65094Y73855D03*
X65084Y73855D03*
X64861Y73895D03*
X63225Y72574D03*
X63459Y71812D03*
D110*
X63530Y71817D03*
X64099Y73667D03*
X64302Y73697D03*
X64322Y73697D03*
X64353Y73707D03*
X64373Y73707D03*
X64383Y73707D03*
X64393Y73707D03*
X64403Y73707D03*
X64444Y73717D03*
X64454Y73717D03*
X66232Y73077D03*
X64302Y69928D03*
X64292Y69928D03*
X64281Y69928D03*
X64271Y69938D03*
X64251Y69938D03*
X64241Y69938D03*
X50680Y49260D03*
X48902Y49900D03*
X48892Y49900D03*
X48851Y49890D03*
X48841Y49890D03*
X48831Y49890D03*
X48820Y49890D03*
X48800Y49890D03*
X48770Y49880D03*
X48749Y49880D03*
X48546Y49849D03*
X47977Y48000D03*
X48688Y46120D03*
X48699Y46120D03*
X48719Y46120D03*
X48729Y46110D03*
X48739Y46110D03*
X48749Y46110D03*
D111*
X48719Y47350D03*
X50294Y46435D03*
X50670Y46720D03*
X65846Y70253D03*
X66222Y70537D03*
X64271Y71167D03*
D112*
X63235Y71055D03*
X63235Y72569D03*
X64607Y73910D03*
X64627Y73910D03*
X64637Y73910D03*
X64647Y73910D03*
X64657Y73910D03*
X64678Y73910D03*
X64688Y73910D03*
X64698Y73910D03*
X64708Y73910D03*
X64729Y73910D03*
X64739Y73910D03*
X64749Y73910D03*
X64779Y73900D03*
X64789Y73900D03*
X64800Y73900D03*
X64810Y73900D03*
X64830Y73900D03*
X64840Y73900D03*
X64850Y73900D03*
X64881Y73890D03*
X64891Y73890D03*
X64901Y73890D03*
X64911Y73890D03*
X64952Y73880D03*
X64962Y73880D03*
X65013Y73870D03*
X65064Y73860D03*
X66222Y71807D03*
X65003Y69755D03*
X64993Y69755D03*
X64952Y69745D03*
X64942Y69745D03*
X64932Y69745D03*
X64901Y69735D03*
X64891Y69735D03*
X64881Y69735D03*
X64861Y69735D03*
X64850Y69735D03*
X64840Y69735D03*
X64810Y69725D03*
X64800Y69725D03*
X64789Y69725D03*
X64779Y69725D03*
X64759Y69725D03*
X64749Y69725D03*
X64739Y69725D03*
X64729Y69725D03*
X64708Y69725D03*
X64678Y69714D03*
X64657Y69714D03*
X64647Y69714D03*
X64637Y69714D03*
X64627Y69714D03*
X64607Y69714D03*
X49511Y50042D03*
X49461Y50052D03*
X49410Y50062D03*
X49400Y50062D03*
X49359Y50073D03*
X49349Y50073D03*
X49339Y50073D03*
X49328Y50073D03*
X49298Y50083D03*
X49288Y50083D03*
X49278Y50083D03*
X49257Y50083D03*
X49247Y50083D03*
X49237Y50083D03*
X49227Y50083D03*
X49196Y50093D03*
X49186Y50093D03*
X49176Y50093D03*
X49156Y50093D03*
X49146Y50093D03*
X49135Y50093D03*
X49125Y50093D03*
X49105Y50093D03*
X49095Y50093D03*
X49085Y50093D03*
X49074Y50093D03*
X49054Y50093D03*
X47683Y48752D03*
X47683Y47238D03*
X49440Y45937D03*
X49450Y45937D03*
X49400Y45927D03*
X49389Y45927D03*
X49379Y45927D03*
X49349Y45917D03*
X49339Y45917D03*
X49328Y45917D03*
X49308Y45917D03*
X49298Y45917D03*
X49288Y45917D03*
X49257Y45907D03*
X49247Y45907D03*
X49237Y45907D03*
X49227Y45907D03*
X49207Y45907D03*
X49196Y45907D03*
X49186Y45907D03*
X49176Y45907D03*
X49156Y45907D03*
X49125Y45897D03*
X49105Y45897D03*
X49095Y45897D03*
X49085Y45897D03*
X49074Y45897D03*
X49054Y45897D03*
X50670Y47990D03*
D113*
X50649Y49306D03*
X50314Y49549D03*
X49105Y48838D03*
X48729Y48655D03*
X48526Y49854D03*
X48536Y46136D03*
X48922Y46085D03*
X50304Y46430D03*
X50659Y46705D03*
X64088Y69953D03*
X64475Y69902D03*
X65856Y70248D03*
X66212Y70522D03*
X66202Y73123D03*
X65866Y73367D03*
X64657Y72656D03*
X64281Y72473D03*
X64078Y73672D03*
D114*
X66212Y71807D03*
X50659Y47990D03*
D115*
X50659Y49290D03*
X50304Y49554D03*
X48922Y49910D03*
X48902Y46090D03*
X48892Y46090D03*
X48881Y46090D03*
X64434Y69907D03*
X64444Y69907D03*
X64454Y69907D03*
X66212Y73108D03*
X65856Y73372D03*
X64475Y73728D03*
D116*
X64485Y73738D03*
X64068Y73677D03*
X65877Y73372D03*
X64292Y71147D03*
X64078Y69948D03*
X65866Y70253D03*
X66202Y70507D03*
X50324Y49554D03*
X48932Y49920D03*
X48516Y49859D03*
X48739Y47329D03*
X48526Y46131D03*
X50314Y46435D03*
X50649Y46689D03*
D117*
X50649Y47995D03*
X66202Y71812D03*
D118*
X66192Y70492D03*
X66192Y73133D03*
X65887Y73367D03*
X64058Y73682D03*
X50334Y49549D03*
X50639Y49316D03*
X48505Y49864D03*
X50639Y46674D03*
D119*
X50639Y47990D03*
X66192Y71807D03*
D120*
X66181Y70476D03*
X66171Y70466D03*
X64485Y69887D03*
X64302Y71137D03*
X64302Y72488D03*
X64048Y73687D03*
X65897Y73362D03*
X66181Y73148D03*
X50344Y49544D03*
X50629Y49331D03*
X48749Y48671D03*
X48495Y49869D03*
X48749Y47319D03*
X48932Y46070D03*
X50619Y46649D03*
X50629Y46659D03*
D121*
X50294Y47426D03*
X50273Y47436D03*
X50253Y47446D03*
X50629Y47995D03*
X50263Y48554D03*
X50273Y48564D03*
X48109Y49041D03*
X47713Y48726D03*
X48119Y46948D03*
X63672Y70766D03*
X63265Y72544D03*
X63662Y72859D03*
X65816Y72371D03*
X65826Y72381D03*
X66181Y71812D03*
X65846Y71243D03*
X65826Y71254D03*
X65805Y71264D03*
D122*
X65856Y71238D03*
X65877Y71228D03*
X66171Y71807D03*
X65866Y72397D03*
X65856Y72397D03*
X65846Y72386D03*
X63265Y71076D03*
X50314Y48579D03*
X50304Y48579D03*
X50294Y48569D03*
X50619Y47990D03*
X50324Y47411D03*
X50304Y47421D03*
X47713Y47258D03*
D123*
X50344Y46440D03*
X50619Y49346D03*
X50355Y49549D03*
X65897Y70258D03*
X66171Y73164D03*
X65907Y73367D03*
D124*
X64495Y73753D03*
X64038Y73692D03*
X66161Y70451D03*
X48942Y49935D03*
X48485Y49874D03*
X50609Y46633D03*
D125*
X50375Y47390D03*
X50365Y47390D03*
X50609Y47990D03*
X50355Y48599D03*
X50375Y48610D03*
X47886Y47990D03*
X47876Y47990D03*
X47865Y47990D03*
X47855Y47990D03*
X47835Y47990D03*
X47825Y47990D03*
X47733Y48711D03*
X48109Y46943D03*
X63662Y70761D03*
X63438Y71807D03*
X63428Y71807D03*
X63418Y71807D03*
X63408Y71807D03*
X63387Y71807D03*
X63377Y71807D03*
X63286Y72529D03*
X65907Y72417D03*
X65927Y72427D03*
X66161Y71807D03*
X65927Y71208D03*
X65917Y71208D03*
D126*
X66151Y70436D03*
X65907Y70263D03*
X64647Y70995D03*
X64322Y71116D03*
X63509Y71817D03*
X64322Y72508D03*
X65917Y73362D03*
X66151Y73189D03*
X66161Y73179D03*
X64048Y69938D03*
X50365Y49544D03*
X50598Y49372D03*
X50609Y49361D03*
X48770Y48691D03*
X47957Y48000D03*
X48770Y47299D03*
X49095Y47177D03*
X48495Y46120D03*
X50355Y46445D03*
X50598Y46618D03*
D127*
X50598Y47995D03*
X50395Y48615D03*
X66151Y71812D03*
X65948Y72432D03*
D128*
X65938Y73362D03*
X66141Y70426D03*
X50385Y49544D03*
X50588Y46608D03*
D129*
X50588Y47990D03*
X47794Y47990D03*
X47743Y47990D03*
X63296Y71807D03*
X63347Y71807D03*
X66141Y71807D03*
D130*
X66141Y73204D03*
X62229Y71812D03*
X50588Y49387D03*
X46677Y47995D03*
D131*
X48790Y48701D03*
X48800Y48711D03*
X48465Y49880D03*
X48953Y49951D03*
X50578Y49402D03*
X48790Y47289D03*
X48475Y46110D03*
X50375Y46445D03*
X50578Y46598D03*
X64027Y69928D03*
X64342Y71106D03*
X64342Y72519D03*
X64353Y72529D03*
X64017Y73697D03*
X64505Y73768D03*
X66131Y73220D03*
X66131Y70415D03*
X65927Y70263D03*
D132*
X66131Y71330D03*
X66029Y71635D03*
X63418Y71055D03*
X50477Y47817D03*
X50578Y47512D03*
X47865Y47238D03*
D133*
X48089Y46933D03*
X47723Y47990D03*
X47713Y47990D03*
X47703Y47990D03*
X47683Y47990D03*
X47672Y47990D03*
X47662Y47990D03*
X48079Y49057D03*
X50405Y48610D03*
X50578Y47990D03*
X63641Y70751D03*
X63276Y71807D03*
X63265Y71807D03*
X63255Y71807D03*
X63235Y71807D03*
X63225Y71807D03*
X63215Y71807D03*
X63631Y72874D03*
X65958Y72427D03*
X66131Y71807D03*
D134*
X66029Y71985D03*
X66131Y72300D03*
X65196Y73306D03*
X65206Y70329D03*
X49643Y49488D03*
X50578Y48483D03*
X50477Y48168D03*
X49654Y46512D03*
D135*
X50568Y47502D03*
X47855Y47238D03*
X47906Y49118D03*
X63408Y71055D03*
X63459Y72935D03*
X66120Y71320D03*
D136*
X66120Y72310D03*
X63408Y72564D03*
X50568Y48493D03*
X47855Y48747D03*
D137*
X47916Y49112D03*
X47926Y46867D03*
X50558Y47487D03*
X63479Y70685D03*
X63469Y72930D03*
X66110Y71304D03*
D138*
X65968Y71208D03*
X66110Y71807D03*
X65968Y72427D03*
X63184Y71807D03*
X63174Y71807D03*
X63164Y71807D03*
X63154Y71807D03*
X63133Y71807D03*
X63123Y71807D03*
X50416Y48610D03*
X50558Y47990D03*
X50416Y47390D03*
X47632Y47990D03*
X47622Y47990D03*
X47611Y47990D03*
X47601Y47990D03*
X47581Y47990D03*
X47571Y47990D03*
D139*
X50558Y48508D03*
X66110Y72325D03*
D140*
X66110Y73240D03*
X66100Y73250D03*
X65958Y73352D03*
X64373Y72539D03*
X63997Y73707D03*
X50405Y49534D03*
X50548Y49433D03*
X50558Y49422D03*
X48820Y48721D03*
X48445Y49890D03*
D141*
X48841Y48731D03*
X49074Y48792D03*
X48831Y47268D03*
X48820Y47268D03*
X48953Y46039D03*
X50395Y46445D03*
X50548Y46557D03*
X64505Y69857D03*
X64383Y71086D03*
X64373Y71086D03*
X64393Y72549D03*
X64627Y72610D03*
X66100Y70375D03*
X65948Y70263D03*
D142*
X66100Y71299D03*
X66100Y72336D03*
X63387Y71055D03*
X50548Y48518D03*
X50548Y47482D03*
X47835Y47238D03*
D143*
X47530Y47990D03*
X47520Y47990D03*
X47510Y47990D03*
X47500Y47990D03*
X50426Y48599D03*
X50548Y47990D03*
X63052Y71807D03*
X63062Y71807D03*
X63072Y71807D03*
X63083Y71807D03*
X65978Y72417D03*
X66100Y71807D03*
D144*
X66090Y73265D03*
X64515Y73783D03*
X63499Y71812D03*
X64007Y69923D03*
X64515Y69841D03*
X66090Y70370D03*
X50537Y49448D03*
X48963Y49966D03*
X47947Y47995D03*
X48455Y46105D03*
X48963Y46024D03*
X50537Y46552D03*
D145*
X50537Y47472D03*
X66090Y71289D03*
D146*
X66090Y71812D03*
X65785Y71812D03*
X50537Y47995D03*
X50233Y47995D03*
D147*
X50537Y48523D03*
X66090Y72341D03*
D148*
X65978Y73352D03*
X64424Y72559D03*
X63987Y73707D03*
X63235Y73372D03*
X63225Y73362D03*
X64403Y71076D03*
X64424Y71066D03*
X64434Y71066D03*
X64627Y71025D03*
X63997Y69918D03*
X65968Y70273D03*
X66080Y70354D03*
X50426Y49534D03*
X48871Y48742D03*
X48434Y49890D03*
X47683Y49554D03*
X47672Y49544D03*
X48851Y47258D03*
X48871Y47248D03*
X48881Y47248D03*
X49074Y47207D03*
X48445Y46100D03*
X50416Y46456D03*
X50527Y46537D03*
D149*
X50527Y47461D03*
X50527Y48538D03*
X47967Y46882D03*
X63519Y70700D03*
X66080Y71279D03*
X66080Y72356D03*
D150*
X66080Y71807D03*
X63306Y71076D03*
X63001Y71807D03*
X63306Y72539D03*
X50527Y47990D03*
X47754Y48721D03*
X47449Y47990D03*
X47754Y47258D03*
D151*
X48841Y47263D03*
X48831Y48726D03*
X48851Y48737D03*
X50416Y49539D03*
X50527Y49458D03*
X50405Y46451D03*
X65958Y70268D03*
X64393Y71081D03*
X64383Y72544D03*
X64403Y72554D03*
X65968Y73357D03*
X66080Y73275D03*
D152*
X66070Y70344D03*
X50517Y46527D03*
D153*
X50517Y47456D03*
X50517Y48544D03*
X47967Y49102D03*
X66070Y71274D03*
X66070Y72361D03*
X63519Y72920D03*
D154*
X66070Y71812D03*
X50517Y47995D03*
D155*
X50517Y49468D03*
X50507Y49478D03*
X50497Y49488D03*
X48892Y48747D03*
X48881Y48747D03*
X48424Y49895D03*
X48892Y47243D03*
X48902Y47243D03*
X48434Y46095D03*
X47703Y46420D03*
X47683Y46440D03*
X47672Y46451D03*
X50426Y46451D03*
X50497Y46501D03*
X50507Y46512D03*
X63255Y70238D03*
X63235Y70258D03*
X63225Y70268D03*
X63987Y69912D03*
X64444Y71061D03*
X64454Y71061D03*
X64444Y72564D03*
X64434Y72564D03*
X63977Y73712D03*
X66049Y73306D03*
X66059Y73296D03*
X66070Y73286D03*
X66059Y70329D03*
X66049Y70319D03*
X65978Y70268D03*
D156*
X66059Y71264D03*
X50507Y47446D03*
D157*
X50507Y47990D03*
X47429Y48000D03*
X62981Y71817D03*
X66059Y71807D03*
D158*
X66059Y72366D03*
X65369Y70476D03*
X63540Y70710D03*
X63530Y72915D03*
X47977Y49097D03*
X50507Y48549D03*
X49816Y46659D03*
X47987Y46893D03*
D159*
X50497Y47436D03*
X66049Y71254D03*
D160*
X66049Y71807D03*
X65165Y70507D03*
X63316Y71076D03*
X63316Y72549D03*
X63591Y72884D03*
X48038Y49067D03*
X47764Y48731D03*
X47764Y47258D03*
X49613Y46689D03*
X50497Y47990D03*
D161*
X50497Y48559D03*
X66049Y72376D03*
D162*
X66039Y73321D03*
X64617Y71035D03*
X64515Y71045D03*
X64464Y71055D03*
X65988Y70273D03*
X66039Y70314D03*
X63245Y73382D03*
X50487Y49504D03*
X49064Y47218D03*
X48963Y47228D03*
X48912Y47238D03*
X50436Y46456D03*
X50487Y46496D03*
X47693Y49565D03*
D163*
X50487Y47431D03*
X66039Y71249D03*
D164*
X66039Y71812D03*
X50487Y47995D03*
D165*
X50487Y48564D03*
X49623Y46644D03*
X65176Y70461D03*
X66039Y72381D03*
D166*
X66019Y73336D03*
X66009Y73347D03*
X64546Y72585D03*
X64535Y72585D03*
X64525Y72585D03*
X64495Y71050D03*
X64485Y71050D03*
X66019Y70288D03*
X66029Y70299D03*
X50456Y49529D03*
X50466Y49519D03*
X48993Y48767D03*
X48983Y48767D03*
X48973Y48767D03*
X48942Y47233D03*
X48932Y47233D03*
X50466Y46471D03*
X50477Y46481D03*
D167*
X50477Y47421D03*
X50243Y48000D03*
X50477Y48569D03*
X66029Y71238D03*
X65795Y71817D03*
X66029Y72386D03*
D168*
X66029Y73326D03*
X64607Y72595D03*
X64596Y72595D03*
X63286Y73418D03*
X63276Y73408D03*
X64525Y71040D03*
X64535Y71040D03*
X64546Y71040D03*
X64556Y71040D03*
X64576Y71040D03*
X64586Y71040D03*
X64596Y71040D03*
X64607Y71040D03*
X63967Y69912D03*
X63276Y70217D03*
X63265Y70227D03*
X65999Y70278D03*
X66009Y70278D03*
X50477Y49509D03*
X49054Y48777D03*
X49044Y48777D03*
X47733Y49600D03*
X47723Y49590D03*
X48973Y47223D03*
X48983Y47223D03*
X48993Y47223D03*
X49003Y47223D03*
X49024Y47223D03*
X49034Y47223D03*
X49044Y47223D03*
X49054Y47223D03*
X48414Y46095D03*
X47723Y46400D03*
X47713Y46410D03*
X50446Y46461D03*
X50456Y46461D03*
D169*
X50466Y47416D03*
X66019Y71233D03*
D170*
X66019Y72397D03*
X63326Y72549D03*
X63326Y71066D03*
X50466Y48579D03*
X47774Y48731D03*
X47774Y47248D03*
D171*
X50456Y47416D03*
X50456Y48584D03*
X66009Y71233D03*
X66009Y72402D03*
D172*
X65999Y72412D03*
X65999Y71223D03*
X50446Y48594D03*
X50446Y47406D03*
D173*
X48953Y47228D03*
X48922Y47238D03*
X48973Y46009D03*
X48424Y46090D03*
X48902Y48752D03*
X48922Y48762D03*
X48932Y48762D03*
X48942Y48762D03*
X48953Y48762D03*
X48973Y49981D03*
X48414Y49900D03*
X47713Y49585D03*
X47703Y49575D03*
X50446Y49534D03*
X63977Y69907D03*
X64525Y69826D03*
X64505Y71045D03*
X64475Y71055D03*
X64454Y72569D03*
X64475Y72579D03*
X64485Y72579D03*
X64495Y72579D03*
X64505Y72579D03*
X64525Y73799D03*
X63967Y73717D03*
X63265Y73402D03*
X63255Y73392D03*
X65999Y73352D03*
D174*
X65988Y71218D03*
X62991Y71807D03*
X47439Y47990D03*
X50436Y47401D03*
D175*
X50436Y48594D03*
X65988Y72412D03*
D176*
X65988Y73347D03*
X64617Y72605D03*
X64464Y72574D03*
X63245Y70248D03*
X50436Y49529D03*
X49064Y48787D03*
X48912Y48757D03*
X47693Y46430D03*
D177*
X48079Y46928D03*
X47561Y47985D03*
X47550Y47985D03*
X48069Y49062D03*
X50426Y47395D03*
X63631Y70746D03*
X63113Y71802D03*
X63103Y71802D03*
X63621Y72879D03*
X65978Y71213D03*
D178*
X65958Y71203D03*
X63286Y71802D03*
X47733Y47985D03*
X50405Y47385D03*
D179*
X50395Y47380D03*
X47804Y47990D03*
X47784Y47990D03*
X47774Y47990D03*
X47764Y47990D03*
X47754Y47990D03*
X48089Y49046D03*
X65948Y71198D03*
X63641Y72864D03*
X63357Y71807D03*
X63337Y71807D03*
X63326Y71807D03*
X63316Y71807D03*
X63306Y71807D03*
D180*
X64363Y72534D03*
X64007Y73702D03*
X65938Y70268D03*
X48455Y49885D03*
X48810Y48716D03*
X50385Y46451D03*
D181*
X50385Y47380D03*
X47845Y47990D03*
X48099Y49046D03*
X65938Y71198D03*
X63652Y72864D03*
X63398Y71807D03*
D182*
X65938Y72432D03*
X50385Y48615D03*
D183*
X50375Y49539D03*
X49085Y48808D03*
X48780Y48696D03*
X48475Y49874D03*
X48780Y47294D03*
X48485Y46115D03*
X48942Y46054D03*
X50365Y46440D03*
X64038Y69933D03*
X64495Y69872D03*
X64332Y71111D03*
X64332Y72513D03*
X64637Y72625D03*
X64027Y73692D03*
X65927Y73357D03*
X65917Y70258D03*
D184*
X65907Y71213D03*
X65897Y71223D03*
X65866Y71233D03*
X65877Y72402D03*
X65897Y72412D03*
X65917Y72422D03*
X63276Y72534D03*
X63276Y71081D03*
X50365Y48604D03*
X50344Y48594D03*
X50324Y48584D03*
X50314Y47416D03*
X50344Y47406D03*
X50355Y47395D03*
X47723Y47263D03*
X47723Y48716D03*
D185*
X48505Y46120D03*
X50334Y46435D03*
X64058Y69938D03*
X65887Y70253D03*
D186*
X65887Y71223D03*
X65887Y72412D03*
X63448Y71812D03*
X50334Y48594D03*
X50334Y47406D03*
X47896Y47995D03*
D187*
X48739Y48665D03*
X49105Y47162D03*
X48516Y46125D03*
X50324Y46440D03*
X64068Y69943D03*
X64657Y70979D03*
X65877Y70258D03*
X64292Y72483D03*
D188*
X65836Y71249D03*
X50283Y47431D03*
D189*
X50283Y48564D03*
X65836Y72381D03*
D190*
X65836Y73372D03*
X64668Y72671D03*
X64261Y72447D03*
X64312Y73697D03*
X64363Y73707D03*
X64464Y73717D03*
X64109Y69958D03*
X64261Y69938D03*
X64312Y69928D03*
X64363Y69918D03*
X50283Y49554D03*
X49115Y48853D03*
X48709Y48630D03*
X48759Y49880D03*
X48810Y49890D03*
X48912Y49900D03*
X48556Y46141D03*
X48709Y46120D03*
X48759Y46110D03*
X48810Y46100D03*
D191*
X48678Y46125D03*
X48668Y46125D03*
X48648Y46136D03*
X48638Y46136D03*
X48627Y46136D03*
X49125Y47141D03*
X50263Y46430D03*
X50263Y49560D03*
X50273Y49560D03*
X48790Y49885D03*
X48780Y49885D03*
X48739Y49874D03*
X48729Y49874D03*
X48719Y49874D03*
X48688Y49864D03*
X48678Y49864D03*
X46687Y47995D03*
X64180Y69953D03*
X64190Y69953D03*
X64200Y69953D03*
X64221Y69943D03*
X64231Y69943D03*
X64678Y70959D03*
X65816Y70248D03*
X65816Y73377D03*
X65826Y73377D03*
X64342Y73702D03*
X64332Y73702D03*
X64292Y73692D03*
X64281Y73692D03*
X64271Y73692D03*
X64241Y73682D03*
X64231Y73682D03*
X62239Y71812D03*
D192*
X63255Y71066D03*
X65795Y71269D03*
X65816Y71259D03*
X65805Y72366D03*
X65795Y72366D03*
X50253Y48549D03*
X50243Y48549D03*
X50243Y47451D03*
X50263Y47441D03*
X47703Y47248D03*
D193*
X47835Y48747D03*
X50253Y47995D03*
X65805Y71812D03*
X63387Y72564D03*
D194*
X65785Y73382D03*
X65785Y70243D03*
X50233Y49565D03*
X50233Y46425D03*
D195*
X50233Y47456D03*
X65785Y71274D03*
D196*
X65785Y72356D03*
X50233Y48538D03*
D197*
X50223Y48000D03*
X50212Y48000D03*
X49918Y48000D03*
X65470Y71817D03*
X65765Y71817D03*
X65775Y71817D03*
D198*
X65775Y73382D03*
X65765Y73382D03*
X65389Y70080D03*
X50223Y49565D03*
X50212Y49565D03*
X49836Y46263D03*
D199*
X50202Y46425D03*
X50212Y46425D03*
X65755Y70243D03*
X65765Y70243D03*
D200*
X65734Y71817D03*
X65480Y71817D03*
X50182Y48000D03*
X49928Y48000D03*
D201*
X49146Y48889D03*
X49867Y49712D03*
X49887Y49702D03*
X50172Y46420D03*
X49918Y46308D03*
X49908Y46298D03*
X49887Y46288D03*
X46697Y47995D03*
X65440Y70106D03*
X65460Y70116D03*
X65470Y70126D03*
X65724Y70238D03*
X64698Y72706D03*
X65419Y73529D03*
X65440Y73519D03*
X62249Y71812D03*
D202*
X65714Y71817D03*
X65724Y71817D03*
X50172Y48000D03*
X50162Y48000D03*
D203*
X49156Y47101D03*
X49958Y46329D03*
X49969Y46339D03*
X50151Y46420D03*
X50151Y49570D03*
X50162Y49570D03*
X49958Y49661D03*
X49938Y49671D03*
X65511Y70146D03*
X65521Y70156D03*
X65704Y70238D03*
X64708Y70918D03*
X65704Y73387D03*
X65714Y73387D03*
X65511Y73479D03*
X65491Y73489D03*
D204*
X65491Y71812D03*
X65704Y71812D03*
X50151Y47995D03*
X49938Y47995D03*
D205*
X50141Y48000D03*
X65694Y71817D03*
D206*
X65694Y73387D03*
X65572Y70187D03*
X50141Y49570D03*
X50019Y46369D03*
D207*
X50131Y46415D03*
X49979Y49646D03*
X65684Y70233D03*
X65531Y73463D03*
D208*
X65684Y71817D03*
X50131Y48000D03*
D209*
X49166Y47091D03*
X50131Y49570D03*
X64718Y70908D03*
X65684Y73387D03*
D210*
X65673Y71812D03*
X65501Y71812D03*
X62321Y71812D03*
X50121Y47995D03*
X49948Y47995D03*
X46768Y47995D03*
D211*
X48018Y48000D03*
X50090Y49575D03*
X50101Y49575D03*
X63570Y71817D03*
X65643Y73392D03*
X65653Y73392D03*
D212*
X65623Y73402D03*
X65612Y73413D03*
X64729Y70893D03*
X65623Y70222D03*
X65643Y70233D03*
X50060Y49595D03*
X50070Y49585D03*
X49176Y47075D03*
X50070Y46405D03*
X50090Y46415D03*
D213*
X50090Y47995D03*
X49958Y47995D03*
X65511Y71812D03*
X65643Y71812D03*
D214*
X65633Y73397D03*
X65633Y70227D03*
X50080Y49580D03*
X50080Y46410D03*
D215*
X50080Y48000D03*
X65633Y71817D03*
D216*
X65623Y71817D03*
X50070Y48000D03*
D217*
X50060Y47995D03*
X49969Y47995D03*
X65521Y71812D03*
X65612Y71812D03*
D218*
X65602Y71817D03*
X65592Y71817D03*
X63215Y73016D03*
X47662Y49199D03*
X50040Y48000D03*
X50050Y48000D03*
D219*
X50029Y49615D03*
X50029Y46374D03*
X65582Y70192D03*
X65582Y73433D03*
D220*
X65582Y71812D03*
X50029Y47995D03*
D221*
X50019Y48000D03*
X50009Y48000D03*
X47652Y46791D03*
X47632Y49189D03*
X63205Y70608D03*
X63184Y73006D03*
X65562Y71817D03*
X65572Y71817D03*
D222*
X65541Y73458D03*
X65562Y70177D03*
X49989Y49641D03*
X50009Y46359D03*
D223*
X49999Y47995D03*
X49989Y47995D03*
X49389Y48828D03*
X47622Y49184D03*
X47611Y49184D03*
X47632Y46796D03*
X63184Y70614D03*
X63174Y73001D03*
X63164Y73001D03*
X64942Y72646D03*
X65541Y71812D03*
X65551Y71812D03*
D224*
X65531Y70156D03*
X49979Y46339D03*
D225*
X49979Y48000D03*
X65531Y71817D03*
D226*
X65480Y73494D03*
X49928Y49676D03*
D227*
X49908Y48000D03*
X65460Y71817D03*
D228*
X65450Y70111D03*
X49897Y46293D03*
D229*
X49897Y48000D03*
X46788Y48000D03*
X62341Y71817D03*
X65450Y71817D03*
D230*
X65440Y71817D03*
X49887Y48000D03*
D231*
X49877Y48000D03*
X65430Y71817D03*
D232*
X65430Y73524D03*
X49877Y49707D03*
D233*
X49857Y47995D03*
X65409Y71812D03*
D234*
X65389Y71812D03*
X62361Y71812D03*
X49836Y47995D03*
X46809Y47995D03*
D235*
X49826Y49941D03*
X49826Y46049D03*
X65379Y69867D03*
X65379Y73758D03*
D236*
X65379Y70436D03*
X49826Y46618D03*
D237*
X49826Y48000D03*
X65379Y71817D03*
D238*
X65379Y73189D03*
X49826Y49372D03*
D239*
X49816Y48000D03*
X65369Y71817D03*
D240*
X65369Y73138D03*
X49816Y49321D03*
D241*
X49806Y49280D03*
X47937Y49107D03*
X49806Y46699D03*
X65358Y70517D03*
X65358Y73098D03*
X63489Y72925D03*
D242*
X65358Y71817D03*
X49806Y48000D03*
D243*
X49796Y49239D03*
X49796Y46750D03*
X47906Y46862D03*
X63459Y70680D03*
X65348Y70568D03*
X65348Y73057D03*
D244*
X65348Y71812D03*
X49796Y47995D03*
D245*
X49775Y49966D03*
X49775Y46034D03*
X49725Y46014D03*
X65277Y69831D03*
X65328Y69852D03*
X65328Y73783D03*
D246*
X65328Y71817D03*
X62382Y71817D03*
X49775Y48000D03*
X46829Y48000D03*
D247*
X49765Y48000D03*
X65318Y71817D03*
D248*
X65308Y71812D03*
X49755Y47995D03*
D249*
X49755Y49971D03*
X49704Y49991D03*
X49694Y49991D03*
X49684Y49991D03*
X49664Y50001D03*
X49654Y50001D03*
X49643Y50012D03*
X49633Y50012D03*
X49603Y50022D03*
X49593Y50022D03*
X49552Y50032D03*
X47672Y47228D03*
X49044Y45907D03*
X49542Y45958D03*
X49582Y45968D03*
X49613Y45978D03*
X49643Y45988D03*
X49654Y45988D03*
X49664Y45988D03*
X49684Y45998D03*
X49694Y45998D03*
X49715Y46009D03*
X49745Y46019D03*
X64596Y69725D03*
X65094Y69775D03*
X65135Y69785D03*
X65165Y69796D03*
X65196Y69806D03*
X65206Y69806D03*
X65216Y69806D03*
X65237Y69816D03*
X65247Y69816D03*
X65267Y69826D03*
X65297Y69836D03*
X63225Y71045D03*
X65104Y73849D03*
X65145Y73839D03*
X65155Y73839D03*
X65186Y73829D03*
X65196Y73829D03*
X65206Y73819D03*
X65216Y73819D03*
X65237Y73809D03*
X65247Y73809D03*
X65257Y73809D03*
X65308Y73789D03*
D250*
X65297Y71812D03*
X62392Y71812D03*
X49745Y47995D03*
X46839Y47995D03*
D251*
X49735Y48000D03*
X65287Y71817D03*
D252*
X65277Y71817D03*
X49725Y48000D03*
D253*
X49715Y47995D03*
X46849Y47995D03*
X62402Y71812D03*
X65267Y71812D03*
D254*
X65257Y71817D03*
X49704Y48000D03*
D255*
X49694Y47995D03*
X65247Y71812D03*
D256*
X65226Y71817D03*
X49674Y48000D03*
D257*
X49664Y47995D03*
X65216Y71812D03*
D258*
X65206Y71817D03*
X63672Y72112D03*
X49654Y48000D03*
X48119Y48295D03*
D259*
X47937Y46872D03*
X49643Y46557D03*
X65196Y70375D03*
X63489Y70690D03*
D260*
X64962Y69750D03*
X64983Y69750D03*
X65013Y69760D03*
X65033Y69760D03*
X65043Y69760D03*
X65054Y69770D03*
X65064Y69770D03*
X65084Y69770D03*
X65186Y69801D03*
X65165Y73834D03*
X65054Y73865D03*
X65043Y73865D03*
X65033Y73865D03*
X65003Y73875D03*
X64993Y73875D03*
X64983Y73875D03*
X64942Y73885D03*
X64932Y73885D03*
X49613Y50017D03*
X49501Y50047D03*
X49491Y50047D03*
X49481Y50047D03*
X49450Y50057D03*
X49440Y50057D03*
X49430Y50057D03*
X49389Y50068D03*
X49379Y50068D03*
X49633Y45983D03*
X49532Y45953D03*
X49511Y45953D03*
X49501Y45953D03*
X49491Y45943D03*
X49481Y45943D03*
X49461Y45943D03*
X49430Y45932D03*
X49410Y45932D03*
D261*
X49633Y46598D03*
X47815Y48742D03*
X65186Y70415D03*
X63367Y72559D03*
D262*
X65186Y71817D03*
X49633Y48000D03*
D263*
X49633Y49438D03*
X65186Y73255D03*
D264*
X65176Y71817D03*
X49623Y48000D03*
D265*
X49623Y49392D03*
X65176Y73209D03*
D266*
X65165Y73164D03*
X63560Y72900D03*
X63337Y72554D03*
X49613Y49346D03*
X48008Y49082D03*
X47784Y48737D03*
D267*
X48058Y46918D03*
X49603Y49295D03*
X63611Y70735D03*
X65155Y73113D03*
D268*
X65145Y71817D03*
X62727Y71817D03*
X49593Y48000D03*
X47175Y48000D03*
D269*
X49582Y47995D03*
X65135Y71812D03*
D270*
X65125Y69780D03*
X65125Y73844D03*
X65074Y73855D03*
X49572Y50027D03*
X49521Y50037D03*
X49572Y45963D03*
D271*
X49572Y47995D03*
X65125Y71812D03*
D272*
X65104Y71812D03*
X65094Y71812D03*
X49552Y47995D03*
X49542Y47995D03*
D273*
X49532Y48000D03*
X65084Y71817D03*
D274*
X65074Y69770D03*
X65023Y69760D03*
X64972Y69750D03*
X49521Y45953D03*
X49471Y45943D03*
X49420Y45932D03*
D275*
X49521Y47995D03*
X65074Y71812D03*
D276*
X65064Y71812D03*
X62747Y71812D03*
X49511Y47995D03*
X47195Y47995D03*
D277*
X49501Y48000D03*
X65054Y71817D03*
D278*
X65023Y71817D03*
X49471Y48000D03*
D279*
X49471Y50052D03*
X49420Y50062D03*
X49369Y50073D03*
X49318Y50073D03*
X49267Y50083D03*
X49217Y50083D03*
X49166Y50093D03*
X49115Y50093D03*
X49064Y50093D03*
X49369Y45927D03*
X49318Y45917D03*
X49267Y45907D03*
X49217Y45907D03*
X49166Y45907D03*
X49115Y45897D03*
X49064Y45897D03*
X64617Y69714D03*
X64668Y69714D03*
X64718Y69725D03*
X64769Y69725D03*
X64820Y69725D03*
X64871Y69735D03*
X64922Y69745D03*
X65023Y73870D03*
X64972Y73880D03*
X64922Y73890D03*
X64871Y73890D03*
X64820Y73900D03*
X64769Y73900D03*
X64718Y73910D03*
X64668Y73910D03*
X64617Y73910D03*
D280*
X65013Y71817D03*
X49461Y48000D03*
D281*
X49430Y48000D03*
X64983Y71817D03*
D282*
X64972Y71817D03*
X49420Y48000D03*
D283*
X49389Y47167D03*
X47622Y46801D03*
X63174Y70619D03*
X64942Y70984D03*
D284*
X64932Y70964D03*
X63113Y70649D03*
X63103Y70649D03*
X49379Y47147D03*
X47561Y46832D03*
X47550Y46832D03*
D285*
X47540Y46837D03*
X49369Y47131D03*
X63093Y70654D03*
X64922Y70949D03*
D286*
X64922Y72681D03*
X49369Y48864D03*
D287*
X49359Y47121D03*
X47500Y49133D03*
X64911Y70939D03*
X63052Y72950D03*
D288*
X63032Y72935D03*
X64911Y72691D03*
X47479Y49118D03*
X49359Y48874D03*
D289*
X49349Y47111D03*
X47479Y46867D03*
X46738Y47995D03*
X47469Y49112D03*
X63032Y70685D03*
X62290Y71812D03*
X63022Y72930D03*
X64901Y70928D03*
D290*
X64901Y72701D03*
X64891Y72712D03*
X49339Y48894D03*
X49349Y48884D03*
D291*
X49339Y47101D03*
X47459Y46877D03*
X63011Y70695D03*
X64891Y70918D03*
D292*
X64881Y70913D03*
X64881Y72722D03*
X62981Y72915D03*
X62859Y72793D03*
X62859Y70832D03*
X47429Y49097D03*
X47307Y48975D03*
X47307Y47014D03*
X49328Y47096D03*
X49328Y48904D03*
D293*
X49318Y47086D03*
X64871Y70903D03*
D294*
X64871Y72727D03*
X62991Y70705D03*
X49318Y48909D03*
X47439Y46887D03*
D295*
X47408Y46903D03*
X49308Y47075D03*
X49308Y48914D03*
X47408Y49087D03*
X47398Y49077D03*
X62961Y70720D03*
X64861Y70893D03*
X64861Y72732D03*
X62961Y72905D03*
X62951Y72894D03*
D296*
X62951Y70725D03*
X64850Y70888D03*
X49298Y47070D03*
X47398Y46908D03*
D297*
X49298Y48919D03*
X64850Y72737D03*
D298*
X64840Y72742D03*
X64830Y72752D03*
X63621Y71817D03*
X62869Y70801D03*
X64840Y70883D03*
X62930Y72884D03*
X47378Y49067D03*
X48069Y48000D03*
X47317Y46984D03*
X49288Y47065D03*
X49288Y48925D03*
X49278Y48935D03*
D299*
X49278Y47060D03*
X64830Y70878D03*
D300*
X64820Y70878D03*
X64820Y72757D03*
X49267Y48940D03*
X49267Y47060D03*
D301*
X49257Y47055D03*
X49247Y47045D03*
X47368Y46923D03*
X49247Y48945D03*
X49257Y48945D03*
X47357Y49057D03*
X62920Y70741D03*
X64800Y70862D03*
X64810Y70873D03*
X64810Y72762D03*
X64800Y72762D03*
X62910Y72874D03*
D302*
X62900Y72869D03*
X63611Y71812D03*
X62900Y70756D03*
X62910Y70746D03*
X64779Y70857D03*
X64789Y70857D03*
X64789Y72767D03*
X47347Y49052D03*
X48058Y47995D03*
X49227Y47040D03*
X49237Y47040D03*
X47357Y46928D03*
X47347Y46938D03*
X49237Y48950D03*
D303*
X49227Y48955D03*
X49207Y48965D03*
X64759Y72783D03*
X64779Y72773D03*
D304*
X64769Y72773D03*
X64769Y70852D03*
X62890Y70761D03*
X49217Y48955D03*
X49217Y47035D03*
X47337Y46943D03*
D305*
X49207Y47040D03*
X47327Y49041D03*
X64759Y70857D03*
X62879Y72859D03*
D306*
X64759Y73905D03*
X64698Y69719D03*
X64688Y69719D03*
X49207Y50088D03*
X49146Y45902D03*
X49135Y45902D03*
D307*
X49196Y47050D03*
X64749Y70868D03*
D308*
X64749Y72773D03*
X49196Y48955D03*
D309*
X49186Y47065D03*
X64739Y70883D03*
D310*
X64739Y72762D03*
X49186Y48945D03*
D311*
X49176Y48930D03*
X48028Y47995D03*
X63580Y71812D03*
X64729Y72747D03*
D312*
X64718Y72737D03*
X49166Y48919D03*
D313*
X49125Y48869D03*
X64678Y72686D03*
D314*
X64668Y70969D03*
X49115Y47152D03*
D315*
X49878Y47888D03*
X65431Y71705D03*
D316*
X64586Y72590D03*
X64576Y72590D03*
X64535Y73809D03*
X63489Y71817D03*
X63286Y70212D03*
X63306Y70192D03*
X48983Y49991D03*
X49024Y48772D03*
X49034Y48772D03*
X47937Y48000D03*
X47733Y46395D03*
X47754Y46374D03*
D317*
X48048Y46171D03*
X49013Y45948D03*
X48048Y49829D03*
X63601Y69989D03*
X64566Y69765D03*
X63601Y73646D03*
D318*
X63956Y73722D03*
X63296Y73428D03*
X64566Y71040D03*
X48404Y49905D03*
X47743Y49610D03*
X49013Y47223D03*
D319*
X49013Y48767D03*
X48963Y48767D03*
X64515Y72585D03*
X64566Y72585D03*
D320*
X64566Y73855D03*
X49013Y50037D03*
D321*
X48343Y49925D03*
X47957Y49773D03*
X47926Y49753D03*
X47916Y49742D03*
X47937Y46237D03*
X49003Y45963D03*
X63489Y70055D03*
X64556Y69780D03*
X63469Y73560D03*
X63479Y73570D03*
X63509Y73590D03*
X63895Y73743D03*
D322*
X65375Y71797D03*
X49822Y47979D03*
D323*
X48993Y50007D03*
X48373Y49915D03*
X47815Y49671D03*
X47804Y49661D03*
X47815Y46329D03*
X47825Y46318D03*
X47835Y46308D03*
X63387Y70126D03*
X63377Y70136D03*
X63367Y70146D03*
X63357Y73479D03*
X63367Y73489D03*
X63926Y73733D03*
X64546Y73824D03*
D324*
X63946Y73722D03*
X63337Y70166D03*
X64535Y69811D03*
X48394Y49905D03*
X47784Y46349D03*
X48983Y45993D03*
D325*
X48912Y46090D03*
X64464Y69907D03*
D326*
X64414Y71076D03*
X64414Y72559D03*
X48861Y48742D03*
X48861Y47258D03*
D327*
X48810Y47279D03*
X64363Y71096D03*
D328*
X64312Y71132D03*
X64312Y72503D03*
X48759Y48686D03*
X48759Y47314D03*
D329*
X48729Y47340D03*
X47967Y48000D03*
X64281Y71157D03*
X63519Y71817D03*
D330*
X64241Y71817D03*
X48688Y48000D03*
D331*
X48678Y47995D03*
X48668Y47995D03*
X64221Y71812D03*
X64231Y71812D03*
D332*
X64210Y71817D03*
X48658Y48000D03*
D333*
X48658Y49859D03*
X48607Y46141D03*
X64160Y69958D03*
X64210Y73677D03*
D334*
X64190Y71817D03*
X64180Y71817D03*
X48638Y48000D03*
X48627Y48000D03*
D335*
X48617Y47995D03*
X48536Y47985D03*
X64088Y71802D03*
X64170Y71812D03*
D336*
X64160Y71817D03*
X48607Y48000D03*
D337*
X48607Y49844D03*
X64160Y73662D03*
D338*
X64139Y71817D03*
X48587Y48000D03*
D339*
X48577Y47995D03*
X48566Y47995D03*
X64119Y71812D03*
X64129Y71812D03*
D340*
X64119Y69963D03*
X48566Y46146D03*
D341*
X48556Y47990D03*
X64109Y71807D03*
D342*
X64068Y71802D03*
X48516Y47985D03*
D343*
X48505Y47985D03*
X64058Y71802D03*
D344*
X64048Y71802D03*
X48495Y47985D03*
D345*
X48485Y47985D03*
X64038Y71802D03*
D346*
X64027Y71802D03*
X48475Y47985D03*
D347*
X48465Y47985D03*
X64017Y71802D03*
D348*
X64007Y71802D03*
X48455Y47985D03*
D349*
X48445Y47985D03*
X63997Y71802D03*
D350*
X63977Y71802D03*
X48424Y47985D03*
D351*
X48414Y47985D03*
X63967Y71802D03*
D352*
X63296Y70202D03*
X63956Y69907D03*
X48404Y46090D03*
X47743Y46385D03*
D353*
X48404Y47985D03*
X63956Y71802D03*
D354*
X63306Y73438D03*
X63316Y73448D03*
X63316Y70187D03*
X63326Y70177D03*
X63946Y69902D03*
X47764Y49631D03*
X47754Y49620D03*
X47764Y46369D03*
X47774Y46359D03*
X48394Y46085D03*
D355*
X48394Y47985D03*
X63946Y71802D03*
D356*
X63326Y73453D03*
X63337Y73463D03*
X63936Y73728D03*
X62219Y71817D03*
X63357Y70151D03*
X63936Y69897D03*
X48384Y49910D03*
X47784Y49646D03*
X47774Y49636D03*
X46667Y48000D03*
X47804Y46334D03*
X48384Y46080D03*
D357*
X48384Y47985D03*
X46992Y47995D03*
X62544Y71812D03*
X63936Y71802D03*
D358*
X63926Y71802D03*
X48373Y47985D03*
D359*
X47855Y49702D03*
X47876Y49712D03*
X47886Y49722D03*
X48363Y49915D03*
X47865Y46288D03*
X47876Y46278D03*
X48363Y46075D03*
X63428Y70095D03*
X63418Y70106D03*
X63916Y69892D03*
X63408Y73519D03*
X63428Y73529D03*
X63438Y73540D03*
X63916Y73733D03*
D360*
X63916Y71802D03*
X48363Y47985D03*
D361*
X47896Y49727D03*
X48353Y46070D03*
X63906Y69887D03*
X63448Y73545D03*
D362*
X63906Y71802D03*
X48353Y47985D03*
D363*
X48353Y49920D03*
X47896Y46263D03*
X63448Y70080D03*
X63906Y73738D03*
D364*
X63895Y71802D03*
X48343Y47985D03*
D365*
X48333Y47985D03*
X47022Y47995D03*
X62575Y71812D03*
X63885Y71802D03*
D366*
X63865Y71802D03*
X48312Y47985D03*
D367*
X48079Y49844D03*
X48119Y49864D03*
X48312Y49935D03*
X48069Y46156D03*
X48109Y46136D03*
X48119Y46125D03*
X63621Y69973D03*
X63662Y69953D03*
X63672Y69943D03*
X63631Y73662D03*
X63672Y73682D03*
X63865Y73753D03*
D368*
X63753Y73722D03*
X63753Y69902D03*
X63855Y69872D03*
X48201Y49905D03*
X48201Y46085D03*
X48302Y46054D03*
D369*
X48302Y47985D03*
X63855Y71802D03*
D370*
X63702Y69928D03*
X63702Y73697D03*
X63855Y73758D03*
X48302Y49941D03*
X48150Y49880D03*
X48150Y46110D03*
D371*
X48282Y46049D03*
X48292Y46049D03*
X48211Y49910D03*
X63834Y69867D03*
X63845Y69867D03*
X63763Y73728D03*
D372*
X63713Y71812D03*
X63834Y71802D03*
X48282Y47985D03*
X48160Y47995D03*
D373*
X48180Y47995D03*
X48272Y47985D03*
X47063Y47995D03*
X62615Y71812D03*
X63733Y71812D03*
X63824Y71802D03*
D374*
X63814Y71802D03*
X48262Y47985D03*
D375*
X48251Y49930D03*
X48251Y46070D03*
X63804Y69887D03*
X63804Y73748D03*
D376*
X63804Y71802D03*
X48251Y47985D03*
D377*
X48241Y47990D03*
X63794Y71807D03*
D378*
X63713Y69923D03*
X63733Y69912D03*
X63743Y69912D03*
X63763Y69902D03*
X63784Y69892D03*
X63733Y73712D03*
X63743Y73722D03*
X63773Y73733D03*
X48221Y49915D03*
X48191Y49905D03*
X48180Y49895D03*
X48160Y46105D03*
X48180Y46095D03*
X48191Y46095D03*
X48211Y46085D03*
X48231Y46075D03*
D379*
X48231Y47995D03*
X63784Y71812D03*
D380*
X63763Y71812D03*
X48211Y47995D03*
D381*
X48201Y48000D03*
X63753Y71817D03*
D382*
X63743Y71817D03*
X48191Y48000D03*
D383*
X48150Y47995D03*
X63702Y71812D03*
D384*
X63692Y71817D03*
X48140Y48000D03*
D385*
X48130Y47995D03*
X47042Y47995D03*
X62595Y71812D03*
X63682Y71812D03*
D386*
X63662Y71812D03*
X48109Y47995D03*
D387*
X48099Y46938D03*
X63652Y70756D03*
D388*
X63042Y70680D03*
X63652Y71817D03*
X48099Y48000D03*
X47489Y46862D03*
D389*
X48099Y49854D03*
X63652Y73672D03*
D390*
X63641Y73672D03*
X63641Y69963D03*
X48089Y49854D03*
X48089Y46146D03*
D391*
X47469Y46872D03*
X48089Y48000D03*
X47459Y49107D03*
X47449Y49107D03*
X63022Y70690D03*
X63641Y71817D03*
X63011Y72925D03*
X63001Y72925D03*
D392*
X62971Y72910D03*
X63631Y71812D03*
X62981Y70715D03*
X62971Y70715D03*
X47418Y49092D03*
X48079Y47995D03*
X47429Y46898D03*
X47418Y46898D03*
D393*
X48069Y46928D03*
X47479Y47985D03*
X47469Y47985D03*
X47459Y47985D03*
X48058Y49062D03*
X63621Y70746D03*
X63032Y71802D03*
X63022Y71802D03*
X63011Y71802D03*
X63611Y72879D03*
D394*
X63601Y70730D03*
X48048Y46913D03*
D395*
X48048Y48000D03*
X63601Y71817D03*
D396*
X63601Y72884D03*
X48048Y49067D03*
D397*
X48038Y46913D03*
X63591Y70730D03*
D398*
X63580Y70725D03*
X63570Y72900D03*
X48018Y49082D03*
X48028Y46908D03*
D399*
X48028Y49077D03*
X63580Y72894D03*
D400*
X63560Y73621D03*
X63580Y73631D03*
X63570Y70004D03*
X63560Y70004D03*
X48028Y49814D03*
X48008Y49803D03*
X48008Y46186D03*
X48018Y46186D03*
D401*
X48018Y46903D03*
X47784Y47248D03*
X63570Y70720D03*
X63337Y71066D03*
D402*
X63560Y70715D03*
X48008Y46898D03*
D403*
X47997Y46197D03*
X63550Y70014D03*
D404*
X63550Y70710D03*
X47997Y46893D03*
D405*
X47997Y49087D03*
X63550Y72905D03*
D406*
X63550Y73616D03*
X47997Y49798D03*
D407*
X47987Y49087D03*
X63540Y72905D03*
D408*
X62971Y71812D03*
X63530Y70705D03*
X47418Y47995D03*
X47977Y46887D03*
D409*
X47957Y46882D03*
X47825Y47238D03*
X63509Y70700D03*
X63377Y71055D03*
D410*
X63367Y71061D03*
X63509Y72920D03*
X47957Y49102D03*
X47815Y47243D03*
D411*
X47947Y46227D03*
X47947Y49763D03*
X63499Y70045D03*
X63499Y73580D03*
D412*
X63499Y70695D03*
X47947Y46877D03*
D413*
X47947Y49107D03*
X63499Y72925D03*
D414*
X63479Y71817D03*
X63438Y70090D03*
X47926Y48000D03*
X47886Y46273D03*
D415*
X47926Y49112D03*
X63479Y72930D03*
D416*
X63469Y70680D03*
X47916Y46862D03*
D417*
X47896Y46857D03*
X63448Y70674D03*
D418*
X63448Y72940D03*
X47896Y49123D03*
D419*
X47886Y49123D03*
X63438Y72940D03*
D420*
X63428Y72564D03*
X63428Y71050D03*
X47876Y48747D03*
X47876Y47233D03*
D421*
X47865Y48747D03*
X63418Y72564D03*
D422*
X63418Y73524D03*
X63408Y70111D03*
X47865Y49707D03*
X47855Y46293D03*
D423*
X47845Y46303D03*
X47845Y49697D03*
X63398Y70121D03*
X63398Y73514D03*
D424*
X63398Y72564D03*
X63398Y71050D03*
X47845Y48747D03*
X47845Y47233D03*
D425*
X47825Y48742D03*
X63377Y72559D03*
D426*
X63367Y71802D03*
X63286Y71091D03*
X47815Y47985D03*
X47733Y47274D03*
D427*
X47804Y47243D03*
X47804Y48737D03*
X63357Y71061D03*
X63357Y72554D03*
D428*
X63347Y73474D03*
X63347Y70161D03*
X47794Y49656D03*
X47794Y46344D03*
D429*
X47794Y47243D03*
X47794Y48737D03*
X63347Y71061D03*
X63347Y72554D03*
D430*
X63296Y72534D03*
X63194Y71802D03*
X63296Y71081D03*
X47743Y48716D03*
X47642Y47985D03*
X47743Y47263D03*
D431*
X47703Y48731D03*
X63255Y72549D03*
D432*
X63245Y71061D03*
X47693Y47243D03*
D433*
X47693Y47990D03*
X63245Y71807D03*
D434*
X63245Y72559D03*
X47693Y48742D03*
D435*
X47652Y49194D03*
X63205Y73011D03*
D436*
X63194Y70614D03*
X47642Y46796D03*
D437*
X47642Y49194D03*
X63194Y73011D03*
D438*
X63123Y72981D03*
X63154Y70634D03*
X63164Y70624D03*
X47571Y49163D03*
X47601Y46816D03*
X47611Y46806D03*
D439*
X47601Y49179D03*
X63154Y72996D03*
D440*
X63144Y72991D03*
X63144Y70634D03*
X47591Y49173D03*
X47591Y46816D03*
D441*
X47591Y47990D03*
X63144Y71807D03*
D442*
X63133Y70639D03*
X63113Y72976D03*
X47561Y49158D03*
X47581Y46821D03*
D443*
X47581Y49168D03*
X63133Y72986D03*
D444*
X63093Y71807D03*
X63042Y71807D03*
X47540Y47990D03*
X47489Y47990D03*
D445*
X47540Y49148D03*
X63093Y72966D03*
D446*
X63062Y72955D03*
X62849Y72752D03*
X62849Y70873D03*
X63072Y70669D03*
X63083Y70659D03*
X47510Y49138D03*
X47296Y48935D03*
X47296Y47055D03*
X47520Y46852D03*
X47530Y46842D03*
D447*
X47530Y49143D03*
X47520Y49143D03*
X63072Y72960D03*
X63083Y72960D03*
D448*
X63062Y70674D03*
X63052Y70674D03*
X47510Y46857D03*
X47500Y46857D03*
D449*
X47489Y49123D03*
X63042Y72940D03*
D450*
X63001Y70700D03*
X47449Y46882D03*
D451*
X47439Y49102D03*
X62991Y72920D03*
D452*
X62280Y71817D03*
X62940Y70730D03*
X46727Y48000D03*
X47388Y46913D03*
D453*
X47388Y49072D03*
X62940Y72889D03*
D454*
X62890Y72864D03*
X47337Y49046D03*
D455*
X47327Y46953D03*
X62879Y70771D03*
D456*
X62839Y70939D03*
X47286Y47121D03*
D457*
X47286Y48874D03*
X62839Y72691D03*
D458*
X62829Y71812D03*
X47276Y47995D03*
D459*
X47266Y47995D03*
X62818Y71812D03*
D460*
X62798Y71817D03*
X47246Y48000D03*
D461*
X47235Y48000D03*
X62788Y71817D03*
D462*
X62737Y71817D03*
X47185Y48000D03*
D463*
X47154Y47995D03*
X62707Y71812D03*
D464*
X62697Y71817D03*
X47144Y48000D03*
D465*
X47134Y47995D03*
X62686Y71812D03*
D466*
X62656Y71817D03*
X47103Y48000D03*
D467*
X47093Y47995D03*
X62646Y71812D03*
D468*
X62636Y71817D03*
X47083Y48000D03*
D469*
X47032Y48000D03*
X62585Y71817D03*
D470*
X62554Y71812D03*
X47002Y47995D03*
D471*
X46981Y48000D03*
X62534Y71817D03*
D472*
X62524Y71812D03*
X46971Y47995D03*
D473*
X46951Y48000D03*
X62503Y71817D03*
D474*
X62493Y71817D03*
X46941Y48000D03*
D475*
X46931Y47995D03*
X62483Y71812D03*
D476*
X62443Y71812D03*
X46890Y47995D03*
D477*
X46880Y47995D03*
X62432Y71812D03*
D478*
X62331Y71812D03*
X46778Y47995D03*
D479*
X46717Y47995D03*
X62270Y71812D03*
D480*
X62260Y71817D03*
X46707Y48000D03*
D481*
X64939Y51179D02*
X64939Y51763D01*
X65134Y51958D01*
X65523Y51958D01*
X65718Y51763D01*
X65718Y51179D01*
X65718Y51569D02*
X66108Y51958D01*
X65913Y52348D02*
X66108Y52543D01*
X66108Y52933D01*
X65913Y53128D01*
X65523Y53128D01*
X65329Y52933D01*
X65329Y52738D01*
X65523Y52348D01*
X64939Y52348D01*
X64939Y53128D01*
X65134Y53518D02*
X64939Y53712D01*
X64939Y54102D01*
X65134Y54297D01*
X65329Y54297D01*
X66108Y53518D01*
X66108Y54297D01*
X66108Y51179D02*
X64939Y51179D01*
X71178Y43310D02*
X71763Y43310D01*
X71958Y43115D01*
X71958Y42920D01*
X71763Y42725D01*
X71178Y42725D01*
X71178Y42141D02*
X71763Y42141D01*
X71958Y42336D01*
X71958Y42531D01*
X71763Y42725D01*
X72348Y43115D02*
X72543Y43310D01*
X72933Y43310D01*
X73127Y43115D01*
X73127Y42920D01*
X72348Y42141D01*
X73127Y42141D01*
X71178Y42141D02*
X71178Y43310D01*
X74786Y51189D02*
X74786Y51774D01*
X74981Y51969D01*
X75371Y51969D01*
X75566Y51774D01*
X75566Y51189D01*
X75956Y51189D02*
X74786Y51189D01*
X75566Y51579D02*
X75956Y51969D01*
X76056Y51774D02*
X76251Y51969D01*
X76641Y51969D01*
X76836Y51774D01*
X76836Y51189D01*
X77226Y51189D02*
X76056Y51189D01*
X76056Y51774D01*
X76056Y52359D02*
X76641Y52359D01*
X76446Y52749D01*
X76446Y52944D01*
X76641Y53138D01*
X77031Y53138D01*
X77226Y52944D01*
X77226Y52554D01*
X77031Y52359D01*
X77226Y51969D02*
X76836Y51579D01*
X76056Y52359D02*
X76056Y53138D01*
X75956Y52944D02*
X75761Y53138D01*
X75371Y53138D01*
X75176Y52944D01*
X75176Y52749D01*
X75371Y52359D01*
X74786Y52359D01*
X74786Y53138D01*
X74981Y53528D02*
X74786Y53723D01*
X74786Y54113D01*
X74981Y54308D01*
X75761Y53528D01*
X75956Y53723D01*
X75956Y54113D01*
X75761Y54308D01*
X74981Y54308D01*
X74981Y53528D02*
X75761Y53528D01*
X76056Y53918D02*
X77226Y53918D01*
X77226Y53528D02*
X77226Y54308D01*
X76446Y53528D02*
X76056Y53918D01*
X75956Y52944D02*
X75956Y52554D01*
X75761Y52359D01*
X86217Y49660D02*
X86217Y48491D01*
X86802Y48491D01*
X86997Y48686D01*
X86997Y48881D01*
X86802Y49075D01*
X86217Y49075D01*
X86802Y49075D02*
X86997Y49270D01*
X86997Y49465D01*
X86802Y49660D01*
X86217Y49660D01*
X87387Y49270D02*
X87776Y49660D01*
X87776Y48491D01*
X87387Y48491D02*
X88166Y48491D01*
X86116Y80093D02*
X84946Y80093D01*
X84946Y80678D01*
X85141Y80873D01*
X85531Y80873D01*
X85726Y80678D01*
X85726Y80093D01*
X86116Y81263D02*
X84946Y81263D01*
X84946Y82042D02*
X86116Y82042D01*
X85726Y81653D01*
X86116Y81263D01*
X86116Y82432D02*
X84946Y82432D01*
X84946Y83017D01*
X85141Y83212D01*
X85531Y83212D01*
X85726Y83017D01*
X85726Y82432D01*
X85726Y82822D02*
X86116Y83212D01*
X78178Y93734D02*
X77009Y93734D01*
X77009Y94319D01*
X77204Y94514D01*
X77593Y94514D01*
X77788Y94319D01*
X77788Y93734D01*
X77788Y94124D02*
X78178Y94514D01*
X78178Y94904D02*
X77399Y95683D01*
X77204Y95683D01*
X77009Y95489D01*
X77009Y95099D01*
X77204Y94904D01*
X76432Y95207D02*
X76432Y94428D01*
X75263Y94428D01*
X75263Y95207D01*
X75263Y95597D02*
X75263Y96182D01*
X75457Y96377D01*
X76237Y96377D01*
X76432Y96182D01*
X76432Y95597D01*
X75263Y95597D01*
X75847Y94817D02*
X75847Y94428D01*
X76432Y94038D02*
X76432Y93258D01*
X75263Y93258D01*
X78178Y94904D02*
X78178Y95683D01*
X77983Y96073D02*
X78178Y96268D01*
X78178Y96658D01*
X77983Y96853D01*
X77788Y96853D01*
X77593Y96658D01*
X77593Y96073D01*
X77983Y96073D01*
X77593Y96073D02*
X77204Y96463D01*
X77009Y96853D01*
X76627Y96766D02*
X76627Y97546D01*
X76237Y97936D02*
X76432Y98131D01*
X76432Y98520D01*
X76237Y98715D01*
X76042Y98715D01*
X75847Y98520D01*
X75847Y98326D01*
X75847Y98520D02*
X75652Y98715D01*
X75457Y98715D01*
X75263Y98520D01*
X75263Y98131D01*
X75457Y97936D01*
X75263Y99105D02*
X76042Y99105D01*
X76432Y99495D01*
X76042Y99885D01*
X75263Y99885D01*
X75457Y100275D02*
X75263Y100469D01*
X75263Y100859D01*
X75457Y101054D01*
X75652Y101054D01*
X75847Y100859D01*
X76042Y101054D01*
X76237Y101054D01*
X76432Y100859D01*
X76432Y100469D01*
X76237Y100275D01*
X75847Y100664D02*
X75847Y100859D01*
X65507Y94269D02*
X65118Y94074D01*
X64728Y93684D01*
X65313Y93684D01*
X65507Y93489D01*
X65507Y93294D01*
X65313Y93099D01*
X64923Y93099D01*
X64728Y93294D01*
X64728Y93684D01*
X64526Y93654D02*
X64526Y94044D01*
X64331Y94239D01*
X64136Y94239D01*
X63941Y94044D01*
X63941Y93654D01*
X63746Y93459D01*
X63551Y93459D01*
X63356Y93654D01*
X63356Y94044D01*
X63551Y94239D01*
X63558Y94074D02*
X63753Y94269D01*
X64143Y94269D01*
X64338Y94074D01*
X64338Y93879D01*
X64143Y93684D01*
X64338Y93489D01*
X64338Y93294D01*
X64143Y93099D01*
X63753Y93099D01*
X63558Y93294D01*
X63356Y93070D02*
X64331Y93070D01*
X64526Y92875D01*
X64526Y92485D01*
X64331Y92290D01*
X63356Y92290D01*
X63169Y93099D02*
X62779Y93489D01*
X62974Y93489D02*
X62389Y93489D01*
X62389Y93099D02*
X62389Y94269D01*
X62974Y94269D01*
X63169Y94074D01*
X63169Y93684D01*
X62974Y93489D01*
X61986Y93409D02*
X61986Y92824D01*
X60816Y92824D01*
X60816Y93409D01*
X61011Y93604D01*
X61791Y93604D01*
X61986Y93409D01*
X61791Y93994D02*
X61986Y94189D01*
X61986Y94579D01*
X61791Y94773D01*
X61596Y94773D01*
X61401Y94579D01*
X61401Y94384D01*
X61401Y94579D02*
X61206Y94773D01*
X61011Y94773D01*
X60816Y94579D01*
X60816Y94189D01*
X61011Y93994D01*
X60816Y92435D02*
X60816Y91655D01*
X61986Y91655D01*
X61986Y92435D01*
X61401Y92045D02*
X61401Y91655D01*
X61986Y91265D02*
X61986Y90486D01*
X60816Y90486D01*
X59446Y90559D02*
X58276Y90559D01*
X58276Y91144D01*
X58471Y91339D01*
X58861Y91339D01*
X59056Y91144D01*
X59056Y90559D01*
X59056Y90949D02*
X59446Y91339D01*
X59251Y91729D02*
X59446Y91924D01*
X59446Y92314D01*
X59251Y92508D01*
X59056Y92508D01*
X58861Y92314D01*
X58861Y92119D01*
X58861Y92314D02*
X58666Y92508D01*
X58471Y92508D01*
X58276Y92314D01*
X58276Y91924D01*
X58471Y91729D01*
X58811Y93936D02*
X57641Y94715D01*
X58031Y95105D02*
X57641Y95495D01*
X58811Y95495D01*
X58811Y95105D02*
X58811Y95885D01*
X58811Y94715D02*
X57641Y93936D01*
X63356Y94629D02*
X63356Y95213D01*
X63551Y95408D01*
X63746Y95408D01*
X63941Y95213D01*
X63941Y94629D01*
X63941Y95213D02*
X64136Y95408D01*
X64331Y95408D01*
X64526Y95213D01*
X64526Y94629D01*
X63356Y94629D01*
X63948Y93684D02*
X64143Y93684D01*
X64331Y93459D02*
X64526Y93654D01*
X64721Y91900D02*
X64721Y91121D01*
X64331Y90731D02*
X64526Y90536D01*
X64526Y90146D01*
X64331Y89951D01*
X64136Y89561D02*
X63356Y89561D01*
X63551Y89951D02*
X63356Y90146D01*
X63356Y90536D01*
X63551Y90731D01*
X63746Y90731D01*
X63941Y90536D01*
X64136Y90731D01*
X64331Y90731D01*
X63941Y90536D02*
X63941Y90341D01*
X64136Y89561D02*
X64526Y89172D01*
X64136Y88782D01*
X63356Y88782D01*
X63551Y88392D02*
X63356Y88197D01*
X63356Y87807D01*
X63551Y87612D01*
X63941Y88002D02*
X63941Y88197D01*
X64136Y88392D01*
X64331Y88392D01*
X64526Y88197D01*
X64526Y87807D01*
X64331Y87612D01*
X64721Y87223D02*
X64721Y86443D01*
X64331Y86053D02*
X63551Y86053D01*
X63356Y85858D01*
X63356Y85274D01*
X64526Y85274D01*
X64526Y85858D01*
X64331Y86053D01*
X64526Y84884D02*
X64526Y84104D01*
X63356Y84104D01*
X63356Y84884D01*
X63941Y84494D02*
X63941Y84104D01*
X64526Y83714D02*
X64526Y82935D01*
X63356Y82935D01*
X63941Y88197D02*
X63746Y88392D01*
X63551Y88392D01*
X67992Y88924D02*
X68577Y88924D01*
X68772Y89119D01*
X68772Y89899D01*
X68577Y90094D01*
X67992Y90094D01*
X67992Y88924D01*
X69162Y88924D02*
X69941Y88924D01*
X69551Y88924D02*
X69551Y90094D01*
X69162Y89704D01*
X56893Y88041D02*
X56893Y87847D01*
X56698Y87652D01*
X56893Y87457D01*
X56893Y87262D01*
X56698Y87067D01*
X56308Y87067D01*
X56113Y87262D01*
X55723Y87262D02*
X55528Y87067D01*
X55138Y87067D01*
X54944Y87262D01*
X54944Y88041D01*
X55138Y88236D01*
X55528Y88236D01*
X55723Y88041D01*
X56113Y88041D02*
X56308Y88236D01*
X56698Y88236D01*
X56893Y88041D01*
X56698Y87652D02*
X56503Y87652D01*
X56575Y86966D02*
X56575Y86771D01*
X55795Y85992D01*
X55795Y85797D01*
X55406Y85992D02*
X55211Y85797D01*
X54821Y85797D01*
X54626Y85992D01*
X54626Y86771D01*
X54821Y86966D01*
X55211Y86966D01*
X55406Y86771D01*
X55795Y86966D02*
X56575Y86966D01*
X52807Y85501D02*
X52613Y85696D01*
X52223Y85696D01*
X52028Y85501D01*
X51638Y85501D02*
X51443Y85696D01*
X51053Y85696D01*
X50858Y85501D01*
X50858Y84722D01*
X51053Y84527D01*
X51443Y84527D01*
X51638Y84722D01*
X51761Y84426D02*
X51371Y84426D01*
X51176Y84231D01*
X51176Y83452D01*
X51371Y83257D01*
X51761Y83257D01*
X51956Y83452D01*
X52345Y83257D02*
X53125Y83257D01*
X52735Y83257D02*
X52735Y84426D01*
X52345Y84037D01*
X51956Y84231D02*
X51761Y84426D01*
X52028Y84527D02*
X52807Y85307D01*
X52807Y85501D01*
X52807Y84527D02*
X52028Y84527D01*
X47381Y89808D02*
X46211Y89808D01*
X46211Y90393D01*
X46406Y90588D01*
X46796Y90588D01*
X46991Y90393D01*
X46991Y89808D01*
X46991Y90198D02*
X47381Y90588D01*
X47381Y90486D02*
X47381Y91265D01*
X47381Y90978D02*
X46601Y91757D01*
X46406Y91757D01*
X46211Y91562D01*
X46211Y91172D01*
X46406Y90978D01*
X46211Y90486D02*
X47381Y90486D01*
X47381Y90978D02*
X47381Y91757D01*
X47381Y91655D02*
X47381Y92435D01*
X47381Y92824D02*
X47381Y93409D01*
X47186Y93604D01*
X46406Y93604D01*
X46211Y93409D01*
X46211Y92824D01*
X47381Y92824D01*
X46796Y92045D02*
X46796Y91655D01*
X46211Y91655D02*
X47381Y91655D01*
X46211Y91655D02*
X46211Y92435D01*
X45476Y92435D02*
X45476Y91655D01*
X44306Y91655D01*
X44306Y92435D01*
X44306Y92824D02*
X44306Y93409D01*
X44501Y93604D01*
X45281Y93604D01*
X45476Y93409D01*
X45476Y92824D01*
X44306Y92824D01*
X44891Y92045D02*
X44891Y91655D01*
X45476Y91757D02*
X45476Y90978D01*
X45476Y91265D02*
X45476Y90486D01*
X44306Y90486D01*
X44306Y90393D02*
X44501Y90588D01*
X44891Y90588D01*
X45086Y90393D01*
X45086Y89808D01*
X45476Y89808D02*
X44306Y89808D01*
X44306Y90393D01*
X44696Y90978D02*
X44306Y91367D01*
X45476Y91367D01*
X45476Y90588D02*
X45086Y90198D01*
X42936Y89951D02*
X42936Y90731D01*
X42936Y91121D02*
X41766Y91121D01*
X41766Y91900D01*
X41766Y92290D02*
X41766Y92875D01*
X41961Y93070D01*
X42741Y93070D01*
X42936Y92875D01*
X42936Y92290D01*
X41766Y92290D01*
X42351Y91510D02*
X42351Y91121D01*
X42936Y91121D02*
X42936Y91900D01*
X42741Y93459D02*
X41961Y94239D01*
X42741Y94239D01*
X42936Y94044D01*
X42936Y93654D01*
X42741Y93459D01*
X41961Y93459D01*
X41766Y93654D01*
X41766Y94044D01*
X41961Y94239D01*
X41766Y94629D02*
X42936Y94629D01*
X42936Y95408D02*
X41766Y95408D01*
X41766Y94629D02*
X42936Y95408D01*
X44306Y94384D02*
X45476Y94384D01*
X45476Y94773D02*
X45476Y93994D01*
X46211Y94189D02*
X46406Y93994D01*
X46211Y94189D02*
X46211Y94579D01*
X46406Y94773D01*
X46601Y94773D01*
X47381Y93994D01*
X47381Y94773D01*
X44696Y93994D02*
X44306Y94384D01*
X42936Y89951D02*
X41766Y89951D01*
X40078Y90069D02*
X39688Y89679D01*
X39688Y89874D02*
X39688Y89289D01*
X40078Y89289D02*
X38909Y89289D01*
X38909Y89874D01*
X39104Y90069D01*
X39493Y90069D01*
X39688Y89874D01*
X39126Y89951D02*
X39126Y90731D01*
X38909Y91044D02*
X39493Y90459D01*
X39493Y91238D01*
X39126Y91121D02*
X39126Y91900D01*
X38909Y91823D02*
X38909Y92213D01*
X39104Y92408D01*
X39883Y92408D01*
X40078Y92213D01*
X40078Y91823D01*
X39883Y91628D01*
X39493Y91823D02*
X39493Y92408D01*
X39126Y92290D02*
X39126Y92875D01*
X38931Y93070D01*
X38151Y93070D01*
X37956Y92875D01*
X37956Y92290D01*
X39126Y92290D01*
X38808Y92213D02*
X38808Y91823D01*
X38613Y91628D01*
X38418Y91628D01*
X38223Y91823D01*
X38223Y92213D01*
X38418Y92408D01*
X38613Y92408D01*
X38808Y92213D01*
X38909Y91823D02*
X39104Y91628D01*
X39299Y91628D01*
X39493Y91823D01*
X39126Y91121D02*
X37956Y91121D01*
X37956Y91900D01*
X38223Y91823D02*
X38029Y91628D01*
X37834Y91628D01*
X37639Y91823D01*
X37639Y92213D01*
X37834Y92408D01*
X38029Y92408D01*
X38223Y92213D01*
X38541Y91510D02*
X38541Y91121D01*
X38808Y91044D02*
X37639Y91044D01*
X38223Y90459D01*
X38223Y91238D01*
X38909Y91044D02*
X40078Y91044D01*
X39126Y89951D02*
X37956Y89951D01*
X37834Y90069D02*
X38223Y90069D01*
X38418Y89874D01*
X38418Y89289D01*
X38808Y89289D02*
X37639Y89289D01*
X37639Y89874D01*
X37834Y90069D01*
X37379Y90069D02*
X36990Y89679D01*
X36990Y89874D02*
X36990Y89289D01*
X37379Y89289D02*
X36210Y89289D01*
X36210Y89874D01*
X36405Y90069D01*
X36795Y90069D01*
X36990Y89874D01*
X36795Y90459D02*
X36795Y91238D01*
X37185Y91628D02*
X37379Y91823D01*
X37379Y92213D01*
X37185Y92408D01*
X36990Y92408D01*
X36795Y92213D01*
X36795Y92018D01*
X36795Y92213D02*
X36600Y92408D01*
X36405Y92408D01*
X36210Y92213D01*
X36210Y91823D01*
X36405Y91628D01*
X36109Y91628D02*
X35330Y92408D01*
X35135Y92408D01*
X34940Y92213D01*
X34940Y91823D01*
X35135Y91628D01*
X35316Y91900D02*
X35316Y91121D01*
X34146Y91121D01*
X34146Y91900D01*
X34146Y92290D02*
X34146Y92875D01*
X34341Y93070D01*
X35121Y93070D01*
X35316Y92875D01*
X35316Y92290D01*
X34146Y92290D01*
X33706Y92408D02*
X34486Y91628D01*
X34681Y91628D01*
X34731Y91510D02*
X34731Y91121D01*
X34681Y91044D02*
X33511Y91044D01*
X34096Y90459D01*
X34096Y91238D01*
X33511Y91628D02*
X33511Y92408D01*
X33706Y92408D01*
X33411Y92213D02*
X33216Y92408D01*
X33021Y92408D01*
X32826Y92213D01*
X32826Y91628D01*
X33216Y91628D01*
X33411Y91823D01*
X33411Y92213D01*
X32826Y91628D02*
X32436Y92018D01*
X32241Y92408D01*
X31982Y92408D02*
X31982Y91628D01*
X31982Y92018D02*
X30813Y92018D01*
X31202Y91628D01*
X30921Y91510D02*
X30921Y91121D01*
X30813Y91044D02*
X31397Y90459D01*
X31397Y91238D01*
X31506Y91121D02*
X31506Y91900D01*
X31506Y92290D02*
X31506Y92875D01*
X31311Y93070D01*
X30531Y93070D01*
X30336Y92875D01*
X30336Y92290D01*
X31506Y92290D01*
X30712Y92213D02*
X30712Y91823D01*
X30517Y91628D01*
X29737Y92408D01*
X30517Y92408D01*
X30712Y92213D01*
X30336Y91900D02*
X30336Y91121D01*
X31506Y91121D01*
X31506Y90731D02*
X31506Y89951D01*
X30336Y89951D01*
X30322Y89874D02*
X30322Y89289D01*
X30712Y89289D02*
X29543Y89289D01*
X29543Y89874D01*
X29737Y90069D01*
X30127Y90069D01*
X30322Y89874D01*
X30322Y89679D02*
X30712Y90069D01*
X30813Y89874D02*
X31007Y90069D01*
X31397Y90069D01*
X31592Y89874D01*
X31592Y89289D01*
X31982Y89289D02*
X30813Y89289D01*
X30813Y89874D01*
X31592Y89679D02*
X31982Y90069D01*
X32241Y89874D02*
X32436Y90069D01*
X32826Y90069D01*
X33021Y89874D01*
X33021Y89289D01*
X33411Y89289D02*
X32241Y89289D01*
X32241Y89874D01*
X33021Y89679D02*
X33411Y90069D01*
X33511Y89874D02*
X33706Y90069D01*
X34096Y90069D01*
X34291Y89874D01*
X34291Y89289D01*
X34681Y89289D02*
X33511Y89289D01*
X33511Y89874D01*
X34146Y89951D02*
X35316Y89951D01*
X35316Y90731D01*
X35525Y90459D02*
X34940Y91044D01*
X36109Y91044D01*
X36210Y91044D02*
X36795Y90459D01*
X36109Y90069D02*
X35720Y89679D01*
X35720Y89874D02*
X35720Y89289D01*
X36109Y89289D02*
X34940Y89289D01*
X34940Y89874D01*
X35135Y90069D01*
X35525Y90069D01*
X35720Y89874D01*
X35525Y90459D02*
X35525Y91238D01*
X36109Y91628D02*
X36109Y92408D01*
X35316Y93258D02*
X35316Y94038D01*
X35316Y94239D02*
X35316Y93459D01*
X34536Y94239D01*
X34341Y94239D01*
X34146Y94044D01*
X34146Y93654D01*
X34341Y93459D01*
X34146Y93258D02*
X35316Y93258D01*
X35316Y94428D02*
X34146Y94428D01*
X34146Y95207D01*
X34146Y95408D02*
X35316Y95408D01*
X34146Y94629D01*
X35316Y94629D01*
X35316Y94428D02*
X35316Y95207D01*
X35316Y95597D02*
X35316Y96182D01*
X35121Y96377D01*
X34341Y96377D01*
X34146Y96182D01*
X34146Y95597D01*
X35316Y95597D01*
X34731Y94817D02*
X34731Y94428D01*
X34536Y96766D02*
X34146Y97156D01*
X35316Y97156D01*
X35316Y96766D02*
X35316Y97546D01*
X35316Y97936D02*
X34146Y97936D01*
X34146Y98520D01*
X34341Y98715D01*
X34731Y98715D01*
X34926Y98520D01*
X34926Y97936D01*
X37956Y97936D02*
X37956Y98520D01*
X38151Y98715D01*
X38541Y98715D01*
X38736Y98520D01*
X38736Y97936D01*
X39126Y97936D02*
X37956Y97936D01*
X38151Y97546D02*
X38931Y96766D01*
X39126Y96961D01*
X39126Y97351D01*
X38931Y97546D01*
X38151Y97546D01*
X37956Y97351D01*
X37956Y96961D01*
X38151Y96766D01*
X38931Y96766D01*
X38931Y96377D02*
X38151Y96377D01*
X37956Y96182D01*
X37956Y95597D01*
X39126Y95597D01*
X39126Y96182D01*
X38931Y96377D01*
X39126Y95408D02*
X37956Y95408D01*
X37956Y95207D02*
X37956Y94428D01*
X39126Y94428D01*
X39126Y95207D01*
X39126Y95408D02*
X37956Y94629D01*
X39126Y94629D01*
X39126Y94239D02*
X39126Y93459D01*
X39126Y93258D02*
X39126Y94038D01*
X39126Y93849D02*
X37956Y93849D01*
X38346Y93459D01*
X37956Y93258D02*
X39126Y93258D01*
X38541Y94428D02*
X38541Y94817D01*
X37379Y91044D02*
X36210Y91044D01*
X34681Y90069D02*
X34291Y89679D01*
X32826Y90459D02*
X32826Y91238D01*
X33411Y91044D02*
X32241Y91044D01*
X32826Y90459D01*
X31982Y91044D02*
X30813Y91044D01*
X30712Y91044D02*
X29543Y91044D01*
X30127Y90459D01*
X30127Y91238D01*
X30517Y91628D02*
X29737Y91628D01*
X29543Y91823D01*
X29543Y92213D01*
X29737Y92408D01*
X30336Y93258D02*
X31506Y93258D01*
X31506Y94038D01*
X31506Y94044D02*
X31506Y93654D01*
X31311Y93459D01*
X30921Y93849D02*
X30921Y94044D01*
X31116Y94239D01*
X31311Y94239D01*
X31506Y94044D01*
X31506Y94428D02*
X31506Y95207D01*
X31506Y95408D02*
X30336Y95408D01*
X30336Y95597D02*
X30336Y96182D01*
X30531Y96377D01*
X31311Y96377D01*
X31506Y96182D01*
X31506Y95597D01*
X30336Y95597D01*
X30336Y95207D02*
X30336Y94428D01*
X31506Y94428D01*
X31506Y94629D02*
X30336Y94629D01*
X31506Y95408D01*
X30921Y94817D02*
X30921Y94428D01*
X30726Y94239D02*
X30921Y94044D01*
X30726Y94239D02*
X30531Y94239D01*
X30336Y94044D01*
X30336Y93654D01*
X30531Y93459D01*
X27696Y93258D02*
X27696Y94038D01*
X27696Y94044D02*
X26526Y94044D01*
X27111Y93459D01*
X27111Y94239D01*
X27111Y94428D02*
X27111Y94817D01*
X27696Y94629D02*
X26526Y94629D01*
X27696Y95408D01*
X26526Y95408D01*
X26526Y95597D02*
X26526Y96182D01*
X26721Y96377D01*
X27501Y96377D01*
X27696Y96182D01*
X27696Y95597D01*
X26526Y95597D01*
X26526Y95207D02*
X26526Y94428D01*
X27696Y94428D01*
X27696Y95207D01*
X27501Y96766D02*
X27696Y96961D01*
X27696Y97351D01*
X27501Y97546D01*
X27306Y97546D01*
X27111Y97351D01*
X27111Y97156D01*
X27111Y97351D02*
X26916Y97546D01*
X26721Y97546D01*
X26526Y97351D01*
X26526Y96961D01*
X26721Y96766D01*
X26526Y97936D02*
X26526Y98520D01*
X26721Y98715D01*
X27111Y98715D01*
X27306Y98520D01*
X27306Y97936D01*
X27696Y97936D02*
X26526Y97936D01*
X23886Y97936D02*
X22716Y97936D01*
X22716Y98520D01*
X22911Y98715D01*
X23301Y98715D01*
X23496Y98520D01*
X23496Y97936D01*
X23301Y97546D02*
X23301Y96766D01*
X22716Y97351D01*
X23886Y97351D01*
X23691Y96377D02*
X22911Y96377D01*
X22716Y96182D01*
X22716Y95597D01*
X23886Y95597D01*
X23886Y96182D01*
X23691Y96377D01*
X23886Y95408D02*
X22716Y95408D01*
X22716Y95207D02*
X22716Y94428D01*
X23886Y94428D01*
X23886Y95207D01*
X23886Y95408D02*
X22716Y94629D01*
X23886Y94629D01*
X23691Y94239D02*
X23886Y94044D01*
X23886Y93654D01*
X23691Y93459D01*
X23886Y93258D02*
X23886Y94038D01*
X23691Y94239D02*
X23301Y94239D01*
X23106Y94044D01*
X23106Y93849D01*
X23301Y93459D01*
X22716Y93459D01*
X22716Y94239D01*
X22783Y93793D02*
X22199Y93208D01*
X22978Y93208D01*
X22911Y93070D02*
X22716Y92875D01*
X22716Y92290D01*
X23886Y92290D01*
X23886Y92875D01*
X23691Y93070D01*
X22911Y93070D01*
X22716Y93258D02*
X23886Y93258D01*
X23901Y93013D02*
X24291Y92623D01*
X24096Y93013D02*
X23511Y93013D01*
X23511Y92623D02*
X23511Y93793D01*
X24096Y93793D01*
X24291Y93598D01*
X24291Y93208D01*
X24096Y93013D01*
X24680Y93208D02*
X25460Y93208D01*
X25850Y93208D02*
X26240Y93403D01*
X26435Y93403D01*
X26629Y93208D01*
X26629Y92818D01*
X26435Y92623D01*
X26045Y92623D01*
X25850Y92818D01*
X25850Y93208D02*
X25850Y93793D01*
X26629Y93793D01*
X26526Y93258D02*
X27696Y93258D01*
X27501Y93070D02*
X26721Y93070D01*
X26526Y92875D01*
X26526Y92290D01*
X27696Y92290D01*
X27696Y92875D01*
X27501Y93070D01*
X27696Y91900D02*
X27696Y91121D01*
X26526Y91121D01*
X26526Y91900D01*
X27111Y91510D02*
X27111Y91121D01*
X27696Y90731D02*
X27696Y89951D01*
X26526Y89951D01*
X23886Y89951D02*
X23886Y90731D01*
X23886Y91121D02*
X22716Y91121D01*
X22716Y91900D01*
X23301Y91510D02*
X23301Y91121D01*
X23886Y91121D02*
X23886Y91900D01*
X22783Y92623D02*
X22783Y93793D01*
X23301Y94428D02*
X23301Y94817D01*
X21614Y93793D02*
X21029Y93208D01*
X21809Y93208D01*
X21614Y92623D02*
X21614Y93793D01*
X20639Y93598D02*
X20639Y93208D01*
X20444Y93013D01*
X19860Y93013D01*
X20076Y93258D02*
X20076Y94038D01*
X19860Y93793D02*
X20444Y93793D01*
X20639Y93598D01*
X20076Y93258D02*
X18906Y93258D01*
X19860Y93793D02*
X19860Y92623D01*
X20250Y93013D02*
X20639Y92623D01*
X20076Y94428D02*
X18906Y94428D01*
X18906Y95207D01*
X18906Y95597D02*
X18906Y96182D01*
X19101Y96377D01*
X19881Y96377D01*
X20076Y96182D01*
X20076Y95597D01*
X18906Y95597D01*
X19491Y94817D02*
X19491Y94428D01*
X20076Y94428D02*
X20076Y95207D01*
X19881Y96766D02*
X20076Y96961D01*
X20076Y97351D01*
X19881Y97546D01*
X19491Y97546D01*
X19296Y97351D01*
X19296Y97156D01*
X19491Y96766D01*
X18906Y96766D01*
X18906Y97546D01*
X18906Y97936D02*
X18906Y98520D01*
X19101Y98715D01*
X19491Y98715D01*
X19686Y98520D01*
X19686Y97936D01*
X20076Y97936D02*
X18906Y97936D01*
X17341Y95583D02*
X17146Y95583D01*
X16951Y95388D01*
X16951Y94998D01*
X16756Y94803D01*
X16561Y94803D01*
X16366Y94998D01*
X16366Y95388D01*
X16561Y95583D01*
X16756Y95583D01*
X16951Y95388D01*
X16951Y94998D02*
X17146Y94803D01*
X17341Y94803D01*
X17536Y94998D01*
X17536Y95388D01*
X17341Y95583D01*
X16266Y95388D02*
X16071Y95583D01*
X15291Y95583D01*
X15096Y95388D01*
X15096Y94998D01*
X15291Y94803D01*
X15486Y94803D01*
X15681Y94998D01*
X15681Y95583D01*
X16266Y95388D02*
X16266Y94998D01*
X16071Y94803D01*
X16071Y94413D02*
X16266Y94219D01*
X16266Y93829D01*
X16071Y93634D01*
X16366Y93829D02*
X16366Y94219D01*
X16561Y94413D01*
X16756Y94413D01*
X16951Y94219D01*
X17146Y94413D01*
X17341Y94413D01*
X17536Y94219D01*
X17536Y93829D01*
X17341Y93634D01*
X17536Y93244D02*
X17146Y92854D01*
X17146Y93049D02*
X17146Y92464D01*
X17536Y92464D02*
X16366Y92464D01*
X16366Y93049D01*
X16561Y93244D01*
X16951Y93244D01*
X17146Y93049D01*
X16561Y93634D02*
X16366Y93829D01*
X16266Y93244D02*
X15876Y92854D01*
X15876Y93049D02*
X15876Y92464D01*
X16266Y92464D02*
X15096Y92464D01*
X15096Y93049D01*
X15291Y93244D01*
X15681Y93244D01*
X15876Y93049D01*
X15291Y93634D02*
X15096Y93829D01*
X15096Y94219D01*
X15291Y94413D01*
X15486Y94413D01*
X15681Y94219D01*
X15876Y94413D01*
X16071Y94413D01*
X15681Y94219D02*
X15681Y94024D01*
X16951Y94024D02*
X16951Y94219D01*
X22716Y89951D02*
X23886Y89951D01*
X25265Y92623D02*
X25265Y93793D01*
X24680Y93208D01*
X30336Y96961D02*
X30531Y96766D01*
X30336Y96961D02*
X30336Y97351D01*
X30531Y97546D01*
X30726Y97546D01*
X31506Y96766D01*
X31506Y97546D01*
X31506Y97936D02*
X30336Y97936D01*
X30336Y98520D01*
X30531Y98715D01*
X30921Y98715D01*
X31116Y98520D01*
X31116Y97936D01*
X38808Y90069D02*
X38418Y89679D01*
X38267Y77759D02*
X38462Y77564D01*
X38462Y77174D01*
X38267Y76979D01*
X37682Y76979D01*
X37682Y76589D02*
X37682Y77759D01*
X38267Y77759D01*
X38852Y77759D02*
X38852Y77174D01*
X39241Y77369D01*
X39436Y77369D01*
X39631Y77174D01*
X39631Y76784D01*
X39436Y76589D01*
X39047Y76589D01*
X38852Y76784D01*
X38462Y76589D02*
X38072Y76979D01*
X38852Y77759D02*
X39631Y77759D01*
X34392Y74865D02*
X34198Y75060D01*
X33808Y75060D01*
X33613Y74865D01*
X33223Y75060D02*
X32443Y75060D01*
X32833Y75060D02*
X32833Y73891D01*
X33613Y73891D02*
X34392Y74670D01*
X34392Y74865D01*
X34392Y73891D02*
X33613Y73891D01*
D482*
X34731Y73999D02*
X35366Y73364D01*
X36636Y73364D01*
X37271Y72729D01*
X37271Y71459D01*
X36636Y70824D01*
X37271Y70189D01*
X37271Y68919D01*
X36636Y68284D01*
X37271Y67649D01*
X37271Y66379D01*
X36636Y65744D01*
X37271Y65109D01*
X37271Y63839D01*
X36636Y63204D01*
X37271Y62569D01*
X37271Y61299D01*
X36636Y60664D01*
X37271Y60029D01*
X37271Y58759D01*
X36636Y58124D01*
X37271Y57489D01*
X37271Y56219D01*
X36636Y55584D01*
X37271Y54949D01*
X37271Y53679D01*
X36636Y53044D01*
X37271Y52409D01*
X37271Y51139D01*
X36636Y50504D01*
X37271Y49869D01*
X37271Y48599D01*
X36636Y47964D01*
X37271Y47329D01*
X37271Y46059D01*
X36636Y45424D01*
X35366Y45424D01*
X34731Y46059D01*
X34731Y47329D01*
X35366Y47964D01*
X34731Y48599D01*
X34731Y49869D01*
X35366Y50504D01*
X36636Y50504D01*
X35366Y50504D02*
X34731Y51139D01*
X34731Y52409D01*
X35366Y53044D01*
X34731Y53679D01*
X34731Y54949D01*
X35366Y55584D01*
X34731Y56219D01*
X34731Y57489D01*
X35366Y58124D01*
X36636Y58124D01*
X35366Y58124D02*
X34731Y58759D01*
X34731Y60029D01*
X35366Y60664D01*
X34731Y61299D01*
X34731Y62569D01*
X35366Y63204D01*
X34731Y63839D01*
X34731Y65109D01*
X35366Y65744D01*
X36636Y65744D01*
X35366Y65744D02*
X34731Y66379D01*
X34731Y67649D01*
X35366Y68284D01*
X34731Y68919D01*
X34731Y70189D01*
X35366Y70824D01*
X34731Y71459D01*
X34731Y72729D01*
X35366Y73364D01*
X34731Y73999D02*
X34731Y75269D01*
X35366Y75904D01*
X34731Y76539D01*
X34731Y77809D01*
X35366Y78444D01*
X34731Y79079D01*
X34731Y80349D01*
X35366Y80984D01*
X36636Y80984D01*
X37271Y80349D01*
X37271Y79079D01*
X36636Y78444D01*
X37271Y77809D01*
X37271Y76539D01*
X36636Y75904D01*
X37271Y75269D01*
X37271Y73999D01*
X36636Y73364D01*
X36636Y70824D02*
X35366Y70824D01*
X35366Y68284D02*
X36636Y68284D01*
X41081Y72729D02*
X41716Y72094D01*
X42986Y72094D01*
X43621Y72729D01*
X43621Y73999D01*
X42986Y74634D01*
X43621Y75269D01*
X43621Y76539D01*
X42986Y77174D01*
X41716Y77174D01*
X41081Y76539D01*
X41081Y75269D01*
X41716Y74634D01*
X42986Y74634D01*
X41716Y74634D01*
X41081Y73999D01*
X41081Y72729D01*
X43621Y72729D02*
X44256Y72094D01*
X45526Y72094D01*
X46161Y72729D01*
X46161Y73999D01*
X45526Y74634D01*
X46161Y75269D01*
X46161Y76539D01*
X45526Y77174D01*
X46161Y77809D01*
X46161Y79079D01*
X45526Y79714D01*
X44256Y79714D01*
X43621Y80349D01*
X42986Y79714D01*
X39176Y79714D01*
X38541Y80349D01*
X38541Y81619D01*
X39176Y82254D01*
X42986Y82254D01*
X43621Y81619D01*
X43621Y80349D01*
X43621Y81619D01*
X44256Y82254D01*
X45526Y82254D01*
X46161Y81619D01*
X46796Y82254D01*
X48066Y82254D01*
X48701Y81619D01*
X48701Y80349D01*
X48066Y79714D01*
X46796Y79714D01*
X46161Y80349D01*
X46161Y81619D01*
X46161Y80349D01*
X45526Y79714D01*
X44256Y79714D01*
X43621Y79079D01*
X43621Y77809D01*
X44256Y77174D01*
X45526Y77174D01*
X44256Y77174D01*
X43621Y76539D01*
X43621Y75269D01*
X44256Y74634D01*
X45526Y74634D01*
X44256Y74634D01*
X43621Y73999D01*
X46161Y73999D02*
X46796Y74634D01*
X46161Y75269D01*
X46161Y76539D01*
X46796Y77174D01*
X48066Y77174D01*
X48701Y76539D01*
X49336Y77174D01*
X50606Y77174D01*
X51241Y76539D01*
X51241Y75269D01*
X50606Y74634D01*
X49336Y74634D01*
X48701Y75269D01*
X48701Y76539D01*
X48701Y75269D01*
X48066Y74634D01*
X46796Y74634D01*
X48066Y74634D01*
X48701Y73999D01*
X49336Y74634D01*
X50606Y74634D01*
X51241Y73999D01*
X51876Y74634D01*
X51241Y75269D01*
X51241Y76539D01*
X51876Y77174D01*
X53146Y77174D01*
X53781Y76539D01*
X53781Y75269D01*
X53146Y74634D01*
X51876Y74634D01*
X53146Y74634D01*
X53781Y73999D01*
X53781Y72729D01*
X53146Y72094D01*
X51876Y72094D01*
X51241Y72729D01*
X50606Y72094D01*
X49336Y72094D01*
X48701Y72729D01*
X48701Y73999D01*
X48701Y72729D02*
X48066Y72094D01*
X46796Y72094D01*
X46161Y72729D01*
X46796Y77174D02*
X46161Y77809D01*
X46161Y79079D01*
X46796Y79714D01*
X48066Y79714D01*
X48701Y79079D01*
X48701Y77809D01*
X48066Y77174D01*
X46796Y77174D01*
X43621Y77809D02*
X43621Y79079D01*
X42986Y79714D01*
X41716Y79714D01*
X41081Y79079D01*
X41081Y77809D01*
X41716Y77174D01*
X42986Y77174D01*
X43621Y77809D01*
X42986Y82254D02*
X43621Y82889D01*
X43621Y84159D01*
X42986Y84794D01*
X39176Y84794D01*
X38541Y84159D01*
X38541Y82889D01*
X39176Y82254D01*
X38541Y82889D02*
X38541Y86699D01*
X38541Y85429D01*
X39176Y84794D01*
X38541Y86699D02*
X39176Y87334D01*
X42986Y87334D01*
X43621Y86699D01*
X43621Y85429D01*
X42986Y84794D01*
X43621Y85429D02*
X43621Y86699D01*
X44256Y87334D01*
X45526Y87334D01*
X46161Y86699D01*
X46796Y87334D01*
X46161Y87969D01*
X46161Y89239D01*
X46796Y89874D01*
X48066Y89874D01*
X48701Y89239D01*
X49336Y89874D01*
X50606Y89874D01*
X51241Y89239D01*
X51876Y89874D01*
X53146Y89874D01*
X53781Y89239D01*
X53781Y87969D01*
X53146Y87334D01*
X51876Y87334D01*
X51241Y87969D01*
X50606Y87334D01*
X49336Y87334D01*
X48701Y87969D01*
X48066Y87334D01*
X46796Y87334D01*
X48066Y87334D01*
X48701Y86699D01*
X48701Y85429D01*
X48066Y84794D01*
X46796Y84794D01*
X46161Y85429D01*
X46161Y86699D01*
X46161Y85429D01*
X45526Y84794D01*
X44256Y84794D01*
X43621Y85429D01*
X44256Y84794D02*
X43621Y84159D01*
X43621Y82889D01*
X44256Y82254D01*
X45526Y82254D01*
X46161Y82889D01*
X46161Y84159D01*
X45526Y84794D01*
X44256Y84794D01*
X46161Y84159D02*
X46796Y84794D01*
X48066Y84794D01*
X48701Y84159D01*
X48701Y82889D01*
X48066Y82254D01*
X46796Y82254D01*
X46161Y82889D01*
X46161Y84159D01*
X48701Y87969D02*
X48701Y89239D01*
X51241Y89239D02*
X51241Y87969D01*
X53781Y87969D02*
X54416Y87334D01*
X55686Y87334D01*
X56321Y87969D01*
X56321Y89239D01*
X55686Y89874D01*
X54416Y89874D01*
X53781Y89239D01*
X56321Y89239D02*
X56956Y89874D01*
X58226Y89874D01*
X58861Y89239D01*
X58861Y87969D01*
X58226Y87334D01*
X56956Y87334D01*
X56321Y87969D01*
X61401Y90509D02*
X62036Y89874D01*
X63306Y89874D01*
X63941Y90509D01*
X64576Y89874D01*
X65846Y89874D01*
X66481Y90509D01*
X66481Y91779D01*
X65846Y92414D01*
X64576Y92414D01*
X63941Y91779D01*
X63941Y90509D01*
X63941Y91779D02*
X63306Y92414D01*
X62036Y92414D01*
X61401Y91779D01*
X61401Y90509D01*
X66481Y85937D02*
X66481Y85683D01*
X67624Y85683D01*
X67624Y85048D01*
X65338Y85048D01*
X65338Y85683D01*
X66481Y85683D01*
X61401Y84794D02*
X61403Y84936D01*
X61409Y85079D01*
X61419Y85221D01*
X61433Y85363D01*
X61451Y85504D01*
X61473Y85645D01*
X61499Y85785D01*
X61528Y85924D01*
X61562Y86063D01*
X61600Y86200D01*
X61641Y86337D01*
X61686Y86472D01*
X61735Y86606D01*
X61788Y86738D01*
X61844Y86869D01*
X61904Y86998D01*
X61968Y87126D01*
X62035Y87251D01*
X62106Y87375D01*
X62180Y87497D01*
X62257Y87616D01*
X62338Y87734D01*
X62422Y87849D01*
X62509Y87961D01*
X62600Y88071D01*
X62693Y88179D01*
X62790Y88284D01*
X62889Y88386D01*
X62991Y88485D01*
X63096Y88582D01*
X63204Y88675D01*
X63314Y88766D01*
X63426Y88853D01*
X63541Y88937D01*
X63659Y89018D01*
X63778Y89095D01*
X63900Y89169D01*
X64024Y89240D01*
X64149Y89307D01*
X64277Y89371D01*
X64406Y89431D01*
X64537Y89487D01*
X64669Y89540D01*
X64803Y89589D01*
X64938Y89634D01*
X65075Y89675D01*
X65212Y89713D01*
X65351Y89747D01*
X65490Y89776D01*
X65630Y89802D01*
X65771Y89824D01*
X65912Y89842D01*
X66054Y89856D01*
X66196Y89866D01*
X66339Y89872D01*
X66481Y89874D01*
X66623Y89872D01*
X66766Y89866D01*
X66908Y89856D01*
X67050Y89842D01*
X67191Y89824D01*
X67332Y89802D01*
X67472Y89776D01*
X67611Y89747D01*
X67750Y89713D01*
X67887Y89675D01*
X68024Y89634D01*
X68159Y89589D01*
X68293Y89540D01*
X68425Y89487D01*
X68556Y89431D01*
X68685Y89371D01*
X68813Y89307D01*
X68938Y89240D01*
X69062Y89169D01*
X69184Y89095D01*
X69303Y89018D01*
X69421Y88937D01*
X69536Y88853D01*
X69648Y88766D01*
X69758Y88675D01*
X69866Y88582D01*
X69971Y88485D01*
X70073Y88386D01*
X70172Y88284D01*
X70269Y88179D01*
X70362Y88071D01*
X70453Y87961D01*
X70540Y87849D01*
X70624Y87734D01*
X70705Y87616D01*
X70782Y87497D01*
X70856Y87375D01*
X70927Y87251D01*
X70994Y87126D01*
X71058Y86998D01*
X71118Y86869D01*
X71174Y86738D01*
X71227Y86606D01*
X71276Y86472D01*
X71321Y86337D01*
X71362Y86200D01*
X71400Y86063D01*
X71434Y85924D01*
X71463Y85785D01*
X71489Y85645D01*
X71511Y85504D01*
X71529Y85363D01*
X71543Y85221D01*
X71553Y85079D01*
X71559Y84936D01*
X71561Y84794D01*
X71559Y84652D01*
X71553Y84509D01*
X71543Y84367D01*
X71529Y84225D01*
X71511Y84084D01*
X71489Y83943D01*
X71463Y83803D01*
X71434Y83664D01*
X71400Y83525D01*
X71362Y83388D01*
X71321Y83251D01*
X71276Y83116D01*
X71227Y82982D01*
X71174Y82850D01*
X71118Y82719D01*
X71058Y82590D01*
X70994Y82462D01*
X70927Y82337D01*
X70856Y82213D01*
X70782Y82091D01*
X70705Y81972D01*
X70624Y81854D01*
X70540Y81739D01*
X70453Y81627D01*
X70362Y81517D01*
X70269Y81409D01*
X70172Y81304D01*
X70073Y81202D01*
X69971Y81103D01*
X69866Y81006D01*
X69758Y80913D01*
X69648Y80822D01*
X69536Y80735D01*
X69421Y80651D01*
X69303Y80570D01*
X69184Y80493D01*
X69062Y80419D01*
X68938Y80348D01*
X68813Y80281D01*
X68685Y80217D01*
X68556Y80157D01*
X68425Y80101D01*
X68293Y80048D01*
X68159Y79999D01*
X68024Y79954D01*
X67887Y79913D01*
X67750Y79875D01*
X67611Y79841D01*
X67472Y79812D01*
X67332Y79786D01*
X67191Y79764D01*
X67050Y79746D01*
X66908Y79732D01*
X66766Y79722D01*
X66623Y79716D01*
X66481Y79714D01*
X66339Y79716D01*
X66196Y79722D01*
X66054Y79732D01*
X65912Y79746D01*
X65771Y79764D01*
X65630Y79786D01*
X65490Y79812D01*
X65351Y79841D01*
X65212Y79875D01*
X65075Y79913D01*
X64938Y79954D01*
X64803Y79999D01*
X64669Y80048D01*
X64537Y80101D01*
X64406Y80157D01*
X64277Y80217D01*
X64149Y80281D01*
X64024Y80348D01*
X63900Y80419D01*
X63778Y80493D01*
X63659Y80570D01*
X63541Y80651D01*
X63426Y80735D01*
X63314Y80822D01*
X63204Y80913D01*
X63096Y81006D01*
X62991Y81103D01*
X62889Y81202D01*
X62790Y81304D01*
X62693Y81409D01*
X62600Y81517D01*
X62509Y81627D01*
X62422Y81739D01*
X62338Y81854D01*
X62257Y81972D01*
X62180Y82091D01*
X62106Y82213D01*
X62035Y82337D01*
X61968Y82462D01*
X61904Y82590D01*
X61844Y82719D01*
X61788Y82850D01*
X61735Y82982D01*
X61686Y83116D01*
X61641Y83251D01*
X61600Y83388D01*
X61562Y83525D01*
X61528Y83664D01*
X61499Y83803D01*
X61473Y83943D01*
X61451Y84084D01*
X61433Y84225D01*
X61419Y84367D01*
X61409Y84509D01*
X61403Y84652D01*
X61401Y84794D01*
X60766Y82254D02*
X59496Y82254D01*
X58861Y81619D01*
X58861Y80349D01*
X58226Y79714D01*
X58861Y79079D01*
X59496Y79714D01*
X60766Y79714D01*
X61401Y79079D01*
X61401Y77809D01*
X60766Y77174D01*
X59496Y77174D01*
X58861Y77809D01*
X58861Y79079D01*
X58861Y77809D01*
X58226Y77174D01*
X58861Y76539D01*
X59496Y77174D01*
X60766Y77174D01*
X61401Y76539D01*
X61401Y75269D01*
X60766Y74634D01*
X59496Y74634D01*
X58861Y75269D01*
X58861Y76539D01*
X58861Y75269D01*
X58226Y74634D01*
X56956Y74634D01*
X56321Y75269D01*
X56321Y76539D01*
X56956Y77174D01*
X58226Y77174D01*
X56956Y77174D01*
X56321Y77809D01*
X56321Y79079D01*
X56956Y79714D01*
X58226Y79714D01*
X56956Y79714D01*
X56321Y80349D01*
X56321Y81619D01*
X56956Y82254D01*
X58226Y82254D01*
X58861Y81619D01*
X58861Y80349D01*
X59496Y79714D01*
X60766Y79714D01*
X61401Y80349D01*
X61401Y81619D01*
X60766Y82254D01*
X62036Y79714D02*
X63306Y79714D01*
X63941Y79079D01*
X63941Y77809D01*
X63306Y77174D01*
X63941Y76539D01*
X63941Y75269D01*
X63306Y74634D01*
X62036Y74634D01*
X61401Y75269D01*
X61401Y76539D01*
X62036Y77174D01*
X61401Y77809D01*
X61401Y79079D01*
X62036Y79714D01*
X62036Y77174D02*
X63306Y77174D01*
X60766Y74634D02*
X59496Y74634D01*
X58861Y73999D01*
X58226Y74634D01*
X56956Y74634D01*
X56321Y73999D01*
X56321Y72729D01*
X56956Y72094D01*
X58226Y72094D01*
X58861Y72729D01*
X58861Y73999D01*
X58861Y72729D02*
X59496Y72094D01*
X60766Y72094D01*
X61401Y72729D01*
X61401Y73999D01*
X60766Y74634D01*
X56321Y75269D02*
X56321Y76539D01*
X55686Y77174D01*
X54416Y77174D01*
X53781Y76539D01*
X53781Y75269D01*
X54416Y74634D01*
X55686Y74634D01*
X56321Y75269D01*
X55686Y74634D02*
X56321Y73999D01*
X55686Y74634D02*
X54416Y74634D01*
X53781Y73999D01*
X53781Y72729D02*
X54416Y72094D01*
X55686Y72094D01*
X56321Y72729D01*
X51241Y72729D02*
X51241Y73999D01*
X38541Y82889D02*
X37906Y82254D01*
X36636Y82254D01*
X36001Y82889D01*
X36001Y86699D01*
X36636Y87334D01*
X37906Y87334D01*
X38541Y86699D01*
X36001Y86699D02*
X35366Y87334D01*
X34096Y87334D01*
X33461Y86699D01*
X33461Y82889D01*
X34096Y82254D01*
X35366Y82254D01*
X36001Y82889D01*
X33461Y82889D02*
X32826Y82254D01*
X31556Y82254D01*
X30921Y82889D01*
X30921Y86699D01*
X31556Y87334D01*
X32826Y87334D01*
X33461Y86699D01*
X25841Y86699D02*
X25841Y90509D01*
X25206Y91144D01*
X23936Y91144D01*
X23301Y90509D01*
X23301Y86699D01*
X23936Y86064D01*
X25206Y86064D01*
X25841Y86699D01*
X25206Y86064D02*
X25841Y85429D01*
X25841Y81619D01*
X25206Y80984D01*
X23936Y80984D01*
X23301Y81619D01*
X23301Y85429D01*
X23936Y86064D01*
X25206Y86064D01*
X23301Y86699D02*
X22666Y86064D01*
X21396Y86064D01*
X20761Y86699D01*
X20761Y90509D01*
X21396Y91144D01*
X22666Y91144D01*
X23301Y90509D01*
X20761Y90509D02*
X20126Y91144D01*
X18856Y91144D01*
X18221Y90509D01*
X18221Y86699D01*
X18856Y86064D01*
X20126Y86064D01*
X20761Y86699D01*
X20126Y86064D02*
X20761Y85429D01*
X20761Y81619D01*
X21396Y80984D01*
X22666Y80984D01*
X23301Y81619D01*
X21396Y80984D02*
X20761Y80349D01*
X20761Y79079D01*
X20126Y78444D01*
X16316Y78444D01*
X15681Y79079D01*
X15046Y78444D01*
X11236Y78444D01*
X10601Y77809D01*
X10601Y76539D01*
X11236Y75904D01*
X15046Y75904D01*
X15681Y75269D01*
X15681Y73999D01*
X15046Y73364D01*
X11236Y73364D01*
X10601Y72729D01*
X10601Y71459D01*
X11236Y70824D01*
X15046Y70824D01*
X15681Y70189D01*
X15681Y68919D01*
X15046Y68284D01*
X11236Y68284D01*
X10601Y67649D01*
X10601Y66379D01*
X11236Y65744D01*
X15046Y65744D01*
X15681Y65109D01*
X15681Y63839D01*
X15046Y63204D01*
X11236Y63204D01*
X10601Y63839D01*
X10601Y65109D01*
X11236Y65744D01*
X11236Y68284D02*
X10601Y68919D01*
X10601Y70189D01*
X11236Y70824D01*
X11236Y73364D02*
X10601Y73999D01*
X10601Y75269D01*
X11236Y75904D01*
X11236Y78444D02*
X10601Y79079D01*
X10601Y80349D01*
X11236Y80984D01*
X12506Y80984D01*
X13141Y81619D01*
X13141Y85429D01*
X13776Y86064D01*
X15046Y86064D01*
X15681Y86699D01*
X15681Y90509D01*
X16316Y91144D01*
X17586Y91144D01*
X18221Y90509D01*
X15681Y90509D02*
X15046Y91144D01*
X13776Y91144D01*
X13141Y90509D01*
X13141Y86699D01*
X13776Y86064D01*
X15046Y86064D01*
X15681Y85429D01*
X15681Y81619D01*
X16316Y80984D01*
X17586Y80984D01*
X18221Y81619D01*
X18221Y85429D01*
X18856Y86064D01*
X20126Y86064D01*
X20761Y85429D02*
X21396Y86064D01*
X22666Y86064D01*
X23301Y85429D01*
X20761Y81619D02*
X20126Y80984D01*
X18856Y80984D01*
X18221Y81619D01*
X16316Y80984D02*
X20126Y80984D01*
X20761Y80349D01*
X20761Y79079D01*
X21396Y78444D01*
X25206Y78444D01*
X25841Y79079D01*
X25841Y80349D01*
X25206Y80984D01*
X21396Y80984D01*
X21396Y78444D02*
X20761Y77809D01*
X20761Y76539D01*
X20126Y75904D01*
X16316Y75904D01*
X15681Y76539D01*
X15046Y75904D01*
X15681Y76539D02*
X15681Y77809D01*
X15046Y78444D01*
X15681Y79079D02*
X15681Y80349D01*
X15046Y80984D01*
X13776Y80984D01*
X13141Y81619D01*
X11236Y80984D02*
X15046Y80984D01*
X15681Y81619D01*
X16316Y80984D02*
X15681Y80349D01*
X15681Y79079D01*
X16316Y78444D02*
X15681Y77809D01*
X15681Y76539D01*
X16316Y75904D02*
X15681Y75269D01*
X15681Y73999D01*
X16316Y73364D01*
X20126Y73364D01*
X20761Y72729D01*
X20761Y71459D01*
X20126Y70824D01*
X16316Y70824D01*
X15681Y71459D01*
X15046Y70824D01*
X15681Y71459D02*
X15681Y72729D01*
X15046Y73364D01*
X15681Y72729D02*
X15681Y71459D01*
X16316Y70824D02*
X15681Y70189D01*
X15681Y68919D01*
X16316Y68284D01*
X20126Y68284D01*
X20761Y67649D01*
X20761Y66379D01*
X20126Y65744D01*
X16316Y65744D01*
X15681Y66379D01*
X15046Y65744D01*
X15681Y66379D02*
X15681Y67649D01*
X15046Y68284D01*
X15681Y67649D02*
X15681Y66379D01*
X16316Y65744D02*
X15681Y65109D01*
X15681Y63839D01*
X16316Y63204D01*
X20126Y63204D01*
X20761Y62569D01*
X20761Y61299D01*
X20126Y60664D01*
X16316Y60664D01*
X15681Y61299D01*
X15046Y60664D01*
X11236Y60664D01*
X10601Y61299D01*
X10601Y62569D01*
X11236Y63204D01*
X11236Y60664D02*
X10601Y60029D01*
X10601Y58759D01*
X11236Y58124D01*
X15046Y58124D01*
X15681Y57489D01*
X15681Y56219D01*
X15046Y55584D01*
X11236Y55584D01*
X10601Y56219D01*
X10601Y57489D01*
X11236Y58124D01*
X11236Y55584D02*
X10601Y54949D01*
X10601Y53679D01*
X11236Y53044D01*
X15046Y53044D01*
X15681Y52409D01*
X15681Y51139D01*
X15046Y50504D01*
X11236Y50504D01*
X10601Y51139D01*
X10601Y52409D01*
X11236Y53044D01*
X11236Y50504D02*
X10601Y49869D01*
X10601Y48599D01*
X11236Y47964D01*
X10601Y47329D01*
X10601Y46059D01*
X11236Y45424D01*
X15046Y45424D01*
X15681Y46059D01*
X15681Y47329D01*
X15046Y47964D01*
X11236Y47964D01*
X15046Y47964D02*
X15681Y48599D01*
X15681Y49869D01*
X15046Y50504D01*
X15681Y51139D02*
X15681Y52409D01*
X16316Y53044D01*
X20126Y53044D01*
X20761Y53679D01*
X20761Y54949D01*
X20126Y55584D01*
X16316Y55584D01*
X15681Y56219D01*
X15681Y57489D01*
X16316Y58124D01*
X20126Y58124D01*
X20761Y58759D01*
X20761Y60029D01*
X20126Y60664D01*
X20761Y61299D02*
X20761Y62569D01*
X21396Y63204D01*
X25206Y63204D01*
X25841Y62569D01*
X25841Y61299D01*
X25206Y60664D01*
X21396Y60664D01*
X20761Y61299D01*
X21396Y60664D02*
X20761Y60029D01*
X20761Y58759D01*
X21396Y58124D01*
X25206Y58124D01*
X25841Y58759D01*
X25841Y60029D01*
X25206Y60664D01*
X25206Y63204D02*
X25841Y63839D01*
X25841Y65109D01*
X25206Y65744D01*
X21396Y65744D01*
X20761Y66379D01*
X20761Y67649D01*
X21396Y68284D01*
X25206Y68284D01*
X25841Y67649D01*
X25841Y66379D01*
X25206Y65744D01*
X25206Y68284D02*
X25841Y68919D01*
X25841Y70189D01*
X25206Y70824D01*
X21396Y70824D01*
X20761Y71459D01*
X20761Y72729D01*
X21396Y73364D01*
X25206Y73364D01*
X25841Y72729D01*
X25841Y71459D01*
X25206Y70824D01*
X25206Y73364D02*
X25841Y73999D01*
X25841Y75269D01*
X25206Y75904D01*
X21396Y75904D01*
X20761Y76539D01*
X20761Y77809D01*
X20126Y78444D01*
X20126Y75904D02*
X20761Y75269D01*
X20761Y73999D01*
X20126Y73364D01*
X20761Y73999D02*
X20761Y75269D01*
X21396Y75904D01*
X20761Y73999D02*
X21396Y73364D01*
X21396Y70824D02*
X20761Y70189D01*
X20761Y68919D01*
X20126Y68284D01*
X20761Y68919D02*
X20761Y70189D01*
X20126Y70824D01*
X20761Y68919D02*
X21396Y68284D01*
X21396Y65744D02*
X20761Y65109D01*
X20761Y63839D01*
X20126Y63204D01*
X20761Y63839D02*
X20761Y65109D01*
X20126Y65744D01*
X20761Y63839D02*
X21396Y63204D01*
X16316Y63204D02*
X15681Y62569D01*
X15681Y61299D01*
X15681Y62569D01*
X15046Y63204D01*
X15046Y60664D02*
X15681Y60029D01*
X15681Y58759D01*
X15046Y58124D01*
X15681Y58759D02*
X15681Y60029D01*
X16316Y60664D01*
X15681Y58759D02*
X16316Y58124D01*
X16316Y55584D02*
X15681Y54949D01*
X15681Y53679D01*
X15046Y53044D01*
X15681Y53679D02*
X15681Y54949D01*
X15046Y55584D01*
X15681Y53679D02*
X16316Y53044D01*
X15681Y51139D02*
X16316Y50504D01*
X20126Y50504D01*
X20761Y51139D01*
X20761Y52409D01*
X20126Y53044D01*
X20761Y53679D02*
X20761Y54949D01*
X21396Y55584D01*
X25206Y55584D01*
X25841Y56219D01*
X25841Y57489D01*
X25206Y58124D01*
X25206Y55584D02*
X25841Y54949D01*
X25841Y53679D01*
X25206Y53044D01*
X21396Y53044D01*
X20761Y53679D01*
X21396Y53044D02*
X20761Y52409D01*
X20761Y51139D01*
X21396Y50504D01*
X25206Y50504D01*
X25841Y51139D01*
X25841Y52409D01*
X25206Y53044D01*
X25206Y50504D02*
X25841Y49869D01*
X25841Y48599D01*
X25206Y47964D01*
X21396Y47964D01*
X20761Y48599D01*
X20761Y49869D01*
X20126Y50504D01*
X20761Y49869D02*
X21396Y50504D01*
X20761Y49869D02*
X20761Y48599D01*
X20126Y47964D01*
X16316Y47964D01*
X15681Y48599D01*
X15681Y49869D01*
X16316Y50504D01*
X16316Y47964D02*
X15681Y47329D01*
X15681Y46059D01*
X16316Y45424D01*
X20126Y45424D01*
X20761Y46059D01*
X20761Y47329D01*
X20126Y47964D01*
X20761Y47329D02*
X20761Y46059D01*
X21396Y45424D01*
X25206Y45424D01*
X25841Y46059D01*
X25841Y47329D01*
X25206Y47964D01*
X21396Y47964D02*
X20761Y47329D01*
X20126Y55584D02*
X20761Y56219D01*
X20761Y57489D01*
X20126Y58124D01*
X20761Y57489D02*
X20761Y56219D01*
X21396Y55584D01*
X20761Y57489D02*
X21396Y58124D01*
X15681Y67649D02*
X16316Y68284D01*
X15681Y72729D02*
X16316Y73364D01*
X11236Y80984D02*
X10601Y81619D01*
X10601Y85429D01*
X11236Y86064D01*
X12506Y86064D01*
X13141Y86699D01*
X12506Y86064D02*
X13141Y85429D01*
X12506Y86064D02*
X11236Y86064D01*
X10601Y86699D01*
X10601Y90509D01*
X11236Y91144D01*
X12506Y91144D01*
X13141Y90509D01*
X15681Y86699D02*
X16316Y86064D01*
X17586Y86064D01*
X18221Y86699D01*
X17586Y86064D02*
X18221Y85429D01*
X17586Y86064D02*
X16316Y86064D01*
X15681Y85429D01*
X25206Y78444D02*
X25841Y77809D01*
X25841Y76539D01*
X25206Y75904D01*
X31404Y76355D02*
X32194Y76355D01*
X31404Y76355D02*
X31404Y77200D01*
X33484Y76355D02*
X34249Y76355D01*
X34249Y77200D01*
X35366Y78444D02*
X36636Y78444D01*
X36636Y75904D02*
X35366Y75904D01*
X35366Y63204D02*
X36636Y63204D01*
X36636Y60664D02*
X35366Y60664D01*
X35366Y55584D02*
X36636Y55584D01*
X36636Y53044D02*
X35366Y53044D01*
X35366Y47964D02*
X36636Y47964D01*
X67751Y48599D02*
X68386Y47964D01*
X69656Y47964D01*
X70291Y48599D01*
X70291Y49869D01*
X69656Y50504D01*
X70291Y51139D01*
X70291Y52409D01*
X69656Y53044D01*
X68386Y53044D01*
X67751Y52409D01*
X67751Y51139D01*
X68386Y50504D01*
X69656Y50504D01*
X68386Y50504D02*
X67751Y49869D01*
X67751Y48599D01*
X68386Y53044D02*
X67751Y53679D01*
X67751Y54949D01*
X68386Y55584D01*
X67751Y56219D01*
X67751Y57489D01*
X68386Y58124D01*
X67751Y58759D01*
X67751Y60029D01*
X68386Y60664D01*
X69656Y60664D01*
X70291Y60029D01*
X70291Y58759D01*
X69656Y58124D01*
X70291Y57489D01*
X70291Y56219D01*
X69656Y55584D01*
X70291Y54949D01*
X70291Y53679D01*
X69656Y53044D01*
X69656Y55584D02*
X68386Y55584D01*
X68386Y58124D02*
X69656Y58124D01*
X69656Y60664D02*
X70291Y61299D01*
X70291Y62569D01*
X69656Y63204D01*
X70291Y63839D01*
X70291Y65109D01*
X69656Y65744D01*
X70291Y66379D01*
X70291Y67649D01*
X69656Y68284D01*
X68386Y68284D01*
X67751Y67649D01*
X67751Y66379D01*
X68386Y65744D01*
X69656Y65744D01*
X68386Y65744D02*
X67751Y65109D01*
X67751Y63839D01*
X68386Y63204D01*
X69656Y63204D01*
X68386Y63204D02*
X67751Y62569D01*
X67751Y61299D01*
X68386Y60664D01*
X68386Y68284D02*
X67751Y68919D01*
X67751Y70189D01*
X68386Y70824D01*
X67751Y71459D01*
X67751Y72729D01*
X68386Y73364D01*
X67751Y73999D01*
X67751Y75269D01*
X68386Y75904D01*
X67751Y76539D01*
X67751Y77809D01*
X68386Y78444D01*
X69656Y78444D01*
X70291Y77809D01*
X70291Y76539D01*
X69656Y75904D01*
X70291Y75269D01*
X70291Y73999D01*
X69656Y73364D01*
X70291Y72729D01*
X70291Y71459D01*
X69656Y70824D01*
X70291Y70189D01*
X70291Y68919D01*
X69656Y68284D01*
X69656Y70824D02*
X68386Y70824D01*
X68386Y73364D02*
X69656Y73364D01*
X69656Y75904D02*
X68386Y75904D01*
X72196Y80984D02*
X71561Y81619D01*
X71561Y82889D01*
X72196Y83524D01*
X71561Y84159D01*
X71561Y85429D01*
X72196Y86064D01*
X73466Y86064D01*
X74101Y85429D01*
X74101Y84159D01*
X73466Y83524D01*
X74101Y82889D01*
X74101Y81619D01*
X73466Y80984D01*
X72196Y80984D01*
X72196Y83524D02*
X73466Y83524D01*
X68132Y88604D02*
X67370Y88604D01*
X67751Y88223D02*
X67751Y88985D01*
X66481Y84159D02*
X66481Y83651D01*
X79181Y77809D02*
X79181Y76539D01*
X79816Y75904D01*
X83626Y75904D01*
X84261Y76539D01*
X84261Y77809D01*
X84896Y78444D01*
X88706Y78444D01*
X89341Y77809D01*
X89976Y78444D01*
X93786Y78444D01*
X94421Y77809D01*
X94421Y76539D01*
X93786Y75904D01*
X89976Y75904D01*
X89341Y76539D01*
X89341Y77809D01*
X89341Y76539D01*
X88706Y75904D01*
X84896Y75904D01*
X84261Y76539D01*
X84261Y77809D01*
X83626Y78444D01*
X79816Y78444D01*
X79181Y77809D01*
X79816Y75904D02*
X79181Y75269D01*
X79181Y73999D01*
X79816Y73364D01*
X83626Y73364D01*
X84261Y72729D01*
X84896Y73364D01*
X88706Y73364D01*
X89341Y72729D01*
X89976Y73364D01*
X93786Y73364D01*
X94421Y72729D01*
X94421Y71459D01*
X93786Y70824D01*
X89976Y70824D01*
X89341Y71459D01*
X89341Y72729D01*
X89341Y71459D01*
X88706Y70824D01*
X84896Y70824D01*
X84261Y71459D01*
X84261Y72729D01*
X84261Y71459D01*
X83626Y70824D01*
X79816Y70824D01*
X79181Y71459D01*
X79181Y72729D01*
X79816Y73364D01*
X79816Y70824D02*
X79181Y70189D01*
X79181Y68919D01*
X79816Y68284D01*
X83626Y68284D01*
X84261Y67649D01*
X84896Y68284D01*
X88706Y68284D01*
X89341Y67649D01*
X89976Y68284D01*
X93786Y68284D01*
X94421Y67649D01*
X94421Y66379D01*
X93786Y65744D01*
X89976Y65744D01*
X89341Y66379D01*
X89341Y67649D01*
X89341Y66379D01*
X88706Y65744D01*
X84896Y65744D01*
X84261Y66379D01*
X84261Y67649D01*
X84261Y66379D01*
X83626Y65744D01*
X79816Y65744D01*
X79181Y66379D01*
X79181Y67649D01*
X79816Y68284D01*
X79816Y65744D02*
X79181Y65109D01*
X79181Y63839D01*
X79816Y63204D01*
X83626Y63204D01*
X84261Y63839D01*
X84261Y65109D01*
X84896Y65744D01*
X84261Y65109D02*
X84261Y63839D01*
X84896Y63204D01*
X88706Y63204D01*
X89341Y63839D01*
X89341Y65109D01*
X89976Y65744D01*
X89341Y65109D02*
X89341Y63839D01*
X89976Y63204D01*
X93786Y63204D01*
X94421Y63839D01*
X94421Y65109D01*
X93786Y65744D01*
X93786Y68284D02*
X94421Y68919D01*
X94421Y70189D01*
X93786Y70824D01*
X93786Y73364D02*
X94421Y73999D01*
X94421Y75269D01*
X93786Y75904D01*
X89976Y75904D02*
X89341Y75269D01*
X89341Y73999D01*
X89976Y73364D01*
X89341Y73999D02*
X88706Y73364D01*
X89341Y73999D02*
X89341Y75269D01*
X88706Y75904D01*
X84896Y75904D02*
X84261Y75269D01*
X84261Y73999D01*
X84896Y73364D01*
X84261Y73999D02*
X83626Y73364D01*
X84261Y73999D02*
X84261Y75269D01*
X83626Y75904D01*
X84515Y79714D02*
X81594Y79714D01*
X84515Y79714D02*
X84769Y79968D01*
X84769Y89620D01*
X84515Y89874D01*
X81594Y89874D01*
X82039Y90667D02*
X80769Y90667D01*
X80134Y91302D01*
X80134Y95112D01*
X80769Y95747D01*
X82039Y95747D01*
X82674Y95112D01*
X82674Y91302D01*
X82039Y90667D01*
X82674Y91302D02*
X83309Y90667D01*
X84579Y90667D01*
X85214Y91302D01*
X85214Y95112D01*
X84579Y95747D01*
X83309Y95747D01*
X82674Y95112D01*
X85214Y95112D02*
X85849Y95747D01*
X87119Y95747D01*
X87754Y95112D01*
X87754Y91302D01*
X87119Y90667D01*
X85849Y90667D01*
X85214Y91302D01*
X84896Y70824D02*
X84261Y70189D01*
X84261Y68919D01*
X84896Y68284D01*
X84261Y68919D02*
X83626Y68284D01*
X84261Y68919D02*
X84261Y70189D01*
X83626Y70824D01*
X83626Y65744D02*
X84261Y65109D01*
X83626Y63204D02*
X84261Y62569D01*
X84896Y63204D01*
X84261Y62569D02*
X84261Y61299D01*
X84896Y60664D01*
X88706Y60664D01*
X89341Y61299D01*
X89341Y62569D01*
X89976Y63204D01*
X89341Y62569D02*
X88706Y63204D01*
X89341Y62569D02*
X89341Y61299D01*
X89976Y60664D01*
X93786Y60664D01*
X94421Y61299D01*
X94421Y62569D01*
X93786Y63204D01*
X93786Y60664D02*
X94421Y60029D01*
X94421Y58759D01*
X93786Y58124D01*
X89976Y58124D01*
X89341Y58759D01*
X89341Y60029D01*
X89976Y60664D01*
X89341Y60029D02*
X88706Y60664D01*
X89341Y60029D02*
X89341Y58759D01*
X88706Y58124D01*
X84896Y58124D01*
X84261Y58759D01*
X84261Y60029D01*
X84896Y60664D01*
X84261Y61299D02*
X84261Y62569D01*
X84261Y61299D02*
X83626Y60664D01*
X79816Y60664D01*
X79181Y61299D01*
X79181Y62569D01*
X79816Y63204D01*
X79816Y60664D02*
X79181Y60029D01*
X79181Y58759D01*
X79816Y58124D01*
X83626Y58124D01*
X84261Y58759D01*
X84261Y60029D01*
X83626Y60664D01*
X83626Y58124D02*
X84261Y57489D01*
X84896Y58124D01*
X84261Y57489D02*
X84261Y56219D01*
X84896Y55584D01*
X88706Y55584D01*
X89341Y56219D01*
X89341Y57489D01*
X89976Y58124D01*
X89341Y57489D02*
X88706Y58124D01*
X89341Y57489D02*
X89341Y56219D01*
X89976Y55584D01*
X93786Y55584D01*
X94421Y56219D01*
X94421Y57489D01*
X93786Y58124D01*
X93786Y55584D02*
X94421Y54949D01*
X94421Y53679D01*
X93786Y53044D01*
X89976Y53044D01*
X89341Y53679D01*
X89341Y54949D01*
X89976Y55584D01*
X89341Y54949D02*
X88706Y55584D01*
X89341Y54949D02*
X89341Y53679D01*
X88706Y53044D01*
X84896Y53044D01*
X84261Y53679D01*
X84261Y54949D01*
X84896Y55584D01*
X84261Y56219D02*
X84261Y57489D01*
X84261Y56219D02*
X83626Y55584D01*
X79816Y55584D01*
X79181Y56219D01*
X79181Y57489D01*
X79816Y58124D01*
X79816Y55584D02*
X79181Y54949D01*
X79181Y53679D01*
X79816Y53044D01*
X83626Y53044D01*
X84261Y53679D01*
X84261Y54949D01*
X83626Y55584D01*
X83626Y53044D02*
X84261Y52409D01*
X84896Y53044D01*
X84261Y52409D02*
X84261Y51139D01*
X84896Y50504D01*
X88706Y50504D01*
X89341Y51139D01*
X89341Y52409D01*
X89976Y53044D01*
X89341Y52409D02*
X88706Y53044D01*
X89341Y52409D02*
X89341Y51139D01*
X89976Y50504D01*
X93786Y50504D01*
X94421Y51139D01*
X94421Y52409D01*
X93786Y53044D01*
X93786Y50504D02*
X94421Y49869D01*
X94421Y48599D01*
X93786Y47964D01*
X89976Y47964D01*
X89341Y48599D01*
X89341Y49869D01*
X89976Y50504D01*
X89341Y49869D02*
X88706Y50504D01*
X89341Y49869D02*
X89341Y48599D01*
X88706Y47964D01*
X84896Y47964D01*
X84261Y48599D01*
X84261Y49869D01*
X84896Y50504D01*
X84261Y51139D02*
X84261Y52409D01*
X84261Y51139D02*
X83626Y50504D01*
X79816Y50504D01*
X79181Y51139D01*
X79181Y52409D01*
X79816Y53044D01*
X79816Y50504D02*
X79181Y49869D01*
X79181Y48599D01*
X79816Y47964D01*
X81086Y47964D01*
X81721Y47329D01*
X82356Y47964D01*
X83626Y47964D01*
X84261Y47329D01*
X84261Y46059D01*
X83626Y45424D01*
X82356Y45424D01*
X81721Y46059D01*
X81086Y45424D01*
X79816Y45424D01*
X79181Y46059D01*
X79181Y47329D01*
X79816Y47964D01*
X83626Y47964D01*
X84261Y48599D01*
X84261Y49869D01*
X83626Y50504D01*
X81721Y47329D02*
X81721Y46059D01*
X89341Y65109D02*
X88706Y65744D01*
X88706Y68284D02*
X89341Y68919D01*
X89341Y70189D01*
X89976Y70824D01*
X89341Y70189D02*
X89341Y68919D01*
X89976Y68284D01*
X89341Y70189D02*
X88706Y70824D01*
D483*
X86433Y79777D02*
X86433Y80158D01*
X86433Y79968D02*
X85289Y79968D01*
X85289Y80158D02*
X85289Y79777D01*
X85480Y80557D02*
X86243Y80557D01*
X86433Y80747D01*
X86433Y81129D01*
X86243Y81319D01*
X86433Y81726D02*
X85671Y82489D01*
X85480Y82489D01*
X85289Y82298D01*
X85289Y81917D01*
X85480Y81726D01*
X85480Y81319D02*
X85289Y81129D01*
X85289Y80747D01*
X85480Y80557D01*
X86433Y81726D02*
X86433Y82489D01*
X86051Y88826D02*
X85669Y88826D01*
X85479Y89017D01*
X85479Y89779D01*
X85669Y89970D01*
X86051Y89970D01*
X86241Y89779D01*
X86648Y89779D02*
X86648Y89017D01*
X86839Y88826D01*
X87220Y88826D01*
X87411Y89017D01*
X87411Y89779D02*
X87220Y89970D01*
X86839Y89970D01*
X86648Y89779D01*
X86241Y89017D02*
X86051Y88826D01*
X85072Y89207D02*
X85072Y89970D01*
X84309Y89970D02*
X84309Y89207D01*
X84691Y88826D01*
X85072Y89207D01*
X70939Y85051D02*
X70939Y84670D01*
X70749Y84479D01*
X70367Y84479D01*
X70367Y85051D01*
X70558Y85242D01*
X70749Y85242D01*
X70939Y85051D01*
X70367Y84479D02*
X69986Y84860D01*
X69795Y85242D01*
X69986Y84072D02*
X69795Y83882D01*
X69795Y83500D01*
X69986Y83310D01*
X69986Y82903D02*
X70367Y82903D01*
X70558Y82712D01*
X70558Y82140D01*
X70939Y82140D02*
X69795Y82140D01*
X69795Y82712D01*
X69986Y82903D01*
X70749Y83310D02*
X70939Y83500D01*
X70939Y83882D01*
X70749Y84072D01*
X70558Y84072D01*
X70367Y83882D01*
X70367Y83691D01*
X70367Y83882D02*
X70177Y84072D01*
X69986Y84072D01*
X69795Y81734D02*
X69795Y81352D01*
X69795Y81543D02*
X70749Y81543D01*
X70939Y81352D01*
X70939Y81162D01*
X70749Y80971D01*
X69478Y79751D02*
X70241Y78989D01*
X70431Y78989D01*
X70241Y78582D02*
X70431Y78391D01*
X70431Y78010D01*
X70241Y77819D01*
X70241Y77413D02*
X70431Y77222D01*
X70431Y76841D01*
X70241Y76650D01*
X69478Y76650D01*
X69287Y76841D01*
X69287Y77222D01*
X69478Y77413D01*
X69478Y77819D02*
X69287Y78010D01*
X69287Y78391D01*
X69478Y78582D01*
X69669Y78582D01*
X69859Y78391D01*
X70050Y78582D01*
X70241Y78582D01*
X69859Y78391D02*
X69859Y78201D01*
X69287Y78989D02*
X69287Y79751D01*
X69478Y79751D01*
X60779Y76553D02*
X59635Y76553D01*
X59635Y75790D02*
X60779Y76553D01*
X60779Y75790D02*
X59635Y75790D01*
X59635Y75384D02*
X59635Y74621D01*
X60779Y74621D01*
X60779Y75384D01*
X60207Y75002D02*
X60207Y74621D01*
X58239Y74812D02*
X58239Y75193D01*
X58049Y75384D01*
X58239Y75790D02*
X57095Y75790D01*
X57286Y75384D02*
X57095Y75193D01*
X57095Y74812D01*
X57286Y74621D01*
X58049Y74621D01*
X58239Y74812D01*
X57667Y75790D02*
X57667Y76553D01*
X57858Y76960D02*
X57858Y77532D01*
X57667Y77722D01*
X57286Y77722D01*
X57095Y77532D01*
X57095Y76960D01*
X58239Y76960D01*
X58049Y77161D02*
X58239Y77352D01*
X58239Y77733D01*
X58049Y77924D01*
X57858Y77924D01*
X57667Y77733D01*
X57667Y77352D01*
X57477Y77161D01*
X57286Y77161D01*
X57095Y77352D01*
X57095Y77733D01*
X57286Y77924D01*
X57477Y78129D02*
X57095Y78510D01*
X58239Y78510D01*
X58239Y78521D02*
X58239Y78902D01*
X58049Y79093D01*
X57095Y79093D01*
X57286Y79500D02*
X57477Y79500D01*
X57667Y79690D01*
X57667Y80072D01*
X57858Y80262D01*
X58049Y80262D01*
X58239Y80072D01*
X58239Y79690D01*
X58049Y79500D01*
X58239Y79701D02*
X57095Y79701D01*
X57095Y80273D01*
X57286Y80464D01*
X57667Y80464D01*
X57858Y80273D01*
X57858Y79701D01*
X57858Y80082D02*
X58239Y80464D01*
X58239Y80669D02*
X57095Y80669D01*
X57095Y81241D01*
X57286Y81432D01*
X57667Y81432D01*
X57858Y81241D01*
X57858Y80669D01*
X57667Y80870D02*
X57667Y81252D01*
X57667Y81839D02*
X57667Y82220D01*
X57667Y82230D02*
X57667Y82612D01*
X57858Y82802D01*
X58049Y82802D01*
X58239Y82612D01*
X58239Y82230D01*
X58049Y82040D01*
X58239Y81839D02*
X57095Y81839D01*
X57095Y82601D01*
X57095Y82612D02*
X57095Y82230D01*
X57286Y82040D01*
X57477Y82040D01*
X57667Y82230D01*
X58239Y82601D02*
X58239Y81839D01*
X58239Y81633D02*
X58239Y80870D01*
X57095Y80870D01*
X57095Y81633D01*
X57095Y82612D02*
X57286Y82802D01*
X57095Y83008D02*
X58239Y83771D01*
X57095Y83771D01*
X57095Y83972D02*
X57095Y83209D01*
X58239Y83209D01*
X58239Y83972D01*
X58239Y84177D02*
X58239Y84749D01*
X58049Y84940D01*
X57286Y84940D01*
X57095Y84749D01*
X57095Y84177D01*
X58239Y84177D01*
X58239Y84760D02*
X57095Y84760D01*
X57095Y84379D02*
X57095Y85141D01*
X56842Y85484D02*
X56842Y79637D01*
X57095Y79690D02*
X57286Y79500D01*
X57095Y79690D02*
X57095Y80072D01*
X57286Y80262D01*
X58239Y78892D02*
X58239Y78129D01*
X58049Y78330D02*
X58239Y78521D01*
X58049Y78330D02*
X57095Y78330D01*
X57858Y77341D02*
X58239Y77722D01*
X58239Y76553D02*
X57095Y76553D01*
X55699Y76553D02*
X54555Y76553D01*
X54555Y76960D02*
X54555Y77532D01*
X54746Y77722D01*
X55127Y77722D01*
X55318Y77532D01*
X55318Y76960D01*
X55509Y77161D02*
X55699Y77352D01*
X55699Y77733D01*
X55509Y77924D01*
X55509Y78129D02*
X54746Y78892D01*
X55509Y78892D01*
X55699Y78701D01*
X55699Y78320D01*
X55509Y78129D01*
X54746Y78129D01*
X54555Y78320D01*
X54555Y78701D01*
X54746Y78892D01*
X54555Y79093D02*
X55699Y79093D01*
X55699Y79500D02*
X54555Y79500D01*
X54555Y80072D01*
X54746Y80262D01*
X55127Y80262D01*
X55318Y80072D01*
X55318Y79500D01*
X55509Y79701D02*
X55699Y79892D01*
X55699Y80273D01*
X55509Y80464D01*
X55318Y80464D01*
X55127Y80273D01*
X55127Y79892D01*
X54937Y79701D01*
X54746Y79701D01*
X54555Y79892D01*
X54555Y80273D01*
X54746Y80464D01*
X54555Y80669D02*
X55699Y80669D01*
X55699Y81432D01*
X55699Y81442D02*
X55509Y81633D01*
X54555Y81633D01*
X54555Y81432D02*
X54555Y80669D01*
X54555Y80870D02*
X55509Y80870D01*
X55699Y81061D01*
X55699Y81442D01*
X55699Y81839D02*
X54555Y81839D01*
X55699Y82601D01*
X54555Y82601D01*
X54555Y82612D02*
X54555Y82230D01*
X54746Y82040D01*
X54937Y82040D01*
X55127Y82230D01*
X55127Y82612D01*
X55318Y82802D01*
X55509Y82802D01*
X55699Y82612D01*
X55699Y82230D01*
X55509Y82040D01*
X55127Y81050D02*
X55127Y80669D01*
X55699Y80262D02*
X55318Y79881D01*
X55127Y79093D02*
X55127Y78330D01*
X54746Y77924D02*
X54555Y77733D01*
X54555Y77352D01*
X54746Y77161D01*
X55509Y77161D01*
X55318Y77341D02*
X55699Y77722D01*
X55699Y78330D02*
X54555Y78330D01*
X54555Y76960D02*
X55699Y76960D01*
X55127Y76553D02*
X55127Y75790D01*
X54746Y75384D02*
X54555Y75193D01*
X54555Y74812D01*
X54746Y74621D01*
X55509Y74621D01*
X55699Y74812D01*
X55699Y75193D01*
X55509Y75384D01*
X55699Y75790D02*
X54555Y75790D01*
X53159Y75973D02*
X52969Y76163D01*
X52206Y76163D01*
X52015Y75973D01*
X52015Y75591D01*
X52206Y75401D01*
X52969Y75401D01*
X53159Y75591D01*
X53159Y75973D01*
X52969Y76570D02*
X53159Y76761D01*
X53159Y77142D01*
X52969Y77333D01*
X52778Y77333D01*
X52587Y77142D01*
X52587Y76951D01*
X52587Y77142D02*
X52397Y77333D01*
X52206Y77333D01*
X52015Y77142D01*
X52015Y76761D01*
X52206Y76570D01*
X53159Y77739D02*
X52015Y78502D01*
X52015Y78909D02*
X53159Y78909D01*
X52778Y79290D01*
X53159Y79671D01*
X52015Y79671D01*
X52397Y80078D02*
X52015Y80459D01*
X52397Y80841D01*
X53159Y80841D01*
X53159Y81248D02*
X52015Y81248D01*
X52587Y81438D02*
X53159Y82010D01*
X53159Y82417D02*
X53159Y83180D01*
X52969Y83586D02*
X53159Y83777D01*
X53159Y84158D01*
X52969Y84349D01*
X52015Y84349D01*
X52015Y84756D02*
X52015Y85328D01*
X52206Y85518D01*
X52587Y85518D01*
X52778Y85328D01*
X52778Y84756D01*
X53159Y84756D02*
X52015Y84756D01*
X50619Y84158D02*
X50429Y84349D01*
X49666Y84349D01*
X49475Y84158D01*
X49475Y83586D01*
X50619Y83586D01*
X50619Y84158D01*
X50619Y83180D02*
X50619Y82417D01*
X49475Y82417D01*
X49475Y83180D01*
X49250Y83067D02*
X49250Y83829D01*
X49060Y84020D01*
X48488Y84020D01*
X48488Y82876D01*
X49060Y82876D01*
X49250Y83067D01*
X50047Y82798D02*
X50047Y82417D01*
X50619Y82010D02*
X50619Y81248D01*
X49475Y81248D01*
X49475Y80841D02*
X50619Y80078D01*
X50619Y79671D02*
X50238Y79290D01*
X50238Y79481D02*
X50238Y78909D01*
X50619Y78909D02*
X49475Y78909D01*
X49475Y79481D01*
X49666Y79671D01*
X50047Y79671D01*
X50238Y79481D01*
X49475Y80078D02*
X50619Y80841D01*
X52015Y82010D02*
X52778Y81248D01*
X52587Y80841D02*
X52587Y80078D01*
X52397Y80078D02*
X53159Y80078D01*
X54302Y79637D02*
X54302Y87823D01*
X54746Y87480D02*
X54555Y87289D01*
X54555Y86717D01*
X55699Y86717D01*
X55699Y87289D01*
X55509Y87480D01*
X54746Y87480D01*
X55493Y86712D02*
X55493Y85759D01*
X55684Y85568D01*
X56065Y85568D01*
X56256Y85759D01*
X56256Y86712D01*
X56662Y86522D02*
X56662Y86331D01*
X56853Y86140D01*
X57234Y86140D01*
X57425Y85950D01*
X57425Y85759D01*
X57234Y85568D01*
X56853Y85568D01*
X56662Y85759D01*
X56662Y86522D02*
X56853Y86712D01*
X57234Y86712D01*
X57425Y86522D01*
X57832Y86712D02*
X58404Y86712D01*
X58594Y86522D01*
X58594Y86331D01*
X58404Y86140D01*
X57832Y86140D01*
X57832Y85568D02*
X57832Y86712D01*
X58404Y86140D02*
X58594Y85950D01*
X58594Y85759D01*
X58404Y85568D01*
X57832Y85568D01*
X57667Y83590D02*
X57667Y83209D01*
X58239Y83008D02*
X57095Y83008D01*
X55699Y83209D02*
X54555Y83209D01*
X54555Y83781D01*
X54746Y83972D01*
X55127Y83972D01*
X55318Y83781D01*
X55318Y83209D01*
X54746Y82802D02*
X54555Y82612D01*
X53159Y82417D02*
X52015Y82417D01*
X52015Y83180D01*
X52015Y83586D02*
X52969Y83586D01*
X52587Y82798D02*
X52587Y82417D01*
X54555Y84379D02*
X55699Y84379D01*
X55699Y85141D01*
X55699Y85548D02*
X54555Y85548D01*
X55699Y86311D01*
X54555Y86311D01*
X54555Y85141D02*
X54555Y84379D01*
X55127Y84379D02*
X55127Y84760D01*
X56511Y91224D02*
X48511Y91224D01*
X48511Y96224D01*
X48511Y96724D01*
X56511Y96724D01*
X56511Y96224D01*
X56511Y91224D01*
X56511Y96224D02*
X48511Y96224D01*
X45539Y91001D02*
X44967Y90429D01*
X45158Y90238D02*
X44395Y91001D01*
X44395Y90238D02*
X45539Y90238D01*
X45539Y89831D02*
X45539Y89069D01*
X44395Y89069D01*
X44586Y88662D02*
X44395Y88471D01*
X44395Y88090D01*
X44586Y87899D01*
X45349Y87899D01*
X45539Y88090D01*
X45539Y88471D01*
X45349Y88662D01*
X44395Y87493D02*
X45539Y86730D01*
X45463Y86800D02*
X45463Y86418D01*
X45272Y86228D01*
X44510Y86228D01*
X44319Y86418D01*
X44319Y86800D01*
X44510Y86990D01*
X45272Y86990D01*
X45463Y86800D01*
X45539Y86332D02*
X45539Y85950D01*
X45463Y85829D02*
X45463Y85448D01*
X45539Y85544D02*
X45158Y85162D01*
X45158Y85152D02*
X45158Y84580D01*
X45158Y84781D02*
X45158Y85353D01*
X44967Y85544D01*
X44586Y85544D01*
X44395Y85353D01*
X44395Y84781D01*
X45539Y84781D01*
X45463Y84851D02*
X45272Y85041D01*
X45158Y84961D02*
X45539Y85342D01*
X45463Y85639D02*
X44319Y85639D01*
X44142Y85686D02*
X44142Y82177D01*
X44395Y82241D02*
X44395Y82813D01*
X44586Y83004D01*
X45349Y83004D01*
X45539Y82813D01*
X45539Y82241D01*
X44395Y82241D01*
X44395Y82417D02*
X45539Y82417D01*
X45539Y83180D01*
X45463Y83300D02*
X45463Y83681D01*
X45272Y83872D01*
X45539Y83792D02*
X44395Y83792D01*
X44371Y83829D02*
X44371Y83448D01*
X44181Y83257D01*
X43609Y83257D01*
X43609Y82876D02*
X43609Y84020D01*
X44181Y84020D01*
X44371Y83829D01*
X44510Y83872D02*
X44319Y83681D01*
X44319Y83300D01*
X44510Y83109D01*
X45272Y83109D01*
X45463Y83300D01*
X45539Y83586D02*
X45539Y84158D01*
X45349Y84349D01*
X44586Y84349D01*
X44395Y84158D01*
X44395Y83586D01*
X45539Y83586D01*
X45541Y84020D02*
X44778Y82876D01*
X44967Y82798D02*
X44967Y82417D01*
X45082Y82703D02*
X44319Y82703D01*
X44371Y82876D02*
X43990Y83257D01*
X44395Y83180D02*
X44395Y82417D01*
X44319Y81940D02*
X45082Y81940D01*
X45463Y82321D01*
X45082Y82703D01*
X45541Y82876D02*
X44778Y84020D01*
X44510Y84279D02*
X45272Y84279D01*
X45463Y84469D01*
X45463Y84851D01*
X45539Y84580D02*
X44395Y84580D01*
X44395Y85152D01*
X44586Y85342D01*
X44967Y85342D01*
X45158Y85152D01*
X44510Y85041D02*
X44319Y84851D01*
X44319Y84469D01*
X44510Y84279D01*
X44395Y84173D02*
X44395Y83410D01*
X45948Y82876D02*
X45948Y84020D01*
X46520Y84020D01*
X46710Y83829D01*
X46710Y83067D01*
X46520Y82876D01*
X45948Y82876D01*
X46530Y82876D02*
X46530Y84020D01*
X46149Y84020D02*
X46911Y84020D01*
X47318Y84020D02*
X48081Y82876D01*
X47318Y82876D02*
X48081Y84020D01*
X45539Y82010D02*
X45539Y81248D01*
X44395Y81248D01*
X44395Y80841D02*
X45539Y80078D01*
X45539Y80072D02*
X45539Y79690D01*
X45349Y79500D01*
X45539Y79290D02*
X44395Y79290D01*
X44395Y79093D02*
X44395Y78330D01*
X44395Y78502D02*
X45539Y77739D01*
X45539Y77733D02*
X45349Y77924D01*
X45539Y77733D02*
X45539Y77352D01*
X45349Y77161D01*
X44586Y77161D01*
X44395Y77352D01*
X44395Y77733D01*
X44586Y77924D01*
X44586Y77333D02*
X45349Y76570D01*
X45539Y76761D01*
X45539Y77142D01*
X45349Y77333D01*
X44586Y77333D01*
X44395Y77142D01*
X44395Y76761D01*
X44586Y76570D01*
X45349Y76570D01*
X45349Y76163D02*
X44586Y76163D01*
X44395Y75973D01*
X44395Y75591D01*
X44586Y75401D01*
X45349Y75401D01*
X45539Y75591D01*
X45539Y75973D01*
X45349Y76163D01*
X45539Y75002D02*
X45539Y74621D01*
X45539Y74812D02*
X44395Y74812D01*
X44395Y75002D02*
X44395Y74621D01*
X42999Y74621D02*
X42999Y75002D01*
X42999Y74812D02*
X41855Y74812D01*
X41855Y75002D02*
X41855Y74621D01*
X42046Y75401D02*
X41855Y75591D01*
X41855Y75973D01*
X42046Y76163D01*
X42809Y76163D01*
X42999Y75973D01*
X42999Y75591D01*
X42809Y75401D01*
X42046Y75401D01*
X42046Y76570D02*
X41855Y76761D01*
X41855Y77142D01*
X42046Y77333D01*
X42237Y77333D01*
X42999Y76570D01*
X42999Y77333D01*
X42999Y77352D02*
X41855Y77352D01*
X41855Y77542D02*
X41855Y77161D01*
X42046Y77941D02*
X41855Y78131D01*
X41855Y78513D01*
X42046Y78703D01*
X42809Y78703D01*
X42999Y78513D01*
X42999Y78131D01*
X42809Y77941D01*
X42046Y77941D01*
X41855Y78502D02*
X42999Y77739D01*
X42999Y77542D02*
X42999Y77161D01*
X44142Y77097D02*
X44142Y80606D01*
X44586Y80262D02*
X44395Y80072D01*
X44395Y79690D01*
X44586Y79500D01*
X44777Y79500D01*
X44967Y79690D01*
X44967Y80072D01*
X45158Y80262D01*
X45349Y80262D01*
X45539Y80072D01*
X45539Y80841D02*
X44395Y80078D01*
X44395Y79671D02*
X44395Y78909D01*
X44395Y78712D02*
X45539Y78712D01*
X46935Y77333D02*
X47126Y76951D01*
X47507Y76570D01*
X47507Y77142D01*
X47698Y77333D01*
X47889Y77333D01*
X48079Y77142D01*
X48079Y76761D01*
X47889Y76570D01*
X47507Y76570D01*
X47126Y76163D02*
X46935Y75973D01*
X46935Y75591D01*
X47126Y75401D01*
X47889Y75401D01*
X48079Y75591D01*
X48079Y75973D01*
X47889Y76163D01*
X47126Y76163D01*
X46935Y75002D02*
X46935Y74621D01*
X46935Y74812D02*
X48079Y74812D01*
X48079Y75002D02*
X48079Y74621D01*
X49475Y74621D02*
X49475Y75002D01*
X49475Y74812D02*
X50619Y74812D01*
X50619Y75002D02*
X50619Y74621D01*
X50429Y75401D02*
X50619Y75591D01*
X50619Y75973D01*
X50429Y76163D01*
X49666Y76163D01*
X49475Y75973D01*
X49475Y75591D01*
X49666Y75401D01*
X50429Y75401D01*
X50619Y76570D02*
X50619Y77333D01*
X50619Y76951D02*
X49475Y76951D01*
X49857Y76570D01*
X50619Y77739D02*
X49475Y78502D01*
X52015Y75002D02*
X52015Y74621D01*
X52015Y74812D02*
X53159Y74812D01*
X53159Y75002D02*
X53159Y74621D01*
X57245Y71472D02*
X57626Y71472D01*
X57436Y71472D02*
X57436Y70519D01*
X57245Y70328D01*
X57054Y70328D01*
X56864Y70519D01*
X58033Y70328D02*
X58033Y71472D01*
X58605Y71472D01*
X58796Y71282D01*
X58796Y70900D01*
X58605Y70710D01*
X58033Y70710D01*
X59202Y71091D02*
X59584Y71472D01*
X59584Y70328D01*
X59965Y70328D02*
X59202Y70328D01*
X60372Y70328D02*
X61134Y70328D01*
X60753Y70328D02*
X60753Y71472D01*
X60372Y71091D01*
X45539Y86141D02*
X44395Y86141D01*
X44395Y85950D02*
X44395Y86332D01*
X44319Y85829D02*
X44319Y85448D01*
X42999Y85353D02*
X42809Y85544D01*
X42046Y85544D01*
X41855Y85353D01*
X41855Y84781D01*
X42999Y84781D01*
X42999Y85353D01*
X42999Y85342D02*
X42618Y84961D01*
X42618Y85152D02*
X42618Y84580D01*
X42809Y84349D02*
X42999Y84158D01*
X42999Y83777D01*
X42809Y83586D01*
X42809Y83410D02*
X42999Y83601D01*
X42999Y83982D01*
X42809Y84173D01*
X42618Y84173D01*
X42427Y83982D01*
X42427Y83601D01*
X42237Y83410D01*
X42046Y83410D01*
X41855Y83601D01*
X41855Y83982D01*
X42046Y84173D01*
X42237Y84158D02*
X42427Y84349D01*
X42809Y84349D01*
X42999Y84580D02*
X41855Y84580D01*
X41855Y85152D01*
X42046Y85342D01*
X42427Y85342D01*
X42618Y85152D01*
X42809Y85950D02*
X42999Y86141D01*
X42999Y86522D01*
X42809Y86713D01*
X42999Y87120D02*
X41855Y87120D01*
X41855Y87692D01*
X42046Y87882D01*
X42809Y87882D01*
X42999Y87692D01*
X42999Y87120D01*
X42046Y86713D02*
X41855Y86522D01*
X41855Y86141D01*
X42046Y85950D01*
X42809Y85950D01*
X41602Y85686D02*
X41602Y82177D01*
X41855Y82241D02*
X41855Y82813D01*
X42046Y83004D01*
X42809Y83004D01*
X42999Y82813D01*
X42999Y82241D01*
X41855Y82241D01*
X42046Y82417D02*
X41855Y82608D01*
X41855Y82989D01*
X42046Y83180D01*
X42237Y83180D01*
X42427Y82989D01*
X42427Y82608D01*
X42237Y82417D01*
X42046Y82417D01*
X42427Y82608D02*
X42618Y82417D01*
X42809Y82417D01*
X42999Y82608D01*
X42999Y82989D01*
X42809Y83180D01*
X42618Y83180D01*
X42427Y82989D01*
X42427Y83586D02*
X42237Y83968D01*
X42237Y84158D01*
X41855Y84349D02*
X41855Y83586D01*
X42427Y83586D01*
X41602Y84717D02*
X41602Y88226D01*
X42427Y82010D02*
X42427Y81248D01*
X41855Y81820D01*
X42999Y81820D01*
X42809Y80841D02*
X42999Y80650D01*
X42999Y80269D01*
X42809Y80078D01*
X42427Y80269D02*
X42427Y80650D01*
X42618Y80841D01*
X42809Y80841D01*
X42427Y80269D02*
X42237Y80078D01*
X42046Y80078D01*
X41855Y80269D01*
X41855Y80650D01*
X42046Y80841D01*
X42427Y79873D02*
X42427Y79110D01*
X41855Y79682D01*
X42999Y79682D01*
X42999Y79671D02*
X42618Y79290D01*
X42618Y79481D02*
X42618Y78909D01*
X42999Y78909D02*
X41855Y78909D01*
X41855Y79481D01*
X42046Y79671D01*
X42427Y79671D01*
X42618Y79481D01*
X40459Y79690D02*
X40269Y79500D01*
X40459Y79690D02*
X40459Y80072D01*
X40269Y80262D01*
X40078Y80262D01*
X39887Y80072D01*
X39887Y79690D01*
X39697Y79500D01*
X39506Y79500D01*
X39315Y79690D01*
X39315Y80072D01*
X39506Y80262D01*
X39062Y80606D02*
X39062Y77097D01*
X39315Y77161D02*
X39315Y77733D01*
X39506Y77924D01*
X39887Y77924D01*
X40078Y77733D01*
X40078Y77161D01*
X40269Y77333D02*
X40459Y77142D01*
X40459Y76761D01*
X40269Y76570D01*
X39887Y76570D02*
X39697Y76951D01*
X39697Y77142D01*
X39887Y77333D01*
X40269Y77333D01*
X40459Y77161D02*
X39315Y77161D01*
X39315Y77333D02*
X39315Y76570D01*
X39887Y76570D01*
X39506Y76163D02*
X39315Y75973D01*
X39315Y75591D01*
X39506Y75401D01*
X40269Y75401D01*
X40459Y75591D01*
X40459Y75973D01*
X40269Y76163D01*
X39506Y76163D01*
X39315Y75002D02*
X39315Y74621D01*
X39315Y74812D02*
X40459Y74812D01*
X40459Y75002D02*
X40459Y74621D01*
X40078Y77542D02*
X40459Y77924D01*
X40459Y78712D02*
X39315Y78712D01*
X39315Y79093D02*
X39315Y78330D01*
X35065Y88032D02*
X34684Y88032D01*
X34493Y88223D01*
X34086Y88223D02*
X34086Y88985D01*
X33896Y89176D01*
X33324Y89176D01*
X33324Y88032D01*
X33896Y88032D01*
X34086Y88223D01*
X34493Y88795D02*
X34493Y88985D01*
X34684Y89176D01*
X35065Y89176D01*
X35256Y88985D01*
X35065Y88604D02*
X35256Y88413D01*
X35256Y88223D01*
X35065Y88032D01*
X35065Y88604D02*
X34684Y88604D01*
X34493Y88795D01*
X32917Y89176D02*
X32154Y89176D01*
X32154Y88032D01*
X32917Y88032D01*
X32536Y88604D02*
X32154Y88604D01*
X31748Y88032D02*
X30985Y88032D01*
X30985Y89176D01*
X17275Y87715D02*
X17084Y87906D01*
X16703Y87906D01*
X16512Y87715D01*
X16512Y87525D01*
X16703Y87334D01*
X17084Y87334D01*
X17275Y87143D01*
X17275Y86953D01*
X17084Y86762D01*
X16703Y86762D01*
X16512Y86953D01*
X16105Y86953D02*
X16105Y87715D01*
X15915Y87906D01*
X15533Y87906D01*
X15343Y87715D01*
X15343Y86953D01*
X15533Y86762D01*
X15915Y86762D01*
X16105Y86953D01*
X14936Y87143D02*
X14936Y87906D01*
X14936Y87143D02*
X14554Y86762D01*
X14173Y87143D01*
X14173Y87906D01*
X13766Y87715D02*
X13766Y87334D01*
X13576Y87143D01*
X13004Y87143D01*
X13004Y86762D02*
X13004Y87906D01*
X13576Y87906D01*
X13766Y87715D01*
X13385Y87143D02*
X13766Y86762D01*
X12597Y86762D02*
X11834Y86762D01*
X11834Y87906D01*
X12597Y87906D01*
X12216Y87334D02*
X11834Y87334D01*
X11428Y87143D02*
X11428Y86953D01*
X11237Y86762D01*
X10856Y86762D01*
X10665Y86953D01*
X10856Y87334D02*
X10665Y87525D01*
X10665Y87715D01*
X10856Y87906D01*
X11237Y87906D01*
X11428Y87715D01*
X11237Y87334D02*
X11428Y87143D01*
X11237Y87334D02*
X10856Y87334D01*
X12025Y91842D02*
X11834Y92033D01*
X12025Y91842D02*
X12406Y91842D01*
X12597Y92033D01*
X12597Y92414D01*
X12406Y92605D01*
X12216Y92605D01*
X11834Y92414D01*
X11834Y92986D01*
X12597Y92986D01*
X13004Y92986D02*
X13004Y92223D01*
X13385Y91842D01*
X13766Y92223D01*
X13766Y92986D01*
X11428Y92414D02*
X10665Y92414D01*
X11046Y92795D02*
X11046Y92033D01*
X16570Y80640D02*
X16379Y80450D01*
X16379Y80068D01*
X16570Y79878D01*
X16570Y80640D02*
X16760Y80640D01*
X17523Y79878D01*
X17523Y80640D01*
X17714Y79471D02*
X17714Y78708D01*
X17523Y78302D02*
X17142Y77920D01*
X17142Y78111D02*
X17142Y77539D01*
X17523Y77539D02*
X16379Y77539D01*
X16379Y78111D01*
X16570Y78302D01*
X16951Y78302D01*
X17142Y78111D01*
X17523Y77132D02*
X16379Y77132D01*
X16379Y76370D02*
X17523Y76370D01*
X17142Y76751D01*
X17523Y77132D01*
X16951Y75963D02*
X17142Y75772D01*
X17142Y75200D01*
X17523Y75200D02*
X16379Y75200D01*
X16379Y75772D01*
X16570Y75963D01*
X16951Y75963D01*
X18919Y48589D02*
X19110Y48207D01*
X19491Y47826D01*
X19491Y48398D01*
X19682Y48589D01*
X19872Y48589D01*
X20063Y48398D01*
X20063Y48017D01*
X19872Y47826D01*
X19491Y47826D01*
X19491Y47419D02*
X19682Y47229D01*
X19682Y46657D01*
X20063Y46657D02*
X18919Y46657D01*
X18919Y47229D01*
X19110Y47419D01*
X19491Y47419D01*
X18919Y46250D02*
X18919Y45868D01*
X18919Y46059D02*
X19872Y46059D01*
X20063Y45868D01*
X20063Y45678D01*
X19872Y45487D01*
X14983Y45678D02*
X14983Y45868D01*
X14792Y46059D01*
X13839Y46059D01*
X13839Y45868D02*
X13839Y46250D01*
X13839Y46657D02*
X13839Y47229D01*
X14030Y47419D01*
X14411Y47419D01*
X14602Y47229D01*
X14602Y46657D01*
X14983Y46657D02*
X13839Y46657D01*
X13839Y47826D02*
X13839Y48589D01*
X14030Y48589D01*
X14792Y47826D01*
X14983Y47826D01*
X14983Y45678D02*
X14792Y45487D01*
X32965Y45792D02*
X32965Y46174D01*
X32965Y45983D02*
X33919Y45983D01*
X34109Y45792D01*
X34109Y45602D01*
X33919Y45411D01*
X34109Y46580D02*
X32965Y46580D01*
X32965Y47152D01*
X33156Y47343D01*
X33537Y47343D01*
X33728Y47152D01*
X33728Y46580D01*
X33919Y47750D02*
X34109Y47940D01*
X34109Y48322D01*
X33919Y48512D01*
X33537Y48512D01*
X33347Y48322D01*
X33347Y48131D01*
X33537Y47750D01*
X32965Y47750D01*
X32965Y48512D01*
X65985Y48523D02*
X66939Y48523D01*
X67129Y48332D01*
X67129Y48142D01*
X66939Y47951D01*
X66656Y47670D02*
X72656Y47670D01*
X72656Y44170D01*
X66656Y44170D01*
X66656Y47670D01*
X67156Y47170D02*
X67656Y47170D01*
X67656Y44670D01*
X67156Y44670D01*
X67156Y47170D01*
X68656Y46670D02*
X68656Y45170D01*
X70656Y45170D01*
X70656Y46670D01*
X68656Y46670D01*
X65985Y48332D02*
X65985Y48714D01*
X65985Y49120D02*
X65985Y49692D01*
X66176Y49883D01*
X66557Y49883D01*
X66748Y49692D01*
X66748Y49120D01*
X67129Y49120D02*
X65985Y49120D01*
X66367Y50290D02*
X65985Y50671D01*
X67129Y50671D01*
X67129Y50290D02*
X67129Y51052D01*
X71656Y47170D02*
X71656Y44670D01*
X72156Y44670D01*
X72156Y47170D01*
X71656Y47170D01*
X77339Y48408D02*
X77339Y48790D01*
X77339Y48599D02*
X78292Y48599D01*
X78483Y48408D01*
X78483Y48218D01*
X78292Y48027D01*
X78102Y49197D02*
X78102Y49769D01*
X77911Y49959D01*
X77530Y49959D01*
X77339Y49769D01*
X77339Y49197D01*
X78483Y49197D01*
X78483Y50366D02*
X77720Y51129D01*
X77530Y51129D01*
X77339Y50938D01*
X77339Y50557D01*
X77530Y50366D01*
X78483Y50366D02*
X78483Y51129D01*
X82419Y50938D02*
X82610Y51129D01*
X82800Y51129D01*
X82991Y50938D01*
X83182Y51129D01*
X83372Y51129D01*
X83563Y50938D01*
X83563Y50557D01*
X83372Y50366D01*
X82991Y50747D02*
X82991Y50938D01*
X82419Y50938D02*
X82419Y50557D01*
X82610Y50366D01*
X82610Y49959D02*
X82991Y49959D01*
X83182Y49769D01*
X83182Y49197D01*
X83563Y49197D02*
X82419Y49197D01*
X82419Y49769D01*
X82610Y49959D01*
X82419Y48790D02*
X82419Y48408D01*
X82419Y48599D02*
X83372Y48599D01*
X83563Y48408D01*
X83563Y48218D01*
X83372Y48027D01*
X86976Y47630D02*
X86976Y44130D01*
X92976Y44130D01*
X92976Y47630D01*
X86976Y47630D01*
X87499Y48027D02*
X87499Y48599D01*
X87690Y48790D01*
X88071Y48790D01*
X88262Y48599D01*
X88262Y48027D01*
X88643Y48027D02*
X87499Y48027D01*
X87476Y47130D02*
X87976Y47130D01*
X87976Y44630D01*
X87476Y44630D01*
X87476Y47130D01*
X88976Y46630D02*
X90976Y46630D01*
X90976Y45130D01*
X88976Y45130D01*
X88976Y46630D01*
X88643Y49197D02*
X87499Y49197D01*
X87499Y49959D02*
X88643Y49959D01*
X88262Y49578D01*
X88643Y49197D01*
X88643Y50366D02*
X87499Y50366D01*
X87499Y50938D01*
X87690Y51129D01*
X88071Y51129D01*
X88262Y50938D01*
X88262Y50366D01*
X88262Y50747D02*
X88643Y51129D01*
X88834Y51535D02*
X88834Y52298D01*
X88643Y52705D02*
X88643Y53467D01*
X88643Y53086D02*
X87499Y53086D01*
X87880Y52705D01*
X91976Y47130D02*
X91976Y44630D01*
X92476Y44630D01*
X92476Y47130D01*
X91976Y47130D01*
X83994Y44612D02*
X83994Y44421D01*
X83804Y44230D01*
X83422Y44230D01*
X83232Y44421D01*
X83232Y44612D01*
X83422Y44802D01*
X83804Y44802D01*
X83994Y44612D01*
X83804Y44230D02*
X83994Y44040D01*
X83994Y43849D01*
X83804Y43658D01*
X83422Y43658D01*
X83232Y43849D01*
X83232Y44040D01*
X83422Y44230D01*
X82825Y44040D02*
X82825Y43849D01*
X82634Y43658D01*
X82253Y43658D01*
X82062Y43849D01*
X82444Y44230D02*
X82634Y44230D01*
X82825Y44040D01*
X82634Y44230D02*
X82825Y44421D01*
X82825Y44612D01*
X82634Y44802D01*
X82253Y44802D01*
X82062Y44612D01*
X81656Y44612D02*
X81656Y44230D01*
X81465Y44040D01*
X80893Y44040D01*
X80893Y43658D02*
X80893Y44802D01*
X81465Y44802D01*
X81656Y44612D01*
X80486Y44802D02*
X80105Y44802D01*
X80296Y44802D02*
X80296Y43849D01*
X80105Y43658D01*
X79914Y43658D01*
X79724Y43849D01*
X65469Y93036D02*
X64897Y93036D01*
X64897Y94180D01*
X65469Y94180D01*
X65660Y93989D01*
X65660Y93799D01*
X65469Y93608D01*
X64897Y93608D01*
X64490Y93417D02*
X64490Y93227D01*
X64300Y93036D01*
X63918Y93036D01*
X63728Y93227D01*
X63321Y93227D02*
X63321Y94180D01*
X63728Y93989D02*
X63728Y93799D01*
X63918Y93608D01*
X64300Y93608D01*
X64490Y93417D01*
X64490Y93989D02*
X64300Y94180D01*
X63918Y94180D01*
X63728Y93989D01*
X63321Y93227D02*
X63130Y93036D01*
X62749Y93036D01*
X62558Y93227D01*
X62558Y94180D01*
X62151Y94180D02*
X62151Y93417D01*
X61770Y93036D01*
X61389Y93417D01*
X61389Y94180D01*
X65469Y93608D02*
X65660Y93417D01*
X65660Y93227D01*
X65469Y93036D01*
D484*
X60506Y94327D03*
X59756Y94327D03*
X45901Y94327D03*
X45151Y94327D03*
X43996Y94327D03*
X43246Y94327D03*
D485*
X43621Y94327D03*
X45526Y94327D03*
X60131Y94327D03*
D486*
X62671Y94352D03*
X77118Y94602D03*
X41081Y94352D03*
X39811Y94602D03*
X37271Y94352D03*
X36001Y94602D03*
X33461Y94352D03*
X32191Y94602D03*
X29651Y94352D03*
X28381Y94602D03*
X25841Y94352D03*
X24571Y94602D03*
X22031Y94352D03*
X20761Y94602D03*
D487*
X58981Y73382D02*
X58981Y72344D01*
X59189Y72136D01*
X59604Y72136D01*
X59811Y72344D01*
X59811Y73382D01*
X60291Y72967D02*
X60706Y73382D01*
X60706Y72136D01*
X60291Y72136D02*
X61121Y72136D01*
D488*
X84160Y80171D03*
D489*
X81086Y80412D03*
X81086Y89175D03*
D490*
X80832Y87334D03*
X80832Y84794D03*
X80832Y82254D03*
D491*
X81086Y83524D03*
X81086Y86064D03*
D492*
X66481Y84222D03*
M02*
