INCH,TZ
%
M48
M72
T01C0.0118
T02C0.0236
T03C0.0394
T04C0.0400
T05C0.0433
T06C0.0512
T07C0.0866
%
T01
X24861Y21633
X25549Y22883
X21486Y33133
X21111Y33133
X20424Y33133
X18643Y35508
X16736Y35633
X15299Y37508
X13799Y37508
X12299Y37508
X10799Y37508
X9299Y37508
X7799Y37508
X7174Y33883
X11486Y34383
X12549Y32008
X23174Y35508
T02
X23236Y34008
X23236Y33508
X23236Y33008
X24111Y33008
X24111Y33508
X22736Y34008
X19861Y34008
X19611Y33602
X19361Y34008
X25861Y33383
X26486Y33383
X26174Y30883
X25799Y20883
X25549Y20383
T03
X21549Y22633
X20799Y22633
X20049Y22633
X20049Y23383
X20799Y23383
X21549Y23383
X21549Y24133
X20799Y24133
X20049Y24133
X20330Y31290
X20330Y31977
X21018Y31977
X21018Y31290
X30174Y30883
X30174Y31883
X30174Y32883
X30174Y33883
X30174Y34883
X30174Y35883
X30174Y28883
X30174Y27883
X30174Y26883
X30174Y25883
X30174Y24883
X30174Y23883
X30174Y22883
X30174Y21883
X11174Y22283
X11174Y21283
X11174Y20283
X11174Y19283
X11174Y18283
X11174Y23283
X11174Y24283
X11174Y25283
X11174Y26283
X11174Y27283
X11174Y28883
X11174Y29883
X11174Y30883
X11174Y31883
X11174Y32883
X11174Y33883
X11174Y34883
X11174Y35883
T04
X4674Y18383
X5674Y18383
X6674Y18383
X7674Y18383
X8674Y18383
X9674Y18383
X9674Y19383
X8674Y19383
X7674Y19383
X7674Y20383
X8674Y20383
X9674Y20383
X9674Y21383
X8674Y21383
X7674Y21383
X7674Y22383
X8674Y22383
X9674Y22383
X9674Y23383
X8674Y23383
X7674Y23383
X7674Y24383
X8674Y24383
X9674Y24383
X9674Y25383
X8674Y25383
X7674Y25383
X7674Y26383
X8674Y26383
X9674Y26383
X9674Y27383
X8674Y27383
X7674Y27383
X7674Y28383
X8674Y28383
X9674Y28383
X9674Y29383
X8674Y29383
X7674Y29383
X7674Y30383
X8674Y30383
X9674Y30383
X9674Y31383
X8674Y31383
X7674Y31383
X7674Y32383
X8674Y32383
X9674Y32383
X9674Y33383
X8674Y33383
X7674Y33383
X7674Y34383
X8674Y34383
X9674Y34383
X9674Y35383
X8674Y35383
X7674Y35383
X6674Y35383
X5674Y35383
X4674Y35383
X4674Y34383
X4674Y33383
X5674Y33383
X6674Y33383
X6674Y34383
X5674Y34383
X5674Y32383
X5674Y31383
X6674Y31383
X6674Y32383
X4674Y32383
X4674Y31383
X4674Y30383
X4674Y29383
X5674Y29383
X6674Y29383
X6674Y30383
X5674Y30383
X5674Y28383
X5674Y27383
X6674Y27383
X6674Y28383
X4674Y28383
X4674Y27383
X4674Y26383
X4674Y25383
X5674Y25383
X6674Y25383
X6674Y26383
X5674Y26383
X5674Y24383
X5674Y23383
X6674Y23383
X6674Y24383
X4674Y24383
X4674Y23383
X4674Y22383
X4674Y21383
X5674Y21383
X6674Y21383
X6674Y22383
X5674Y22383
X5674Y20383
X5674Y19383
X6674Y19383
X6674Y20383
X4674Y20383
X4674Y19383
X14174Y19383
X14174Y20383
X14174Y21383
X14174Y22383
X14174Y23383
X14174Y24383
X14174Y25383
X14174Y26383
X14174Y27383
X14174Y28383
X14174Y29383
X14174Y30383
X14174Y31383
X15674Y31883
X16674Y31883
X16674Y30883
X17674Y30883
X17674Y31883
X18674Y31883
X18674Y30883
X18674Y29883
X18674Y28883
X19674Y28883
X20674Y28883
X20674Y29883
X19674Y29883
X21674Y29883
X21674Y28883
X22674Y28883
X23674Y28883
X23674Y29883
X22674Y29883
X22674Y30883
X23674Y30883
X23674Y31883
X22674Y31883
X24674Y30883
X24674Y29883
X27174Y29383
X27174Y30383
X27174Y28383
X27174Y27383
X27174Y26383
X27174Y25383
X27174Y24383
X27174Y23383
X27174Y22383
X27174Y21383
X27174Y20383
X27174Y19383
X31674Y19383
X31674Y20383
X32674Y20383
X32674Y19383
X33674Y19383
X34674Y19383
X34674Y20383
X33674Y20383
X33674Y21383
X34674Y21383
X34674Y22383
X33674Y22383
X32674Y22383
X32674Y21383
X31674Y21383
X31674Y22383
X31674Y23383
X31674Y24383
X32674Y24383
X32674Y23383
X33674Y23383
X34674Y23383
X34674Y24383
X33674Y24383
X33674Y25383
X34674Y25383
X34674Y26383
X33674Y26383
X32674Y26383
X32674Y25383
X31674Y25383
X31674Y26383
X31674Y27383
X31674Y28383
X32674Y28383
X32674Y27383
X33674Y27383
X34674Y27383
X34674Y28383
X33674Y28383
X33674Y29383
X34674Y29383
X34674Y30383
X33674Y30383
X32674Y30383
X32674Y29383
X31674Y29383
X31674Y30383
X32674Y32383
X32674Y33383
X32674Y34383
X33049Y36196
X34049Y36196
X34049Y37196
X33049Y37196
X32049Y37196
X32049Y36196
X28674Y33383
X28674Y32383
X26174Y32383
X26174Y34383
X25674Y35883
X24674Y35883
X22674Y34883
X21674Y34883
X20674Y34883
X19674Y34883
X18674Y34883
X18674Y33883
X18674Y32883
X17674Y32883
X16674Y32883
X15674Y32883
X15674Y33883
X16674Y33883
X17674Y33883
X14674Y33883
X14674Y32883
X13674Y32883
X13674Y33883
X12674Y33883
X12674Y32883
X16674Y29883
X16674Y28883
X17674Y28883
X17674Y29883
X14174Y18383
X31674Y18383
X32674Y18383
X35674Y19383
X36674Y19383
X36674Y20383
X35674Y20383
X35674Y21383
X36674Y21383
X36674Y22383
X35674Y22383
X35674Y23383
X36674Y23383
X36674Y24383
X35674Y24383
X35674Y25383
X36674Y25383
X36674Y26383
X35674Y26383
X35674Y27383
X36674Y27383
X36674Y28383
X35674Y28383
X35674Y29383
X36674Y29383
X36674Y30383
X35674Y30383
T05
X36696Y18063
X34162Y18063
X28685Y18079
X26152Y18079
T06
X35664Y32375
X35664Y34375
T07
X36457Y37068
X30158Y18171
X4961Y37068
M30
