G75*
%MOIN*%
%OFA0B0*%
%FSLAX24Y24*%
%IPPOS*%
%LPD*%
%AMOC8*
5,1,8,0,0,1.08239X$1,22.5*
%
%ADD10C,0.0906*%
%ADD11C,0.0100*%
%ADD12C,0.0130*%
%ADD13C,0.0600*%
%ADD14C,0.0043*%
%ADD15C,0.0046*%
%ADD16C,0.0700*%
%ADD17C,0.0827*%
%ADD18C,0.0059*%
%ADD19C,0.0047*%
%ADD20C,0.0166*%
%ADD21C,0.1040*%
%ADD22C,0.0057*%
%ADD23C,0.0429*%
%ADD24C,0.0646*%
%ADD25C,0.0434*%
%ADD26C,0.0591*%
D10*
X030158Y018171D03*
X036457Y037068D03*
X004961Y037068D03*
D11*
X019674Y024540D02*
X021924Y024540D01*
X021924Y022290D01*
X019674Y022290D01*
X019674Y024540D01*
X019674Y024475D02*
X021924Y024475D01*
X021924Y024377D02*
X019674Y024377D01*
X019674Y024278D02*
X021924Y024278D01*
X021924Y024180D02*
X019674Y024180D01*
X019674Y024081D02*
X021924Y024081D01*
X021924Y023983D02*
X019674Y023983D01*
X019674Y023884D02*
X021924Y023884D01*
X021924Y023786D02*
X019674Y023786D01*
X019674Y023687D02*
X021924Y023687D01*
X021924Y023589D02*
X019674Y023589D01*
X019674Y023490D02*
X021924Y023490D01*
X021924Y023392D02*
X019674Y023392D01*
X019674Y023293D02*
X021924Y023293D01*
X021924Y023195D02*
X019674Y023195D01*
X019674Y023096D02*
X021924Y023096D01*
X021924Y022998D02*
X019674Y022998D01*
X019674Y022899D02*
X021924Y022899D01*
X021924Y022801D02*
X019674Y022801D01*
X019674Y022702D02*
X021924Y022702D01*
X021924Y022604D02*
X019674Y022604D01*
X019674Y022505D02*
X021924Y022505D01*
X021924Y022407D02*
X019674Y022407D01*
X019674Y022308D02*
X021924Y022308D01*
D12*
X025082Y022168D02*
X025082Y021864D01*
X024778Y021864D01*
X024778Y022168D01*
X025082Y022168D01*
X025082Y021993D02*
X024778Y021993D01*
X024778Y022122D02*
X025082Y022122D01*
X025082Y022533D02*
X025082Y022837D01*
X025082Y022533D02*
X024778Y022533D01*
X024778Y022837D01*
X025082Y022837D01*
X025082Y022662D02*
X024778Y022662D01*
X024778Y022791D02*
X025082Y022791D01*
X028437Y022535D02*
X028741Y022535D01*
X028741Y022231D01*
X028437Y022231D01*
X028437Y022535D01*
X028437Y022360D02*
X028741Y022360D01*
X028741Y022489D02*
X028437Y022489D01*
X029106Y022535D02*
X029410Y022535D01*
X029410Y022231D01*
X029106Y022231D01*
X029106Y022535D01*
X029106Y022360D02*
X029410Y022360D01*
X029410Y022489D02*
X029106Y022489D01*
X029106Y023535D02*
X029410Y023535D01*
X029410Y023231D01*
X029106Y023231D01*
X029106Y023535D01*
X029106Y023360D02*
X029410Y023360D01*
X029410Y023489D02*
X029106Y023489D01*
X028741Y023535D02*
X028437Y023535D01*
X028741Y023535D02*
X028741Y023231D01*
X028437Y023231D01*
X028437Y023535D01*
X028437Y023360D02*
X028741Y023360D01*
X028741Y023489D02*
X028437Y023489D01*
X028437Y024535D02*
X028741Y024535D01*
X028741Y024231D01*
X028437Y024231D01*
X028437Y024535D01*
X028437Y024360D02*
X028741Y024360D01*
X028741Y024489D02*
X028437Y024489D01*
X029106Y024535D02*
X029410Y024535D01*
X029410Y024231D01*
X029106Y024231D01*
X029106Y024535D01*
X029106Y024360D02*
X029410Y024360D01*
X029410Y024489D02*
X029106Y024489D01*
X029106Y025535D02*
X029410Y025535D01*
X029410Y025231D01*
X029106Y025231D01*
X029106Y025535D01*
X029106Y025360D02*
X029410Y025360D01*
X029410Y025489D02*
X029106Y025489D01*
X028741Y025535D02*
X028437Y025535D01*
X028741Y025535D02*
X028741Y025231D01*
X028437Y025231D01*
X028437Y025535D01*
X028437Y025360D02*
X028741Y025360D01*
X028741Y025489D02*
X028437Y025489D01*
X028437Y026535D02*
X028741Y026535D01*
X028741Y026231D01*
X028437Y026231D01*
X028437Y026535D01*
X028437Y026360D02*
X028741Y026360D01*
X028741Y026489D02*
X028437Y026489D01*
X029106Y026535D02*
X029410Y026535D01*
X029410Y026231D01*
X029106Y026231D01*
X029106Y026535D01*
X029106Y026360D02*
X029410Y026360D01*
X029410Y026489D02*
X029106Y026489D01*
X029106Y027535D02*
X029410Y027535D01*
X029410Y027231D01*
X029106Y027231D01*
X029106Y027535D01*
X029106Y027360D02*
X029410Y027360D01*
X029410Y027489D02*
X029106Y027489D01*
X028741Y027535D02*
X028437Y027535D01*
X028741Y027535D02*
X028741Y027231D01*
X028437Y027231D01*
X028437Y027535D01*
X028437Y027360D02*
X028741Y027360D01*
X028741Y027489D02*
X028437Y027489D01*
X028437Y028535D02*
X028741Y028535D01*
X028741Y028231D01*
X028437Y028231D01*
X028437Y028535D01*
X028437Y028360D02*
X028741Y028360D01*
X028741Y028489D02*
X028437Y028489D01*
X029106Y028535D02*
X029410Y028535D01*
X029410Y028231D01*
X029106Y028231D01*
X029106Y028535D01*
X029106Y028360D02*
X029410Y028360D01*
X029410Y028489D02*
X029106Y028489D01*
X029106Y029535D02*
X029410Y029535D01*
X029410Y029231D01*
X029106Y029231D01*
X029106Y029535D01*
X029106Y029360D02*
X029410Y029360D01*
X029410Y029489D02*
X029106Y029489D01*
X028741Y029535D02*
X028437Y029535D01*
X028741Y029535D02*
X028741Y029231D01*
X028437Y029231D01*
X028437Y029535D01*
X028437Y029360D02*
X028741Y029360D01*
X028741Y029489D02*
X028437Y029489D01*
X028437Y030535D02*
X028741Y030535D01*
X028741Y030231D01*
X028437Y030231D01*
X028437Y030535D01*
X028437Y030360D02*
X028741Y030360D01*
X028741Y030489D02*
X028437Y030489D01*
X029106Y030535D02*
X029410Y030535D01*
X029410Y030231D01*
X029106Y030231D01*
X029106Y030535D01*
X029106Y030360D02*
X029410Y030360D01*
X029410Y030489D02*
X029106Y030489D01*
X027848Y031419D02*
X027544Y031419D01*
X027544Y031723D01*
X027848Y031723D01*
X027848Y031419D01*
X027848Y031548D02*
X027544Y031548D01*
X027544Y031677D02*
X027848Y031677D01*
X027179Y031419D02*
X026875Y031419D01*
X026875Y031723D01*
X027179Y031723D01*
X027179Y031419D01*
X027179Y031548D02*
X026875Y031548D01*
X026875Y031677D02*
X027179Y031677D01*
X027179Y033981D02*
X026875Y033981D01*
X026875Y034285D01*
X027179Y034285D01*
X027179Y033981D01*
X027179Y034110D02*
X026875Y034110D01*
X026875Y034239D02*
X027179Y034239D01*
X027179Y034481D02*
X026875Y034481D01*
X026875Y034785D01*
X027179Y034785D01*
X027179Y034481D01*
X027179Y034610D02*
X026875Y034610D01*
X026875Y034739D02*
X027179Y034739D01*
X027544Y034481D02*
X027848Y034481D01*
X027544Y034481D02*
X027544Y034785D01*
X027848Y034785D01*
X027848Y034481D01*
X027848Y034610D02*
X027544Y034610D01*
X027544Y034739D02*
X027848Y034739D01*
X027848Y033981D02*
X027544Y033981D01*
X027544Y034285D01*
X027848Y034285D01*
X027848Y033981D01*
X027848Y034110D02*
X027544Y034110D01*
X027544Y034239D02*
X027848Y034239D01*
X022576Y033557D02*
X022576Y033253D01*
X022272Y033253D01*
X022272Y033557D01*
X022576Y033557D01*
X022576Y033382D02*
X022272Y033382D01*
X022272Y033511D02*
X022576Y033511D01*
X022576Y032888D02*
X022576Y032584D01*
X022272Y032584D01*
X022272Y032888D01*
X022576Y032888D01*
X022576Y032713D02*
X022272Y032713D01*
X022272Y032842D02*
X022576Y032842D01*
X015785Y030535D02*
X015481Y030535D01*
X015785Y030535D02*
X015785Y030231D01*
X015481Y030231D01*
X015481Y030535D01*
X015481Y030360D02*
X015785Y030360D01*
X015785Y030489D02*
X015481Y030489D01*
X015116Y030535D02*
X014812Y030535D01*
X015116Y030535D02*
X015116Y030231D01*
X014812Y030231D01*
X014812Y030535D01*
X014812Y030360D02*
X015116Y030360D01*
X015116Y030489D02*
X014812Y030489D01*
X014897Y030959D02*
X014897Y031263D01*
X015201Y031263D01*
X015201Y030959D01*
X014897Y030959D01*
X014897Y031088D02*
X015201Y031088D01*
X015201Y031217D02*
X014897Y031217D01*
X014897Y031628D02*
X014897Y031932D01*
X015201Y031932D01*
X015201Y031628D01*
X014897Y031628D01*
X014897Y031757D02*
X015201Y031757D01*
X015201Y031886D02*
X014897Y031886D01*
X013410Y031231D02*
X013106Y031231D01*
X013106Y031535D01*
X013410Y031535D01*
X013410Y031231D01*
X013410Y031360D02*
X013106Y031360D01*
X013106Y031489D02*
X013410Y031489D01*
X012741Y031231D02*
X012437Y031231D01*
X012437Y031535D01*
X012741Y031535D01*
X012741Y031231D01*
X012741Y031360D02*
X012437Y031360D01*
X012437Y031489D02*
X012741Y031489D01*
X012741Y030231D02*
X012437Y030231D01*
X012437Y030535D01*
X012741Y030535D01*
X012741Y030231D01*
X012741Y030360D02*
X012437Y030360D01*
X012437Y030489D02*
X012741Y030489D01*
X013106Y030231D02*
X013410Y030231D01*
X013106Y030231D02*
X013106Y030535D01*
X013410Y030535D01*
X013410Y030231D01*
X013410Y030360D02*
X013106Y030360D01*
X013106Y030489D02*
X013410Y030489D01*
X013410Y029231D02*
X013106Y029231D01*
X013106Y029535D01*
X013410Y029535D01*
X013410Y029231D01*
X013410Y029360D02*
X013106Y029360D01*
X013106Y029489D02*
X013410Y029489D01*
X012741Y029231D02*
X012437Y029231D01*
X012437Y029535D01*
X012741Y029535D01*
X012741Y029231D01*
X012741Y029360D02*
X012437Y029360D01*
X012437Y029489D02*
X012741Y029489D01*
X012741Y028231D02*
X012437Y028231D01*
X012437Y028535D01*
X012741Y028535D01*
X012741Y028231D01*
X012741Y028360D02*
X012437Y028360D01*
X012437Y028489D02*
X012741Y028489D01*
X013106Y028231D02*
X013410Y028231D01*
X013106Y028231D02*
X013106Y028535D01*
X013410Y028535D01*
X013410Y028231D01*
X013410Y028360D02*
X013106Y028360D01*
X013106Y028489D02*
X013410Y028489D01*
X013410Y027231D02*
X013106Y027231D01*
X013106Y027535D01*
X013410Y027535D01*
X013410Y027231D01*
X013410Y027360D02*
X013106Y027360D01*
X013106Y027489D02*
X013410Y027489D01*
X012741Y027231D02*
X012437Y027231D01*
X012437Y027535D01*
X012741Y027535D01*
X012741Y027231D01*
X012741Y027360D02*
X012437Y027360D01*
X012437Y027489D02*
X012741Y027489D01*
X012741Y026231D02*
X012437Y026231D01*
X012437Y026535D01*
X012741Y026535D01*
X012741Y026231D01*
X012741Y026360D02*
X012437Y026360D01*
X012437Y026489D02*
X012741Y026489D01*
X013106Y026231D02*
X013410Y026231D01*
X013106Y026231D02*
X013106Y026535D01*
X013410Y026535D01*
X013410Y026231D01*
X013410Y026360D02*
X013106Y026360D01*
X013106Y026489D02*
X013410Y026489D01*
X013410Y025231D02*
X013106Y025231D01*
X013106Y025535D01*
X013410Y025535D01*
X013410Y025231D01*
X013410Y025360D02*
X013106Y025360D01*
X013106Y025489D02*
X013410Y025489D01*
X012741Y025231D02*
X012437Y025231D01*
X012437Y025535D01*
X012741Y025535D01*
X012741Y025231D01*
X012741Y025360D02*
X012437Y025360D01*
X012437Y025489D02*
X012741Y025489D01*
X012741Y024231D02*
X012437Y024231D01*
X012437Y024535D01*
X012741Y024535D01*
X012741Y024231D01*
X012741Y024360D02*
X012437Y024360D01*
X012437Y024489D02*
X012741Y024489D01*
X013106Y024231D02*
X013410Y024231D01*
X013106Y024231D02*
X013106Y024535D01*
X013410Y024535D01*
X013410Y024231D01*
X013410Y024360D02*
X013106Y024360D01*
X013106Y024489D02*
X013410Y024489D01*
X013410Y023231D02*
X013106Y023231D01*
X013106Y023535D01*
X013410Y023535D01*
X013410Y023231D01*
X013410Y023360D02*
X013106Y023360D01*
X013106Y023489D02*
X013410Y023489D01*
X012741Y023231D02*
X012437Y023231D01*
X012437Y023535D01*
X012741Y023535D01*
X012741Y023231D01*
X012741Y023360D02*
X012437Y023360D01*
X012437Y023489D02*
X012741Y023489D01*
X012741Y022231D02*
X012437Y022231D01*
X012437Y022535D01*
X012741Y022535D01*
X012741Y022231D01*
X012741Y022360D02*
X012437Y022360D01*
X012437Y022489D02*
X012741Y022489D01*
X013106Y022231D02*
X013410Y022231D01*
X013106Y022231D02*
X013106Y022535D01*
X013410Y022535D01*
X013410Y022231D01*
X013410Y022360D02*
X013106Y022360D01*
X013106Y022489D02*
X013410Y022489D01*
X013410Y021231D02*
X013106Y021231D01*
X013106Y021535D01*
X013410Y021535D01*
X013410Y021231D01*
X013410Y021360D02*
X013106Y021360D01*
X013106Y021489D02*
X013410Y021489D01*
X012741Y021231D02*
X012437Y021231D01*
X012437Y021535D01*
X012741Y021535D01*
X012741Y021231D01*
X012741Y021360D02*
X012437Y021360D01*
X012437Y021489D02*
X012741Y021489D01*
X012741Y020231D02*
X012437Y020231D01*
X012437Y020535D01*
X012741Y020535D01*
X012741Y020231D01*
X012741Y020360D02*
X012437Y020360D01*
X012437Y020489D02*
X012741Y020489D01*
X013106Y020231D02*
X013410Y020231D01*
X013106Y020231D02*
X013106Y020535D01*
X013410Y020535D01*
X013410Y020231D01*
X013410Y020360D02*
X013106Y020360D01*
X013106Y020489D02*
X013410Y020489D01*
X013410Y019231D02*
X013106Y019231D01*
X013106Y019535D01*
X013410Y019535D01*
X013410Y019231D01*
X013410Y019360D02*
X013106Y019360D01*
X013106Y019489D02*
X013410Y019489D01*
X012741Y019231D02*
X012437Y019231D01*
X012437Y019535D01*
X012741Y019535D01*
X012741Y019231D01*
X012741Y019360D02*
X012437Y019360D01*
X012437Y019489D02*
X012741Y019489D01*
X012741Y018231D02*
X012437Y018231D01*
X012437Y018535D01*
X012741Y018535D01*
X012741Y018231D01*
X012741Y018360D02*
X012437Y018360D01*
X012437Y018489D02*
X012741Y018489D01*
X013106Y018231D02*
X013410Y018231D01*
X013106Y018231D02*
X013106Y018535D01*
X013410Y018535D01*
X013410Y018231D01*
X013410Y018360D02*
X013106Y018360D01*
X013106Y018489D02*
X013410Y018489D01*
X014647Y027397D02*
X014647Y027701D01*
X014951Y027701D01*
X014951Y027397D01*
X014647Y027397D01*
X014647Y027526D02*
X014951Y027526D01*
X014951Y027655D02*
X014647Y027655D01*
X014647Y028066D02*
X014647Y028370D01*
X014951Y028370D01*
X014951Y028066D01*
X014647Y028066D01*
X014647Y028195D02*
X014951Y028195D01*
X014951Y028324D02*
X014647Y028324D01*
X028437Y021535D02*
X028741Y021535D01*
X028741Y021231D01*
X028437Y021231D01*
X028437Y021535D01*
X028437Y021360D02*
X028741Y021360D01*
X028741Y021489D02*
X028437Y021489D01*
X029106Y021535D02*
X029410Y021535D01*
X029410Y021231D01*
X029106Y021231D01*
X029106Y021535D01*
X029106Y021360D02*
X029410Y021360D01*
X029410Y021489D02*
X029106Y021489D01*
X029106Y020535D02*
X029410Y020535D01*
X029410Y020231D01*
X029106Y020231D01*
X029106Y020535D01*
X029106Y020360D02*
X029410Y020360D01*
X029410Y020489D02*
X029106Y020489D01*
X028741Y020535D02*
X028437Y020535D01*
X028741Y020535D02*
X028741Y020231D01*
X028437Y020231D01*
X028437Y020535D01*
X028437Y020360D02*
X028741Y020360D01*
X028741Y020489D02*
X028437Y020489D01*
X028437Y019535D02*
X028741Y019535D01*
X028741Y019231D01*
X028437Y019231D01*
X028437Y019535D01*
X028437Y019360D02*
X028741Y019360D01*
X028741Y019489D02*
X028437Y019489D01*
X029106Y019535D02*
X029410Y019535D01*
X029410Y019231D01*
X029106Y019231D01*
X029106Y019535D01*
X029106Y019360D02*
X029410Y019360D01*
X029410Y019489D02*
X029106Y019489D01*
D13*
X004674Y018383D03*
X005674Y018383D03*
X006674Y018383D03*
X007674Y018383D03*
X008674Y018383D03*
X009674Y018383D03*
X009674Y019383D03*
X008674Y019383D03*
X007674Y019383D03*
X007674Y020383D03*
X008674Y020383D03*
X009674Y020383D03*
X009674Y021383D03*
X008674Y021383D03*
X007674Y021383D03*
X007674Y022383D03*
X008674Y022383D03*
X009674Y022383D03*
X009674Y023383D03*
X008674Y023383D03*
X007674Y023383D03*
X007674Y024383D03*
X008674Y024383D03*
X009674Y024383D03*
X009674Y025383D03*
X008674Y025383D03*
X007674Y025383D03*
X007674Y026383D03*
X008674Y026383D03*
X009674Y026383D03*
X009674Y027383D03*
X008674Y027383D03*
X007674Y027383D03*
X007674Y028383D03*
X008674Y028383D03*
X009674Y028383D03*
X009674Y029383D03*
X008674Y029383D03*
X007674Y029383D03*
X007674Y030383D03*
X008674Y030383D03*
X009674Y030383D03*
X009674Y031383D03*
X008674Y031383D03*
X007674Y031383D03*
X007674Y032383D03*
X008674Y032383D03*
X009674Y032383D03*
X009674Y033383D03*
X008674Y033383D03*
X007674Y033383D03*
X007674Y034383D03*
X008674Y034383D03*
X009674Y034383D03*
X009674Y035383D03*
X008674Y035383D03*
X007674Y035383D03*
X006674Y035383D03*
X005674Y035383D03*
X004674Y035383D03*
X004674Y034383D03*
X004674Y033383D03*
X005674Y033383D03*
X006674Y033383D03*
X006674Y034383D03*
X005674Y034383D03*
X005674Y032383D03*
X005674Y031383D03*
X006674Y031383D03*
X006674Y032383D03*
X004674Y032383D03*
X004674Y031383D03*
X004674Y030383D03*
X004674Y029383D03*
X005674Y029383D03*
X006674Y029383D03*
X006674Y030383D03*
X005674Y030383D03*
X005674Y028383D03*
X005674Y027383D03*
X006674Y027383D03*
X006674Y028383D03*
X004674Y028383D03*
X004674Y027383D03*
X004674Y026383D03*
X004674Y025383D03*
X005674Y025383D03*
X006674Y025383D03*
X006674Y026383D03*
X005674Y026383D03*
X005674Y024383D03*
X005674Y023383D03*
X006674Y023383D03*
X006674Y024383D03*
X004674Y024383D03*
X004674Y023383D03*
X004674Y022383D03*
X004674Y021383D03*
X005674Y021383D03*
X006674Y021383D03*
X006674Y022383D03*
X005674Y022383D03*
X005674Y020383D03*
X005674Y019383D03*
X006674Y019383D03*
X006674Y020383D03*
X004674Y020383D03*
X004674Y019383D03*
X014174Y019383D03*
X014174Y020383D03*
X014174Y021383D03*
X014174Y022383D03*
X014174Y023383D03*
X014174Y024383D03*
X014174Y025383D03*
X014174Y026383D03*
X014174Y027383D03*
X014174Y028383D03*
X014174Y029383D03*
X014174Y030383D03*
X014174Y031383D03*
X015674Y031883D03*
X016674Y031883D03*
X016674Y030883D03*
X017674Y030883D03*
X017674Y031883D03*
X018674Y031883D03*
X018674Y030883D03*
X018674Y029883D03*
X018674Y028883D03*
X019674Y028883D03*
X020674Y028883D03*
X020674Y029883D03*
X019674Y029883D03*
X021674Y029883D03*
X021674Y028883D03*
X022674Y028883D03*
X023674Y028883D03*
X023674Y029883D03*
X022674Y029883D03*
X022674Y030883D03*
X023674Y030883D03*
X023674Y031883D03*
X022674Y031883D03*
X024674Y030883D03*
X024674Y029883D03*
X027174Y029383D03*
X027174Y030383D03*
X027174Y028383D03*
X027174Y027383D03*
X027174Y026383D03*
X027174Y025383D03*
X027174Y024383D03*
X027174Y023383D03*
X027174Y022383D03*
X027174Y021383D03*
X027174Y020383D03*
X027174Y019383D03*
X031674Y019383D03*
X031674Y020383D03*
X032674Y020383D03*
X032674Y019383D03*
X033674Y019383D03*
X034674Y019383D03*
X034674Y020383D03*
X033674Y020383D03*
X033674Y021383D03*
X034674Y021383D03*
X034674Y022383D03*
X033674Y022383D03*
X032674Y022383D03*
X032674Y021383D03*
X031674Y021383D03*
X031674Y022383D03*
X031674Y023383D03*
X031674Y024383D03*
X032674Y024383D03*
X032674Y023383D03*
X033674Y023383D03*
X034674Y023383D03*
X034674Y024383D03*
X033674Y024383D03*
X033674Y025383D03*
X034674Y025383D03*
X034674Y026383D03*
X033674Y026383D03*
X032674Y026383D03*
X032674Y025383D03*
X031674Y025383D03*
X031674Y026383D03*
X031674Y027383D03*
X031674Y028383D03*
X032674Y028383D03*
X032674Y027383D03*
X033674Y027383D03*
X034674Y027383D03*
X034674Y028383D03*
X033674Y028383D03*
X033674Y029383D03*
X034674Y029383D03*
X034674Y030383D03*
X033674Y030383D03*
X032674Y030383D03*
X032674Y029383D03*
X031674Y029383D03*
X031674Y030383D03*
X032674Y032383D03*
X032674Y033383D03*
X032674Y034383D03*
X033049Y036196D03*
X034049Y036196D03*
X034049Y037196D03*
X033049Y037196D03*
X032049Y037196D03*
X032049Y036196D03*
X028674Y033383D03*
X028674Y032383D03*
X025674Y035883D03*
X024674Y035883D03*
X022674Y034883D03*
X021674Y034883D03*
X020674Y034883D03*
X019674Y034883D03*
X018674Y034883D03*
X018674Y033883D03*
X018674Y032883D03*
X017674Y032883D03*
X016674Y032883D03*
X015674Y032883D03*
X015674Y033883D03*
X016674Y033883D03*
X017674Y033883D03*
X014674Y033883D03*
X014674Y032883D03*
X013674Y032883D03*
X013674Y033883D03*
X012674Y033883D03*
X012674Y032883D03*
X016674Y029883D03*
X016674Y028883D03*
X017674Y028883D03*
X017674Y029883D03*
X014174Y018383D03*
X031674Y018383D03*
X032674Y018383D03*
X035674Y019383D03*
X036674Y019383D03*
X036674Y020383D03*
X035674Y020383D03*
X035674Y021383D03*
X036674Y021383D03*
X036674Y022383D03*
X035674Y022383D03*
X035674Y023383D03*
X036674Y023383D03*
X036674Y024383D03*
X035674Y024383D03*
X035674Y025383D03*
X036674Y025383D03*
X036674Y026383D03*
X035674Y026383D03*
X035674Y027383D03*
X036674Y027383D03*
X036674Y028383D03*
X035674Y028383D03*
X035674Y029383D03*
X036674Y029383D03*
X036674Y030383D03*
X035674Y030383D03*
D14*
X016181Y029417D02*
X015789Y029417D01*
X015789Y029965D01*
X016181Y029965D01*
X016181Y029417D01*
X016181Y029459D02*
X015789Y029459D01*
X015789Y029501D02*
X016181Y029501D01*
X016181Y029543D02*
X015789Y029543D01*
X015789Y029585D02*
X016181Y029585D01*
X016181Y029627D02*
X015789Y029627D01*
X015789Y029669D02*
X016181Y029669D01*
X016181Y029711D02*
X015789Y029711D01*
X015789Y029753D02*
X016181Y029753D01*
X016181Y029795D02*
X015789Y029795D01*
X015789Y029837D02*
X016181Y029837D01*
X016181Y029879D02*
X015789Y029879D01*
X015789Y029921D02*
X016181Y029921D01*
X016181Y029963D02*
X015789Y029963D01*
X015433Y029417D02*
X015041Y029417D01*
X015041Y029965D01*
X015433Y029965D01*
X015433Y029417D01*
X015433Y029459D02*
X015041Y029459D01*
X015041Y029501D02*
X015433Y029501D01*
X015433Y029543D02*
X015041Y029543D01*
X015041Y029585D02*
X015433Y029585D01*
X015433Y029627D02*
X015041Y029627D01*
X015041Y029669D02*
X015433Y029669D01*
X015433Y029711D02*
X015041Y029711D01*
X015041Y029753D02*
X015433Y029753D01*
X015433Y029795D02*
X015041Y029795D01*
X015041Y029837D02*
X015433Y029837D01*
X015433Y029879D02*
X015041Y029879D01*
X015041Y029921D02*
X015433Y029921D01*
X015433Y029963D02*
X015041Y029963D01*
X015415Y028551D02*
X015807Y028551D01*
X015415Y028551D02*
X015415Y029099D01*
X015807Y029099D01*
X015807Y028551D01*
X015807Y028593D02*
X015415Y028593D01*
X015415Y028635D02*
X015807Y028635D01*
X015807Y028677D02*
X015415Y028677D01*
X015415Y028719D02*
X015807Y028719D01*
X015807Y028761D02*
X015415Y028761D01*
X015415Y028803D02*
X015807Y028803D01*
X015807Y028845D02*
X015415Y028845D01*
X015415Y028887D02*
X015807Y028887D01*
X015807Y028929D02*
X015415Y028929D01*
X015415Y028971D02*
X015807Y028971D01*
X015807Y029013D02*
X015415Y029013D01*
X015415Y029055D02*
X015807Y029055D01*
X015807Y029097D02*
X015415Y029097D01*
D15*
X027297Y032074D02*
X027297Y032568D01*
X027297Y032074D02*
X027053Y032074D01*
X027053Y032568D01*
X027297Y032568D01*
X027297Y032119D02*
X027053Y032119D01*
X027053Y032164D02*
X027297Y032164D01*
X027297Y032209D02*
X027053Y032209D01*
X027053Y032254D02*
X027297Y032254D01*
X027297Y032299D02*
X027053Y032299D01*
X027053Y032344D02*
X027297Y032344D01*
X027297Y032389D02*
X027053Y032389D01*
X027053Y032434D02*
X027297Y032434D01*
X027297Y032479D02*
X027053Y032479D01*
X027053Y032524D02*
X027297Y032524D01*
X028045Y032568D02*
X028045Y032074D01*
X027801Y032074D01*
X027801Y032568D01*
X028045Y032568D01*
X028045Y032119D02*
X027801Y032119D01*
X027801Y032164D02*
X028045Y032164D01*
X028045Y032209D02*
X027801Y032209D01*
X027801Y032254D02*
X028045Y032254D01*
X028045Y032299D02*
X027801Y032299D01*
X027801Y032344D02*
X028045Y032344D01*
X028045Y032389D02*
X027801Y032389D01*
X027801Y032434D02*
X028045Y032434D01*
X028045Y032479D02*
X027801Y032479D01*
X027801Y032524D02*
X028045Y032524D01*
X027801Y033074D02*
X027801Y033568D01*
X028045Y033568D01*
X028045Y033074D01*
X027801Y033074D01*
X027801Y033119D02*
X028045Y033119D01*
X028045Y033164D02*
X027801Y033164D01*
X027801Y033209D02*
X028045Y033209D01*
X028045Y033254D02*
X027801Y033254D01*
X027801Y033299D02*
X028045Y033299D01*
X028045Y033344D02*
X027801Y033344D01*
X027801Y033389D02*
X028045Y033389D01*
X028045Y033434D02*
X027801Y033434D01*
X027801Y033479D02*
X028045Y033479D01*
X028045Y033524D02*
X027801Y033524D01*
X027427Y033568D02*
X027427Y033074D01*
X027427Y033568D02*
X027671Y033568D01*
X027671Y033074D01*
X027427Y033074D01*
X027427Y033119D02*
X027671Y033119D01*
X027671Y033164D02*
X027427Y033164D01*
X027427Y033209D02*
X027671Y033209D01*
X027671Y033254D02*
X027427Y033254D01*
X027427Y033299D02*
X027671Y033299D01*
X027671Y033344D02*
X027427Y033344D01*
X027427Y033389D02*
X027671Y033389D01*
X027671Y033434D02*
X027427Y033434D01*
X027427Y033479D02*
X027671Y033479D01*
X027671Y033524D02*
X027427Y033524D01*
X027053Y033568D02*
X027053Y033074D01*
X027053Y033568D02*
X027297Y033568D01*
X027297Y033074D01*
X027053Y033074D01*
X027053Y033119D02*
X027297Y033119D01*
X027297Y033164D02*
X027053Y033164D01*
X027053Y033209D02*
X027297Y033209D01*
X027297Y033254D02*
X027053Y033254D01*
X027053Y033299D02*
X027297Y033299D01*
X027297Y033344D02*
X027053Y033344D01*
X027053Y033389D02*
X027297Y033389D01*
X027297Y033434D02*
X027053Y033434D01*
X027053Y033479D02*
X027297Y033479D01*
X027297Y033524D02*
X027053Y033524D01*
D16*
X030174Y033883D03*
X030174Y032883D03*
X030174Y031883D03*
X030174Y030883D03*
X030174Y028883D03*
X030174Y027883D03*
X030174Y026883D03*
X030174Y025883D03*
X030174Y024883D03*
X030174Y023883D03*
X030174Y022883D03*
X030174Y021883D03*
X030174Y034883D03*
X030174Y035883D03*
X011174Y035883D03*
X011174Y034883D03*
X011174Y033883D03*
X011174Y032883D03*
X011174Y031883D03*
X011174Y030883D03*
X011174Y029883D03*
X011174Y028883D03*
X011174Y027283D03*
X011174Y026283D03*
X011174Y025283D03*
X011174Y024283D03*
X011174Y023283D03*
X011174Y022283D03*
X011174Y021283D03*
X011174Y020283D03*
X011174Y019283D03*
X011174Y018283D03*
D17*
X035664Y032375D03*
X035664Y034375D03*
D18*
X035188Y032117D02*
X034656Y032117D01*
X034656Y032649D01*
X035188Y032649D01*
X035188Y032117D01*
X035188Y032175D02*
X034656Y032175D01*
X034656Y032233D02*
X035188Y032233D01*
X035188Y032291D02*
X034656Y032291D01*
X034656Y032349D02*
X035188Y032349D01*
X035188Y032407D02*
X034656Y032407D01*
X034656Y032465D02*
X035188Y032465D01*
X035188Y032523D02*
X034656Y032523D01*
X034656Y032581D02*
X035188Y032581D01*
X035188Y032639D02*
X034656Y032639D01*
X033692Y032117D02*
X033160Y032117D01*
X033160Y032649D01*
X033692Y032649D01*
X033692Y032117D01*
X033692Y032175D02*
X033160Y032175D01*
X033160Y032233D02*
X033692Y032233D01*
X033692Y032291D02*
X033160Y032291D01*
X033160Y032349D02*
X033692Y032349D01*
X033692Y032407D02*
X033160Y032407D01*
X033160Y032465D02*
X033692Y032465D01*
X033692Y032523D02*
X033160Y032523D01*
X033160Y032581D02*
X033692Y032581D01*
X033692Y032639D02*
X033160Y032639D01*
X025188Y035149D02*
X024656Y035149D01*
X025188Y035149D02*
X025188Y034617D01*
X024656Y034617D01*
X024656Y035149D01*
X024656Y034675D02*
X025188Y034675D01*
X025188Y034733D02*
X024656Y034733D01*
X024656Y034791D02*
X025188Y034791D01*
X025188Y034849D02*
X024656Y034849D01*
X024656Y034907D02*
X025188Y034907D01*
X025188Y034965D02*
X024656Y034965D01*
X024656Y035023D02*
X025188Y035023D01*
X025188Y035081D02*
X024656Y035081D01*
X024656Y035139D02*
X025188Y035139D01*
X023692Y035149D02*
X023160Y035149D01*
X023692Y035149D02*
X023692Y034617D01*
X023160Y034617D01*
X023160Y035149D01*
X023160Y034675D02*
X023692Y034675D01*
X023692Y034733D02*
X023160Y034733D01*
X023160Y034791D02*
X023692Y034791D01*
X023692Y034849D02*
X023160Y034849D01*
X023160Y034907D02*
X023692Y034907D01*
X023692Y034965D02*
X023160Y034965D01*
X023160Y035023D02*
X023692Y035023D01*
X023692Y035081D02*
X023160Y035081D01*
X023160Y035139D02*
X023692Y035139D01*
D19*
X033125Y034274D02*
X033125Y034004D01*
X033125Y034274D02*
X033473Y034274D01*
X033473Y034004D01*
X033125Y034004D01*
X033125Y034050D02*
X033473Y034050D01*
X033473Y034096D02*
X033125Y034096D01*
X033125Y034142D02*
X033473Y034142D01*
X033473Y034188D02*
X033125Y034188D01*
X033125Y034234D02*
X033473Y034234D01*
X033125Y033762D02*
X033125Y033492D01*
X033125Y033762D02*
X033473Y033762D01*
X033473Y033492D01*
X033125Y033492D01*
X033125Y033538D02*
X033473Y033538D01*
X033473Y033584D02*
X033125Y033584D01*
X033125Y033630D02*
X033473Y033630D01*
X033473Y033676D02*
X033125Y033676D01*
X033125Y033722D02*
X033473Y033722D01*
X033473Y033274D02*
X033473Y033004D01*
X033125Y033004D01*
X033125Y033274D01*
X033473Y033274D01*
X033473Y033050D02*
X033125Y033050D01*
X033125Y033096D02*
X033473Y033096D01*
X033473Y033142D02*
X033125Y033142D01*
X033125Y033188D02*
X033473Y033188D01*
X033473Y033234D02*
X033125Y033234D01*
X033473Y032762D02*
X033473Y032492D01*
X033125Y032492D01*
X033125Y032762D01*
X033473Y032762D01*
X033473Y032538D02*
X033125Y032538D01*
X033125Y032584D02*
X033473Y032584D01*
X033473Y032630D02*
X033125Y032630D01*
X033125Y032676D02*
X033473Y032676D01*
X033473Y032722D02*
X033125Y032722D01*
X035033Y018245D02*
X035303Y018245D01*
X035303Y017897D01*
X035033Y017897D01*
X035033Y018245D01*
X035033Y017943D02*
X035303Y017943D01*
X035303Y017989D02*
X035033Y017989D01*
X035033Y018035D02*
X035303Y018035D01*
X035303Y018081D02*
X035033Y018081D01*
X035033Y018127D02*
X035303Y018127D01*
X035303Y018173D02*
X035033Y018173D01*
X035033Y018219D02*
X035303Y018219D01*
X035545Y018245D02*
X035815Y018245D01*
X035815Y017897D01*
X035545Y017897D01*
X035545Y018245D01*
X035545Y017943D02*
X035815Y017943D01*
X035815Y017989D02*
X035545Y017989D01*
X035545Y018035D02*
X035815Y018035D01*
X035815Y018081D02*
X035545Y018081D01*
X035545Y018127D02*
X035815Y018127D01*
X035815Y018173D02*
X035545Y018173D01*
X035545Y018219D02*
X035815Y018219D01*
X027815Y017897D02*
X027545Y017897D01*
X027545Y018245D01*
X027815Y018245D01*
X027815Y017897D01*
X027815Y017943D02*
X027545Y017943D01*
X027545Y017989D02*
X027815Y017989D01*
X027815Y018035D02*
X027545Y018035D01*
X027545Y018081D02*
X027815Y018081D01*
X027815Y018127D02*
X027545Y018127D01*
X027545Y018173D02*
X027815Y018173D01*
X027815Y018219D02*
X027545Y018219D01*
X027303Y017897D02*
X027033Y017897D01*
X027033Y018245D01*
X027303Y018245D01*
X027303Y017897D01*
X027303Y017943D02*
X027033Y017943D01*
X027033Y017989D02*
X027303Y017989D01*
X027303Y018035D02*
X027033Y018035D01*
X027033Y018081D02*
X027303Y018081D01*
X027303Y018127D02*
X027033Y018127D01*
X027033Y018173D02*
X027303Y018173D01*
X027303Y018219D02*
X027033Y018219D01*
D20*
X009406Y034316D02*
X009406Y034702D01*
X009406Y034316D02*
X008942Y034316D01*
X008942Y034702D01*
X009406Y034702D01*
X009406Y034481D02*
X008942Y034481D01*
X008942Y034646D02*
X009406Y034646D01*
X009406Y035064D02*
X009406Y035450D01*
X009406Y035064D02*
X008942Y035064D01*
X008942Y035450D01*
X009406Y035450D01*
X009406Y035229D02*
X008942Y035229D01*
X008942Y035394D02*
X009406Y035394D01*
X008406Y035450D02*
X008406Y035064D01*
X007942Y035064D01*
X007942Y035450D01*
X008406Y035450D01*
X008406Y035229D02*
X007942Y035229D01*
X007942Y035394D02*
X008406Y035394D01*
X008406Y034702D02*
X008406Y034316D01*
X007942Y034316D01*
X007942Y034702D01*
X008406Y034702D01*
X008406Y034481D02*
X007942Y034481D01*
X007942Y034646D02*
X008406Y034646D01*
X007406Y034702D02*
X007406Y034316D01*
X006942Y034316D01*
X006942Y034702D01*
X007406Y034702D01*
X007406Y034481D02*
X006942Y034481D01*
X006942Y034646D02*
X007406Y034646D01*
X007406Y035064D02*
X007406Y035450D01*
X007406Y035064D02*
X006942Y035064D01*
X006942Y035450D01*
X007406Y035450D01*
X007406Y035229D02*
X006942Y035229D01*
X006942Y035394D02*
X007406Y035394D01*
X006406Y035450D02*
X006406Y035064D01*
X005942Y035064D01*
X005942Y035450D01*
X006406Y035450D01*
X006406Y035229D02*
X005942Y035229D01*
X005942Y035394D02*
X006406Y035394D01*
X006406Y034702D02*
X006406Y034316D01*
X005942Y034316D01*
X005942Y034702D01*
X006406Y034702D01*
X006406Y034481D02*
X005942Y034481D01*
X005942Y034646D02*
X006406Y034646D01*
X005406Y034702D02*
X005406Y034316D01*
X004942Y034316D01*
X004942Y034702D01*
X005406Y034702D01*
X005406Y034481D02*
X004942Y034481D01*
X004942Y034646D02*
X005406Y034646D01*
X005406Y035064D02*
X005406Y035450D01*
X005406Y035064D02*
X004942Y035064D01*
X004942Y035450D01*
X005406Y035450D01*
X005406Y035229D02*
X004942Y035229D01*
X004942Y035394D02*
X005406Y035394D01*
D21*
X026174Y034383D03*
X026174Y032383D03*
D22*
X021906Y032265D02*
X021410Y032265D01*
X021906Y032265D02*
X021906Y032183D01*
X021410Y032183D01*
X021410Y032265D01*
X021410Y032239D02*
X021906Y032239D01*
X021906Y032068D02*
X021410Y032068D01*
X021906Y032068D02*
X021906Y031986D01*
X021410Y031986D01*
X021410Y032068D01*
X021410Y032042D02*
X021906Y032042D01*
X021906Y031871D02*
X021410Y031871D01*
X021906Y031871D02*
X021906Y031789D01*
X021410Y031789D01*
X021410Y031871D01*
X021410Y031845D02*
X021906Y031845D01*
X021906Y031674D02*
X021410Y031674D01*
X021906Y031674D02*
X021906Y031592D01*
X021410Y031592D01*
X021410Y031674D01*
X021410Y031648D02*
X021906Y031648D01*
X021906Y031477D02*
X021410Y031477D01*
X021906Y031477D02*
X021906Y031395D01*
X021410Y031395D01*
X021410Y031477D01*
X021410Y031451D02*
X021906Y031451D01*
X021906Y031281D02*
X021410Y031281D01*
X021906Y031281D02*
X021906Y031199D01*
X021410Y031199D01*
X021410Y031281D01*
X021410Y031255D02*
X021906Y031255D01*
X021906Y031084D02*
X021410Y031084D01*
X021906Y031084D02*
X021906Y031002D01*
X021410Y031002D01*
X021410Y031084D01*
X021410Y031058D02*
X021906Y031058D01*
X021305Y030897D02*
X021305Y030401D01*
X021223Y030401D01*
X021223Y030897D01*
X021305Y030897D01*
X021305Y030457D02*
X021223Y030457D01*
X021223Y030513D02*
X021305Y030513D01*
X021305Y030569D02*
X021223Y030569D01*
X021223Y030625D02*
X021305Y030625D01*
X021305Y030681D02*
X021223Y030681D01*
X021223Y030737D02*
X021305Y030737D01*
X021305Y030793D02*
X021223Y030793D01*
X021223Y030849D02*
X021305Y030849D01*
X021109Y030897D02*
X021109Y030401D01*
X021027Y030401D01*
X021027Y030897D01*
X021109Y030897D01*
X021109Y030457D02*
X021027Y030457D01*
X021027Y030513D02*
X021109Y030513D01*
X021109Y030569D02*
X021027Y030569D01*
X021027Y030625D02*
X021109Y030625D01*
X021109Y030681D02*
X021027Y030681D01*
X021027Y030737D02*
X021109Y030737D01*
X021109Y030793D02*
X021027Y030793D01*
X021027Y030849D02*
X021109Y030849D01*
X020912Y030897D02*
X020912Y030401D01*
X020830Y030401D01*
X020830Y030897D01*
X020912Y030897D01*
X020912Y030457D02*
X020830Y030457D01*
X020830Y030513D02*
X020912Y030513D01*
X020912Y030569D02*
X020830Y030569D01*
X020830Y030625D02*
X020912Y030625D01*
X020912Y030681D02*
X020830Y030681D01*
X020830Y030737D02*
X020912Y030737D01*
X020912Y030793D02*
X020830Y030793D01*
X020830Y030849D02*
X020912Y030849D01*
X020715Y030897D02*
X020715Y030401D01*
X020633Y030401D01*
X020633Y030897D01*
X020715Y030897D01*
X020715Y030457D02*
X020633Y030457D01*
X020633Y030513D02*
X020715Y030513D01*
X020715Y030569D02*
X020633Y030569D01*
X020633Y030625D02*
X020715Y030625D01*
X020715Y030681D02*
X020633Y030681D01*
X020633Y030737D02*
X020715Y030737D01*
X020715Y030793D02*
X020633Y030793D01*
X020633Y030849D02*
X020715Y030849D01*
X020518Y030897D02*
X020518Y030401D01*
X020436Y030401D01*
X020436Y030897D01*
X020518Y030897D01*
X020518Y030457D02*
X020436Y030457D01*
X020436Y030513D02*
X020518Y030513D01*
X020518Y030569D02*
X020436Y030569D01*
X020436Y030625D02*
X020518Y030625D01*
X020518Y030681D02*
X020436Y030681D01*
X020436Y030737D02*
X020518Y030737D01*
X020518Y030793D02*
X020436Y030793D01*
X020436Y030849D02*
X020518Y030849D01*
X020321Y030897D02*
X020321Y030401D01*
X020239Y030401D01*
X020239Y030897D01*
X020321Y030897D01*
X020321Y030457D02*
X020239Y030457D01*
X020239Y030513D02*
X020321Y030513D01*
X020321Y030569D02*
X020239Y030569D01*
X020239Y030625D02*
X020321Y030625D01*
X020321Y030681D02*
X020239Y030681D01*
X020239Y030737D02*
X020321Y030737D01*
X020321Y030793D02*
X020239Y030793D01*
X020239Y030849D02*
X020321Y030849D01*
X020124Y030897D02*
X020124Y030401D01*
X020042Y030401D01*
X020042Y030897D01*
X020124Y030897D01*
X020124Y030457D02*
X020042Y030457D01*
X020042Y030513D02*
X020124Y030513D01*
X020124Y030569D02*
X020042Y030569D01*
X020042Y030625D02*
X020124Y030625D01*
X020124Y030681D02*
X020042Y030681D01*
X020042Y030737D02*
X020124Y030737D01*
X020124Y030793D02*
X020042Y030793D01*
X020042Y030849D02*
X020124Y030849D01*
X019938Y031002D02*
X019442Y031002D01*
X019442Y031084D01*
X019938Y031084D01*
X019938Y031002D01*
X019938Y031058D02*
X019442Y031058D01*
X019442Y031199D02*
X019938Y031199D01*
X019442Y031199D02*
X019442Y031281D01*
X019938Y031281D01*
X019938Y031199D01*
X019938Y031255D02*
X019442Y031255D01*
X019442Y031395D02*
X019938Y031395D01*
X019442Y031395D02*
X019442Y031477D01*
X019938Y031477D01*
X019938Y031395D01*
X019938Y031451D02*
X019442Y031451D01*
X019442Y031592D02*
X019938Y031592D01*
X019442Y031592D02*
X019442Y031674D01*
X019938Y031674D01*
X019938Y031592D01*
X019938Y031648D02*
X019442Y031648D01*
X019442Y031789D02*
X019938Y031789D01*
X019442Y031789D02*
X019442Y031871D01*
X019938Y031871D01*
X019938Y031789D01*
X019938Y031845D02*
X019442Y031845D01*
X019442Y031986D02*
X019938Y031986D01*
X019442Y031986D02*
X019442Y032068D01*
X019938Y032068D01*
X019938Y031986D01*
X019938Y032042D02*
X019442Y032042D01*
X019442Y032183D02*
X019938Y032183D01*
X019442Y032183D02*
X019442Y032265D01*
X019938Y032265D01*
X019938Y032183D01*
X019938Y032239D02*
X019442Y032239D01*
X020042Y032370D02*
X020042Y032866D01*
X020124Y032866D01*
X020124Y032370D01*
X020042Y032370D01*
X020042Y032426D02*
X020124Y032426D01*
X020124Y032482D02*
X020042Y032482D01*
X020042Y032538D02*
X020124Y032538D01*
X020124Y032594D02*
X020042Y032594D01*
X020042Y032650D02*
X020124Y032650D01*
X020124Y032706D02*
X020042Y032706D01*
X020042Y032762D02*
X020124Y032762D01*
X020124Y032818D02*
X020042Y032818D01*
X020239Y032866D02*
X020239Y032370D01*
X020239Y032866D02*
X020321Y032866D01*
X020321Y032370D01*
X020239Y032370D01*
X020239Y032426D02*
X020321Y032426D01*
X020321Y032482D02*
X020239Y032482D01*
X020239Y032538D02*
X020321Y032538D01*
X020321Y032594D02*
X020239Y032594D01*
X020239Y032650D02*
X020321Y032650D01*
X020321Y032706D02*
X020239Y032706D01*
X020239Y032762D02*
X020321Y032762D01*
X020321Y032818D02*
X020239Y032818D01*
X020436Y032866D02*
X020436Y032370D01*
X020436Y032866D02*
X020518Y032866D01*
X020518Y032370D01*
X020436Y032370D01*
X020436Y032426D02*
X020518Y032426D01*
X020518Y032482D02*
X020436Y032482D01*
X020436Y032538D02*
X020518Y032538D01*
X020518Y032594D02*
X020436Y032594D01*
X020436Y032650D02*
X020518Y032650D01*
X020518Y032706D02*
X020436Y032706D01*
X020436Y032762D02*
X020518Y032762D01*
X020518Y032818D02*
X020436Y032818D01*
X020633Y032866D02*
X020633Y032370D01*
X020633Y032866D02*
X020715Y032866D01*
X020715Y032370D01*
X020633Y032370D01*
X020633Y032426D02*
X020715Y032426D01*
X020715Y032482D02*
X020633Y032482D01*
X020633Y032538D02*
X020715Y032538D01*
X020715Y032594D02*
X020633Y032594D01*
X020633Y032650D02*
X020715Y032650D01*
X020715Y032706D02*
X020633Y032706D01*
X020633Y032762D02*
X020715Y032762D01*
X020715Y032818D02*
X020633Y032818D01*
X020830Y032866D02*
X020830Y032370D01*
X020830Y032866D02*
X020912Y032866D01*
X020912Y032370D01*
X020830Y032370D01*
X020830Y032426D02*
X020912Y032426D01*
X020912Y032482D02*
X020830Y032482D01*
X020830Y032538D02*
X020912Y032538D01*
X020912Y032594D02*
X020830Y032594D01*
X020830Y032650D02*
X020912Y032650D01*
X020912Y032706D02*
X020830Y032706D01*
X020830Y032762D02*
X020912Y032762D01*
X020912Y032818D02*
X020830Y032818D01*
X021027Y032866D02*
X021027Y032370D01*
X021027Y032866D02*
X021109Y032866D01*
X021109Y032370D01*
X021027Y032370D01*
X021027Y032426D02*
X021109Y032426D01*
X021109Y032482D02*
X021027Y032482D01*
X021027Y032538D02*
X021109Y032538D01*
X021109Y032594D02*
X021027Y032594D01*
X021027Y032650D02*
X021109Y032650D01*
X021109Y032706D02*
X021027Y032706D01*
X021027Y032762D02*
X021109Y032762D01*
X021109Y032818D02*
X021027Y032818D01*
X021223Y032866D02*
X021223Y032370D01*
X021223Y032866D02*
X021305Y032866D01*
X021305Y032370D01*
X021223Y032370D01*
X021223Y032426D02*
X021305Y032426D01*
X021305Y032482D02*
X021223Y032482D01*
X021223Y032538D02*
X021305Y032538D01*
X021305Y032594D02*
X021223Y032594D01*
X021223Y032650D02*
X021305Y032650D01*
X021305Y032706D02*
X021223Y032706D01*
X021223Y032762D02*
X021305Y032762D01*
X021305Y032818D02*
X021223Y032818D01*
D23*
X020219Y032088D02*
X020219Y031178D01*
X020219Y032088D02*
X021129Y032088D01*
X021129Y031178D01*
X020219Y031178D01*
X020219Y031606D02*
X021129Y031606D01*
X021129Y032034D02*
X020219Y032034D01*
D24*
X026152Y018079D03*
X028685Y018079D03*
X034162Y018063D03*
X036696Y018063D03*
D25*
X025799Y020883D03*
X025549Y020383D03*
X026174Y030883D03*
X024111Y033008D03*
X024111Y033508D03*
X023236Y033508D03*
X023236Y033008D03*
X023236Y034008D03*
X022736Y034008D03*
X019861Y034008D03*
X019611Y033602D03*
X019361Y034008D03*
X025861Y033383D03*
X026486Y033383D03*
D26*
X021018Y031977D03*
X021018Y031290D03*
X020330Y031290D03*
X020330Y031977D03*
X020049Y024133D03*
X020049Y023383D03*
X020049Y022633D03*
X020799Y022633D03*
X021549Y022633D03*
X021549Y023383D03*
X020799Y023383D03*
X020799Y024133D03*
X021549Y024133D03*
M02*
